<svg width="306" height="306" xmlns="http://www.w3.org/2000/svg" xmlns:xlink="http://www.w3.org/1999/xlink" overflow="hidden"><defs><clipPath id="clip0"><rect x="0" y="0" width="306" height="306"/></clipPath></defs><g clip-path="url(#clip0)"><rect x="0" y="0" width="306" height="306" fill="#FFFFFF"/><path d="M71.0001 96.5C71.0001 100.09 68.0898 103 64.5 103 60.9101 103 58 100.09 58 96.5 58 92.9101 60.9101 90 64.5 90 68.0898 90 71.0001 92.9101 71.0001 96.5Z" fill-rule="evenodd"/><path d="M95.0001 96.5C95.0001 100.09 92.0899 103 88.5 103 84.9101 103 82 100.09 82 96.5 82 92.9101 84.9101 90 88.5 90 92.0899 90 95.0001 92.9101 95.0001 96.5Z" fill-rule="evenodd"/><path d="M251.5 30.5 153.5 128.5" stroke="#000000" stroke-width="8.82784" stroke-linecap="round" stroke-linejoin="round" stroke-miterlimit="10" fill="none" fill-rule="evenodd"/><path d="M300.5 55.5 251.5 104.5" stroke="#000000" stroke-width="8.82784" stroke-linecap="round" stroke-linejoin="round" stroke-miterlimit="10" fill="none" fill-rule="evenodd"/><path d="M300.5 30.5 251.5 79.5001" stroke="#000000" stroke-width="8.82784" stroke-linecap="round" stroke-linejoin="round" stroke-miterlimit="10" fill="none" fill-rule="evenodd"/><path d="M129.5 30.5 80.5 79.5001" stroke="#000000" stroke-width="8.82784" stroke-linecap="round" stroke-linejoin="round" stroke-miterlimit="10" fill="none" fill-rule="evenodd"/><path d="M153.5 30.5 104.5 79.5001" stroke="#000000" stroke-width="8.82784" stroke-linecap="round" stroke-linejoin="round" stroke-miterlimit="10" fill="none" fill-rule="evenodd"/><path d="M104.5 30.5 6.49998 128.9 55.5 128.9 55.5 178.1C55.5 232.22 99.6 276.5 153.5 276.5 207.4 276.5 251.5 232.22 251.5 178.1L251.5 128.9 300.5 79.7001" stroke="#000000" stroke-width="8.82784" stroke-linecap="round" stroke-linejoin="round" stroke-miterlimit="10" fill="none" fill-rule="evenodd"/></g></svg>