<svg width="1890" height="1890" xmlns="http://www.w3.org/2000/svg" xmlns:xlink="http://www.w3.org/1999/xlink" xml:space="preserve" overflow="hidden"><defs><clipPath id="clip0"><rect x="537" y="260" width="1890" height="1889"/></clipPath></defs><g clip-path="url(#clip0)" transform="translate(-537 -260)"><path d="M1837.93 1692.64 2321.69 1692.64 2295.23 1750.95C2203.18 1938.28 2065.31 2085.19 1889.28 2132.58L1837.93 2142.36ZM1215.16 1692.64 1755.41 1692.64 1755.41 2148.45 1747.9 2148.46C1698.4 2146.69 1646.56 2137.53 1592.51 2120.01 1474.73 2081.84 1474.17 2081.2 1363.34 2119.69 1319.07 2135.07 1276.22 2144.32 1234.88 2148.07L1215.16 2149ZM645.172 1692.64 1132.64 1692.64 1132.64 2145.61 1115.5 2143.4C920.397 2109.47 767.041 1948.24 667.385 1742.2ZM1837.93 1060.49 2421.29 1060.49 2425.53 1109.45C2432.63 1253.87 2413.84 1408.1 2371.72 1552.34L2353.13 1610.13 1837.93 1610.13ZM1215.16 1060.49 1755.41 1060.49 1755.41 1610.13 1215.16 1610.13ZM542.756 1060.49 1132.64 1060.49 1132.64 1610.13 612.93 1610.13 592.516 1546.88C545.235 1386.21 527.036 1215.34 542.245 1064.11ZM916.708 609.799C967.516 608.745 1023.78 617.015 1085.72 636.078L1132.64 652.215 1132.64 977.974 555.492 977.974 568.75 920.54C619.364 740.787 731.933 613.635 916.708 609.799ZM1755.41 543.037 1755.41 977.974 1215.16 977.974 1215.16 688.415 1234.75 697.807C1270.04 715.849 1306.78 736.864 1345.01 761.038 1474.85 667.935 1591.93 603.37 1696.79 562.911ZM1975.36 509.418C2215.57 519.258 2353.61 701.971 2404.42 942.111L2410.42 977.974 1837.93 977.974 1837.93 521.45 1845.01 519.748C1891.42 511.016 1934.84 507.758 1975.36 509.418Z" fill="#1F8A3F" fill-rule="evenodd"/><path d="M298.734 418 24.7442 418C17.0772 418 10.7771 415.964 5.84419 411.893 0.164297 407.369-1.37575 401.262 1.22485 393.572 4.60031 383.619 103.851 252.429 298.977 0 327.708 251.976 340.157 383.619 336.323 394.929 331.108 410.31 318.579 418 298.734 418Z" fill="#198038" fill-rule="evenodd" transform="matrix(1 0 0 -1 1023 678)"/><path d="M1924 1148 2144.67 1148 2144.67 1195.66 2110.28 1195.66C2104.55 1196.43 2099.68 1197.38 2095.66 1198.53 2091.65 1199.68 2088.5 1201.21 2086.21 1203.12 2083.91 1205.04 2082.2 1207.72 2081.05 1211.16 2079.9 1214.61 2079.33 1218.82 2079.33 1223.8L2079.33 1481.62 2158.43 1481.62C2178.68 1482.38 2194.82 1479.9 2206.86 1474.15 2218.9 1468.41 2227.21 1459.8 2231.79 1448.31 2236 1436.83 2239.24 1424 2241.54 1409.84 2243.83 1395.68 2245.17 1380.36 2245.55 1363.9L2300 1362.76 2300 1531 1924 1531 1924 1483.91 1953.8 1483.91C1954.57 1484.3 1955.33 1484.49 1956.1 1484.49 1956.86 1484.49 1957.43 1484.49 1957.82 1484.49 1962.4 1484.49 1966.41 1484.01 1969.85 1483.05 1973.29 1482.1 1975.97 1480.66 1977.88 1478.75 1980.17 1476.83 1981.89 1474.15 1983.04 1470.71 1984.18 1467.26 1984.76 1463.05 1984.76 1458.07L1984.76 1222.65C1984.76 1218.44 1984.18 1214.61 1983.04 1211.16 1981.89 1207.72 1980.17 1205.04 1977.88 1203.12 1975.59 1201.21 1972.43 1199.68 1968.42 1198.53 1964.41 1197.38 1959.54 1196.81 1953.8 1196.81L1924 1195.66Z" fill="#DEFBE6" fill-rule="evenodd"/><path d="M1452.49 1197.38 1452.49 1313.95 1500.11 1313.95C1500.88 1314.33 1501.74 1314.52 1502.7 1314.52 1503.65 1314.52 1504.32 1314.52 1504.7 1314.52 1517.71 1314.52 1528.99 1313.37 1538.56 1311.08 1548.12 1308.78 1556.15 1305.53 1562.66 1301.31 1569.16 1296.72 1574.13 1290.69 1577.57 1283.23 1581.02 1275.76 1582.74 1267.05 1582.74 1257.1 1582.74 1246.38 1581.02 1237.29 1577.57 1229.83 1574.13 1222.36 1569.16 1216.33 1562.66 1211.74 1556.15 1207.53 1547.26 1204.27 1535.98 1201.98 1524.69 1199.68 1511.02 1198.53 1494.95 1198.53ZM1297 1148 1549.46 1148C1571.26 1148.77 1590.39 1151.54 1606.84 1156.33 1623.28 1161.11 1637.05 1168.1 1648.15 1177.28 1659.24 1186.47 1667.66 1197.77 1673.39 1211.16 1679.13 1224.56 1682 1240.26 1682 1258.25 1682 1275.86 1679.04 1291.36 1673.11 1304.76 1667.18 1318.16 1658.28 1329.26 1646.43 1338.06 1634.57 1346.87 1619.55 1353.47 1601.39 1357.88 1583.22 1362.28 1562.08 1364.48 1537.98 1364.48L1452.49 1363.33 1452.49 1456.93C1452.49 1462.29 1453.07 1466.78 1454.21 1470.42 1455.36 1474.06 1457.08 1476.83 1459.38 1478.75 1461.67 1480.66 1464.83 1482.1 1468.84 1483.05 1472.86 1484.01 1477.74 1484.49 1483.48 1484.49L1519.62 1483.34 1519.62 1531 1297 1531 1297 1483.91 1326.84 1483.91C1327.6 1484.3 1328.37 1484.49 1329.13 1484.49 1329.9 1484.49 1330.47 1484.49 1330.85 1484.49 1335.44 1484.49 1339.46 1484.01 1342.9 1483.05 1346.34 1482.1 1349.02 1480.66 1350.93 1478.75 1353.23 1476.83 1354.95 1474.15 1356.1 1470.71 1357.25 1467.26 1357.82 1463.05 1357.82 1458.07L1357.82 1222.65C1357.82 1218.44 1357.25 1214.61 1356.1 1211.16 1354.95 1207.72 1353.23 1205.04 1350.93 1203.12 1348.64 1201.21 1345.48 1199.68 1341.47 1198.53 1337.45 1197.38 1332.57 1196.81 1326.84 1196.81L1297 1195.66Z" fill="#DEFBE6" fill-rule="evenodd"/><path d="M838.69 1234.71 789.923 1361.03 892.621 1361.03ZM814.594 1148 901.801 1148 1021.14 1423.05C1021.9 1424.96 1022.48 1426.59 1022.86 1427.93 1023.24 1429.27 1023.81 1430.51 1024.58 1431.66 1024.96 1433.19 1025.44 1434.53 1026.01 1435.68 1026.59 1436.83 1027.06 1437.98 1027.45 1439.13 1028.21 1440.27 1028.79 1441.42 1029.17 1442.57 1029.55 1443.72 1030.12 1444.87 1030.89 1446.02 1031.27 1447.17 1031.75 1448.22 1032.32 1449.17 1032.9 1450.13 1033.38 1450.99 1033.76 1451.76 1036.82 1457.5 1040.17 1462.48 1043.8 1466.69 1047.43 1470.9 1051.16 1474.15 1054.99 1476.45 1059.19 1479.13 1064.45 1481.04 1070.76 1482.19 1077.08 1483.34 1084.82 1483.91 1094 1483.91L1094 1531 881.72 1531 881.72 1482.77 901.801 1482.77C902.566 1483.15 903.139 1483.34 903.522 1483.34 903.904 1483.34 904.478 1483.34 905.243 1483.34 905.625 1483.34 906.104 1483.34 906.677 1483.34 907.251 1483.34 907.729 1483.34 908.112 1483.34 912.319 1483.34 915.953 1483.05 919.013 1482.48 922.073 1481.9 924.75 1481.24 927.045 1480.47 929.722 1479.32 931.73 1477.79 933.069 1475.88 934.408 1473.96 935.077 1471.66 935.077 1468.98 935.077 1467.07 934.886 1465.06 934.503 1462.96 934.121 1460.85 933.547 1458.46 932.782 1455.78 932.017 1453.48 931.156 1451.09 930.2 1448.6 929.244 1446.11 928.383 1443.53 927.618 1440.85 927.236 1440.08 926.853 1439.32 926.471 1438.55 926.088 1437.79 925.706 1437.02 925.323 1436.26 924.941 1435.49 924.559 1434.72 924.176 1433.96 923.794 1433.19 923.411 1432.24 923.029 1431.09 922.264 1429.17 921.499 1427.35 920.734 1425.63 919.969 1423.91 919.204 1422.28 918.439 1420.75 917.674 1418.84 917.005 1417.21 916.431 1415.87 915.857 1414.53 915.188 1413.1 914.423 1411.56L914.423 1410.42 771.564 1410.42C771.181 1411.56 770.799 1412.52 770.416 1413.29 770.034 1414.05 769.843 1414.82 769.843 1415.58 769.46 1416.73 769.078 1417.69 768.695 1418.45 768.313 1419.22 767.93 1419.99 767.548 1420.75 767.165 1422.28 766.687 1423.81 766.114 1425.34 765.54 1426.88 764.871 1428.41 764.106 1429.94 763.723 1431.09 763.245 1432.24 762.671 1433.38 762.097 1434.53 761.619 1435.68 761.237 1436.83 760.854 1437.21 760.568 1437.69 760.376 1438.26 760.185 1438.84 760.089 1439.32 760.089 1439.7 759.707 1440.47 759.42 1441.04 759.229 1441.42 759.038 1441.81 758.942 1442.38 758.942 1443.15 757.794 1445.44 756.934 1447.74 756.36 1450.04 755.786 1452.33 755.117 1454.63 754.352 1456.93 753.97 1459.22 753.587 1461.52 753.205 1463.82 752.822 1466.11 752.631 1468.22 752.631 1470.13 752.631 1472.81 753.109 1475.21 754.065 1477.31 755.021 1479.42 756.647 1480.85 758.942 1481.62 760.854 1482.38 764.01 1482.96 768.409 1483.34 772.807 1483.72 778.257 1483.91 784.76 1483.91L801.398 1482.77 801.398 1531 631 1531 631 1482.77C631.383 1483.15 631.861 1483.34 632.435 1483.34 633.008 1483.34 633.486 1483.34 633.869 1483.34 634.251 1483.34 634.729 1483.34 635.303 1483.34 635.877 1483.34 636.355 1483.34 636.737 1483.34 642.857 1483.34 648.499 1482.96 653.663 1482.19 658.826 1481.43 663.32 1480.28 667.145 1478.75 671.353 1476.83 675.368 1473.58 679.194 1468.98 683.018 1464.39 686.652 1458.46 690.094 1451.18 690.859 1449.27 691.624 1447.45 692.389 1445.73 693.154 1444.01 693.919 1442.38 694.684 1440.85 695.066 1440.08 695.449 1439.32 695.831 1438.55 696.214 1437.79 696.596 1436.83 696.979 1435.68 697.362 1434.92 697.744 1434.15 698.127 1433.38 698.509 1432.62 698.892 1431.85 699.274 1431.09 699.274 1430.7 699.274 1430.42 699.274 1430.23 699.274 1430.03 699.465 1429.75 699.848 1429.36 699.848 1429.36 699.943 1429.27 700.134 1429.08 700.326 1428.89 700.422 1428.6 700.422 1428.22 700.422 1427.83 700.517 1427.45 700.708 1427.07 700.899 1426.68 701.187 1426.3 701.569 1425.92 702.334 1424.77 702.908 1423.72 703.29 1422.76 703.673 1421.8 704.246 1420.75 705.011 1419.6 705.394 1418.84 705.872 1417.88 706.446 1416.73 707.019 1415.58 707.497 1414.43 707.88 1413.29 709.027 1411.37 710.079 1409.27 711.035 1406.97 711.992 1404.67 712.852 1402.38 713.617 1400.08Z" fill="#DEFBE6" fill-rule="evenodd"/></g></svg>