<svg id="svg" version="1.1" xmlns="http://www.w3.org/2000/svg" xmlns:xlink="http://www.w3.org/1999/xlink" width="400" height="400" viewBox="0, 0, 400,400"><g id="svgg"><path id="path0" d="M175.432 0.373 C 172.463 0.527,171.012 0.760,170.899 1.100 C 170.789 1.431,169.865 1.600,168.167 1.600 C 166.722 1.600,165.600 1.775,165.600 2.000 C 165.600 2.229,164.396 2.400,162.787 2.400 C 160.656 2.400,159.919 2.545,159.745 3.000 C 159.580 3.430,158.908 3.600,157.381 3.600 C 156.207 3.600,155.136 3.780,155.000 4.000 C 154.864 4.220,153.858 4.400,152.764 4.400 C 151.365 4.400,150.707 4.578,150.545 5.000 C 150.395 5.389,149.775 5.600,148.781 5.600 C 147.937 5.600,147.136 5.780,147.000 6.000 C 146.864 6.220,146.043 6.400,145.176 6.400 C 144.042 6.400,143.600 6.568,143.600 7.000 C 143.600 7.443,143.136 7.600,141.824 7.600 C 140.847 7.600,139.936 7.780,139.800 8.000 C 139.664 8.220,139.045 8.400,138.425 8.400 C 137.805 8.400,137.074 8.670,136.800 9.000 C 136.526 9.330,135.694 9.600,134.951 9.600 C 134.208 9.600,133.600 9.780,133.600 10.000 C 133.600 10.220,133.172 10.400,132.649 10.400 C 132.126 10.400,131.474 10.670,131.200 11.000 C 130.926 11.330,130.184 11.600,129.551 11.600 C 128.918 11.600,128.400 11.780,128.400 12.000 C 128.400 12.220,127.854 12.400,127.187 12.400 C 126.479 12.400,125.879 12.649,125.745 13.000 C 125.618 13.330,125.084 13.600,124.557 13.600 C 124.031 13.600,123.600 13.780,123.600 14.000 C 123.600 14.220,123.163 14.400,122.629 14.400 C 122.094 14.400,121.387 14.670,121.057 15.000 C 120.727 15.330,119.994 15.600,119.429 15.600 C 118.863 15.600,118.400 15.780,118.400 16.000 C 118.400 16.220,118.034 16.400,117.587 16.400 C 117.141 16.400,116.671 16.670,116.545 17.000 C 116.418 17.330,115.881 17.600,115.352 17.600 C 114.278 17.600,112.768 18.337,112.280 19.100 C 112.104 19.375,111.564 19.613,111.080 19.629 C 110.596 19.645,109.660 20.007,109.000 20.434 C 108.340 20.860,107.485 21.318,107.100 21.451 C 106.715 21.584,106.400 21.852,106.400 22.047 C 106.400 22.241,105.950 22.400,105.400 22.400 C 104.778 22.400,104.400 22.627,104.400 23.000 C 104.400 23.373,104.022 23.600,103.400 23.600 C 102.850 23.600,102.400 23.780,102.400 24.000 C 102.400 24.220,102.034 24.400,101.587 24.400 C 101.141 24.400,100.671 24.670,100.545 25.000 C 100.418 25.330,99.974 25.600,99.557 25.600 C 99.141 25.600,98.800 25.780,98.800 26.000 C 98.800 26.220,98.549 26.400,98.243 26.400 C 97.936 26.400,97.582 26.670,97.455 27.000 C 97.329 27.330,96.859 27.600,96.413 27.600 C 95.966 27.600,95.600 27.780,95.600 28.000 C 95.600 28.220,95.234 28.400,94.787 28.400 C 94.341 28.400,93.871 28.670,93.745 29.000 C 93.618 29.330,93.264 29.600,92.957 29.600 C 92.651 29.600,92.400 29.780,92.400 30.000 C 92.400 30.220,92.034 30.400,91.587 30.400 C 91.141 30.400,90.683 30.639,90.571 30.932 C 90.459 31.224,89.744 31.708,88.983 32.007 C 88.223 32.305,87.600 32.786,87.600 33.075 C 87.600 33.364,87.330 33.600,87.000 33.600 C 86.670 33.600,86.400 33.780,86.400 34.000 C 86.400 34.220,86.065 34.400,85.656 34.400 C 85.247 34.400,84.574 34.850,84.161 35.400 C 83.748 35.950,83.087 36.400,82.693 36.400 C 82.298 36.400,81.871 36.670,81.745 37.000 C 81.618 37.330,81.341 37.600,81.129 37.600 C 80.610 37.600,79.600 38.638,79.600 39.171 C 79.600 39.407,79.216 39.600,78.747 39.600 C 78.278 39.600,77.326 40.202,76.632 40.938 C 75.938 41.674,75.197 42.349,74.985 42.438 C 73.824 42.926,71.609 44.670,71.605 45.100 C 71.602 45.375,71.407 45.600,71.171 45.600 C 70.665 45.600,69.600 46.599,69.600 47.074 C 69.600 47.256,69.066 47.641,68.412 47.930 C 67.759 48.220,65.856 49.794,64.184 51.428 C 62.512 53.063,60.977 54.400,60.772 54.400 C 60.567 54.400,60.400 54.593,60.400 54.829 C 60.400 55.382,59.382 56.400,58.829 56.400 C 58.593 56.400,58.400 56.593,58.400 56.829 C 58.400 57.382,57.382 58.400,56.829 58.400 C 56.593 58.400,56.400 58.593,56.400 58.829 C 56.400 59.382,55.382 60.400,54.829 60.400 C 54.593 60.400,54.400 60.567,54.400 60.772 C 54.400 60.977,53.063 62.512,51.428 64.184 C 49.794 65.856,48.220 67.759,47.930 68.412 C 47.641 69.066,47.256 69.600,47.074 69.600 C 46.599 69.600,45.600 70.665,45.600 71.171 C 45.600 71.407,45.375 71.602,45.100 71.605 C 44.670 71.609,42.926 73.824,42.438 74.985 C 42.349 75.197,41.674 75.938,40.938 76.632 C 40.202 77.326,39.600 78.278,39.600 78.747 C 39.600 79.216,39.407 79.600,39.171 79.600 C 38.618 79.600,37.600 80.618,37.600 81.171 C 37.600 81.407,37.423 81.600,37.208 81.600 C 36.992 81.600,36.711 82.015,36.584 82.523 C 36.456 83.031,35.913 83.776,35.376 84.179 C 34.839 84.582,34.400 85.247,34.400 85.656 C 34.400 86.065,34.220 86.400,34.000 86.400 C 33.780 86.400,33.600 86.670,33.600 87.000 C 33.600 87.330,33.330 87.600,33.000 87.600 C 32.643 87.600,32.400 87.967,32.400 88.505 C 32.400 89.004,31.951 89.747,31.400 90.161 C 30.850 90.574,30.400 91.247,30.400 91.656 C 30.400 92.065,30.220 92.400,30.000 92.400 C 29.780 92.400,29.600 92.651,29.600 92.957 C 29.600 93.264,29.330 93.618,29.000 93.745 C 28.670 93.871,28.400 94.341,28.400 94.787 C 28.400 95.234,28.220 95.600,28.000 95.600 C 27.780 95.600,27.600 96.050,27.600 96.600 C 27.600 97.222,27.373 97.600,27.000 97.600 C 26.670 97.600,26.400 97.870,26.400 98.200 C 26.400 98.530,26.220 98.800,26.000 98.800 C 25.780 98.800,25.600 99.141,25.600 99.557 C 25.600 99.974,25.330 100.418,25.000 100.545 C 24.670 100.671,24.400 101.141,24.400 101.587 C 24.400 102.034,24.220 102.400,24.000 102.400 C 23.780 102.400,23.600 102.850,23.600 103.400 C 23.600 104.022,23.373 104.400,23.000 104.400 C 22.627 104.400,22.400 104.778,22.400 105.400 C 22.400 105.950,22.220 106.400,22.000 106.400 C 21.780 106.400,21.600 106.766,21.600 107.213 C 21.600 107.659,21.330 108.129,21.000 108.255 C 20.670 108.382,20.400 108.916,20.400 109.443 C 20.400 109.969,20.220 110.400,20.000 110.400 C 19.780 110.400,19.600 110.766,19.600 111.213 C 19.600 111.659,19.330 112.129,19.000 112.255 C 18.670 112.382,18.400 112.916,18.400 113.443 C 18.400 113.969,18.220 114.400,18.000 114.400 C 17.780 114.400,17.600 114.831,17.600 115.357 C 17.600 115.884,17.330 116.418,17.000 116.545 C 16.670 116.671,16.400 117.141,16.400 117.587 C 16.400 118.034,16.220 118.400,16.000 118.400 C 15.780 118.400,15.600 118.828,15.600 119.351 C 15.600 119.874,15.330 120.526,15.000 120.800 C 14.670 121.074,14.400 121.816,14.400 122.449 C 14.400 123.082,14.220 123.600,14.000 123.600 C 13.780 123.600,13.600 124.031,13.600 124.557 C 13.600 125.084,13.330 125.618,13.000 125.745 C 12.649 125.879,12.400 126.479,12.400 127.187 C 12.400 127.854,12.220 128.400,12.000 128.400 C 11.780 128.400,11.600 128.863,11.600 129.429 C 11.600 129.994,11.330 130.727,11.000 131.057 C 10.670 131.387,10.400 132.084,10.400 132.605 C 10.400 133.126,10.220 133.664,10.000 133.800 C 9.780 133.936,9.600 134.589,9.600 135.252 C 9.600 135.915,9.330 136.727,9.000 137.057 C 8.670 137.387,8.400 138.084,8.400 138.605 C 8.400 139.126,8.220 139.664,8.000 139.800 C 7.780 139.936,7.600 140.847,7.600 141.824 C 7.600 143.136,7.443 143.600,7.000 143.600 C 6.568 143.600,6.400 144.042,6.400 145.176 C 6.400 146.043,6.220 146.864,6.000 147.000 C 5.780 147.136,5.600 147.937,5.600 148.781 C 5.600 149.775,5.389 150.395,5.000 150.545 C 4.578 150.707,4.400 151.365,4.400 152.764 C 4.400 153.858,4.220 154.864,4.000 155.000 C 3.780 155.136,3.600 156.207,3.600 157.381 C 3.600 158.908,3.430 159.580,3.000 159.745 C 2.559 159.914,2.400 160.609,2.400 162.364 C 2.400 163.678,2.220 164.864,2.000 165.000 C 1.780 165.136,1.600 166.612,1.600 168.280 C 1.600 170.706,1.460 171.414,0.900 171.824 C -0.184 172.616,-0.184 227.384,0.900 228.176 C 1.454 228.581,1.600 229.286,1.600 231.544 C 1.600 233.181,1.771 234.400,2.000 234.400 C 2.229 234.400,2.400 235.604,2.400 237.213 C 2.400 239.344,2.545 240.081,3.000 240.255 C 3.419 240.416,3.600 241.069,3.600 242.419 C 3.600 243.483,3.780 244.464,4.000 244.600 C 4.220 244.736,4.400 245.832,4.400 247.036 C 4.400 248.613,4.568 249.290,5.000 249.455 C 5.389 249.605,5.600 250.225,5.600 251.219 C 5.600 252.063,5.780 252.864,6.000 253.000 C 6.220 253.136,6.400 253.957,6.400 254.824 C 6.400 255.958,6.568 256.400,7.000 256.400 C 7.432 256.400,7.600 256.842,7.600 257.976 C 7.600 258.843,7.780 259.664,8.000 259.800 C 8.220 259.936,8.400 260.555,8.400 261.175 C 8.400 261.795,8.670 262.526,9.000 262.800 C 9.330 263.074,9.600 263.895,9.600 264.625 C 9.600 265.355,9.780 266.064,10.000 266.200 C 10.220 266.336,10.400 266.867,10.400 267.381 C 10.400 267.894,10.670 268.418,11.000 268.545 C 11.377 268.689,11.600 269.301,11.600 270.187 C 11.600 270.964,11.780 271.600,12.000 271.600 C 12.220 271.600,12.400 272.028,12.400 272.551 C 12.400 273.074,12.670 273.726,13.000 274.000 C 13.330 274.274,13.600 274.926,13.600 275.449 C 13.600 275.972,13.780 276.400,14.000 276.400 C 14.220 276.400,14.400 276.837,14.400 277.371 C 14.400 277.906,14.670 278.613,15.000 278.943 C 15.330 279.273,15.600 279.905,15.600 280.348 C 15.600 280.791,15.780 281.264,16.000 281.400 C 16.220 281.536,16.400 282.002,16.400 282.436 C 16.400 282.870,16.670 283.329,17.000 283.455 C 17.330 283.582,17.600 284.116,17.600 284.643 C 17.600 285.169,17.780 285.600,18.000 285.600 C 18.220 285.600,18.400 286.050,18.400 286.600 C 18.400 287.222,18.627 287.600,19.000 287.600 C 19.373 287.600,19.600 287.978,19.600 288.600 C 19.600 289.150,19.780 289.600,20.000 289.600 C 20.220 289.600,20.400 290.050,20.400 290.600 C 20.400 291.222,20.627 291.600,21.000 291.600 C 21.373 291.600,21.600 291.978,21.600 292.600 C 21.600 293.150,21.780 293.600,22.000 293.600 C 22.220 293.600,22.400 294.050,22.400 294.600 C 22.400 295.222,22.627 295.600,23.000 295.600 C 23.373 295.600,23.600 295.978,23.600 296.600 C 23.600 297.150,23.780 297.600,24.000 297.600 C 24.220 297.600,24.400 297.966,24.400 298.413 C 24.400 298.859,24.639 299.317,24.932 299.429 C 25.224 299.541,25.708 300.256,26.007 301.017 C 26.305 301.777,26.786 302.400,27.075 302.400 C 27.368 302.400,27.600 302.841,27.600 303.400 C 27.600 303.950,27.737 304.400,27.905 304.400 C 28.211 304.400,28.933 305.585,29.429 306.900 C 29.574 307.285,29.852 307.600,30.047 307.600 C 30.241 307.600,30.400 307.935,30.400 308.344 C 30.400 308.753,30.850 309.426,31.400 309.839 C 31.951 310.253,32.400 310.996,32.400 311.495 C 32.400 312.033,32.643 312.400,33.000 312.400 C 33.330 312.400,33.600 312.670,33.600 313.000 C 33.600 313.330,33.780 313.600,34.000 313.600 C 34.220 313.600,34.400 313.827,34.400 314.104 C 34.400 314.381,34.805 315.066,35.300 315.625 C 36.272 316.724,37.043 317.847,37.480 318.800 C 37.867 319.645,38.666 320.400,39.171 320.400 C 39.407 320.400,39.600 320.745,39.600 321.166 C 39.600 321.587,40.230 322.580,41.000 323.373 C 41.770 324.166,42.400 324.991,42.400 325.207 C 42.400 325.423,42.670 325.600,43.000 325.600 C 43.330 325.600,43.606 325.915,43.613 326.300 C 43.628 327.165,44.529 328.400,45.144 328.400 C 45.395 328.400,45.600 328.593,45.600 328.829 C 45.600 329.382,46.618 330.400,47.171 330.400 C 47.407 330.400,47.600 330.593,47.600 330.829 C 47.600 331.064,47.825 331.508,48.100 331.815 C 49.193 333.033,49.600 333.577,49.600 333.819 C 49.600 333.958,51.130 335.585,53.000 337.434 C 54.870 339.283,56.400 340.977,56.400 341.198 C 56.400 341.419,56.593 341.600,56.829 341.600 C 57.382 341.600,58.400 342.618,58.400 343.171 C 58.400 343.407,58.581 343.600,58.802 343.600 C 59.023 343.600,60.717 345.130,62.566 347.000 C 64.415 348.870,66.047 350.400,66.192 350.400 C 66.338 350.400,66.708 350.625,67.015 350.900 C 68.338 352.087,68.791 352.400,69.183 352.400 C 69.412 352.400,69.600 352.593,69.600 352.829 C 69.600 353.382,70.618 354.400,71.171 354.400 C 71.407 354.400,71.600 354.670,71.600 355.000 C 71.600 355.330,71.870 355.600,72.200 355.600 C 72.530 355.600,72.800 355.780,72.800 356.000 C 72.800 356.220,73.160 356.400,73.600 356.400 C 74.044 356.400,74.400 356.667,74.400 357.000 C 74.400 357.330,74.577 357.600,74.793 357.600 C 75.009 357.600,75.834 358.230,76.627 359.000 C 77.420 359.770,78.413 360.400,78.834 360.400 C 79.255 360.400,79.600 360.593,79.600 360.829 C 79.600 361.453,81.103 362.699,82.800 363.482 C 83.130 363.634,83.848 364.173,84.396 364.679 C 84.944 365.186,85.619 365.600,85.896 365.600 C 86.173 365.600,86.400 365.780,86.400 366.000 C 86.400 366.220,86.670 366.400,87.000 366.400 C 87.330 366.400,87.600 366.670,87.600 367.000 C 87.600 367.338,87.957 367.600,88.417 367.600 C 88.867 367.600,89.720 368.050,90.313 368.600 C 90.907 369.150,91.619 369.600,91.896 369.600 C 92.173 369.600,92.400 369.737,92.400 369.905 C 92.400 370.211,93.585 370.933,94.900 371.429 C 95.285 371.574,95.600 371.852,95.600 372.047 C 95.600 372.241,96.050 372.400,96.600 372.400 C 97.150 372.400,97.600 372.628,97.600 372.906 C 97.600 373.184,98.347 373.769,99.259 374.206 C 101.903 375.471,102.400 375.770,102.400 376.095 C 102.400 376.263,102.850 376.400,103.400 376.400 C 104.022 376.400,104.400 376.627,104.400 377.000 C 104.400 377.373,104.778 377.600,105.400 377.600 C 105.950 377.600,106.400 377.780,106.400 378.000 C 106.400 378.220,106.850 378.400,107.400 378.400 C 108.022 378.400,108.400 378.627,108.400 379.000 C 108.400 379.373,108.778 379.600,109.400 379.600 C 109.950 379.600,110.400 379.780,110.400 380.000 C 110.400 380.220,110.766 380.400,111.213 380.400 C 111.659 380.400,112.129 380.670,112.255 381.000 C 112.382 381.330,112.916 381.600,113.443 381.600 C 113.969 381.600,114.400 381.780,114.400 382.000 C 114.400 382.220,114.831 382.400,115.357 382.400 C 115.884 382.400,116.418 382.670,116.545 383.000 C 116.671 383.330,117.130 383.600,117.564 383.600 C 117.998 383.600,118.464 383.780,118.600 384.000 C 118.736 384.220,119.209 384.400,119.652 384.400 C 120.095 384.400,120.727 384.670,121.057 385.000 C 121.387 385.330,122.094 385.600,122.629 385.600 C 123.163 385.600,123.600 385.780,123.600 386.000 C 123.600 386.220,124.028 386.400,124.551 386.400 C 125.074 386.400,125.726 386.670,126.000 387.000 C 126.274 387.330,126.926 387.600,127.449 387.600 C 127.972 387.600,128.400 387.780,128.400 388.000 C 128.400 388.220,128.918 388.400,129.551 388.400 C 130.184 388.400,130.926 388.670,131.200 389.000 C 131.474 389.330,132.205 389.600,132.825 389.600 C 133.445 389.600,134.064 389.780,134.200 390.000 C 134.336 390.220,134.955 390.400,135.575 390.400 C 136.195 390.400,136.926 390.670,137.200 391.000 C 137.474 391.330,138.115 391.600,138.625 391.600 C 139.135 391.600,139.664 391.780,139.800 392.000 C 139.936 392.220,140.847 392.400,141.824 392.400 C 143.136 392.400,143.600 392.557,143.600 393.000 C 143.600 393.432,144.042 393.600,145.176 393.600 C 146.043 393.600,146.864 393.780,147.000 394.000 C 147.136 394.220,147.969 394.400,148.852 394.400 C 149.745 394.400,150.723 394.666,151.057 395.000 C 151.428 395.371,152.410 395.600,153.629 395.600 C 154.713 395.600,155.600 395.780,155.600 396.000 C 155.600 396.220,156.481 396.400,157.557 396.400 C 158.928 396.400,159.583 396.580,159.745 397.000 C 159.919 397.455,160.656 397.600,162.787 397.600 C 164.396 397.600,165.600 397.771,165.600 398.000 C 165.600 398.231,166.856 398.400,168.567 398.400 C 170.585 398.400,171.587 398.560,171.700 398.900 C 172.197 400.391,227.803 400.391,228.300 398.900 C 228.413 398.560,229.415 398.400,231.433 398.400 C 233.144 398.400,234.400 398.231,234.400 398.000 C 234.400 397.771,235.604 397.600,237.213 397.600 C 239.344 397.600,240.081 397.455,240.255 397.000 C 240.417 396.580,241.072 396.400,242.443 396.400 C 243.519 396.400,244.400 396.220,244.400 396.000 C 244.400 395.780,245.287 395.600,246.371 395.600 C 247.590 395.600,248.572 395.371,248.943 395.000 C 249.277 394.666,250.255 394.400,251.148 394.400 C 252.031 394.400,252.864 394.220,253.000 394.000 C 253.136 393.780,253.872 393.600,254.636 393.600 C 255.502 393.600,256.112 393.374,256.255 393.000 C 256.411 392.594,257.047 392.400,258.219 392.400 C 259.173 392.400,260.064 392.220,260.200 392.000 C 260.336 391.780,260.887 391.600,261.424 391.600 C 262.025 391.600,262.400 391.369,262.400 391.000 C 262.400 390.568,262.842 390.400,263.976 390.400 C 264.843 390.400,265.664 390.220,265.800 390.000 C 265.936 389.780,266.555 389.600,267.175 389.600 C 267.795 389.600,268.526 389.330,268.800 389.000 C 269.074 388.670,269.816 388.400,270.449 388.400 C 271.082 388.400,271.600 388.220,271.600 388.000 C 271.600 387.780,272.028 387.600,272.551 387.600 C 273.074 387.600,273.726 387.330,274.000 387.000 C 274.274 386.670,274.926 386.400,275.449 386.400 C 275.972 386.400,276.400 386.220,276.400 386.000 C 276.400 385.780,276.837 385.600,277.371 385.600 C 277.906 385.600,278.613 385.330,278.943 385.000 C 279.273 384.670,279.905 384.400,280.348 384.400 C 280.791 384.400,281.264 384.220,281.400 384.000 C 281.536 383.780,282.002 383.600,282.436 383.600 C 282.870 383.600,283.329 383.330,283.455 383.000 C 283.582 382.670,284.116 382.400,284.643 382.400 C 285.169 382.400,285.600 382.220,285.600 382.000 C 285.600 381.780,286.031 381.600,286.557 381.600 C 287.084 381.600,287.618 381.330,287.745 381.000 C 287.871 380.670,288.341 380.400,288.787 380.400 C 289.234 380.400,289.600 380.220,289.600 380.000 C 289.600 379.780,290.050 379.600,290.600 379.600 C 291.222 379.600,291.600 379.373,291.600 379.000 C 291.600 378.627,291.978 378.400,292.600 378.400 C 293.150 378.400,293.600 378.220,293.600 378.000 C 293.600 377.780,294.050 377.600,294.600 377.600 C 295.222 377.600,295.600 377.373,295.600 377.000 C 295.600 376.627,295.978 376.400,296.600 376.400 C 297.150 376.400,297.600 376.263,297.600 376.095 C 297.600 375.770,298.097 375.471,300.741 374.206 C 301.653 373.769,302.400 373.184,302.400 372.906 C 302.400 372.628,302.850 372.400,303.400 372.400 C 303.950 372.400,304.400 372.263,304.400 372.095 C 304.400 371.789,305.585 371.067,306.900 370.571 C 307.285 370.426,307.600 370.148,307.600 369.953 C 307.600 369.759,307.827 369.600,308.104 369.600 C 308.381 369.600,309.093 369.150,309.687 368.600 C 310.280 368.050,311.133 367.600,311.583 367.600 C 312.043 367.600,312.400 367.338,312.400 367.000 C 312.400 366.670,312.670 366.400,313.000 366.400 C 313.330 366.400,313.600 366.220,313.600 366.000 C 313.600 365.780,313.827 365.600,314.104 365.600 C 314.381 365.600,315.093 365.150,315.687 364.600 C 316.280 364.050,316.934 363.600,317.140 363.600 C 317.346 363.600,317.618 363.330,317.745 363.000 C 317.871 362.670,318.263 362.400,318.616 362.400 C 319.345 362.400,320.400 361.471,320.400 360.829 C 320.400 360.593,320.745 360.400,321.166 360.400 C 321.587 360.400,322.580 359.770,323.373 359.000 C 324.166 358.230,324.991 357.600,325.207 357.600 C 325.423 357.600,325.600 357.330,325.600 357.000 C 325.600 356.667,325.956 356.400,326.400 356.400 C 326.840 356.400,327.200 356.220,327.200 356.000 C 327.200 355.780,327.470 355.600,327.800 355.600 C 328.130 355.600,328.400 355.330,328.400 355.000 C 328.400 354.670,328.593 354.400,328.829 354.400 C 329.382 354.400,330.400 353.382,330.400 352.829 C 330.400 352.593,330.627 352.400,330.905 352.400 C 331.183 352.400,331.748 351.950,332.161 351.400 C 332.574 350.850,333.173 350.400,333.492 350.400 C 333.811 350.400,335.585 348.870,337.434 347.000 C 339.283 345.130,340.977 343.600,341.198 343.600 C 341.419 343.600,341.600 343.407,341.600 343.171 C 341.600 342.618,342.618 341.600,343.171 341.600 C 343.407 341.600,343.600 341.419,343.600 341.198 C 343.600 340.977,345.130 339.283,347.000 337.434 C 348.870 335.585,350.400 333.953,350.400 333.808 C 350.400 333.662,350.625 333.292,350.900 332.985 C 352.087 331.662,352.400 331.209,352.400 330.817 C 352.400 330.588,352.593 330.400,352.829 330.400 C 353.382 330.400,354.400 329.382,354.400 328.829 C 354.400 328.593,354.605 328.400,354.856 328.400 C 355.471 328.400,356.372 327.165,356.387 326.300 C 356.394 325.915,356.670 325.600,357.000 325.600 C 357.330 325.600,357.600 325.373,357.600 325.095 C 357.600 324.817,358.016 324.277,358.525 323.895 C 359.034 323.513,359.698 322.570,360.000 321.800 C 360.302 321.030,360.709 320.400,360.903 320.400 C 361.456 320.400,362.741 318.805,363.482 317.200 C 363.634 316.870,364.173 316.152,364.679 315.604 C 365.186 315.056,365.600 314.381,365.600 314.104 C 365.600 313.827,365.780 313.600,366.000 313.600 C 366.220 313.600,366.400 313.330,366.400 313.000 C 366.400 312.670,366.670 312.400,367.000 312.400 C 367.338 312.400,367.600 312.043,367.600 311.583 C 367.600 311.133,368.050 310.280,368.600 309.687 C 369.150 309.093,369.600 308.381,369.600 308.104 C 369.600 307.827,369.737 307.600,369.905 307.600 C 370.211 307.600,370.933 306.415,371.429 305.100 C 371.574 304.715,371.852 304.400,372.047 304.400 C 372.241 304.400,372.400 303.950,372.400 303.400 C 372.400 302.841,372.632 302.400,372.925 302.400 C 373.214 302.400,373.695 301.777,373.993 301.017 C 374.292 300.256,374.776 299.541,375.068 299.429 C 375.361 299.317,375.600 298.859,375.600 298.413 C 375.600 297.966,375.780 297.600,376.000 297.600 C 376.220 297.600,376.400 297.150,376.400 296.600 C 376.400 295.978,376.627 295.600,377.000 295.600 C 377.373 295.600,377.600 295.222,377.600 294.600 C 377.600 294.050,377.780 293.600,378.000 293.600 C 378.220 293.600,378.400 293.150,378.400 292.600 C 378.400 291.978,378.627 291.600,379.000 291.600 C 379.373 291.600,379.600 291.222,379.600 290.600 C 379.600 290.050,379.780 289.600,380.000 289.600 C 380.220 289.600,380.400 289.150,380.400 288.600 C 380.400 287.978,380.627 287.600,381.000 287.600 C 381.373 287.600,381.600 287.222,381.600 286.600 C 381.600 286.050,381.780 285.600,382.000 285.600 C 382.220 285.600,382.400 285.169,382.400 284.643 C 382.400 284.116,382.670 283.582,383.000 283.455 C 383.330 283.329,383.600 282.870,383.600 282.436 C 383.600 282.002,383.780 281.536,384.000 281.400 C 384.220 281.264,384.400 280.735,384.400 280.225 C 384.400 279.715,384.670 279.074,385.000 278.800 C 385.330 278.526,385.600 277.874,385.600 277.351 C 385.600 276.828,385.780 276.400,386.000 276.400 C 386.220 276.400,386.400 275.972,386.400 275.449 C 386.400 274.926,386.670 274.274,387.000 274.000 C 387.330 273.726,387.600 273.074,387.600 272.551 C 387.600 272.028,387.780 271.600,388.000 271.600 C 388.220 271.600,388.400 270.880,388.400 270.000 C 388.400 268.844,388.567 268.400,389.000 268.400 C 389.397 268.400,389.600 268.003,389.600 267.224 C 389.600 266.577,389.780 265.936,390.000 265.800 C 390.220 265.664,390.400 265.045,390.400 264.425 C 390.400 263.805,390.670 263.074,391.000 262.800 C 391.330 262.526,391.600 261.694,391.600 260.951 C 391.600 260.208,391.780 259.600,392.000 259.600 C 392.220 259.600,392.400 258.880,392.400 258.000 C 392.400 256.844,392.567 256.400,393.000 256.400 C 393.443 256.400,393.600 255.936,393.600 254.624 C 393.600 253.647,393.780 252.736,394.000 252.600 C 394.220 252.464,394.400 251.755,394.400 251.025 C 394.400 250.295,394.670 249.474,395.000 249.200 C 395.397 248.870,395.600 247.975,395.600 246.551 C 395.600 245.368,395.780 244.400,396.000 244.400 C 396.220 244.400,396.400 243.519,396.400 242.443 C 396.400 241.072,396.580 240.417,397.000 240.255 C 397.455 240.081,397.600 239.344,397.600 237.213 C 397.600 235.604,397.771 234.400,398.000 234.400 C 398.229 234.400,398.400 233.181,398.400 231.544 C 398.400 229.286,398.546 228.581,399.100 228.176 C 399.755 227.697,399.800 225.885,399.800 200.000 C 399.800 174.115,399.755 172.303,399.100 171.824 C 398.547 171.420,398.400 170.715,398.400 168.480 C 398.400 166.922,398.220 165.536,398.000 165.400 C 397.780 165.264,397.600 163.988,397.600 162.564 C 397.600 160.632,397.448 159.916,397.000 159.745 C 396.581 159.584,396.400 158.931,396.400 157.581 C 396.400 156.517,396.220 155.536,396.000 155.400 C 395.780 155.264,395.600 154.285,395.600 153.225 C 395.600 152.000,395.381 151.117,395.000 150.800 C 394.658 150.516,394.400 149.644,394.400 148.775 C 394.400 147.935,394.220 147.136,394.000 147.000 C 393.780 146.864,393.600 146.043,393.600 145.176 C 393.600 144.042,393.432 143.600,393.000 143.600 C 392.557 143.600,392.400 143.136,392.400 141.824 C 392.400 140.847,392.220 139.936,392.000 139.800 C 391.780 139.664,391.600 139.126,391.600 138.605 C 391.600 138.084,391.330 137.387,391.000 137.057 C 390.670 136.727,390.400 135.915,390.400 135.252 C 390.400 134.589,390.220 133.936,390.000 133.800 C 389.780 133.664,389.600 133.135,389.600 132.625 C 389.600 132.115,389.330 131.474,389.000 131.200 C 388.670 130.926,388.400 130.184,388.400 129.551 C 388.400 128.918,388.220 128.400,388.000 128.400 C 387.780 128.400,387.600 127.963,387.600 127.429 C 387.600 126.894,387.330 126.187,387.000 125.857 C 386.670 125.527,386.400 124.884,386.400 124.429 C 386.400 123.973,386.220 123.600,386.000 123.600 C 385.780 123.600,385.600 123.163,385.600 122.629 C 385.600 122.094,385.330 121.387,385.000 121.057 C 384.670 120.727,384.400 120.095,384.400 119.652 C 384.400 119.209,384.220 118.736,384.000 118.600 C 383.780 118.464,383.600 117.998,383.600 117.564 C 383.600 117.130,383.330 116.671,383.000 116.545 C 382.670 116.418,382.400 115.884,382.400 115.357 C 382.400 114.831,382.220 114.400,382.000 114.400 C 381.780 114.400,381.600 113.969,381.600 113.443 C 381.600 112.916,381.330 112.382,381.000 112.255 C 380.670 112.129,380.400 111.659,380.400 111.213 C 380.400 110.766,380.220 110.400,380.000 110.400 C 379.780 110.400,379.600 109.969,379.600 109.443 C 379.600 108.916,379.330 108.382,379.000 108.255 C 378.670 108.129,378.400 107.659,378.400 107.213 C 378.400 106.766,378.220 106.400,378.000 106.400 C 377.780 106.400,377.600 105.950,377.600 105.400 C 377.600 104.778,377.373 104.400,377.000 104.400 C 376.627 104.400,376.400 104.022,376.400 103.400 C 376.400 102.850,376.220 102.400,376.000 102.400 C 375.780 102.400,375.600 102.034,375.600 101.587 C 375.600 101.141,375.330 100.671,375.000 100.545 C 374.670 100.418,374.400 99.974,374.400 99.557 C 374.400 99.141,374.220 98.800,374.000 98.800 C 373.780 98.800,373.600 98.530,373.600 98.200 C 373.600 97.870,373.330 97.600,373.000 97.600 C 372.627 97.600,372.400 97.222,372.400 96.600 C 372.400 96.050,372.240 95.600,372.043 95.600 C 371.847 95.600,371.574 95.150,371.436 94.600 C 371.298 94.050,371.008 93.600,370.792 93.600 C 370.577 93.600,370.400 93.330,370.400 93.000 C 370.400 92.670,370.220 92.400,370.000 92.400 C 369.780 92.400,369.600 92.065,369.600 91.656 C 369.600 91.247,369.150 90.574,368.600 90.161 C 368.049 89.747,367.600 89.004,367.600 88.505 C 367.600 87.967,367.357 87.600,367.000 87.600 C 366.670 87.600,366.400 87.330,366.400 87.000 C 366.400 86.670,366.220 86.400,366.000 86.400 C 365.780 86.400,365.600 86.065,365.600 85.656 C 365.600 85.247,365.161 84.582,364.624 84.179 C 364.087 83.776,363.544 83.031,363.416 82.523 C 363.289 82.015,363.008 81.600,362.792 81.600 C 362.577 81.600,362.400 81.407,362.400 81.171 C 362.400 80.618,361.382 79.600,360.829 79.600 C 360.593 79.600,360.400 79.216,360.400 78.747 C 360.400 78.278,359.798 77.326,359.062 76.632 C 358.326 75.938,357.651 75.197,357.562 74.985 C 357.074 73.824,355.330 71.609,354.900 71.605 C 354.625 71.602,354.400 71.407,354.400 71.171 C 354.400 70.618,353.382 69.600,352.829 69.600 C 352.593 69.600,352.400 69.330,352.400 69.000 C 352.400 68.670,352.220 68.400,352.000 68.400 C 351.780 68.400,351.600 68.148,351.600 67.841 C 351.600 67.534,350.250 65.901,348.600 64.213 C 346.950 62.525,345.600 60.977,345.600 60.772 C 345.600 60.567,345.407 60.400,345.171 60.400 C 344.618 60.400,343.600 59.382,343.600 58.829 C 343.600 58.593,343.407 58.400,343.171 58.400 C 342.618 58.400,341.600 57.382,341.600 56.829 C 341.600 56.593,341.407 56.400,341.171 56.400 C 340.618 56.400,339.600 55.382,339.600 54.829 C 339.600 54.593,339.433 54.400,339.228 54.400 C 339.023 54.400,337.488 53.063,335.816 51.428 C 334.144 49.794,332.241 48.220,331.588 47.930 C 330.934 47.641,330.400 47.256,330.400 47.074 C 330.400 46.599,329.335 45.600,328.829 45.600 C 328.593 45.600,328.398 45.375,328.395 45.100 C 328.391 44.670,326.176 42.926,325.015 42.438 C 324.803 42.349,324.062 41.674,323.368 40.938 C 322.674 40.202,321.722 39.600,321.253 39.600 C 320.784 39.600,320.400 39.407,320.400 39.171 C 320.400 38.618,319.382 37.600,318.829 37.600 C 318.593 37.600,318.400 37.423,318.400 37.208 C 318.400 36.992,317.985 36.711,317.477 36.584 C 316.969 36.456,316.224 35.913,315.821 35.376 C 315.418 34.839,314.753 34.400,314.344 34.400 C 313.935 34.400,313.600 34.220,313.600 34.000 C 313.600 33.780,313.330 33.600,313.000 33.600 C 312.670 33.600,312.400 33.330,312.400 33.000 C 312.400 32.670,312.059 32.400,311.642 32.400 C 311.225 32.400,310.460 31.953,309.942 31.407 C 309.424 30.861,308.685 30.411,308.300 30.407 C 307.915 30.403,307.600 30.220,307.600 30.000 C 307.600 29.780,307.349 29.600,307.043 29.600 C 306.736 29.600,306.382 29.330,306.255 29.000 C 306.129 28.670,305.659 28.400,305.213 28.400 C 304.766 28.400,304.400 28.220,304.400 28.000 C 304.400 27.780,304.034 27.600,303.587 27.600 C 303.141 27.600,302.671 27.330,302.545 27.000 C 302.418 26.670,302.064 26.400,301.757 26.400 C 301.451 26.400,301.200 26.220,301.200 26.000 C 301.200 25.780,300.859 25.600,300.443 25.600 C 300.026 25.600,299.582 25.330,299.455 25.000 C 299.329 24.670,298.859 24.400,298.413 24.400 C 297.966 24.400,297.600 24.220,297.600 24.000 C 297.600 23.780,297.150 23.600,296.600 23.600 C 295.978 23.600,295.600 23.373,295.600 23.000 C 295.600 22.627,295.222 22.400,294.600 22.400 C 294.050 22.400,293.600 22.220,293.600 22.000 C 293.600 21.780,293.234 21.600,292.787 21.600 C 292.341 21.600,291.871 21.330,291.745 21.000 C 291.618 20.670,291.184 20.400,290.781 20.400 C 290.377 20.400,289.936 20.220,289.800 20.000 C 289.664 19.780,289.198 19.600,288.764 19.600 C 288.330 19.600,287.871 19.330,287.745 19.000 C 287.618 18.670,287.084 18.400,286.557 18.400 C 286.031 18.400,285.600 18.220,285.600 18.000 C 285.600 17.780,285.169 17.600,284.643 17.600 C 284.116 17.600,283.582 17.330,283.455 17.000 C 283.329 16.670,282.859 16.400,282.413 16.400 C 281.966 16.400,281.600 16.220,281.600 16.000 C 281.600 15.780,281.137 15.600,280.571 15.600 C 280.006 15.600,279.273 15.330,278.943 15.000 C 278.613 14.670,277.906 14.400,277.371 14.400 C 276.837 14.400,276.400 14.220,276.400 14.000 C 276.400 13.780,275.969 13.600,275.443 13.600 C 274.916 13.600,274.382 13.330,274.255 13.000 C 274.121 12.649,273.521 12.400,272.813 12.400 C 272.146 12.400,271.600 12.220,271.600 12.000 C 271.600 11.780,271.082 11.600,270.449 11.600 C 269.816 11.600,269.074 11.330,268.800 11.000 C 268.526 10.670,267.874 10.400,267.351 10.400 C 266.828 10.400,266.400 10.220,266.400 10.000 C 266.400 9.780,265.792 9.600,265.049 9.600 C 264.306 9.600,263.474 9.330,263.200 9.000 C 262.926 8.670,262.195 8.400,261.575 8.400 C 260.955 8.400,260.336 8.220,260.200 8.000 C 260.064 7.780,259.153 7.600,258.176 7.600 C 256.864 7.600,256.400 7.443,256.400 7.000 C 256.400 6.568,255.958 6.400,254.824 6.400 C 253.957 6.400,253.136 6.220,253.000 6.000 C 252.864 5.780,252.063 5.600,251.219 5.600 C 250.225 5.600,249.605 5.389,249.455 5.000 C 249.293 4.578,248.635 4.400,247.236 4.400 C 246.142 4.400,245.136 4.220,245.000 4.000 C 244.864 3.780,243.793 3.600,242.619 3.600 C 241.092 3.600,240.420 3.430,240.255 3.000 C 240.081 2.545,239.344 2.400,237.213 2.400 C 235.604 2.400,234.400 2.229,234.400 2.000 C 234.400 1.775,233.278 1.600,231.833 1.600 C 230.135 1.600,229.210 1.431,229.100 1.100 C 228.788 0.160,189.733 -0.369,175.432 0.373 M103.117 99.424 C 126.490 104.155,142.777 125.287,148.572 158.400 C 148.938 160.490,149.397 163.100,149.592 164.200 C 150.704 170.472,150.954 181.909,150.220 192.917 C 148.903 212.655,150.110 241.428,152.767 253.600 C 154.918 263.458,157.156 269.278,160.586 273.938 C 163.314 277.644,167.601 280.773,171.732 282.073 C 177.393 283.855,171.966 283.749,269.400 283.982 L 361.000 284.200 361.000 300.000 L 361.000 315.800 269.800 315.913 C 173.632 316.031,175.382 316.058,167.800 314.338 C 165.155 313.738,157.715 311.277,156.200 310.501 C 155.540 310.162,154.730 309.760,154.400 309.607 C 143.670 304.620,134.587 295.061,128.546 282.400 C 121.967 268.612,119.019 253.743,118.007 229.252 C 117.804 224.331,117.552 220.219,117.448 220.115 C 117.108 219.774,115.654 221.990,95.614 253.400 C 92.947 257.580,88.451 264.600,85.623 269.000 C 82.795 273.400,78.258 280.477,75.541 284.727 C 69.932 293.500,70.483 292.640,66.087 299.460 C 64.265 302.287,62.555 304.948,62.287 305.373 C 62.019 305.798,60.799 307.688,59.575 309.573 C 58.351 311.458,56.952 313.657,56.467 314.460 C 55.156 316.629,54.903 316.586,49.956 313.372 C 47.450 311.743,45.130 310.292,44.800 310.146 C 44.470 310.001,43.660 309.488,43.000 309.006 C 42.340 308.525,38.876 306.286,35.303 304.032 C 31.730 301.778,28.714 299.784,28.600 299.601 C 28.251 299.036,29.019 297.678,34.369 289.400 C 38.640 282.792,45.624 271.918,47.710 268.627 C 47.980 268.202,49.203 266.312,50.430 264.427 C 51.656 262.542,54.176 258.605,56.030 255.678 C 60.262 248.995,59.673 249.918,65.688 240.536 C 68.486 236.171,72.678 229.630,75.003 226.000 C 77.327 222.370,81.827 215.350,85.003 210.400 C 88.178 205.450,92.716 198.373,95.088 194.672 C 97.460 190.972,99.670 187.525,100.000 187.012 C 100.330 186.499,102.828 182.596,105.551 178.339 C 108.274 174.083,111.797 168.577,113.380 166.105 C 116.848 160.689,116.845 160.792,113.725 151.600 C 103.704 122.079,86.218 123.922,50.433 158.272 C 46.776 161.783,48.525 162.790,35.403 149.614 L 24.607 138.772 29.403 134.065 C 36.502 127.099,44.735 120.075,51.600 115.130 C 55.613 112.239,62.155 108.000,62.604 108.000 C 62.720 108.000,63.487 107.585,64.308 107.079 C 65.524 106.328,70.108 104.226,74.600 102.360 C 82.352 99.139,95.183 97.818,103.117 99.424 M339.800 125.000 L 339.800 145.000 306.400 145.200 L 273.000 145.400 273.000 153.200 L 273.000 161.000 312.900 161.102 L 352.800 161.204 352.800 215.602 L 352.800 270.000 260.000 270.000 L 167.200 270.000 167.200 215.602 L 167.200 161.204 207.100 161.102 L 247.000 161.000 247.000 153.200 L 247.000 145.400 213.600 145.200 L 180.200 145.000 180.096 125.400 C 180.039 114.620,180.078 105.575,180.184 105.299 C 180.337 104.900,196.529 104.818,260.088 104.899 L 339.800 105.000 339.800 125.000 M192.996 202.100 C 192.875 202.595,192.827 209.030,192.888 216.400 L 193.000 229.800 220.000 229.800 L 247.000 229.800 247.112 216.400 C 247.173 209.030,247.125 202.595,247.004 202.100 L 246.785 201.200 220.000 201.200 L 193.215 201.200 192.996 202.100 M272.996 202.100 C 272.875 202.595,272.827 209.030,272.888 216.400 L 273.000 229.800 300.000 229.800 L 327.000 229.800 327.112 216.400 C 327.173 209.030,327.125 202.595,327.004 202.100 L 326.785 201.200 300.000 201.200 L 273.215 201.200 272.996 202.100 " stroke="none" fill="#fcfb3b" fill-rule="evenodd"/><path id="path1" d="M84.141 99.618 C 80.846 100.290,76.750 101.467,74.600 102.360 C 70.108 104.226,65.524 106.328,64.308 107.079 C 63.487 107.585,62.720 108.000,62.604 108.000 C 62.155 108.000,55.613 112.239,51.600 115.130 C 44.735 120.075,36.502 127.099,29.403 134.065 L 24.607 138.772 35.403 149.614 C 48.525 162.790,46.776 161.783,50.433 158.272 C 86.218 123.922,103.704 122.079,113.725 151.600 C 116.845 160.792,116.848 160.689,113.380 166.105 C 111.797 168.577,108.274 174.083,105.551 178.339 C 102.828 182.596,100.330 186.499,100.000 187.012 C 99.670 187.525,97.460 190.972,95.088 194.672 C 92.716 198.373,88.178 205.450,85.003 210.400 C 81.827 215.350,77.327 222.370,75.003 226.000 C 72.678 229.630,68.486 236.171,65.688 240.536 C 59.673 249.918,60.262 248.995,56.030 255.678 C 54.176 258.605,51.656 262.542,50.430 264.427 C 49.203 266.312,47.980 268.202,47.710 268.627 C 45.624 271.918,38.640 282.792,34.369 289.400 C 29.019 297.678,28.251 299.036,28.600 299.601 C 28.714 299.784,31.730 301.778,35.303 304.032 C 38.876 306.286,42.340 308.525,43.000 309.006 C 43.660 309.488,44.470 310.001,44.800 310.146 C 45.130 310.292,47.450 311.743,49.956 313.372 C 54.903 316.586,55.156 316.629,56.467 314.460 C 56.952 313.657,58.351 311.458,59.575 309.573 C 60.799 307.688,62.019 305.798,62.287 305.373 C 62.555 304.948,64.265 302.287,66.087 299.460 C 70.483 292.640,69.932 293.500,75.541 284.727 C 78.258 280.477,82.795 273.400,85.623 269.000 C 88.451 264.600,92.947 257.580,95.614 253.400 C 115.654 221.990,117.108 219.774,117.448 220.115 C 117.552 220.219,117.804 224.331,118.007 229.252 C 118.714 246.362,120.223 257.434,123.427 269.000 C 128.669 287.932,140.151 302.984,154.400 309.607 C 154.730 309.760,155.540 310.162,156.200 310.501 C 157.715 311.277,165.155 313.738,167.800 314.338 C 175.382 316.058,173.632 316.031,269.800 315.913 L 361.000 315.800 361.000 300.000 L 361.000 284.200 269.400 283.982 C 171.966 283.749,177.393 283.855,171.732 282.073 C 161.403 278.822,154.526 267.378,151.978 249.200 C 149.768 233.428,149.050 210.448,150.220 192.917 C 150.954 181.909,150.704 170.472,149.592 164.200 C 149.397 163.100,148.938 160.490,148.572 158.400 C 145.389 140.208,136.993 121.602,127.974 112.751 C 116.269 101.264,99.993 96.388,84.141 99.618 " stroke="none" fill="#fc0504" fill-rule="evenodd"/><path id="path2" d="M180.184 105.299 C 180.078 105.575,180.039 114.620,180.096 125.400 L 180.200 145.000 213.600 145.200 L 247.000 145.400 247.000 153.200 L 247.000 161.000 207.100 161.102 L 167.200 161.204 167.200 215.602 L 167.200 270.000 260.000 270.000 L 352.800 270.000 352.800 215.602 L 352.800 161.204 312.900 161.102 L 273.000 161.000 273.000 153.200 L 273.000 145.400 306.400 145.200 L 339.800 145.000 339.800 125.000 L 339.800 105.000 260.088 104.899 C 196.529 104.818,180.337 104.900,180.184 105.299 M247.004 202.100 C 247.125 202.595,247.173 209.030,247.112 216.400 L 247.000 229.800 220.000 229.800 L 193.000 229.800 192.888 216.400 C 192.827 209.030,192.875 202.595,192.996 202.100 L 193.215 201.200 220.000 201.200 L 246.785 201.200 247.004 202.100 M327.004 202.100 C 327.125 202.595,327.173 209.030,327.112 216.400 L 327.000 229.800 300.000 229.800 L 273.000 229.800 272.888 216.400 C 272.827 209.030,272.875 202.595,272.996 202.100 L 273.215 201.200 300.000 201.200 L 326.785 201.200 327.004 202.100 " stroke="none" fill="#0404fc" fill-rule="evenodd"/></g></svg>