<svg id="svg" version="1.1" xmlns="http://www.w3.org/2000/svg" xmlns:xlink="http://www.w3.org/1999/xlink" width="400" height="400" viewBox="0, 0, 400,400"><g id="svgg"><path id="path0" d="M259.842 70.900 C 259.163 76.201,258.209 103.168,257.581 134.800 C 255.971 215.827,256.758 280.949,259.840 321.900 L 260.118 325.600 263.210 325.600 C 269.035 325.600,274.620 323.676,279.894 319.852 L 281.989 318.333 281.753 311.867 C 281.623 308.310,281.441 305.275,281.349 305.122 C 281.198 304.874,280.024 266.520,280.007 261.300 C 279.997 258.389,280.438 258.675,281.549 262.302 C 282.070 264.006,282.811 266.390,283.195 267.600 C 283.579 268.810,284.125 270.610,284.410 271.600 C 285.604 275.759,290.420 290.095,291.599 293.000 C 291.778 293.440,292.498 295.330,293.200 297.200 C 293.902 299.070,294.622 300.960,294.799 301.400 C 294.977 301.840,295.529 303.280,296.026 304.600 C 296.524 305.920,297.052 307.180,297.201 307.400 C 297.350 307.620,298.068 309.330,298.797 311.200 C 299.526 313.070,300.275 314.771,300.461 314.980 C 300.648 315.189,300.800 315.662,300.800 316.031 C 300.800 318.230,307.122 314.547,307.191 312.308 C 307.196 312.147,308.067 310.707,309.126 309.108 C 310.870 306.475,312.921 302.550,314.513 298.800 C 314.840 298.030,315.488 296.547,315.953 295.504 C 316.419 294.462,316.800 293.347,316.800 293.028 C 316.800 292.709,316.959 292.349,317.152 292.230 C 317.346 292.110,317.598 291.604,317.713 291.106 C 317.827 290.608,318.583 288.400,319.391 286.200 C 322.320 278.233,322.314 278.544,319.619 274.628 C 318.949 273.653,318.400 272.741,318.400 272.600 C 318.400 272.459,317.860 271.559,317.200 270.600 C 316.540 269.641,316.000 268.772,316.000 268.669 C 316.000 268.566,315.258 267.261,314.352 265.769 C 313.446 264.277,312.276 262.279,311.752 261.328 C 311.228 260.378,310.323 258.745,309.740 257.700 C 305.432 249.976,296.000 230.823,296.000 229.798 C 296.000 229.700,295.460 228.441,294.800 227.000 C 293.391 223.923,293.341 223.289,294.372 221.523 C 297.502 216.161,309.600 191.917,309.600 191.007 C 309.600 190.888,309.978 189.938,310.440 188.896 C 310.902 187.853,311.423 186.640,311.599 186.200 C 311.775 185.760,312.192 184.770,312.527 184.000 C 313.692 181.319,315.689 176.185,316.417 174.000 C 316.820 172.790,317.826 170.000,318.652 167.800 C 320.225 163.613,320.548 160.812,319.716 158.551 C 319.483 157.918,319.066 156.590,318.789 155.600 C 317.592 151.326,315.863 146.486,314.753 144.305 C 314.559 143.923,314.400 143.395,314.400 143.132 C 314.400 141.299,307.063 127.547,304.673 124.900 C 303.562 123.670,303.453 123.729,302.823 125.900 C 302.520 126.945,301.965 128.790,301.591 130.000 C 300.999 131.913,300.506 133.559,298.774 139.400 C 298.578 140.060,298.076 141.680,297.658 143.000 C 297.240 144.320,296.503 146.750,296.022 148.400 C 295.540 150.050,294.990 151.850,294.800 152.400 C 294.610 152.950,294.060 154.750,293.578 156.400 C 293.097 158.050,292.382 160.390,291.991 161.600 C 291.599 162.810,290.700 165.690,289.992 168.000 C 289.284 170.310,288.264 173.460,287.725 175.000 C 287.187 176.540,286.056 179.870,285.213 182.400 C 284.369 184.930,283.409 187.720,283.079 188.600 C 282.748 189.480,282.366 190.541,282.230 190.957 C 280.917 194.958,281.690 171.302,284.419 124.000 C 285.219 110.123,286.981 87.658,287.588 83.600 C 287.772 82.369,287.761 81.107,287.563 80.736 C 286.649 79.017,280.356 75.056,274.700 72.641 C 273.875 72.288,272.528 71.702,271.706 71.337 C 270.885 70.972,269.670 70.538,269.006 70.371 C 268.343 70.205,266.756 69.784,265.480 69.435 C 264.205 69.086,262.475 68.800,261.636 68.800 L 260.111 68.800 259.842 70.900 M106.700 128.835 C 96.602 132.252,87.385 144.940,83.624 160.600 C 83.360 161.700,82.951 163.373,82.715 164.318 C 81.774 168.088,82.442 173.094,84.890 180.600 C 88.104 190.458,94.572 197.148,101.400 197.676 L 103.000 197.800 103.082 195.000 C 103.208 190.721,103.987 180.913,104.433 178.000 C 105.099 173.653,105.657 170.652,105.996 169.600 C 106.173 169.050,106.626 167.555,107.003 166.278 C 108.679 160.598,112.058 159.972,113.900 165.000 C 115.683 169.866,116.809 184.263,116.804 202.100 L 116.800 212.800 110.300 212.800 C 100.275 212.800,95.561 214.137,90.376 218.452 C 84.715 223.163,80.406 232.806,78.959 244.000 C 78.457 247.883,78.325 267.428,78.778 270.800 C 80.347 282.489,81.957 288.472,85.291 295.000 C 90.361 304.930,98.382 308.999,107.304 306.167 C 108.188 305.886,111.616 303.576,113.098 302.260 C 114.467 301.046,114.551 301.520,114.087 307.892 C 113.652 313.868,113.864 315.200,115.250 315.200 C 115.430 315.200,116.545 315.643,117.729 316.185 C 123.175 318.676,132.222 320.612,133.115 319.478 C 133.322 319.215,133.608 317.470,133.752 315.600 C 133.895 313.730,134.185 310.220,134.397 307.800 C 136.231 286.881,136.537 283.061,137.622 267.600 C 137.846 264.410,138.204 259.370,138.418 256.400 C 142.620 198.073,141.868 167.927,135.748 149.274 C 130.276 132.595,119.012 124.669,106.700 128.835 M170.600 132.495 C 163.985 133.562,155.766 136.957,149.200 141.335 C 145.457 143.831,145.512 143.748,145.806 146.400 C 145.940 147.610,146.217 151.120,146.423 154.200 C 146.814 160.070,147.305 166.482,147.991 174.700 C 148.216 177.395,148.574 181.715,148.787 184.300 C 149.000 186.885,149.360 191.025,149.587 193.500 C 149.814 195.975,150.175 199.935,150.389 202.300 C 151.329 212.707,153.406 233.217,154.388 241.800 C 154.614 243.780,154.975 246.840,155.188 248.600 C 155.402 250.360,155.773 253.420,156.012 255.400 C 156.251 257.380,156.611 260.350,156.812 262.000 C 157.013 263.650,157.373 266.620,157.612 268.600 C 158.546 276.342,159.233 281.644,159.995 287.000 C 160.246 288.760,160.526 290.920,160.617 291.800 C 160.709 292.680,160.980 294.660,161.220 296.200 C 162.032 301.415,162.366 303.793,162.615 306.125 C 162.775 307.623,163.073 308.530,163.452 308.675 C 164.467 309.065,172.901 307.099,175.900 305.774 C 179.213 304.311,180.353 303.746,182.421 302.544 L 184.643 301.254 185.145 298.527 C 185.422 297.027,185.804 294.990,185.994 294.000 C 186.361 292.088,187.033 288.359,187.635 284.900 C 187.836 283.745,188.164 281.855,188.365 280.700 C 188.566 279.545,188.926 277.475,189.165 276.100 C 189.404 274.725,189.780 272.520,190.000 271.200 C 190.220 269.880,190.580 267.720,190.800 266.400 C 191.020 265.080,191.380 262.920,191.600 261.600 C 191.820 260.280,192.173 258.165,192.384 256.900 C 192.596 255.635,192.963 253.340,193.200 251.800 C 193.437 250.260,193.793 248.010,193.991 246.800 C 194.188 245.590,194.552 243.250,194.800 241.600 C 195.048 239.950,195.408 237.610,195.600 236.400 C 195.792 235.190,196.151 232.850,196.396 231.200 C 196.642 229.550,196.998 227.300,197.189 226.200 C 197.379 225.100,197.764 222.535,198.045 220.500 C 198.667 215.987,199.002 215.833,199.348 219.900 C 199.492 221.605,199.794 225.070,200.017 227.600 C 200.241 230.130,200.594 234.360,200.803 237.000 C 201.011 239.640,201.366 244.050,201.591 246.800 C 202.294 255.373,202.826 262.479,202.999 265.600 C 203.091 267.250,203.349 270.760,203.573 273.400 C 204.025 278.738,204.566 286.165,205.205 295.800 C 205.439 299.320,205.803 304.191,206.015 306.623 C 206.227 309.056,206.418 312.476,206.440 314.223 C 206.497 318.809,206.739 319.425,208.428 319.293 C 211.314 319.069,221.180 315.101,222.894 313.475 C 223.172 313.211,224.026 312.478,224.791 311.846 C 226.294 310.606,226.921 309.134,227.848 304.666 C 228.175 303.090,228.631 300.990,228.861 300.000 C 229.652 296.592,230.003 294.995,230.400 293.000 C 230.619 291.900,230.979 290.190,231.200 289.200 C 231.421 288.210,231.798 286.410,232.038 285.200 C 232.278 283.990,232.621 282.280,232.800 281.400 C 233.195 279.459,233.860 275.971,234.400 273.000 C 234.620 271.790,234.980 269.810,235.200 268.600 C 235.420 267.390,235.789 265.365,236.020 264.100 C 236.251 262.835,236.611 260.765,236.820 259.500 C 237.657 254.434,238.045 252.101,238.400 250.000 C 238.604 248.790,238.971 246.540,239.214 245.000 C 239.458 243.460,239.832 241.120,240.045 239.800 C 240.259 238.480,240.618 236.140,240.843 234.600 C 241.069 233.060,241.427 230.630,241.641 229.200 C 241.854 227.770,242.202 225.340,242.412 223.800 C 242.623 222.260,242.977 219.740,243.199 218.200 C 243.421 216.660,243.794 213.960,244.027 212.200 C 244.260 210.440,244.608 207.830,244.800 206.400 C 246.087 196.804,246.261 195.451,247.187 187.800 C 247.427 185.820,247.798 182.760,248.012 181.000 C 249.092 172.110,249.843 165.504,250.394 160.060 C 250.850 155.552,250.846 155.509,249.877 154.060 C 247.188 150.040,242.141 145.569,238.400 143.893 C 235.526 142.606,231.962 141.551,230.899 141.674 L 229.800 141.800 229.539 148.400 C 229.119 159.014,228.087 178.760,227.207 193.000 C 226.653 201.968,225.464 217.800,224.819 224.800 C 224.606 227.110,224.326 230.440,224.196 232.200 C 223.610 240.131,222.912 239.625,222.369 230.876 C 221.864 222.732,220.850 208.881,220.008 198.600 C 219.791 195.960,219.437 191.640,219.220 189.000 C 218.715 182.854,218.140 176.711,216.815 163.300 C 216.380 158.906,215.831 153.915,215.197 148.600 C 214.961 146.620,214.661 143.920,214.530 142.600 C 214.400 141.280,214.116 139.975,213.898 139.700 C 212.580 138.035,203.685 140.401,194.538 144.849 C 189.977 147.067,190.144 146.853,189.813 150.859 C 189.680 152.477,189.403 155.510,189.198 157.600 C 188.992 159.690,188.632 163.560,188.396 166.200 C 188.160 168.840,187.801 172.530,187.597 174.400 C 187.394 176.270,187.034 179.780,186.797 182.200 C 185.817 192.189,184.273 206.233,183.565 211.600 C 183.347 213.250,183.098 215.320,183.012 216.200 C 182.731 219.064,181.805 226.937,180.800 235.000 C 180.553 236.980,180.205 239.918,180.026 241.530 C 179.774 243.795,178.922 246.283,178.776 245.180 C 178.740 244.911,178.071 233.957,177.603 226.000 C 176.591 208.762,175.768 190.158,175.408 176.400 C 175.308 172.550,175.029 162.650,174.789 154.400 C 174.549 146.150,174.319 137.782,174.277 135.805 C 174.190 131.728,174.367 131.888,170.600 132.495 M116.617 247.300 C 116.462 251.315,116.204 258.973,116.044 264.319 L 115.752 274.038 113.900 275.889 C 111.710 278.080,108.908 278.544,107.200 277.000 C 101.403 271.760,102.866 249.035,109.383 243.090 C 110.971 241.642,114.333 240.073,115.949 240.027 L 116.897 240.000 116.617 247.300 " stroke="none" fill="#050505" fill-rule="evenodd"></path><path id="path1" d="M184.400 46.400 C 184.400 46.642,182.667 46.800,180.000 46.800 C 177.333 46.800,175.600 46.958,175.600 47.200 C 175.600 47.433,174.267 47.600,172.400 47.600 C 170.533 47.600,169.200 47.767,169.200 48.000 C 169.200 48.229,168.000 48.400,166.400 48.400 C 164.800 48.400,163.600 48.571,163.600 48.800 C 163.600 49.022,162.533 49.200,161.200 49.200 C 159.867 49.200,158.800 49.378,158.800 49.600 C 158.800 49.820,157.900 50.000,156.800 50.000 C 155.700 50.000,154.800 50.180,154.800 50.400 C 154.800 50.620,154.080 50.800,153.200 50.800 C 152.320 50.800,151.600 50.980,151.600 51.200 C 151.600 51.420,150.880 51.600,150.000 51.600 C 149.120 51.600,148.400 51.780,148.400 52.000 C 148.400 52.220,147.680 52.400,146.800 52.400 C 145.920 52.400,145.200 52.580,145.200 52.800 C 145.200 53.020,144.480 53.200,143.600 53.200 C 142.720 53.200,142.000 53.380,142.000 53.600 C 142.000 53.820,141.460 54.000,140.800 54.000 C 140.140 54.000,139.600 54.180,139.600 54.400 C 139.600 54.620,138.880 54.800,138.000 54.800 C 137.120 54.800,136.400 54.980,136.400 55.200 C 136.400 55.420,135.860 55.600,135.200 55.600 C 134.540 55.600,134.000 55.780,134.000 56.000 C 134.000 56.220,133.460 56.400,132.800 56.400 C 132.140 56.400,131.600 56.580,131.600 56.800 C 131.600 57.020,131.060 57.200,130.400 57.200 C 129.740 57.200,129.200 57.380,129.200 57.600 C 129.200 57.820,128.840 58.000,128.400 58.000 C 127.960 58.000,127.600 58.180,127.600 58.400 C 127.600 58.620,127.060 58.800,126.400 58.800 C 125.740 58.800,125.200 58.980,125.200 59.200 C 125.200 59.420,124.660 59.600,124.000 59.600 C 123.340 59.600,122.800 59.780,122.800 60.000 C 122.800 60.220,122.440 60.400,122.000 60.400 C 121.560 60.400,121.200 60.580,121.200 60.800 C 121.200 61.020,120.660 61.200,120.000 61.200 C 119.340 61.200,118.800 61.380,118.800 61.600 C 118.800 61.820,118.440 62.000,118.000 62.000 C 117.560 62.000,117.200 62.180,117.200 62.400 C 117.200 62.620,116.840 62.800,116.400 62.800 C 115.960 62.800,115.600 62.980,115.600 63.200 C 115.600 63.420,115.240 63.600,114.800 63.600 C 114.360 63.600,114.000 63.780,114.000 64.000 C 114.000 64.220,113.460 64.400,112.800 64.400 C 112.140 64.400,111.600 64.580,111.600 64.800 C 111.600 65.020,111.240 65.200,110.800 65.200 C 110.360 65.200,110.000 65.380,110.000 65.600 C 110.000 65.820,109.640 66.000,109.200 66.000 C 108.760 66.000,108.400 66.180,108.400 66.400 C 108.400 66.620,108.040 66.800,107.600 66.800 C 107.160 66.800,106.800 66.980,106.800 67.200 C 106.800 67.420,106.440 67.600,106.000 67.600 C 105.560 67.600,105.200 67.780,105.200 68.000 C 105.200 68.220,104.840 68.400,104.400 68.400 C 103.960 68.400,103.600 68.580,103.600 68.800 C 103.600 69.020,103.280 69.200,102.888 69.200 C 102.497 69.200,101.917 69.560,101.600 70.000 C 101.283 70.440,100.703 70.800,100.312 70.800 C 99.920 70.800,99.600 70.980,99.600 71.200 C 99.600 71.420,99.240 71.600,98.800 71.600 C 98.360 71.600,98.000 71.780,98.000 72.000 C 98.000 72.220,97.680 72.400,97.288 72.400 C 96.897 72.400,96.317 72.760,96.000 73.200 C 95.683 73.640,95.103 74.000,94.712 74.000 C 94.320 74.000,94.000 74.180,94.000 74.400 C 94.000 74.620,93.680 74.800,93.288 74.800 C 92.897 74.800,92.317 75.160,92.000 75.600 C 91.683 76.040,91.143 76.400,90.800 76.400 C 90.457 76.400,89.917 76.760,89.600 77.200 C 89.283 77.640,88.743 78.000,88.400 78.000 C 88.057 78.000,87.517 78.360,87.200 78.800 C 86.883 79.240,86.343 79.600,86.000 79.600 C 85.657 79.600,85.117 79.960,84.800 80.400 C 84.483 80.840,83.975 81.200,83.672 81.200 C 83.369 81.200,82.617 81.740,82.000 82.400 C 81.383 83.060,80.663 83.600,80.400 83.600 C 80.137 83.600,79.417 84.140,78.800 84.800 C 78.183 85.460,77.467 86.000,77.208 86.000 C 76.949 86.000,76.046 86.720,75.200 87.600 C 74.354 88.480,73.461 89.200,73.214 89.200 C 72.968 89.200,71.341 90.640,69.600 92.400 C 67.859 94.160,66.244 95.600,66.012 95.600 C 65.461 95.600,57.200 103.863,57.200 104.415 C 57.200 104.648,55.940 106.081,54.400 107.600 C 52.860 109.119,51.600 110.564,51.600 110.812 C 51.600 111.060,50.880 111.954,50.000 112.800 C 49.120 113.646,48.400 114.549,48.400 114.808 C 48.400 115.067,47.860 115.783,47.200 116.400 C 46.540 117.017,46.000 117.737,46.000 118.000 C 46.000 118.263,45.460 118.983,44.800 119.600 C 44.140 120.217,43.600 120.969,43.600 121.272 C 43.600 121.575,43.240 122.083,42.800 122.400 C 42.360 122.717,42.000 123.257,42.000 123.600 C 42.000 123.943,41.640 124.483,41.200 124.800 C 40.760 125.117,40.400 125.697,40.400 126.088 C 40.400 126.480,40.220 126.800,40.000 126.800 C 39.780 126.800,39.600 127.120,39.600 127.512 C 39.600 127.903,39.240 128.483,38.800 128.800 C 38.360 129.117,38.000 129.697,38.000 130.088 C 38.000 130.480,37.820 130.800,37.600 130.800 C 37.380 130.800,37.200 131.120,37.200 131.512 C 37.200 131.903,36.840 132.483,36.400 132.800 C 35.960 133.117,35.600 133.697,35.600 134.088 C 35.600 134.480,35.420 134.800,35.200 134.800 C 34.980 134.800,34.800 135.160,34.800 135.600 C 34.800 136.040,34.620 136.400,34.400 136.400 C 34.180 136.400,34.000 136.760,34.000 137.200 C 34.000 137.640,33.820 138.000,33.600 138.000 C 33.380 138.000,33.200 138.360,33.200 138.800 C 33.200 139.240,33.020 139.600,32.800 139.600 C 32.580 139.600,32.400 139.960,32.400 140.400 C 32.400 140.840,32.220 141.200,32.000 141.200 C 31.780 141.200,31.600 141.560,31.600 142.000 C 31.600 142.440,31.420 142.800,31.200 142.800 C 30.980 142.800,30.800 143.160,30.800 143.600 C 30.800 144.040,30.620 144.400,30.400 144.400 C 30.180 144.400,30.000 144.760,30.000 145.200 C 30.000 145.640,29.820 146.000,29.600 146.000 C 29.380 146.000,29.200 146.540,29.200 147.200 C 29.200 147.860,29.020 148.400,28.800 148.400 C 28.580 148.400,28.400 148.760,28.400 149.200 C 28.400 149.640,28.220 150.000,28.000 150.000 C 27.780 150.000,27.600 150.540,27.600 151.200 C 27.600 151.860,27.420 152.400,27.200 152.400 C 26.980 152.400,26.800 152.760,26.800 153.200 C 26.800 153.640,26.620 154.000,26.400 154.000 C 26.180 154.000,26.000 154.540,26.000 155.200 C 26.000 155.860,25.820 156.400,25.600 156.400 C 25.380 156.400,25.200 156.940,25.200 157.600 C 25.200 158.260,25.020 158.800,24.800 158.800 C 24.580 158.800,24.400 159.340,24.400 160.000 C 24.400 160.660,24.220 161.200,24.000 161.200 C 23.780 161.200,23.600 161.920,23.600 162.800 C 23.600 163.680,23.420 164.400,23.200 164.400 C 22.980 164.400,22.800 164.940,22.800 165.600 C 22.800 166.260,22.620 166.800,22.400 166.800 C 22.180 166.800,22.000 167.520,22.000 168.400 C 22.000 169.280,21.820 170.000,21.600 170.000 C 21.380 170.000,21.200 170.900,21.200 172.000 C 21.200 173.100,21.020 174.000,20.800 174.000 C 20.580 174.000,20.400 174.900,20.400 176.000 C 20.400 177.100,20.220 178.000,20.000 178.000 C 19.771 178.000,19.600 179.200,19.600 180.800 C 19.600 182.400,19.429 183.600,19.200 183.600 C 18.963 183.600,18.800 185.067,18.800 187.200 C 18.800 189.333,18.637 190.800,18.400 190.800 C 18.141 190.800,18.000 195.467,18.000 204.000 C 18.000 212.533,18.141 217.200,18.400 217.200 C 18.637 217.200,18.800 218.667,18.800 220.800 C 18.800 222.933,18.963 224.400,19.200 224.400 C 19.429 224.400,19.600 225.600,19.600 227.200 C 19.600 228.800,19.771 230.000,20.000 230.000 C 20.220 230.000,20.400 230.900,20.400 232.000 C 20.400 233.100,20.580 234.000,20.800 234.000 C 21.020 234.000,21.200 234.900,21.200 236.000 C 21.200 237.100,21.380 238.000,21.600 238.000 C 21.820 238.000,22.000 238.720,22.000 239.600 C 22.000 240.480,22.180 241.200,22.400 241.200 C 22.620 241.200,22.800 241.740,22.800 242.400 C 22.800 243.060,22.980 243.600,23.200 243.600 C 23.420 243.600,23.600 244.320,23.600 245.200 C 23.600 246.080,23.780 246.800,24.000 246.800 C 24.220 246.800,24.400 247.340,24.400 248.000 C 24.400 248.660,24.580 249.200,24.800 249.200 C 25.020 249.200,25.200 249.740,25.200 250.400 C 25.200 251.060,25.380 251.600,25.600 251.600 C 25.820 251.600,26.000 252.140,26.000 252.800 C 26.000 253.460,26.180 254.000,26.400 254.000 C 26.620 254.000,26.800 254.360,26.800 254.800 C 26.800 255.240,26.980 255.600,27.200 255.600 C 27.420 255.600,27.600 256.140,27.600 256.800 C 27.600 257.460,27.780 258.000,28.000 258.000 C 28.220 258.000,28.400 258.360,28.400 258.800 C 28.400 259.240,28.580 259.600,28.800 259.600 C 29.020 259.600,29.200 260.140,29.200 260.800 C 29.200 261.460,29.380 262.000,29.600 262.000 C 29.820 262.000,30.000 262.360,30.000 262.800 C 30.000 263.240,30.180 263.600,30.400 263.600 C 30.620 263.600,30.800 263.960,30.800 264.400 C 30.800 264.840,30.980 265.200,31.200 265.200 C 31.420 265.200,31.600 265.560,31.600 266.000 C 31.600 266.440,31.780 266.800,32.000 266.800 C 32.220 266.800,32.400 267.160,32.400 267.600 C 32.400 268.040,32.580 268.400,32.800 268.400 C 33.020 268.400,33.200 268.760,33.200 269.200 C 33.200 269.640,33.380 270.000,33.600 270.000 C 33.820 270.000,34.000 270.360,34.000 270.800 C 34.000 271.240,34.180 271.600,34.400 271.600 C 34.620 271.600,34.800 271.960,34.800 272.400 C 34.800 272.840,34.980 273.200,35.200 273.200 C 35.420 273.200,35.600 273.520,35.600 273.912 C 35.600 274.303,35.960 274.883,36.400 275.200 C 36.840 275.517,37.200 276.097,37.200 276.488 C 37.200 276.880,37.380 277.200,37.600 277.200 C 37.820 277.200,38.000 277.520,38.000 277.912 C 38.000 278.303,38.360 278.883,38.800 279.200 C 39.240 279.517,39.600 280.097,39.600 280.488 C 39.600 280.880,39.780 281.200,40.000 281.200 C 40.220 281.200,40.400 281.520,40.400 281.912 C 40.400 282.303,40.760 282.883,41.200 283.200 C 41.640 283.517,42.000 284.057,42.000 284.400 C 42.000 284.743,42.360 285.283,42.800 285.600 C 43.240 285.917,43.600 286.425,43.600 286.728 C 43.600 287.031,44.140 287.783,44.800 288.400 C 45.460 289.017,46.000 289.737,46.000 290.000 C 46.000 290.263,46.540 290.983,47.200 291.600 C 47.860 292.217,48.400 292.933,48.400 293.192 C 48.400 293.451,49.120 294.354,50.000 295.200 C 50.880 296.046,51.600 296.940,51.600 297.188 C 51.600 297.436,52.860 298.881,54.400 300.400 C 55.940 301.919,57.200 303.352,57.200 303.585 C 57.200 304.137,65.461 312.400,66.012 312.400 C 66.244 312.400,67.859 313.840,69.600 315.600 C 71.341 317.360,72.968 318.800,73.214 318.800 C 73.461 318.800,74.354 319.520,75.200 320.400 C 76.046 321.280,76.949 322.000,77.208 322.000 C 77.467 322.000,78.183 322.540,78.800 323.200 C 79.417 323.860,80.137 324.400,80.400 324.400 C 80.663 324.400,81.383 324.940,82.000 325.600 C 82.617 326.260,83.369 326.800,83.672 326.800 C 83.975 326.800,84.483 327.160,84.800 327.600 C 85.117 328.040,85.657 328.400,86.000 328.400 C 86.343 328.400,86.883 328.760,87.200 329.200 C 87.517 329.640,88.057 330.000,88.400 330.000 C 88.743 330.000,89.283 330.360,89.600 330.800 C 89.917 331.240,90.457 331.600,90.800 331.600 C 91.143 331.600,91.683 331.960,92.000 332.400 C 92.317 332.840,92.897 333.200,93.288 333.200 C 93.680 333.200,94.000 333.380,94.000 333.600 C 94.000 333.820,94.320 334.000,94.712 334.000 C 95.103 334.000,95.683 334.360,96.000 334.800 C 96.317 335.240,96.897 335.600,97.288 335.600 C 97.680 335.600,98.000 335.780,98.000 336.000 C 98.000 336.220,98.360 336.400,98.800 336.400 C 99.240 336.400,99.600 336.580,99.600 336.800 C 99.600 337.020,99.920 337.200,100.312 337.200 C 100.703 337.200,101.283 337.560,101.600 338.000 C 101.917 338.440,102.497 338.800,102.888 338.800 C 103.280 338.800,103.600 338.980,103.600 339.200 C 103.600 339.420,103.960 339.600,104.400 339.600 C 104.840 339.600,105.200 339.780,105.200 340.000 C 105.200 340.220,105.560 340.400,106.000 340.400 C 106.440 340.400,106.800 340.580,106.800 340.800 C 106.800 341.020,107.160 341.200,107.600 341.200 C 108.040 341.200,108.400 341.380,108.400 341.600 C 108.400 341.820,108.760 342.000,109.200 342.000 C 109.640 342.000,110.000 342.180,110.000 342.400 C 110.000 342.620,110.360 342.800,110.800 342.800 C 111.240 342.800,111.600 342.980,111.600 343.200 C 111.600 343.420,112.140 343.600,112.800 343.600 C 113.460 343.600,114.000 343.780,114.000 344.000 C 114.000 344.220,114.360 344.400,114.800 344.400 C 115.240 344.400,115.600 344.580,115.600 344.800 C 115.600 345.020,115.960 345.200,116.400 345.200 C 116.840 345.200,117.200 345.380,117.200 345.600 C 117.200 345.820,117.560 346.000,118.000 346.000 C 118.440 346.000,118.800 346.180,118.800 346.400 C 118.800 346.620,119.340 346.800,120.000 346.800 C 120.660 346.800,121.200 346.980,121.200 347.200 C 121.200 347.420,121.560 347.600,122.000 347.600 C 122.440 347.600,122.800 347.780,122.800 348.000 C 122.800 348.220,123.340 348.400,124.000 348.400 C 124.660 348.400,125.200 348.580,125.200 348.800 C 125.200 349.020,125.740 349.200,126.400 349.200 C 127.060 349.200,127.600 349.380,127.600 349.600 C 127.600 349.820,127.960 350.000,128.400 350.000 C 128.840 350.000,129.200 350.180,129.200 350.400 C 129.200 350.620,129.740 350.800,130.400 350.800 C 131.060 350.800,131.600 350.980,131.600 351.200 C 131.600 351.420,132.140 351.600,132.800 351.600 C 133.460 351.600,134.000 351.780,134.000 352.000 C 134.000 352.220,134.540 352.400,135.200 352.400 C 135.860 352.400,136.400 352.580,136.400 352.800 C 136.400 353.020,137.120 353.200,138.000 353.200 C 138.880 353.200,139.600 353.380,139.600 353.600 C 139.600 353.820,140.140 354.000,140.800 354.000 C 141.460 354.000,142.000 354.180,142.000 354.400 C 142.000 354.620,142.720 354.800,143.600 354.800 C 144.480 354.800,145.200 354.980,145.200 355.200 C 145.200 355.420,145.920 355.600,146.800 355.600 C 147.680 355.600,148.400 355.780,148.400 356.000 C 148.400 356.220,149.120 356.400,150.000 356.400 C 150.880 356.400,151.600 356.580,151.600 356.800 C 151.600 357.020,152.320 357.200,153.200 357.200 C 154.080 357.200,154.800 357.380,154.800 357.600 C 154.800 357.820,155.700 358.000,156.800 358.000 C 157.900 358.000,158.800 358.180,158.800 358.400 C 158.800 358.622,159.867 358.800,161.200 358.800 C 162.533 358.800,163.600 358.978,163.600 359.200 C 163.600 359.429,164.800 359.600,166.400 359.600 C 168.000 359.600,169.200 359.771,169.200 360.000 C 169.200 360.233,170.533 360.400,172.400 360.400 C 174.267 360.400,175.600 360.567,175.600 360.800 C 175.600 361.042,177.333 361.200,180.000 361.200 C 182.667 361.200,184.400 361.358,184.400 361.600 C 184.400 361.860,190.000 362.000,200.400 362.000 C 210.800 362.000,216.400 361.860,216.400 361.600 C 216.400 361.358,218.133 361.200,220.800 361.200 C 223.467 361.200,225.200 361.042,225.200 360.800 C 225.200 360.567,226.533 360.400,228.400 360.400 C 230.267 360.400,231.600 360.233,231.600 360.000 C 231.600 359.771,232.800 359.600,234.400 359.600 C 236.000 359.600,237.200 359.429,237.200 359.200 C 237.200 358.978,238.267 358.800,239.600 358.800 C 240.933 358.800,242.000 358.622,242.000 358.400 C 242.000 358.180,242.900 358.000,244.000 358.000 C 245.100 358.000,246.000 357.820,246.000 357.600 C 246.000 357.380,246.720 357.200,247.600 357.200 C 248.480 357.200,249.200 357.020,249.200 356.800 C 249.200 356.580,249.920 356.400,250.800 356.400 C 251.680 356.400,252.400 356.220,252.400 356.000 C 252.400 355.780,253.120 355.600,254.000 355.600 C 254.880 355.600,255.600 355.420,255.600 355.200 C 255.600 354.980,256.320 354.800,257.200 354.800 C 258.080 354.800,258.800 354.620,258.800 354.400 C 258.800 354.180,259.340 354.000,260.000 354.000 C 260.660 354.000,261.200 353.820,261.200 353.600 C 261.200 353.380,261.920 353.200,262.800 353.200 C 263.680 353.200,264.400 353.020,264.400 352.800 C 264.400 352.580,264.940 352.400,265.600 352.400 C 266.260 352.400,266.800 352.220,266.800 352.000 C 266.800 351.780,267.340 351.600,268.000 351.600 C 268.660 351.600,269.200 351.420,269.200 351.200 C 269.200 350.980,269.740 350.800,270.400 350.800 C 271.060 350.800,271.600 350.620,271.600 350.400 C 271.600 350.180,271.960 350.000,272.400 350.000 C 272.840 350.000,273.200 349.820,273.200 349.600 C 273.200 349.380,273.740 349.200,274.400 349.200 C 275.060 349.200,275.600 349.020,275.600 348.800 C 275.600 348.580,276.140 348.400,276.800 348.400 C 277.460 348.400,278.000 348.220,278.000 348.000 C 278.000 347.780,278.360 347.600,278.800 347.600 C 279.240 347.600,279.600 347.420,279.600 347.200 C 279.600 346.980,280.140 346.800,280.800 346.800 C 281.460 346.800,282.000 346.620,282.000 346.400 C 282.000 346.180,282.360 346.000,282.800 346.000 C 283.240 346.000,283.600 345.820,283.600 345.600 C 283.600 345.380,283.960 345.200,284.400 345.200 C 284.840 345.200,285.200 345.020,285.200 344.800 C 285.200 344.580,285.560 344.400,286.000 344.400 C 286.440 344.400,286.800 344.220,286.800 344.000 C 286.800 343.780,287.340 343.600,288.000 343.600 C 288.660 343.600,289.200 343.420,289.200 343.200 C 289.200 342.980,289.560 342.800,290.000 342.800 C 290.440 342.800,290.800 342.620,290.800 342.400 C 290.800 342.180,291.160 342.000,291.600 342.000 C 292.040 342.000,292.400 341.820,292.400 341.600 C 292.400 341.380,292.760 341.200,293.200 341.200 C 293.640 341.200,294.000 341.020,294.000 340.800 C 294.000 340.580,294.360 340.400,294.800 340.400 C 295.240 340.400,295.600 340.220,295.600 340.000 C 295.600 339.780,295.960 339.600,296.400 339.600 C 296.840 339.600,297.200 339.420,297.200 339.200 C 297.200 338.980,297.520 338.800,297.912 338.800 C 298.303 338.800,298.883 338.440,299.200 338.000 C 299.517 337.560,300.097 337.200,300.488 337.200 C 300.880 337.200,301.200 337.020,301.200 336.800 C 301.200 336.580,301.560 336.400,302.000 336.400 C 302.440 336.400,302.800 336.220,302.800 336.000 C 302.800 335.780,303.120 335.600,303.512 335.600 C 303.903 335.600,304.483 335.240,304.800 334.800 C 305.117 334.360,305.697 334.000,306.088 334.000 C 306.480 334.000,306.800 333.820,306.800 333.600 C 306.800 333.380,307.120 333.200,307.512 333.200 C 307.903 333.200,308.483 332.840,308.800 332.400 C 309.117 331.960,309.657 331.600,310.000 331.600 C 310.343 331.600,310.883 331.240,311.200 330.800 C 311.517 330.360,312.057 330.000,312.400 330.000 C 312.743 330.000,313.283 329.640,313.600 329.200 C 313.917 328.760,314.457 328.400,314.800 328.400 C 315.143 328.400,315.683 328.040,316.000 327.600 C 316.317 327.160,316.825 326.800,317.128 326.800 C 317.431 326.800,318.183 326.260,318.800 325.600 C 319.417 324.940,320.137 324.400,320.400 324.400 C 320.663 324.400,321.383 323.860,322.000 323.200 C 322.617 322.540,323.333 322.000,323.592 322.000 C 323.851 322.000,324.754 321.280,325.600 320.400 C 326.446 319.520,327.339 318.800,327.586 318.800 C 327.832 318.800,329.459 317.360,331.200 315.600 C 332.941 313.840,334.556 312.400,334.788 312.400 C 335.339 312.400,343.600 304.137,343.600 303.585 C 343.600 303.352,344.860 301.919,346.400 300.400 C 347.940 298.881,349.200 297.436,349.200 297.188 C 349.200 296.940,349.920 296.046,350.800 295.200 C 351.680 294.354,352.400 293.451,352.400 293.192 C 352.400 292.933,352.940 292.217,353.600 291.600 C 354.260 290.983,354.800 290.263,354.800 290.000 C 354.800 289.737,355.340 289.017,356.000 288.400 C 356.660 287.783,357.200 287.031,357.200 286.728 C 357.200 286.425,357.560 285.917,358.000 285.600 C 358.440 285.283,358.800 284.743,358.800 284.400 C 358.800 284.057,359.160 283.517,359.600 283.200 C 360.040 282.883,360.400 282.303,360.400 281.912 C 360.400 281.520,360.580 281.200,360.800 281.200 C 361.020 281.200,361.200 280.880,361.200 280.488 C 361.200 280.097,361.560 279.517,362.000 279.200 C 362.440 278.883,362.800 278.303,362.800 277.912 C 362.800 277.520,362.980 277.200,363.200 277.200 C 363.420 277.200,363.600 276.880,363.600 276.488 C 363.600 276.097,363.960 275.517,364.400 275.200 C 364.840 274.883,365.200 274.303,365.200 273.912 C 365.200 273.520,365.380 273.200,365.600 273.200 C 365.820 273.200,366.000 272.840,366.000 272.400 C 366.000 271.960,366.180 271.600,366.400 271.600 C 366.620 271.600,366.800 271.240,366.800 270.800 C 366.800 270.360,366.980 270.000,367.200 270.000 C 367.420 270.000,367.600 269.640,367.600 269.200 C 367.600 268.760,367.780 268.400,368.000 268.400 C 368.220 268.400,368.400 268.040,368.400 267.600 C 368.400 267.160,368.580 266.800,368.800 266.800 C 369.020 266.800,369.200 266.440,369.200 266.000 C 369.200 265.560,369.380 265.200,369.600 265.200 C 369.820 265.200,370.000 264.840,370.000 264.400 C 370.000 263.960,370.180 263.600,370.400 263.600 C 370.620 263.600,370.800 263.240,370.800 262.800 C 370.800 262.360,370.980 262.000,371.200 262.000 C 371.420 262.000,371.600 261.460,371.600 260.800 C 371.600 260.140,371.780 259.600,372.000 259.600 C 372.220 259.600,372.400 259.240,372.400 258.800 C 372.400 258.360,372.580 258.000,372.800 258.000 C 373.020 258.000,373.200 257.460,373.200 256.800 C 373.200 256.140,373.380 255.600,373.600 255.600 C 373.820 255.600,374.000 255.240,374.000 254.800 C 374.000 254.360,374.180 254.000,374.400 254.000 C 374.620 254.000,374.800 253.460,374.800 252.800 C 374.800 252.140,374.980 251.600,375.200 251.600 C 375.420 251.600,375.600 251.060,375.600 250.400 C 375.600 249.740,375.780 249.200,376.000 249.200 C 376.220 249.200,376.400 248.660,376.400 248.000 C 376.400 247.340,376.580 246.800,376.800 246.800 C 377.020 246.800,377.200 246.080,377.200 245.200 C 377.200 244.320,377.380 243.600,377.600 243.600 C 377.820 243.600,378.000 243.060,378.000 242.400 C 378.000 241.740,378.180 241.200,378.400 241.200 C 378.620 241.200,378.800 240.480,378.800 239.600 C 378.800 238.720,378.980 238.000,379.200 238.000 C 379.420 238.000,379.600 237.100,379.600 236.000 C 379.600 234.900,379.780 234.000,380.000 234.000 C 380.220 234.000,380.400 233.100,380.400 232.000 C 380.400 230.900,380.580 230.000,380.800 230.000 C 381.029 230.000,381.200 228.800,381.200 227.200 C 381.200 225.600,381.371 224.400,381.600 224.400 C 381.837 224.400,382.000 222.933,382.000 220.800 C 382.000 218.667,382.163 217.200,382.400 217.200 C 382.659 217.200,382.800 212.533,382.800 204.000 C 382.800 195.467,382.659 190.800,382.400 190.800 C 382.163 190.800,382.000 189.333,382.000 187.200 C 382.000 185.067,381.837 183.600,381.600 183.600 C 381.371 183.600,381.200 182.400,381.200 180.800 C 381.200 179.200,381.029 178.000,380.800 178.000 C 380.580 178.000,380.400 177.100,380.400 176.000 C 380.400 174.900,380.220 174.000,380.000 174.000 C 379.780 174.000,379.600 173.100,379.600 172.000 C 379.600 170.900,379.420 170.000,379.200 170.000 C 378.980 170.000,378.800 169.280,378.800 168.400 C 378.800 167.520,378.620 166.800,378.400 166.800 C 378.180 166.800,378.000 166.260,378.000 165.600 C 378.000 164.940,377.820 164.400,377.600 164.400 C 377.380 164.400,377.200 163.680,377.200 162.800 C 377.200 161.920,377.020 161.200,376.800 161.200 C 376.580 161.200,376.400 160.660,376.400 160.000 C 376.400 159.340,376.220 158.800,376.000 158.800 C 375.780 158.800,375.600 158.260,375.600 157.600 C 375.600 156.940,375.420 156.400,375.200 156.400 C 374.980 156.400,374.800 155.860,374.800 155.200 C 374.800 154.540,374.620 154.000,374.400 154.000 C 374.180 154.000,374.000 153.640,374.000 153.200 C 374.000 152.760,373.820 152.400,373.600 152.400 C 373.380 152.400,373.200 151.860,373.200 151.200 C 373.200 150.540,373.020 150.000,372.800 150.000 C 372.580 150.000,372.400 149.640,372.400 149.200 C 372.400 148.760,372.220 148.400,372.000 148.400 C 371.780 148.400,371.600 147.860,371.600 147.200 C 371.600 146.540,371.420 146.000,371.200 146.000 C 370.980 146.000,370.800 145.640,370.800 145.200 C 370.800 144.760,370.620 144.400,370.400 144.400 C 370.180 144.400,370.000 144.040,370.000 143.600 C 370.000 143.160,369.820 142.800,369.600 142.800 C 369.380 142.800,369.200 142.440,369.200 142.000 C 369.200 141.560,369.020 141.200,368.800 141.200 C 368.580 141.200,368.400 140.840,368.400 140.400 C 368.400 139.960,368.220 139.600,368.000 139.600 C 367.780 139.600,367.600 139.240,367.600 138.800 C 367.600 138.360,367.420 138.000,367.200 138.000 C 366.980 138.000,366.800 137.640,366.800 137.200 C 366.800 136.760,366.620 136.400,366.400 136.400 C 366.180 136.400,366.000 136.040,366.000 135.600 C 366.000 135.160,365.820 134.800,365.600 134.800 C 365.380 134.800,365.200 134.480,365.200 134.088 C 365.200 133.697,364.840 133.117,364.400 132.800 C 363.960 132.483,363.600 131.903,363.600 131.512 C 363.600 131.120,363.420 130.800,363.200 130.800 C 362.980 130.800,362.800 130.480,362.800 130.088 C 362.800 129.697,362.440 129.117,362.000 128.800 C 361.560 128.483,361.200 127.903,361.200 127.512 C 361.200 127.120,361.020 126.800,360.800 126.800 C 360.580 126.800,360.400 126.480,360.400 126.088 C 360.400 125.697,360.040 125.117,359.600 124.800 C 359.160 124.483,358.800 123.943,358.800 123.600 C 358.800 123.257,358.440 122.717,358.000 122.400 C 357.560 122.083,357.200 121.575,357.200 121.272 C 357.200 120.969,356.660 120.217,356.000 119.600 C 355.340 118.983,354.800 118.263,354.800 118.000 C 354.800 117.737,354.260 117.017,353.600 116.400 C 352.940 115.783,352.400 115.067,352.400 114.808 C 352.400 114.549,351.680 113.646,350.800 112.800 C 349.920 111.954,349.200 111.060,349.200 110.812 C 349.200 110.564,347.940 109.119,346.400 107.600 C 344.860 106.081,343.600 104.648,343.600 104.415 C 343.600 103.863,335.339 95.600,334.788 95.600 C 334.556 95.600,332.941 94.160,331.200 92.400 C 329.459 90.640,327.832 89.200,327.586 89.200 C 327.339 89.200,326.446 88.480,325.600 87.600 C 324.754 86.720,323.851 86.000,323.592 86.000 C 323.333 86.000,322.617 85.460,322.000 84.800 C 321.383 84.140,320.663 83.600,320.400 83.600 C 320.137 83.600,319.417 83.060,318.800 82.400 C 318.183 81.740,317.431 81.200,317.128 81.200 C 316.825 81.200,316.317 80.840,316.000 80.400 C 315.683 79.960,315.143 79.600,314.800 79.600 C 314.457 79.600,313.917 79.240,313.600 78.800 C 313.283 78.360,312.743 78.000,312.400 78.000 C 312.057 78.000,311.517 77.640,311.200 77.200 C 310.883 76.760,310.343 76.400,310.000 76.400 C 309.657 76.400,309.117 76.040,308.800 75.600 C 308.483 75.160,307.903 74.800,307.512 74.800 C 307.120 74.800,306.800 74.620,306.800 74.400 C 306.800 74.180,306.480 74.000,306.088 74.000 C 305.697 74.000,305.117 73.640,304.800 73.200 C 304.483 72.760,303.903 72.400,303.512 72.400 C 303.120 72.400,302.800 72.220,302.800 72.000 C 302.800 71.780,302.440 71.600,302.000 71.600 C 301.560 71.600,301.200 71.420,301.200 71.200 C 301.200 70.980,300.880 70.800,300.488 70.800 C 300.097 70.800,299.517 70.440,299.200 70.000 C 298.883 69.560,298.303 69.200,297.912 69.200 C 297.520 69.200,297.200 69.020,297.200 68.800 C 297.200 68.580,296.840 68.400,296.400 68.400 C 295.960 68.400,295.600 68.220,295.600 68.000 C 295.600 67.780,295.240 67.600,294.800 67.600 C 294.360 67.600,294.000 67.420,294.000 67.200 C 294.000 66.980,293.640 66.800,293.200 66.800 C 292.760 66.800,292.400 66.620,292.400 66.400 C 292.400 66.180,292.040 66.000,291.600 66.000 C 291.160 66.000,290.800 65.820,290.800 65.600 C 290.800 65.380,290.440 65.200,290.000 65.200 C 289.560 65.200,289.200 65.020,289.200 64.800 C 289.200 64.580,288.660 64.400,288.000 64.400 C 287.340 64.400,286.800 64.220,286.800 64.000 C 286.800 63.780,286.440 63.600,286.000 63.600 C 285.560 63.600,285.200 63.420,285.200 63.200 C 285.200 62.980,284.840 62.800,284.400 62.800 C 283.960 62.800,283.600 62.620,283.600 62.400 C 283.600 62.180,283.240 62.000,282.800 62.000 C 282.360 62.000,282.000 61.820,282.000 61.600 C 282.000 61.380,281.460 61.200,280.800 61.200 C 280.140 61.200,279.600 61.020,279.600 60.800 C 279.600 60.580,279.240 60.400,278.800 60.400 C 278.360 60.400,278.000 60.220,278.000 60.000 C 278.000 59.780,277.460 59.600,276.800 59.600 C 276.140 59.600,275.600 59.420,275.600 59.200 C 275.600 58.980,275.060 58.800,274.400 58.800 C 273.740 58.800,273.200 58.620,273.200 58.400 C 273.200 58.180,272.840 58.000,272.400 58.000 C 271.960 58.000,271.600 57.820,271.600 57.600 C 271.600 57.380,271.060 57.200,270.400 57.200 C 269.740 57.200,269.200 57.020,269.200 56.800 C 269.200 56.580,268.660 56.400,268.000 56.400 C 267.340 56.400,266.800 56.220,266.800 56.000 C 266.800 55.780,266.260 55.600,265.600 55.600 C 264.940 55.600,264.400 55.420,264.400 55.200 C 264.400 54.980,263.680 54.800,262.800 54.800 C 261.920 54.800,261.200 54.620,261.200 54.400 C 261.200 54.180,260.660 54.000,260.000 54.000 C 259.340 54.000,258.800 53.820,258.800 53.600 C 258.800 53.380,258.080 53.200,257.200 53.200 C 256.320 53.200,255.600 53.020,255.600 52.800 C 255.600 52.580,254.880 52.400,254.000 52.400 C 253.120 52.400,252.400 52.220,252.400 52.000 C 252.400 51.780,251.680 51.600,250.800 51.600 C 249.920 51.600,249.200 51.420,249.200 51.200 C 249.200 50.980,248.480 50.800,247.600 50.800 C 246.720 50.800,246.000 50.620,246.000 50.400 C 246.000 50.180,245.100 50.000,244.000 50.000 C 242.900 50.000,242.000 49.820,242.000 49.600 C 242.000 49.378,240.933 49.200,239.600 49.200 C 238.267 49.200,237.200 49.022,237.200 48.800 C 237.200 48.571,236.000 48.400,234.400 48.400 C 232.800 48.400,231.600 48.229,231.600 48.000 C 231.600 47.767,230.267 47.600,228.400 47.600 C 226.533 47.600,225.200 47.433,225.200 47.200 C 225.200 46.958,223.467 46.800,220.800 46.800 C 218.133 46.800,216.400 46.642,216.400 46.400 C 216.400 46.140,210.800 46.000,200.400 46.000 C 190.000 46.000,184.400 46.140,184.400 46.400 M265.480 69.435 C 266.756 69.784,268.343 70.205,269.006 70.371 C 269.670 70.538,270.885 70.972,271.706 71.337 C 272.528 71.702,273.875 72.288,274.700 72.641 C 280.356 75.056,286.649 79.017,287.563 80.736 C 287.761 81.107,287.772 82.369,287.588 83.600 C 286.981 87.658,285.219 110.123,284.419 124.000 C 281.690 171.302,280.917 194.958,282.230 190.957 C 282.366 190.541,282.748 189.480,283.079 188.600 C 283.409 187.720,284.369 184.930,285.213 182.400 C 286.056 179.870,287.187 176.540,287.725 175.000 C 288.264 173.460,289.284 170.310,289.992 168.000 C 290.700 165.690,291.599 162.810,291.991 161.600 C 292.382 160.390,293.097 158.050,293.578 156.400 C 294.060 154.750,294.610 152.950,294.800 152.400 C 294.990 151.850,295.540 150.050,296.022 148.400 C 296.503 146.750,297.240 144.320,297.658 143.000 C 298.076 141.680,298.578 140.060,298.774 139.400 C 300.506 133.559,300.999 131.913,301.591 130.000 C 301.965 128.790,302.520 126.945,302.823 125.900 C 303.126 124.855,303.484 124.000,303.618 124.000 C 304.535 124.000,308.112 129.477,310.671 134.800 C 313.939 141.597,314.400 142.627,314.400 143.132 C 314.400 143.395,314.559 143.923,314.753 144.305 C 315.863 146.486,317.592 151.326,318.789 155.600 C 319.066 156.590,319.483 157.918,319.716 158.551 C 320.548 160.812,320.225 163.613,318.652 167.800 C 317.826 170.000,316.820 172.790,316.417 174.000 C 315.689 176.185,313.692 181.319,312.527 184.000 C 312.192 184.770,311.775 185.760,311.599 186.200 C 311.423 186.640,310.902 187.853,310.440 188.896 C 309.978 189.938,309.600 190.888,309.600 191.007 C 309.600 191.917,297.502 216.161,294.372 221.523 C 293.341 223.289,293.391 223.923,294.800 227.000 C 295.460 228.441,296.000 229.700,296.000 229.798 C 296.000 230.823,305.432 249.976,309.740 257.700 C 310.323 258.745,311.228 260.378,311.752 261.328 C 312.276 262.279,313.446 264.277,314.352 265.769 C 315.258 267.261,316.000 268.566,316.000 268.669 C 316.000 268.772,316.540 269.641,317.200 270.600 C 317.860 271.559,318.400 272.459,318.400 272.600 C 318.400 272.741,318.949 273.653,319.619 274.628 C 322.314 278.544,322.320 278.233,319.391 286.200 C 318.583 288.400,317.827 290.608,317.713 291.106 C 317.598 291.604,317.346 292.110,317.152 292.230 C 316.959 292.349,316.800 292.709,316.800 293.028 C 316.800 293.347,316.419 294.462,315.953 295.504 C 315.488 296.547,314.840 298.030,314.513 298.800 C 312.921 302.550,310.870 306.475,309.126 309.108 C 308.067 310.707,307.196 312.147,307.191 312.308 C 307.122 314.547,300.800 318.230,300.800 316.031 C 300.800 315.662,300.648 315.189,300.461 314.980 C 300.275 314.771,299.526 313.070,298.797 311.200 C 298.068 309.330,297.350 307.620,297.201 307.400 C 297.052 307.180,296.524 305.920,296.026 304.600 C 295.529 303.280,294.977 301.840,294.799 301.400 C 294.622 300.960,293.902 299.070,293.200 297.200 C 292.498 295.330,291.778 293.440,291.599 293.000 C 290.420 290.095,285.604 275.759,284.410 271.600 C 284.125 270.610,283.579 268.810,283.195 267.600 C 282.811 266.390,282.070 264.006,281.549 262.302 C 280.438 258.675,279.997 258.389,280.007 261.300 C 280.024 266.520,281.198 304.874,281.349 305.122 C 281.441 305.275,281.623 308.310,281.753 311.867 L 281.989 318.333 279.894 319.852 C 274.620 323.676,269.035 325.600,263.210 325.600 L 260.118 325.600 259.840 321.900 C 256.758 280.949,255.971 215.827,257.581 134.800 C 258.209 103.168,259.163 76.201,259.842 70.900 L 260.111 68.800 261.636 68.800 C 262.475 68.800,264.205 69.086,265.480 69.435 M118.154 128.476 C 132.541 132.637,140.081 151.875,141.013 186.800 C 141.388 200.826,140.278 230.575,138.418 256.400 C 138.204 259.370,137.846 264.410,137.622 267.600 C 136.537 283.061,136.231 286.881,134.397 307.800 C 134.185 310.220,133.895 313.730,133.752 315.600 C 133.608 317.470,133.322 319.215,133.115 319.478 C 132.222 320.612,123.175 318.676,117.729 316.185 C 116.545 315.643,115.430 315.200,115.250 315.200 C 113.864 315.200,113.652 313.868,114.087 307.892 C 114.551 301.520,114.467 301.046,113.098 302.260 C 109.828 305.161,107.733 306.225,104.142 306.809 C 92.377 308.724,82.725 296.970,79.664 277.000 C 78.438 269.004,78.328 267.042,78.524 256.600 C 78.759 244.063,78.830 243.327,80.466 236.400 C 82.222 228.963,86.028 222.070,90.376 218.452 C 95.561 214.137,100.275 212.800,110.300 212.800 L 116.800 212.800 116.804 202.100 C 116.809 184.263,115.683 169.866,113.900 165.000 C 112.058 159.972,108.679 160.598,107.003 166.278 C 106.626 167.555,106.173 169.050,105.996 169.600 C 105.657 170.652,105.099 173.653,104.433 178.000 C 103.987 180.913,103.208 190.721,103.082 195.000 L 103.000 197.800 101.400 197.676 C 94.572 197.148,88.104 190.458,84.890 180.600 C 82.442 173.094,81.774 168.088,82.715 164.318 C 82.951 163.373,83.360 161.700,83.624 160.600 C 88.941 138.459,104.054 124.398,118.154 128.476 M174.277 135.805 C 174.319 137.782,174.549 146.150,174.789 154.400 C 175.029 162.650,175.308 172.550,175.408 176.400 C 175.768 190.158,176.591 208.762,177.603 226.000 C 178.071 233.957,178.740 244.911,178.776 245.180 C 178.922 246.283,179.774 243.795,180.026 241.530 C 180.205 239.918,180.553 236.980,180.800 235.000 C 181.805 226.937,182.731 219.064,183.012 216.200 C 183.098 215.320,183.347 213.250,183.565 211.600 C 184.273 206.233,185.817 192.189,186.797 182.200 C 187.034 179.780,187.394 176.270,187.597 174.400 C 187.801 172.530,188.160 168.840,188.396 166.200 C 188.632 163.560,188.992 159.690,189.198 157.600 C 189.403 155.510,189.680 152.477,189.813 150.859 C 190.144 146.853,189.977 147.067,194.538 144.849 C 203.685 140.401,212.580 138.035,213.898 139.700 C 214.116 139.975,214.400 141.280,214.530 142.600 C 214.661 143.920,214.961 146.620,215.197 148.600 C 215.831 153.915,216.380 158.906,216.815 163.300 C 218.140 176.711,218.715 182.854,219.220 189.000 C 219.437 191.640,219.791 195.960,220.008 198.600 C 220.850 208.881,221.864 222.732,222.369 230.876 C 222.912 239.625,223.610 240.131,224.196 232.200 C 224.326 230.440,224.606 227.110,224.819 224.800 C 225.464 217.800,226.653 201.968,227.207 193.000 C 228.087 178.760,229.119 159.014,229.539 148.400 L 229.800 141.800 230.899 141.674 C 231.962 141.551,235.526 142.606,238.400 143.893 C 242.141 145.569,247.188 150.040,249.877 154.060 C 250.846 155.509,250.850 155.552,250.394 160.060 C 249.843 165.504,249.092 172.110,248.012 181.000 C 247.798 182.760,247.427 185.820,247.187 187.800 C 246.261 195.451,246.087 196.804,244.800 206.400 C 244.608 207.830,244.260 210.440,244.027 212.200 C 243.794 213.960,243.421 216.660,243.199 218.200 C 242.977 219.740,242.623 222.260,242.412 223.800 C 242.202 225.340,241.854 227.770,241.641 229.200 C 241.427 230.630,241.069 233.060,240.843 234.600 C 240.618 236.140,240.259 238.480,240.045 239.800 C 239.832 241.120,239.458 243.460,239.214 245.000 C 238.971 246.540,238.604 248.790,238.400 250.000 C 238.045 252.101,237.657 254.434,236.820 259.500 C 236.611 260.765,236.251 262.835,236.020 264.100 C 235.789 265.365,235.420 267.390,235.200 268.600 C 234.980 269.810,234.620 271.790,234.400 273.000 C 233.860 275.971,233.195 279.459,232.800 281.400 C 232.621 282.280,232.278 283.990,232.038 285.200 C 231.798 286.410,231.421 288.210,231.200 289.200 C 230.979 290.190,230.619 291.900,230.400 293.000 C 230.003 294.995,229.652 296.592,228.861 300.000 C 228.631 300.990,228.175 303.090,227.848 304.666 C 226.921 309.134,226.294 310.606,224.791 311.846 C 224.026 312.478,223.172 313.211,222.894 313.475 C 221.180 315.101,211.314 319.069,208.428 319.293 C 206.739 319.425,206.497 318.809,206.440 314.223 C 206.418 312.476,206.227 309.056,206.015 306.623 C 205.803 304.191,205.439 299.320,205.205 295.800 C 204.566 286.165,204.025 278.738,203.573 273.400 C 203.349 270.760,203.091 267.250,202.999 265.600 C 202.826 262.479,202.294 255.373,201.591 246.800 C 201.366 244.050,201.011 239.640,200.803 237.000 C 200.594 234.360,200.241 230.130,200.017 227.600 C 199.794 225.070,199.492 221.605,199.348 219.900 C 199.002 215.833,198.667 215.987,198.045 220.500 C 197.764 222.535,197.379 225.100,197.189 226.200 C 196.998 227.300,196.642 229.550,196.396 231.200 C 196.151 232.850,195.792 235.190,195.600 236.400 C 195.408 237.610,195.048 239.950,194.800 241.600 C 194.552 243.250,194.188 245.590,193.991 246.800 C 193.793 248.010,193.437 250.260,193.200 251.800 C 192.963 253.340,192.596 255.635,192.384 256.900 C 192.173 258.165,191.820 260.280,191.600 261.600 C 191.380 262.920,191.020 265.080,190.800 266.400 C 190.580 267.720,190.220 269.880,190.000 271.200 C 189.780 272.520,189.404 274.725,189.165 276.100 C 188.926 277.475,188.566 279.545,188.365 280.700 C 188.164 281.855,187.836 283.745,187.635 284.900 C 187.033 288.359,186.361 292.088,185.994 294.000 C 185.804 294.990,185.422 297.027,185.145 298.527 L 184.643 301.254 182.421 302.544 C 180.353 303.746,179.213 304.311,175.900 305.774 C 172.901 307.099,164.467 309.065,163.452 308.675 C 163.073 308.530,162.775 307.623,162.615 306.125 C 162.366 303.793,162.032 301.415,161.220 296.200 C 160.980 294.660,160.709 292.680,160.617 291.800 C 160.526 290.920,160.246 288.760,159.995 287.000 C 159.233 281.644,158.546 276.342,157.612 268.600 C 157.373 266.620,157.013 263.650,156.812 262.000 C 156.611 260.350,156.251 257.380,156.012 255.400 C 155.773 253.420,155.402 250.360,155.188 248.600 C 154.975 246.840,154.614 243.780,154.388 241.800 C 153.406 233.217,151.329 212.707,150.389 202.300 C 150.175 199.935,149.814 195.975,149.587 193.500 C 149.360 191.025,149.000 186.885,148.787 184.300 C 148.574 181.715,148.216 177.395,147.991 174.700 C 147.305 166.482,146.814 160.070,146.423 154.200 C 146.217 151.120,145.940 147.610,145.806 146.400 C 145.512 143.748,145.457 143.831,149.200 141.335 C 155.766 136.957,163.985 133.562,170.600 132.495 C 174.367 131.888,174.190 131.728,174.277 135.805 M114.000 240.481 C 111.182 241.686,110.502 242.070,109.383 243.090 C 102.866 249.035,101.403 271.760,107.200 277.000 C 108.908 278.544,111.710 278.080,113.900 275.889 L 115.752 274.038 116.044 264.319 C 116.204 258.973,116.462 251.315,116.617 247.300 L 116.897 240.000 115.949 240.027 C 115.427 240.042,114.550 240.246,114.000 240.481 " stroke="none" fill="#fbfbfb" fill-rule="evenodd"></path></g></svg>