<svg width="378" height="378" xmlns="http://www.w3.org/2000/svg" xmlns:xlink="http://www.w3.org/1999/xlink" overflow="hidden"><defs><clipPath id="clip0"><rect x="0" y="0" width="378" height="378"/></clipPath><clipPath id="clip1"><rect x="28" y="0" width="322" height="378"/></clipPath><clipPath id="clip2"><rect x="28" y="0" width="323" height="378"/></clipPath><clipPath id="clip3"><rect x="28" y="0" width="2416" height="378"/></clipPath></defs><g clip-path="url(#clip0)"><rect x="0" y="0" width="378" height="378" fill="#FFFFFF"/><g clip-path="url(#clip1)"><g clip-path="url(#clip2)"><g clip-path="url(#clip3)"><path d="M512.17 235.376C505.023 238.713 489.284 243.006 468.783 243.006 410.614 243.006 380.575 206.293 380.575 158.135 380.575 100.444 421.581 68.5027 472.598 68.5027 492.621 68.5027 507.403 72.3179 514.072 76.1281L506.447 106.645C498.822 103.308 487.854 100.444 474.506 100.444 443.989 100.444 420.625 118.564 420.625 156.227 420.625 190.071 440.642 211.528 474.969 211.528 486.415 211.528 499.28 209.142 506.915 205.805L512.638 235.854ZM572.72 71.3616 572.72 136.2 635.656 136.2 635.656 71.3717 673.808 71.3717 673.808 240.137 635.656 240.137 635.656 169.586 572.735 169.586 572.735 240.152 534.593 240.152 534.593 71.3566 572.73 71.3566ZM742.935 71.3616 742.935 240.137 704.793 240.137 704.793 71.3717 742.935 71.3717ZM897.406 235.376C890.258 238.713 874.524 243.006 854.019 243.006 795.855 243.006 765.821 206.293 765.821 158.135 765.821 100.444 806.822 68.5027 857.839 68.5027 877.872 68.5027 892.644 72.3179 899.313 76.1281L891.693 106.645C884.062 103.308 873.095 100.444 859.747 100.444 829.23 100.444 805.871 118.564 805.871 156.227 805.871 190.071 825.883 211.528 860.215 211.528 871.656 211.528 884.526 209.142 892.156 205.805L897.879 235.854ZM920.297 71.3616 957.966 71.3616 957.966 146.216 958.922 146.216C962.732 139.542 966.548 133.819 970.363 127.623L1008.5 71.3616 1055.23 71.3616 999.46 143.357 1058.58 240.147 1013.76 240.147 972.281 167.195 957.986 184.837 957.986 240.137 920.312 240.137 920.312 71.3717ZM1172.04 168.624 1110.05 168.624 1110.05 208.674 1179.66 208.674 1179.66 240.132 1071.9 240.132 1071.9 71.3717 1176.32 71.3717 1176.32 102.84 1110.54 102.84 1110.54 138.123 1172.52 138.123 1172.52 169.118ZM1202.54 240.147 1202.54 71.3566 1247.36 71.3566 1282.65 133.341C1292.66 150.978 1302.67 171.956 1310.3 191.032L1311.26 191.032C1308.86 168.619 1307.91 145.733 1307.91 120.466L1307.91 71.3566 1343.19 71.3566 1343.19 240.137 1303.14 240.137 1266.9 174.825C1256.89 156.706 1245.92 134.776 1237.81 115.232L1236.86 115.705C1237.82 138.113 1238.29 161.95 1238.29 189.603L1238.29 240.62 1203.01 240.62Z" fill="#FFBA54" transform="matrix(1 0 0 1.00134 28 0)"/><path d="M1377.53 212.716C1386.59 218.152 1399.95 223.578 1414.73 223.578 1440.95 223.578 1453.34 209.998 1453.34 193.705 1453.34 176.506 1442.37 167.004 1418.54 157.954 1391.36 147.988 1376.11 133.965 1376.11 114.955 1376.11 92.3151 1394.7 72.4035 1427.12 72.4035 1442.37 72.4035 1455.26 76.4804 1463.83 82.3593L1457.16 95.033C1451.44 90.9561 1440.95 85.5302 1424.26 85.5302 1403.28 85.5302 1392.32 98.199 1392.32 112.685 1392.32 128.972 1404.24 136.215 1426.64 145.265 1453.82 155.221 1469.56 167.895 1469.56 191.883 1469.56 219.038 1447.61 237.132 1413.28 237.132 1397.08 237.132 1382.3 232.612 1370.85 225.822L1376.57 212.696ZM1624.99 226.743C1617.84 230.367 1600.2 237.142 1576.36 237.142 1528.2 237.142 1496.25 204.104 1496.25 156.132 1496.25 106.353 1532.01 71.9555 1582.07 71.9555 1602.58 71.9555 1619.27 77.3915 1625.46 81.9113L1619.74 94.5851C1611.64 90.5081 1598.77 85.5353 1580.17 85.5353 1535.35 85.5353 1512.47 118.121 1512.47 155.231 1512.47 196.423 1539.65 223.13 1578.26 223.13 1597.81 223.13 1610.68 217.694 1619.74 214.07L1624.03 226.29ZM1661.23 0.44796 1677.44 0.44796 1677.44 104.083 1677.91 104.083C1682.68 95.033 1690.78 86.8842 1700.8 81.0003 1710.34 75.5644 1721.78 71.9505 1734.18 71.9505 1749.91 71.9505 1791.39 79.6514 1791.39 138.027L1791.39 233.07 1775.19 233.07 1775.19 139.849C1775.19 111.336 1763.26 85.5403 1729.41 85.5403 1706.04 85.5403 1686.02 101.833 1679.35 121.292 1677.44 125.822 1676.95 130.351 1676.95 136.678L1676.95 233.08 1660.75 233.08 1660.75 0ZM1845.74 152.966C1845.74 203.651 1874.83 223.114 1909.16 223.114 1933.47 223.114 1945.86 218.585 1955.4 214.055L1959.69 226.728C1953.5 229.899 1936.33 236.684 1907.24 236.684 1859.56 236.684 1829.53 203.641 1829.53 157.028 1829.53 104.531 1861.47 71.4874 1904.39 71.4874 1958.74 71.4874 1969.23 119.907 1969.23 142.542 1969.23 146.619 1969.23 149.337 1968.75 152.055L1846.22 152.055ZM1951.59 140.292C1952.06 118.116 1942.05 84.6243 1902 84.6243 1865.29 84.6243 1849.55 115.851 1846.69 140.292L1951.59 140.292ZM2007.37 113.591C2007.37 99.0949 2006.9 88.2381 2005.95 76.0174L2021.2 76.0174 2022.64 104.078 2023.12 104.078C2033.6 85.9832 2049.34 72.4035 2076.52 72.4035 2099.87 72.4035 2117.52 86.8842 2124.19 106.801L2124.67 106.801C2129.43 97.3081 2135.63 90.5182 2141.83 85.5403 2152.8 76.9334 2163.76 72.4136 2181.4 72.4136 2197.61 72.4136 2235.28 81.0104 2235.28 140.755L2235.28 233.543 2219.07 233.543 2219.07 142.104C2219.07 106.806 2204.77 85.5302 2175.68 85.5302 2154.69 85.5302 2138.49 100.016 2132.3 116.762 2130.38 121.276 2128.95 126.707 2128.95 132.138L2128.95 233.518 2112.75 233.518 2112.75 134.866C2112.75 106.348 2098.44 85.5403 2071.74 85.5403 2049.32 85.5403 2032.16 102.729 2025.49 120.823 2023.57 124.9 2022.62 130.789 2022.62 135.772L2022.62 233.065 2006.41 233.065 2006.41 113.148ZM2290.11 152.961C2290.11 203.646 2319.2 223.109 2353.53 223.109 2377.84 223.109 2390.24 218.58 2399.77 214.05L2404.07 226.723C2397.87 229.894 2380.71 236.679 2351.63 236.679 2303.95 236.679 2273.91 203.636 2273.91 157.023 2273.91 104.526 2305.85 71.4824 2348.76 71.4824 2403.12 71.4824 2413.61 119.902 2413.61 142.537 2413.61 146.614 2413.61 149.332 2413.13 152.05L2290.59 152.05ZM2395.96 140.287C2396.44 118.111 2386.43 84.6192 2346.38 84.6192 2309.66 84.6192 2293.93 115.846 2291.06 140.287L2395.95 140.287Z" fill="#B64926" transform="matrix(1 0 0 1.00134 28 0)"/><path d="M433.465 334.435C433.465 339.68 433.938 344.451 434.411 349.686L428.698 349.686 427.742 340.626 427.269 340.626C424.4 345.398 417.253 351.12 407.251 351.12 394.391 351.12 388.679 342.061 388.679 333.479 388.679 318.701 401.534 310.125 427.259 310.125L427.259 308.685C427.259 302.479 426.302 289.609 411.052 290.082 405.339 290.082 399.626 291.512 395.338 294.849L393.425 290.087C399.148 286.272 406.295 284.842 412.008 284.842 430.581 284.842 433.923 298.669 433.923 310.109L433.923 334.903ZM427.274 315.359C413.452 314.886 395.353 317.272 395.353 332.049 395.353 341.109 401.544 345.408 408.213 345.408 418.692 345.408 424.888 338.734 426.785 332.538 427.269 331.108 427.269 329.669 427.269 328.722L427.269 314.881ZM480.143 306.299C480.143 298.196 479.665 292.005 479.665 286.277L485.373 286.277 485.846 298.196 486.319 298.196C490.607 289.614 498.701 284.847 509.658 284.847 525.865 284.847 536.808 298.196 536.808 316.794 536.808 339.68 523.469 351.12 507.756 351.12 498.696 351.12 490.607 346.832 486.314 339.202L485.841 339.202 485.841 375.914 479.67 375.914 479.67 306.304ZM486.334 324.419C486.334 326.332 486.807 327.756 486.807 329.664 489.666 339.68 497.765 345.871 507.771 345.871 522.533 345.871 530.632 333.957 530.632 317.267 530.632 302.972 522.528 290.087 508.244 290.087 499.194 290.087 490.144 296.766 487.285 307.251 486.807 309.163 486.329 311.076 486.329 312.5L486.329 324.897ZM552.068 305.343C552.068 299.152 551.59 292.478 551.59 286.277L557.298 286.277 557.776 299.152 558.244 299.152C561.103 291.048 567.772 284.847 576.344 284.847 577.3 284.847 578.257 284.847 578.725 285.326L578.725 291.517C577.768 291.043 576.812 291.043 575.866 291.043 567.289 291.043 561.098 298.674 559.19 308.685 558.717 310.583 558.717 312.49 558.717 314.876L558.717 350.159 552.526 350.159 552.526 305.816ZM628.76 334.435C628.76 339.68 629.243 344.451 629.717 349.686L624.004 349.686 623.048 340.626 622.574 340.626C619.721 345.398 612.578 351.12 602.577 351.12 589.712 351.12 584.005 342.061 584.005 333.479 584.005 318.701 596.859 310.125 622.579 310.125L622.579 308.685C622.579 302.479 621.623 289.609 606.392 290.082 600.675 290.082 594.957 291.512 590.674 294.849L588.761 290.087C594.489 286.272 601.631 284.842 607.349 284.842 625.922 284.842 629.259 298.669 629.259 310.109L629.259 334.903ZM622.569 315.359C608.763 314.886 590.658 317.272 590.658 332.049 590.658 341.109 596.849 345.408 603.523 345.408 614.003 345.408 620.194 338.734 622.096 332.538 622.574 331.108 622.574 329.669 622.574 328.722L622.574 314.881ZM692.119 346.832C689.265 348.262 682.596 351.12 673.546 351.12 654.974 351.12 643.06 337.772 643.06 318.706 643.06 298.674 656.876 284.847 675.927 284.847 683.552 284.847 690.221 287.233 692.602 288.663L690.221 293.917C686.879 292.005 682.118 290.102 674.971 290.102 657.827 290.102 649.251 302.977 649.251 318.238 649.251 334.918 659.73 345.408 674.497 345.408 682.118 345.408 686.879 343.495 690.216 342.071L692.109 346.852ZM715.936 271.972 715.936 285.799 734.036 285.799 734.036 291.043 715.931 291.043 715.931 332.528C715.931 340.631 718.307 345.876 724.971 345.876 728.308 345.876 730.689 345.398 732.118 344.919L733.075 349.691C731.162 350.647 727.83 351.12 724.015 351.12 719.258 351.12 715.448 349.691 713.067 346.354 710.214 343.017 709.257 337.772 709.257 331.103L709.257 291.038 698.778 291.038 698.778 285.804 709.262 285.804 709.262 274.363 715.453 271.967ZM754.995 268.162C754.995 271.021 753.082 273.407 749.76 273.407 746.891 273.407 744.988 271.021 744.988 268.162 744.988 265.293 747.369 262.439 750.223 262.439 753.092 262.439 755.468 264.83 755.468 268.177ZM746.891 349.691 746.891 286.272 753.082 286.272 753.082 349.691 746.891 349.691ZM816.919 346.832C814.06 348.262 807.391 351.12 798.346 351.12 779.763 351.12 767.854 337.772 767.854 318.706 767.854 298.674 781.666 284.847 800.722 284.847 808.342 284.847 815.016 287.233 817.392 288.663L815.011 293.917C811.679 292.005 806.908 290.102 799.77 290.102 782.622 290.102 774.05 302.977 774.05 318.238 774.05 334.918 784.52 345.408 799.292 345.408 806.923 345.408 811.689 343.495 815.021 342.071L816.934 346.852ZM870.271 334.903C870.271 340.153 870.744 344.919 871.218 350.169L865.515 350.169 864.559 341.109 864.085 341.109C861.227 345.891 854.079 351.609 844.078 351.609 831.218 351.609 825.505 342.549 825.505 333.967 825.505 319.189 838.36 310.613 864.085 310.613L864.085 309.178C864.085 302.987 863.129 290.102 847.888 290.585 842.171 290.585 836.463 292.02 832.17 295.357L830.267 290.59C835.985 286.78 843.132 285.356 848.84 285.356 867.422 285.356 870.76 299.177 870.76 310.623L870.76 335.412ZM864.08 315.837C850.259 315.364 832.159 317.75 832.159 332.528 832.159 341.587 838.35 345.876 845.03 345.876 855.509 345.876 861.705 339.202 863.602 333.001 864.085 331.571 864.085 330.142 864.085 329.191L864.085 315.364ZM889.322 255.765 895.513 255.765 895.513 349.686 889.322 349.686 889.322 255.765ZM983.147 334.913C983.147 340.148 983.63 344.93 984.104 350.164L978.391 350.164 977.435 341.104 976.961 341.104C974.113 345.876 966.97 351.599 956.964 351.599 944.104 351.599 938.392 342.539 938.392 333.957 938.392 319.174 951.251 310.593 976.971 310.593L976.971 309.163C976.971 302.972 976.025 290.087 960.779 290.57 955.067 290.57 949.354 292 945.061 295.337L943.158 290.57C948.871 286.755 956.018 285.326 961.731 285.326 980.304 285.326 983.646 299.152 983.646 310.593L983.646 335.386ZM976.956 315.837C963.145 315.364 945.045 317.75 945.045 332.528 945.045 341.587 951.236 345.876 957.906 345.876 968.385 345.876 974.581 339.202 976.478 333.001 976.961 331.571 976.961 330.142 976.961 329.191L976.961 315.837ZM1002.68 301.533C1002.68 295.815 1002.21 291.517 1002.21 286.282L1007.92 286.282 1008.4 297.723 1008.88 297.723C1012.21 290.575 1020.3 284.858 1030.79 284.858 1036.98 284.858 1052.7 287.716 1052.7 311.559L1052.7 349.696 1046.51 349.696 1046.51 312.027C1046.51 300.586 1042.22 290.097 1028.89 290.097 1019.83 290.097 1012.21 296.288 1009.83 304.88 1009.36 306.309 1008.89 308.69 1008.89 310.598L1008.89 349.691 1002.7 349.691 1002.7 301.543ZM1122.72 255.765 1122.72 334.913C1122.72 339.68 1123.2 345.398 1123.2 349.691L1117.48 349.691 1117 337.772 1116.52 337.772C1113.18 344.919 1105.56 351.12 1094.12 351.12 1078.41 351.12 1066.98 337.772 1066.98 319.174 1066.98 298.196 1079.84 284.847 1095.56 284.847 1106.51 284.847 1113.17 290.57 1116.51 295.82L1116.99 295.82 1116.99 255.765 1123.18 255.765ZM1116.53 311.549C1116.53 309.636 1116.05 307.256 1116.05 305.826 1113.67 297.254 1106.52 290.102 1096.04 290.102 1082.23 290.102 1073.66 302.021 1073.66 318.711 1073.66 333.006 1080.8 345.881 1096.04 345.881 1105.1 345.881 1113.67 340.158 1116.53 329.196 1117.01 327.283 1117.01 325.858 1117.01 323.951L1117.01 311.086ZM1170.35 306.777C1170.35 298.674 1169.88 292.483 1169.88 286.755L1175.58 286.755 1176.06 298.674 1176.53 298.674C1180.82 290.092 1188.91 285.326 1199.87 285.326 1216.07 285.326 1227.03 298.674 1227.03 317.267 1227.03 340.153 1213.69 351.594 1197.97 351.594 1188.92 351.594 1180.82 347.305 1176.53 339.68L1176.06 339.68 1176.06 376.392 1169.87 376.392 1169.87 306.777ZM1176.55 324.897C1176.55 326.81 1177.02 328.234 1177.02 330.142 1179.87 340.158 1187.97 346.349 1197.97 346.349 1212.74 346.349 1220.84 334.435 1220.84 317.745 1220.84 303.43 1212.73 290.565 1198.45 290.565 1189.4 290.565 1180.35 297.234 1177.49 307.729 1177.01 309.641 1176.54 311.539 1176.54 312.963L1176.54 325.365ZM1296.11 317.75C1296.11 341.587 1279.91 351.599 1265.62 351.599 1249.43 351.599 1236.57 338.724 1236.57 318.701 1236.57 296.756 1250.85 284.837 1266.57 284.837 1284.18 284.837 1296.1 298.186 1296.1 317.252ZM1242.75 318.706C1242.75 334.435 1252.76 346.354 1266.1 346.354 1279.44 346.354 1289.91 334.435 1289.91 318.218 1289.91 306.777 1283.25 290.57 1266.58 290.57 1250.39 290.57 1243.25 305.348 1243.25 318.706ZM1310.87 305.348C1310.87 299.157 1310.4 292.478 1310.4 286.272L1316.11 286.272 1316.59 299.157 1317.06 299.157C1319.92 291.043 1326.59 284.847 1335.17 284.847 1336.11 284.847 1337.06 284.847 1337.53 285.326L1337.53 291.517C1336.58 291.043 1335.62 291.043 1334.68 291.043 1326.11 291.043 1319.91 298.674 1318.01 308.685 1317.54 310.583 1317.54 312.49 1317.54 314.876L1317.54 350.159 1311.35 350.159 1311.35 305.816ZM1360.89 272.451 1360.89 286.277 1378.98 286.277 1378.98 291.522 1360.88 291.522 1360.88 332.996C1360.88 341.099 1363.25 346.344 1369.92 346.344 1373.26 346.344 1375.64 345.866 1377.07 345.388L1378.03 350.159C1376.11 351.115 1372.78 351.594 1368.97 351.594 1364.21 351.594 1360.4 350.164 1358.01 346.827 1355.16 343.485 1354.2 338.24 1354.2 331.566L1354.2 291.527 1343.73 291.527 1343.73 286.277 1354.21 286.277 1354.21 274.836 1360.4 272.451ZM1430.9 334.913C1430.9 340.148 1431.38 344.93 1431.86 350.164L1426.14 350.164 1425.18 341.104 1424.71 341.104C1421.86 345.876 1414.71 351.599 1404.71 351.599 1391.85 351.599 1386.14 342.539 1386.14 333.957 1386.14 319.174 1398.99 310.593 1424.72 310.593L1424.72 309.163C1424.72 302.972 1423.76 290.087 1408.53 290.57 1402.81 290.57 1397.1 292 1392.81 295.337L1390.9 290.57C1396.62 286.755 1403.77 285.326 1409.48 285.326 1428.06 285.326 1431.4 299.152 1431.4 310.593L1431.4 335.386ZM1424.71 315.837C1410.89 315.364 1392.8 317.75 1392.8 332.528 1392.8 341.587 1398.99 345.876 1405.65 345.876 1416.13 345.876 1422.32 339.202 1424.23 333.001 1424.71 331.571 1424.71 330.142 1424.71 329.191L1424.71 315.364ZM1450.43 256.243 1456.62 256.243 1456.62 298.674 1457.1 298.674C1461.39 290.57 1469.01 285.326 1480.44 285.326 1496.64 285.326 1507.59 298.674 1507.59 317.74 1507.59 340.153 1493.3 351.599 1479.49 351.599 1469.49 351.599 1461.86 347.305 1456.62 338.724L1456.15 338.724 1455.68 350.169 1449.96 350.169C1450.44 345.891 1450.44 340.153 1450.44 335.397L1450.44 256.243ZM1456.62 325.853C1456.62 327.283 1457.1 328.712 1457.1 330.62 1459.96 340.153 1468.06 346.827 1478.06 346.827 1492.82 346.827 1500.92 334.908 1500.92 318.223 1500.92 303.44 1492.82 290.57 1478.53 290.57 1469.48 290.57 1460.43 297.244 1457.57 307.734 1457.1 309.163 1456.62 311.071 1456.62 313.457L1456.62 326.327ZM1521.88 256.243 1528.07 256.243 1528.07 350.164 1521.88 350.164 1521.88 256.243ZM1549.52 317.75C1549.52 338.245 1560.46 345.876 1573.8 345.876 1582.86 345.876 1587.62 343.963 1591.43 342.539L1592.86 347.783C1590.48 349.213 1583.81 352.072 1572.85 352.072 1554.75 352.072 1543.32 338.713 1543.32 320.121 1543.32 299.142 1555.71 285.794 1571.9 285.794 1592.86 285.794 1596.67 305.338 1596.67 314.398 1596.67 316.31 1596.67 317.257 1596.19 318.213L1549.51 318.213ZM1590 312.978C1590 303.918 1586.66 290.57 1570.94 290.57 1557.13 290.57 1550.93 302.967 1549.98 312.978L1589.99 312.978ZM1636.2 342.061C1639.53 343.973 1644.77 346.354 1650.5 346.354 1660.49 346.354 1665.26 341.109 1665.26 334.435 1665.26 327.288 1660.97 323.946 1651.92 320.131 1641.44 316.315 1635.72 310.593 1635.72 302.967 1635.72 293.907 1642.87 285.804 1655.25 285.804 1660.97 285.804 1665.73 287.706 1669.07 289.614L1666.68 294.859C1664.77 293.429 1660.49 291.043 1654.3 291.043 1646.19 291.043 1641.92 296.288 1641.92 302.016 1641.92 308.685 1646.19 311.549 1654.77 315.364 1665.26 319.174 1670.97 324.424 1670.97 333.957 1670.97 344.93 1662.4 352.077 1649.54 352.077 1643.35 352.077 1637.63 350.164 1633.34 347.783L1635.72 342.539ZM1730.51 347.305C1727.65 348.735 1720.98 351.599 1711.94 351.599 1693.36 351.599 1681.45 338.245 1681.45 319.174 1681.45 299.152 1695.27 285.326 1714.32 285.326 1721.94 285.326 1728.61 287.706 1730.99 289.141L1728.61 294.385C1725.28 292.473 1720.51 290.57 1713.36 290.57 1696.22 290.57 1687.64 303.44 1687.64 318.706 1687.64 335.386 1698.13 345.876 1712.9 345.876 1720.52 345.876 1725.28 343.963 1728.61 342.539L1730.52 347.305ZM1744.81 256.238 1751 256.238 1751 298.186 1751.47 298.186C1753.38 294.849 1756.24 291.038 1760.05 289.126 1763.86 286.745 1768.16 285.789 1772.91 285.789 1778.63 285.789 1794.83 288.658 1794.83 312.495L1794.83 350.637 1788.64 350.637 1788.64 312.968C1788.64 301.528 1784.35 291.038 1771.01 291.038 1761.96 291.038 1754.34 297.718 1751.96 305.343 1751.48 307.256 1751 309.158 1751 311.544L1751 350.637 1744.81 350.637 1744.81 256.717ZM1814.82 317.745C1814.82 338.23 1825.78 345.866 1839.12 345.866 1848.17 345.866 1852.93 343.953 1856.74 342.529L1858.17 347.773C1855.79 349.203 1849.13 352.062 1838.17 352.062 1820.07 352.062 1808.64 338.708 1808.64 320.116 1808.64 299.142 1821.02 285.789 1837.21 285.789 1858.17 285.789 1861.97 305.338 1861.97 314.398 1861.97 316.31 1861.97 317.257 1861.5 318.213L1814.82 318.213ZM1855.31 312.963C1855.31 303.903 1851.98 290.565 1836.26 290.565 1822.44 290.565 1816.25 302.957 1815.3 312.963L1855.32 312.963ZM1876.75 301.991C1876.75 296.278 1876.27 291.99 1876.27 286.74L1881.99 286.74 1882.47 298.186 1882.94 298.186C1886.75 291.038 1892.95 285.316 1903.42 285.316 1912.48 285.316 1919.15 291.033 1921.53 299.142L1922.01 299.142C1923.91 295.327 1926.29 292.468 1928.68 290.56 1932.95 287.218 1937.25 285.311 1943.92 285.311 1950.11 285.311 1964.4 288.648 1964.4 312.963L1964.4 350.632 1958.21 350.632 1958.21 313.925C1958.21 299.63 1952.49 291.043 1941.54 291.043 1933.43 291.043 1927.24 296.766 1924.87 303.44 1924.39 305.353 1923.91 307.256 1923.91 309.641L1923.91 350.159 1917.72 350.159 1917.72 310.598C1917.72 299.157 1912.01 290.575 1902 290.575 1893.43 290.575 1886.75 297.249 1884.38 304.88 1883.91 306.782 1883.42 308.69 1883.42 311.071L1883.42 350.179 1877.23 350.179 1877.23 301.996ZM1984.88 318.213C1984.88 338.713 1995.83 346.349 2009.17 346.349 2018.23 346.349 2022.99 344.436 2026.8 343.007L2028.23 348.241C2025.85 349.676 2019.18 352.535 2008.22 352.535 1990.12 352.535 1978.69 339.187 1978.69 320.594 1978.69 299.615 1991.07 286.267 2007.27 286.267 2028.23 286.267 2032.03 305.811 2032.03 314.871 2032.03 316.784 2032.03 317.74 2031.56 318.696L1984.87 318.696ZM2025.36 313.446C2025.36 304.387 2022.03 291.033 2006.31 291.033 1992.49 291.033 1986.3 303.43 1985.35 313.446L2025.36 313.446ZM2071.57 342.051C2074.89 343.963 2080.14 346.339 2085.85 346.339 2095.86 346.339 2100.62 341.094 2100.62 334.42 2100.62 327.273 2096.33 323.931 2087.28 320.116 2076.8 316.3 2071.09 310.578 2071.09 302.952 2071.09 293.892 2078.23 285.789 2090.62 285.789 2096.33 285.789 2101.1 287.691 2104.43 289.599L2102.05 294.833C2100.13 293.409 2095.86 291.023 2089.66 291.023 2081.56 291.023 2077.28 296.268 2077.28 301.996 2077.28 308.665 2081.56 311.529 2090.14 315.344 2100.62 319.154 2106.34 324.404 2106.34 333.937 2106.34 344.909 2097.76 352.057 2084.89 352.057 2078.7 352.057 2072.99 350.144 2068.7 347.758L2071.09 342.514ZM2119.67 286.735 2136.35 328.209C2138.25 332.512 2139.68 337.757 2141.11 342.051L2141.59 342.051C2143.02 338.225 2144.46 332.991 2146.35 328.219L2162.07 287.218 2168.73 287.218 2149.68 334.42C2142.05 353.964 2136.34 365.888 2128.24 373.035 2123.01 377.329 2118.71 379.236 2117.28 379.714L2115.38 374.47C2118.71 373.513 2123 371.138 2126.33 367.323 2129.67 363.985 2133.96 358.741 2136.82 351.115 2137.29 349.681 2137.77 349.203 2137.77 348.246 2137.77 347.773 2137.29 346.822 2136.82 345.378L2113.48 286.267 2120.15 286.267ZM2176.38 342.061C2179.72 343.973 2184.95 346.354 2190.68 346.354 2200.67 346.354 2205.44 341.109 2205.44 334.435 2205.44 327.288 2201.16 323.946 2192.1 320.131 2181.62 316.315 2175.9 310.593 2175.9 302.967 2175.9 293.907 2183.05 285.804 2195.43 285.804 2201.15 285.804 2205.91 287.706 2209.25 289.614L2206.85 294.859C2204.95 293.429 2200.66 291.043 2194.47 291.043 2186.37 291.043 2182.09 296.288 2182.09 302.016 2182.09 308.685 2186.37 311.549 2194.95 314.886 2205.41 318.711 2211.14 323.946 2211.14 333.489 2211.14 344.461 2202.56 351.609 2189.7 351.609 2183.51 351.609 2177.79 349.696 2173.51 347.315L2175.89 342.071ZM2235.93 272.929 2235.93 286.755 2254.02 286.755 2254.02 292 2235.92 292 2235.92 333.474C2235.92 341.587 2238.29 346.832 2244.96 346.832 2248.3 346.832 2250.68 346.354 2252.11 345.876L2253.06 350.642C2251.15 351.599 2247.82 352.072 2244 352.072 2239.25 352.072 2235.43 350.632 2233.05 347.29 2230.2 343.958 2229.25 338.713 2229.25 332.039L2229.25 291.99 2218.77 291.99 2218.77 286.745 2229.25 286.745 2229.25 275.304 2235.44 272.924ZM2266.88 318.228C2266.88 338.724 2277.84 346.354 2291.18 346.354 2300.23 346.354 2304.99 344.441 2308.8 343.017L2310.22 348.262C2307.84 349.691 2301.17 352.55 2290.22 352.55 2272.12 352.55 2260.68 339.202 2260.68 320.609 2260.68 299.63 2273.06 286.282 2289.27 286.282 2310.22 286.282 2314.03 305.826 2314.03 314.886 2314.03 316.799 2314.03 317.755 2313.55 318.711L2266.87 318.711ZM2307.37 313.457C2307.37 304.397 2304.04 291.043 2288.32 291.043 2274.5 291.043 2268.31 303.44 2267.35 313.457L2307.36 313.457ZM2328.33 302.484C2328.33 296.766 2327.84 292.478 2327.84 287.233L2333.56 287.233 2334.03 298.674 2334.51 298.674C2338.31 291.527 2344.51 285.799 2354.99 285.799 2364.04 285.799 2370.71 291.522 2373.09 299.63L2373.57 299.63C2375.47 295.815 2377.84 292.951 2380.23 291.043 2384.52 287.706 2388.81 285.799 2395.48 285.799 2401.67 285.799 2415.96 289.141 2415.96 313.457L2415.96 351.12 2409.77 351.12 2409.77 314.408C2409.77 300.103 2404.05 291.522 2393.1 291.522 2384.99 291.522 2378.8 297.234 2376.42 303.903 2375.95 305.816 2375.46 307.729 2375.46 310.109L2375.46 350.627 2369.27 350.627 2369.27 311.066C2369.27 299.62 2363.56 291.033 2353.56 291.033 2344.98 291.033 2338.31 297.712 2335.93 305.338 2335.46 307.251 2334.98 309.153 2334.98 311.539L2334.98 350.632 2328.79 350.632 2328.79 302.479Z" fill="#8C8281" transform="matrix(1 0 0 1.00134 28 0)"/><path d="M295.236 210.954C295.669 210.954 295.669 209.645 296.545 210.954 298.276 214.865 298.276 218.771 300.018 222.682L300.873 222.682C301.749 225.717 302.182 229.195 302.182 232.668 303.053 237.877 303.491 245.261 303.918 251.774 304.356 251.774 304.356 251.336 304.356 252.207 304.779 254.814 304.356 258.72 303.903 262.193L303.903 263.929C303.903 264.367 304.346 264.367 304.346 264.8 304.346 266.536 303.903 267.84 303.471 269.144 302.6 277.826 299.565 286.946 295.216 295.629 290.877 304.311 284.797 311.695 276.115 318.208 272.642 321.258 269.169 323.865 265.258 326.035 259.621 329.075 251.366 331.672 245.286 333.851 247.022 335.588 232.26 341.668 236.166 342.962 231.822 344.27 225.747 346.007 225.309 346.445 224.876 348.609 221.836 351.216 212.283 355.555 208.372 357.291 202.292 359.028 200.988 360.336 199.252 362.068 206.636 359.028 204.461 360.769 211.407 357.729 218.353 355.555 226.175 353.385 234.429 351.206 242.674 348.604 250.485 345.559 265.686 339.921 283.051 332.965 296.952 319.074 301.296 314.292 317.362 294.32 320.407 267.835 321.263 261.322 321.263 255.242 320.835 249.162 320.402 243.524 320.402 237.872 319.527 231.797 317.795 220.502 314.755 212.253 313.019 207.043L312.586 204.436C308.675 194.017 303.033 181.857 298.694 174.035 296.52 170.562 294.345 166.661 292.604 163.188 293.047 164.925 293.479 167.094 293.479 168.398 291.743 164.487 290.439 160.581 289.569 158.845 285.663 150.59 286.534 155.8 286.096 159.7 286.534 162.318 284.359 159.273 284.787 163.616 283.931 160.999 283.494 159.7 282.623 156.67 281.757 156.67 285.663 164.915 284.359 163.616 283.494 160.999 282.195 157.964 281.319 155.362 280.886 156.67 284.359 164.915 283.494 164.915 282.623 163.606 281.757 156.66 280.886 156.66 280.453 156.66 281.757 159.268 282.195 161.004 279.15 152.749 276.98 147.545 277.846 156.222 277.413 154.914 276.98 153.187 276.538 151.018 276.11 148.854 275.682 148.411 275.682 144.072L275.682 144.505C275.682 148.411 276.11 150.142 276.538 151.889 276.11 150.142 275.682 148.416 275.682 145.799 275.682 146.236 275.239 146.669 275.239 147.107 275.239 148.844 275.677 150.142 276.11 151.436 275.677 150.142 275.677 148.844 275.239 147.54 275.239 148.849 274.806 149.704 274.806 151.013 275.244 155.357 275.682 159.695 276.548 161.87 282.195 179.235 289.574 195.306 295.654 210.934Z" fill="#9C4320" transform="matrix(1 0 0 1.00134 28 0)"/><path d="M6.91067 112.821 6.47781 111.512C6.91067 112.388 7.34856 113.691 7.78646 114.995 5.61209 108.049 3.43772 98.9288 4.74133 89.8085 5.61209 80.6882 8.65218 72.8716 11.2544 67.2293 13.4287 63.3185 15.5981 59.8455 15.1652 58.9747 15.1652 58.5419 12.9909 61.1491 10.3836 65.065 9.95076 65.9206 9.08504 66.7964 9.08504 67.6622 5.17419 73.3095 1.26838 81.1261-0.0352328 91.9728 0.397628 89.8085 0.835522 88.072 1.27342 85.8977 0.835522 88.9378-0.0352328 91.545-0.0352328 95.0179-0.0352328 94.5851-0.0352328 94.1522 0.397628 93.7093-0.911021 104.138 4.29841 117.597 7.77136 121.946 11.2443 126.717 11.2443 124.548 8.20422 116.294 7.34856 115.428 7.34856 114.129 6.89557 112.821ZM6.03992 95.8837C6.03992 101.098 6.91067 106.303 7.78142 111.517L8.21429 112.388 8.65218 111.945C6.46774 107.606 4.29841 99.3516 4.72623 91.54 4.72623 90.6692 4.72623 89.8035 5.15909 88.9327L5.15909 86.3305C5.15909 85.4598 4.29337 88.067 3.86051 91.54L3.86051 95.8837C2.98976 106.745 9.49777 121.075 12.9707 124.553 13.8465 125.419 13.4136 124.553 13.8465 124.115 14.2794 124.115 12.9758 121.07 11.2393 117.169 9.07497 112.821 7.76632 108.915 7.33346 108.915 6.89557 108.044 6.89557 107.178 6.89557 106.308L7.3385 108.049C6.46774 107.183 5.60202 102.84 5.16413 99.3667 5.16413 97.6352 4.73127 95.8937 4.73127 94.1623 4.29841 95.0179 3.86555 95.8937 3.86555 97.1923 3.86555 98.058 4.29841 98.9288 4.29841 99.7945L4.29841 99.3566C5.16413 104.571 6.46271 108.92 8.20422 113.691 9.07497 115.856 9.94069 117.602 11.2443 119.329 12.1151 120.637 12.553 120.637 11.6772 118.906L10.8114 116.299 11.2443 117.607C8.64211 111.517 6.9006 104.571 6.46271 97.6252L6.46271 94.5901C6.46271 94.1573 6.03488 94.5901 6.03488 95.8988Z" fill="#FFBA54" transform="matrix(1 0 0 1.00134 28 0)"/><path d="M17.7674 144.52 17.3346 145.386C17.3346 144.953 17.3346 144.087 17.7674 143.649 16.0309 147.122 16.0309 151.904 17.7674 155.81 18.2053 157.974 24.2805 162.756 27.7534 165.363 30.3606 167.527 32.535 169.269 32.9679 168.836 33.4007 168.836 32.0971 167.099 29.9278 164.93 29.057 164.059 28.6191 163.193 28.1913 162.756 26.8978 161.019 25.1613 159.283 23.4248 157.118 22.5541 156.243 22.5541 154.073 21.6883 155.377 22.9869 154.506 21.2504 154.068 21.6883 152.77 21.6883 153.64 21.6883 154.506 22.1212 154.934 21.6883 154.078 21.2504 153.202 21.2504 151.904L20.8226 152.337C20.3897 148.426 21.2555 144.52 21.6934 141.918 22.5591 138.873 21.2555 138.873 18.6533 142.784 18.2204 143.216 17.7825 143.649 17.7825 144.52ZM15.1652 153.202C14.7273 150.162 15.1652 147.127 16.0309 144.52L16.4638 144.087 15.6031 144.087C15.1652 146.689 15.6031 151.033 16.9017 154.506L17.3346 155.815 18.2053 156.68C18.6382 156.68 18.2053 155.8 17.7674 154.063 17.7674 153.63 17.7674 153.192 17.3346 152.327 16.4638 147.545 18.6432 141.037 19.9418 137.997 20.3746 137.121 19.5039 137.559 19.5039 137.559 19.071 137.126 17.3396 138.43 16.4638 141.032 15.1753 143.639 15.1753 145.814 15.6081 146.246 15.6081 146.679 15.1753 147.117 15.1753 147.555L15.1753 146.679C15.6081 147.55 15.6081 149.719 16.041 151.461 16.041 152.327 16.4739 153.192 16.9118 154.063 17.3396 153.63 17.3396 152.755 17.7674 152.327 17.7674 151.894 17.3396 151.456 17.3396 151.018L17.3396 151.456C16.9067 149.292 16.4688 146.674 16.9067 144.077 17.3346 142.769 17.3346 141.903 17.7624 140.604 18.2053 139.733 17.7624 139.733 16.9067 140.604L16.0309 141.903 16.4638 141.037C14.7324 144.51 13.8666 148.416 14.2995 152.327 14.2995 152.76 14.7324 153.635 14.7324 154.063 14.7324 154.501 15.1703 154.063 14.7324 153.197Z" fill="#5D9879" transform="matrix(1 0 0 1.00134 28 0)"/><path d="M263.542 50.2924C268.746 50.7303 275.259 52.0288 280.906 56.3725 286.554 60.2834 290.027 66.7914 292.196 71.1351 296.978 81.1261 299.58 93.2815 299.142 104.571 298.276 117.164 295.236 125.847 293.067 136.271 290.46 146.257 288.285 155.81 285.25 164.93 277.433 187.509 266.577 208.352 252.247 228.324 245.301 238.31 237.484 247.863 227.498 256.108 217.502 264.362 205.775 270.009 194.48 273.915 194.052 273.06 197.525 270.442 193.625 271.323 178.424 274.796 178.424 273.06 177.553 271.323 177.115 270.452 188.405 267.85 184.499 268.283 195.356 265.248 212.283 256.555 201.864 260.471 198.391 261.342 184.499 266.984 180.593 266.552 176.688 266.552 183.201 263.079 179.285 262.641 175.812 263.949 168.438 265.676 164.965 266.979 161.054 267.417 168.005 263.506 164.094 264.382 153.676 266.984 139.346 271.328 125.892 272.194 125.449 271.328 122.409 270.895 128.922 269.592 144.555 267.855 158.452 263.079 174.523 257.864 190.152 253.083 204.043 247.878 214.9 238.325 236.609 218.353 253.546 188.395 265.268 160.169 270.05 146.267 274.388 129.33 277.861 114.134 281.772 99.8046 279.598 86.3507 272.652 74.1853 270.05 69.8416 267.447 68.548 261.367 67.6722 258.327 67.6722 251.814 70.2795 248.341 74.1853 247.47 75.056 246.167 76.3596 245.301 77.6582 244.868 78.529 244.43 78.9669 243.992 79.8326L241.39 83.3055C237.917 88.072 232.265 91.545 227.498 93.7244 217.502 97.6252 209.681 98.053 204.043 100.227 199.262 102.402 198.406 102.835 199.262 101.098 200.133 99.3616 203.606 97.1873 208.825 95.0179 205.775 96.3266 205.352 95.0179 202.302 96.7544 201.436 95.4458 207.084 91.545 222.284 87.2013 218.368 88.5099 214.895 89.3757 211.422 90.2414 207.949 90.6692 210.984 88.9327 210.984 88.067 214.457 87.1963 218.363 86.3305 217.93 85.8926 217.93 85.4598 217.497 84.594 217.497 84.1562 214.024 85.0269 206.641 86.7735 203.168 88.067 206.641 86.7584 210.546 85.8926 210.114 85.4598 210.114 85.0219 209.681 84.1511 209.681 83.7183 217.064 81.9818 227.045 79.8125 230.518 73.7323L229.663 72.8666C226.19 77.6482 217.502 80.6832 209.681 82.4197 213.154 81.1211 213.154 80.6832 212.726 79.8175 217.935 78.5088 222.279 77.2002 225.309 74.593 227.051 73.2944 228.354 71.9908 229.225 70.2543L234.434 62.4427C232.693 64.1791 231.389 65.9156 230.523 67.6521L228.792 70.2593C228.354 70.7022 227.921 71.568 227.483 72.0059 227.483 70.6972 228.792 68.5329 230.956 65.4928 233.131 62.4527 235.738 59.8455 239.211 56.8054 246.157 51.596 254.844 48.123 263.522 48.9938Z" fill="#B64926" transform="matrix(1 0 0 1.00134 28 0)"/><path d="M12.1302 118.468C12.558 119.334 12.9858 120.204 13.4287 121.508L13.8616 121.951C13.4287 121.518 13.4287 121.08 12.9909 120.214 12.5681 118.906 12.1352 118.478 12.1352 118.478ZM13.8616 121.941C13.8616 122.374 14.2945 122.807 14.2945 122.807L14.2945 122.364ZM151.068 148.426C165.403 155.8 182.778 156.68 198.406 151.023 198.829 150.59 199.262 150.59 199.262 150.59 199.262 150.59 198.829 150.59 198.406 151.028 182.763 156.675 165.826 155.81 151.496 148.421 151.063 147.978 150.641 147.978 150.641 147.978 150.641 147.978 151.063 148.411 151.496 148.411ZM226.195 101.516C226.628 101.516 226.628 101.516 226.195 101.516 225.762 101.083 225.324 101.083 224.886 100.65 224.458 100.65 224.458 100.65 224.886 100.65 225.324 101.083 225.762 101.083 226.195 101.516ZM232.275 99.3516C234.439 101.083 236.614 102.825 238.355 104.556 238.788 104.989 239.221 105.427 239.221 105.865 239.221 105.427 239.654 106.292 240.092 107.163 245.744 117.582 243.137 129.742 236.619 138.42 230.549 146.674 222.299 153.62 213.617 158.835L212.746 159.7C211.437 160.571 209.273 161.875 206.233 163.173 205.362 163.611 204.924 163.611 204.059 164.044 195.381 167.084 186.261 169.254 177.131 168.826 175.404 169.254 173.235 168.826 170.628 168.826 162.811 168.388 154.561 166.651 147.183 163.611 147.611 164.039 148.038 164.039 148.038 164.039 147.611 164.039 145.874 163.606 144.138 162.73 143.267 162.303 141.973 161.875 141.097 160.999 143.715 162.74 146.75 164.044 149.79 165.348 150.228 165.348 150.661 165.781 151.099 165.781 154.572 167.089 158.044 167.955 161.517 168.821 193.65 174.901 224.484 159.7 240.112 134.519 240.55 134.076 240.55 133.21 240.983 132.777 241.415 132.345 241.415 132.777 240.983 133.215 236.201 142.336 230.564 148.416 223.618 154.491 216.672 160.571 208.417 165.348 198.431 168.821 174.121 177.508 144.575 171.866 124.614 154.063 113.757 144.953 106.373 134.091 99.8599 122.369 94.2227 111.084 89.874 100.222 85.0974 88.072 82.0573 80.2554 79.0172 72.4387 75.9771 65.06 73.8128 59.8455 69.4691 54.2032 65.9961 52.0238 62.0903 49.8595 60.3589 49.4266 55.1394 51.596 50.7957 54.2133 45.5863 58.5419 40.8097 64.1892 33.4259 72.8716 28.6493 80.2554 26.9179 81.1261 26.0421 81.559 26.0421 78.9518 27.7735 75.046 27.3457 75.9016 26.9179 76.7774 26.48 77.2103 25.6092 78.5189 25.1713 79.8276 24.3056 80.6832 22.5692 84.1562 21.7034 87.1963 20.8327 88.9378 20.3998 89.8035 19.967 90.6692 19.967 91.54 18.2305 95.0129 18.2305 101.526 18.2305 104.999L17.7926 104.143 17.7926 104.999C18.2305 107.616 18.6633 109.348 18.2305 110.218L17.3597 110.651C16.489 110.218 15.6232 109.343 14.7525 107.178 14.3196 107.178 14.3196 107.178 13.8868 106.74 13.8868 108.915 13.8868 109.781 12.5781 108.482 13.016 109.781 12.5781 109.781 12.1503 108.044 12.1503 107.611 11.6973 106.735 11.6973 106.308L11.6973 108.049C12.1402 109.358 12.1402 109.786 12.1402 109.786 12.9959 112.836 12.9959 112.836 14.3045 115.443 15.1753 117.607 15.6132 119.349 15.6132 119.349 16.041 121.951 16.041 121.951 15.6132 121.951L14.7374 121.518C15.6081 123.697 15.6081 123.697 16.046 124.135 16.4739 124.568 16.4739 125.001 16.4739 125.001L16.4739 125.439C15.6182 125.001 15.6182 125.001 15.1753 125.001 15.1753 124.573 14.7374 124.573 14.7374 124.573 14.3045 123.265 13.8717 122.832 13.8717 122.399L13.0009 119.359 12.5731 118.921 12.5731 118.488 12.5731 118.916 12.1402 117.179 12.563 118.916C10.8265 115.443 10.8265 115.443 10.3987 114.134 9.9558 112.836 9.52293 111.532 9.52293 111.099 8.22435 107.193 8.22435 107.193 7.79149 103.283L7.79149 102.412C7.79149 101.974 7.35863 101.103 7.35863 100.237L7.35863 95.4659C7.35863 94.1673 6.92074 92.4308 7.35863 87.6543 7.79149 86.3456 7.79149 85.047 8.22435 84.1813L7.79149 85.047C7.35863 85.9128 7.35863 85.047 7.35863 85.4799 4.7514 94.1673 6.04998 105.019 9.09511 113.706 9.09511 115.871 9.96083 117.179 9.96083 117.617 9.52797 118.05 9.09511 116.752 8.66225 115.453 4.30847 106.761 2.13914 94.1723 5.17419 82.8878 8.21429 72.026 14.7273 62.9057 20.8075 55.527 23.8476 51.6211 26.8877 48.5811 30.7935 44.6752L30.3606 45.1131 32.9779 42.5109 33.4058 42.073C32.535 42.9438 31.6693 43.3817 30.7985 44.2474L29.5 45.546C21.2404 53.3526 14.2945 61.1642 8.65721 72.026 5.60202 77.6633 3.42262 83.3005 2.56696 89.8186 2.56696 91.5551 2.1341 92.8587 2.1341 92.8587L2.1341 88.9478C3.43269 77.6582 8.64715 67.2394 14.7173 59.4227 20.8075 51.1682 26.8827 45.093 33.3907 39.8836 36.4358 37.2763 39.038 35.102 42.0781 33.8034L39.9138 34.6741C42.521 33.3655 43.8196 32.4998 46.4268 31.6341L45.1182 31.6341C51.6362 28.1611 61.6273 26.4196 69.8818 29.4597 78.1263 32.5048 83.7736 38.1521 87.6794 43.3616 88.1123 43.7944 88.1123 44.2323 88.5452 44.6702 92.0181 48.571 95.0582 54.6512 97.2326 59.8606 96.3618 58.1241 95.9239 56.3876 95.0582 53.7804 97.2326 58.562 98.5312 62.035 100.273 65.9408 104.178 77.2304 108.527 89.3958 109.826 95.9038 114.164 106.761 118.508 116.314 124.588 124.996 130.664 133.683 138.047 141.067 146.735 146.277 147.6 146.71 148.471 147.147 148.471 147.585 148.471 147.585 148.033 147.585 146.73 147.147 134.147 140.202 123.718 128.046 116.339 114.149 121.976 125.877 130.231 136.729 140.217 144.55 141.525 145.406 142.824 146.282 144.127 147.152 145.436 148.023 146.73 148.894 148.471 149.76 162.796 157.576 179.728 158.88 195.799 153.233 209.268 148.451 220.563 140.207 227.509 128.922 229.673 125.449 230.549 121.538 230.549 117.627 230.111 113.289 229.678 113.289 226.638 110.254 220.558 105.472 211.004 102.437 203.193 103.308 201.013 103.308 199.277 103.741 198.844 103.741 198.411 103.308 200.153 102.875 202.317 102.432 210.999 101.138 221.856 104.178 228.369 109.821 234.459 113.294 233.151 124.593 227.941 131.539 215.781 148.038 193.64 158.895 171.921 157.159 167.15 156.726 162.811 155.85 158.467 154.551L157.159 154.551C161.94 156.288 167.577 157.591 172.797 158.024 187.56 158.462 202.745 153.686 215.781 144.565 224.468 138.057 232.29 130.674 234.454 121.991 234.887 119.384 234.887 116.344 234.022 113.737 233.589 111.572 232.285 109.831 229.678 108.099 225.339 104.189 219.259 102.009 213.184 100.716 212.751 100.716 212.313 100.716 211.875 100.278L212.313 100.278C220.558 101.586 230.111 105.93 233.589 112.005 233.589 111.139 233.151 110.274 233.589 110.274 234.022 110.274 234.887 110.707 235.325 112.01 234.887 110.279 233.589 108.975 232.285 107.229 231.414 106.373 230.549 105.502 230.976 105.502 230.976 105.502 231.847 105.93 232.718 106.796 238.798 112.443 237.5 122.862 233.589 129.813 228.374 138.923 220.125 146.312 210.572 151.521 211.88 151.088 213.179 150.656 213.612 150.656 214.92 149.79 216.652 148.924 217.955 147.621 224.046 142.839 229.683 137.202 233.599 130.684 237.072 124.171 238.38 115.921 235.763 109.846 227.519 98.5513 209.278 92.909 195.386 97.6856 194.948 98.1184 194.515 98.1184 194.515 98.1184 194.515 98.1184 194.948 97.6856 195.386 97.6856 204.069 94.6455 213.622 95.5112 222.314 99.4221 221.871 98.9892 221.871 98.9892 222.314 99.4221 222.742 99.4221 223.17 99.8549 223.608 99.8549 224.046 100.288 224.046 100.288 223.608 99.8549 231.424 103.328 238.808 109.408 237.937 118.09 237.937 126.773 233.156 134.147 227.076 140.237 232.723 134.6 237.495 127.639 238.37 119.827 238.803 115.916 238.37 111.572 236.629 108.97 234.465 105.925 231.419 103.318 227.946 101.148 226.21 100.278 224.906 99.412 223.165 98.9842 222.737 98.9842 222.309 98.5412 221.866 98.5412L222.737 98.5412 224.046 98.9791C221.428 97.6705 219.264 96.8047 219.264 96.3719 219.697 95.939 222.304 96.8047 224.901 98.1084 232.29 101.581 240.54 108.094 239.669 117.215L239.669 119.822C239.669 120.688 239.669 121.558 239.236 122.857 240.545 116.339 240.107 108.527 234.454 103.751 229.683 98.9691 223.17 95.939 216.657 94.2026 215.348 93.7647 214.493 93.3318 214.493 93.3318 214.493 93.3318 215.348 93.3318 216.657 93.7647 222.304 95.0632 227.946 97.6705 233.156 101.576 235.763 103.751 237.937 105.92 239.236 108.96 240.545 111.995 240.973 115.035 240.973 118.508 240.54 131.534 230.987 141.953 221.866 149.337 215.786 154.546 208.84 159.323 201.029 162.363L204.064 161.054C216.657 155.85 226.643 147.6 234.465 138.052 238.37 132.838 240.973 126.758 241.41 120.245 241.41 116.772 241.41 113.732 240.102 110.259 238.803 106.786 236.629 104.178 234.027 102.004L233.156 101.138C233.156 101.138 233.594 101.138 234.027 101.576 236.629 103.751 238.808 106.358 240.107 109.393 241.415 112.433 241.853 115.906 241.853 118.946 241.415 125.459 239.246 131.539 235.34 137.182 228.827 145.874 221.011 152.382 212.761 157.164 221.443 152.382 229.26 145.874 235.34 138.057 241.415 129.803 244.893 118.946 240.55 108.089L239.241 105.487C239.241 105.487 238.813 105.487 238.813 105.044 237.077 102.88 234.902 101.138 232.733 99.407 232.3 98.9691 231.862 98.5312 231.424 98.5312L231.862 98.9741ZM22.1111 60.2784 21.6783 60.7112 22.9768 59.4026 24.7184 57.6711 22.1212 60.2733ZM10.8215 88.5049C10.3887 89.3757 10.3887 90.2414 10.3887 90.2414 10.8215 89.3656 10.8215 88.9327 10.8215 88.9327ZM122.409 124.981C117.205 117.607 113.732 108.925 110.259 99.8046L113.299 106.318C115.901 113.264 118.936 119.354 122.852 125.429ZM9.9558 77.6633C11.2644 75.0611 12.563 73.3246 13.8666 71.5881L16.4688 66.3787C19.514 62.04 22.5591 58.1241 26.032 54.2233 25.1613 54.6512 26.032 53.7804 26.4649 53.3476L27.7635 52.0389C23.8577 55.9548 20.8176 59.8606 17.3446 64.2043 14.7374 68.548 12.1352 73.3246 9.96083 77.6633ZM12.1302 116.309 12.1302 116.747 11.2544 115.876C11.2544 115.876 11.6872 115.876 11.6872 116.304ZM12.9858 117.617 12.558 116.747C12.9909 117.179 12.9909 117.179 12.9909 117.612ZM10.8215 110.671C10.8215 111.099 10.8215 111.527 11.2544 111.527L10.8215 110.671ZM16.9017 104.153C16.4638 103.288 15.5931 102.422 15.1652 101.989 15.5981 102.855 16.4638 103.725 16.9017 104.153L16.9017 103.725Z" fill="#FFBA54" transform="matrix(1 0 0 1.00134 28 0)"/><path d="M16.4588 139.744C16.9017 139.311 17.3346 138.873 17.7674 138.007L17.7674 137.564C17.3346 137.997 17.3346 138.43 16.9017 138.43 16.0309 139.301 16.0309 139.738 16.4638 139.738ZM17.7674 137.579 18.2053 137.136 17.7674 137.574ZM81.1664 275.219 83.7686 275.657C84.2065 275.657 84.6394 275.657 85.5051 276.09 85.5051 276.09 86.3758 276.09 86.8137 276.522L87.6794 276.945C88.1123 277.383 87.2416 276.512 88.9881 277.383 90.2816 278.254 92.4611 279.99 92.8889 282.598 93.7596 287.807 92.456 287.807 91.5802 289.544 91.1524 290.852 88.5452 292.151 88.9831 292.151L88.1022 292.584C85.9379 293.892 85.495 293.892 85.0621 294.325 84.6343 295.196 84.2065 294.325 84.6343 298.236 85.5 304.311 88.978 309.963 93.3167 315.168 93.7596 315.601 94.1925 315.601 94.1925 315.601 94.1925 315.601 94.1925 315.168 93.7596 314.735 89.4159 309.536 85.943 303.888 85.0722 297.808 84.6394 293.902 85.0722 294.768 85.5051 293.902 85.943 293.474 86.3758 293.037 88.1123 292.171 88.1123 292.171 88.5452 291.738 88.9831 291.738 89.4059 291.295 88.9831 292.594 92.003 289.121 92.4459 288.255 92.8788 287.822 93.3117 286.956 93.3117 286.518 94.1824 285.22 93.7496 282.613 93.3117 280.448 91.5752 277.831 89.8387 276.965 87.6744 275.667 88.1073 276.1 88.1073 276.1 87.6744 275.667 86.7986 275.667 86.3708 275.667 85.0772 275.667 84.6444 275.229 84.2065 275.229L81.6043 274.796 80.7335 274.796C80.7335 274.796 81.1664 274.796 81.5993 275.229ZM151.501 352.948C151.073 352.51 151.073 352.948 151.501 352.948 151.944 353.38 152.377 353.38 152.81 353.813 153.248 353.813 153.248 353.813 152.81 353.813 152.377 353.38 151.944 352.948 151.501 352.948ZM145.864 355.55C144.127 354.684 141.958 353.813 140.217 353.385 139.784 353.385 139.351 352.948 139.351 352.948 139.351 352.948 138.918 352.948 138.042 352.51 123.718 347.295 106.353 342.091 92.0232 331.239 92.0232 331.239 91.5903 331.239 91.1574 330.801 89.8488 330.368 88.1224 328.637 85.953 326.89L85.0823 325.154C79.445 319.089 75.0963 312.138 72.9269 303.888 72.4891 302.152 71.6183 300.415 71.6183 297.808 70.7526 293.902 71.6183 287.822 75.0913 284.349 76.8328 282.613 78.5642 280.876 80.3057 280.005 80.7386 279.568 81.1765 279.568 81.6144 279.135 81.6144 279.135 82.0422 278.697 82.0422 279.135L81.6043 279.135C80.7335 279.568 80.2956 280.443 79.8678 281.299 79.435 282.608 78.9971 282.175 78.9971 285.215 78.9971 288.25 82.9079 290.852 82.9079 290.424L82.47 290.424C82.9129 290.424 83.3458 290.857 83.3458 290.857 83.3458 291.29 81.6043 291.29 79.8729 290.857L76.8277 290.424C78.1364 290.857 79.435 290.857 80.7335 290.857L82.8978 291.29 84.2065 291.29C84.2065 291.29 83.3408 291.29 83.3408 290.857L82.9079 290.857C82.0422 290.424 80.7436 289.986 79.8729 288.693 77.7085 286.076 78.5642 282.175 78.5642 282.175 78.9971 280.448 80.7285 278.702 81.6043 278.274L82.0372 278.274C79.435 279.583 75.0913 281.747 72.484 286.529 69.4439 291.3 69.8818 297.38 70.7475 300.42 71.6183 304.326 72.484 307.804 74.2205 310.839 77.2606 317.357 81.6043 322.567 86.3809 327.348 96.3719 336.459 107.661 341.673 118.946 346.012 119.384 346.012 119.822 346.45 120.255 346.45 120.688 346.45 120.255 346.877 119.822 346.45 105.93 341.668 92.0282 336.454 79.0021 322.124 75.0963 317.785 72.0562 312.576 69.8919 306.496 69.0161 303.455 68.1504 300.415 67.7125 296.942 67.2847 293.032 68.1554 287.389 71.1854 283.478 73.8027 279.563 78.1414 276.955 80.7486 275.657 80.7486 275.657 81.1815 275.657 80.7486 275.657L80.3108 275.657C79.8779 275.657 80.7436 275.219 79.8779 276.09 79.0122 276.522 78.1464 277.398 77.7136 278.692 76.8428 279.557 76.4049 280.856 76.4049 281.727 75.9721 283.035 75.5392 287.374 78.1464 290.414 80.7486 293.449 83.7837 294.315 82.928 293.887L83.3559 293.887C83.7938 294.315 85.0974 294.315 84.6645 294.315L83.3559 294.315C82.0472 294.315 80.7537 294.315 79.4551 293.882 72.5092 293.444 66.8719 292.574 60.7817 290.409 57.7466 289.533 54.7065 287.792 52.9701 286.936 50.3628 286.06 46.457 283.891 43.8498 281.717 38.2125 277.378 34.7396 272.607 31.2666 268.258 24.3207 259.133 19.5391 249.584 13.9019 243.066 11.7225 240.464 9.55313 238.285 7.81162 236.553 7.3838 236.125 6.50298 236.125 6.08018 235.245 6.08018 235.245 5.65235 234.822 5.21446 234.822 5.21446 234.389 5.21446 234.822 4.7816 234.389 3.47295 233.523 2.6173 232.225 1.74151 230.916L1.30865 230.483 0.437894 228.747C4.42853e-14 226.567-0.432861 221.358 2.6022 217.447 5.20943 213.974 9.5481 212.665 9.12027 213.108L9.98599 213.108C10.8567 212.67 12.1604 212.67 13.0261 212.67L18.6734 212.67C21.2706 212.67 23.002 212.238 23.8778 211.805 24.7486 210.934 23.4449 212.238 23.4449 213.113L23.4449 213.541C23.4449 213.969 23.4449 214.397 23.8778 214.85 24.3107 215.706 24.3107 215.706 23.8778 215.273 23.007 214.402 20.4048 213.108 17.3648 211.367 16.0561 210.491 14.3247 210.058 11.7174 207.884L10.4189 207.451C9.98096 207.018 7.81162 204.849 6.9459 203.545 4.77153 200.072 4.77153 197.465 4.77153 193.992 4.77153 192.256 5.64229 190.519 6.08018 189.21 6.50801 188.345 6.93584 187.479 7.37876 186.608 10.4189 181.399 13.016 179.229 15.1954 176.622 16.0511 175.751 16.489 174.886 16.9269 174.458 17.3597 174.015 16.9269 174.458 16.9269 174.458 16.489 174.886 16.489 175.751 16.489 176.189 16.0611 177.06 16.0611 180.1 16.9319 181.404 17.3648 183.568 19.972 186.613 21.2706 187.484L19.972 186.613C19.0962 186.19 18.6633 185.758 18.2305 185.32 16.9218 184.454 16.0561 183.583 15.6232 182.718 12.5781 179.677 10.8416 177.07 10.4088 176.204 10.4088 174.906 12.5731 176.204 16.4839 179.25L14.7525 177.075 11.7124 174.035C8.67231 170.995 6.49794 168.398 4.7665 164.925L3.45785 161.009C2.6022 156.238 2.6022 148.426 4.32861 144.953L4.76147 145.819 5.18929 144.948C6.06005 142.346 6.92577 140.609 7.36366 140.166L7.79653 140.609C8.22939 141.475 8.22939 142.774 8.66728 144.948 9.09511 144.948 9.09511 145.376 9.09511 145.814 9.96586 144.077 10.4038 143.639 10.8366 144.943 11.2695 144.067 11.2695 144.067 11.2695 145.366L11.2695 146.674C11.7023 146.236 11.7023 146.236 11.7023 145.366 11.7023 144.5 12.1402 144.067 12.1402 144.067 12.9959 141.893 12.9959 141.893 13.8717 140.156 14.7273 138.415 15.6031 137.992 15.6031 137.992 17.3346 136.683 17.3346 136.683 17.3346 137.111L17.3346 137.549C18.2053 136.24 18.6432 136.24 18.6432 136.24L19.071 135.813 19.4989 135.813 19.066 136.678C19.066 137.106 18.6281 137.106 18.6281 137.106 18.1952 137.977 17.7574 138.415 17.7574 138.415 16.4487 139.713 16.0209 139.713 16.4487 139.713L16.4487 140.146 16.0209 140.579 16.4537 140.579 16.0259 141.445 16.8967 140.574C15.588 142.738 16.0309 142.738 15.588 143.609 15.1652 144.48 15.1652 145.346 15.1652 145.346 14.7273 147.52 14.7273 147.52 14.2945 150.127L14.2945 153.6C14.2945 154.038 14.7273 154.471 14.7273 154.471L14.7273 154.904C15.1602 155.774 15.1602 156.645 16.8916 158.815 17.3295 159.242 17.3295 160.123 17.7624 160.123L17.7624 159.67C17.7624 159.242 18.2003 159.67 17.7624 159.242 16.0259 155.337 15.1602 149.256 16.8967 144.48L17.7674 142.743C18.2053 142.743 17.7674 143.176 17.3346 144.052 16.9017 146.649 16.4638 148.824 16.9017 151.864 17.3396 154.461 18.6432 157.934 19.5089 158.372 21.6833 160.974 24.7234 164.009 27.3256 166.626L31.2415 170.527 32.1072 171.393 32.54 171.826 32.9779 172.258C33.8437 172.696 34.2866 173.567 35.1422 174.433 36.4509 176.169 36.8838 177.468 37.3166 179.214 37.7545 180.508 37.3166 182.687 37.3166 183.115 36.8838 184.424 36.4509 186.155 36.018 186.588 32.5451 192.235 29.9378 194.405 27.3306 197.445L27.7685 197.012 26.032 198.753 27.3306 197.445 28.2014 196.579C29.51 194.843 31.2465 193.106 32.983 191.37 33.8487 190.499 34.7194 189.205 35.5852 187.897 36.0231 187.021 36.4559 186.588 37.3216 184.852 37.7595 183.986 38.6303 180.07 36.8888 176.597 36.4509 175.731 35.5801 174.433 34.7245 173.995 33.8437 173.124 32.9779 172.686 32.9779 172.686L32.54 172.253C32.1072 169.651 31.6743 169.213 31.2415 169.213 30.8036 168.348 29.9328 167.915 29.0671 167.049 27.7584 165.74 26.4649 164.004 24.7284 162.7 23.4298 160.964 21.6934 159.227 20.8226 157.919 20.3897 157.063 19.9569 156.625 19.9569 156.625 19.9569 156.182 19.519 155.316 19.519 154.879 19.0811 154.013 19.0811 153.58 19.519 153.58 19.519 153.58 19.9519 154.446 20.3847 154.879 20.8176 155.316 20.8176 155.749 21.2504 156.187 20.8176 156.62 21.6883 156.187 22.1212 157.053 22.9869 158.362 24.2855 159.655 25.5941 160.959 28.2014 163.576 31.2415 166.173 33.4108 168.348 33.8437 168.78 33.8437 168.78 34.2816 168.78 34.2816 168.78 33.8386 168.348 35.1372 169.651 36.8787 170.95 38.6102 173.557 39.0481 175.288 39.486 177.03 39.9188 178.761 39.486 180.503 39.0481 182.244 39.0481 182.244 38.6152 183.12 37.7595 184.857 37.7595 185.284 36.8838 186.593 35.1473 189.633 33.8437 190.937 32.1021 192.24 29.505 194.843 27.3306 197.45 26.4649 198.316 26.027 198.316 27.3306 198.748 25.5941 197.878 23.4298 197.012 22.9869 196.569 21.6883 196.141 20.3797 195.703 19.524 195.703 19.0861 195.703 18.6482 195.703 18.6482 195.703 18.2154 196.141L18.6482 196.141C20.8125 193.524 14.7374 200.913 22.9869 190.494L23.4248 190.056 23.8577 190.499 24.7335 191.365C24.3006 190.932 24.3006 190.499 23.8677 190.056 25.1764 190.932 26.032 191.365 27.7735 192.673L27.3407 191.798C31.6844 194.838 38.6303 196.579 43.8397 206.127 46.0141 211.78 45.5812 216.546 43.4069 221.328 41.2426 226.109 37.3267 229.149 34.2967 230.891 33.8537 231.324 33.4209 231.324 32.5501 231.757 26.9129 234.364 21.2605 235.23 15.6182 235.23L21.6934 235.23C19.519 235.667 16.9118 235.667 15.1803 235.667L12.5731 235.667 12.5731 233.05 13.006 231.742 13.006 229.149C13.006 227.413 12.1503 225.676 12.5781 226.109 12.5781 226.109 14.7424 224.801 15.1803 223.945L15.6132 222.203 15.6132 221.771 16.9118 220.462C19.519 217.86 18.6533 218.298 18.6533 218.298L19.519 219.153C29.51 226.975 35.5852 238.265 37.3216 243.479 42.5361 251.734 47.7405 259.988 53.8307 265.625 56.4279 268.233 59.0351 269.098 64.2496 271.263 68.1554 273.009 72.0612 273.88 76.4049 274.313 77.2707 274.313 78.1414 274.746 78.1414 274.746 78.1414 274.746 77.7085 275.179 76.8328 274.746 69.8869 273.875 65.5482 272.581 58.6023 269.108 54.2586 267.362 49.9149 262.585 46.0091 256.943 49.0542 261.725 52.955 266.063 56.4279 268.671 57.3037 269.103 58.1694 269.969 59.473 270.402 60.7817 270.84 62.946 272.138 63.8167 272.576 66.4189 273.875 68.5983 274.741 71.6334 275.179 72.942 275.611 74.2406 275.611 75.9771 276.044L80.3208 276.91C82.4851 277.348 83.3609 277.348 86.401 277.348 86.8389 277.348 87.2718 277.786 88.1425 277.786 88.5754 278.219 87.7096 276.915 91.1826 279.95 92.4912 281.259 92.9191 283.866 92.9191 285.17 92.4812 286.906 92.4812 286.906 92.4812 287.334 92.0382 288.643 91.1725 289.508 89.8639 290.379L89.4361 290.807C89.0032 290.807 89.0032 291.24 88.5653 291.24 88.1324 291.683 87.6996 291.683 87.2567 291.683 86.8288 292.11 85.9631 292.538 85.9631 292.538 84.6545 293.847 84.2266 293.847 84.6545 296.887 85.0923 302.967 88.5653 309.042 92.909 314.252 101.164 323.372 111.145 328.587 123.31 333.796 131.987 337.269 140.675 339.876 149.785 344.215 154.566 346.389 159.781 349.862 163.687 354.634 167.593 359.415 169.767 364.197 171.941 368.525 173.24 371.143 173.673 373.307 173.673 373.745 173.245 374.178 172.374 372.436 171.508 369.834 169.344 365.053 166.727 360.281 162.821 355.504 158.915 350.723 153.273 347.25 148.496 345.086 138.505 340.742 129.39 337.702 120.703 333.796 103.771 326.85 85.9732 314.257 83.7938 296.887 83.3609 293.414 84.2317 292.976 86.401 291.24 86.401 291.24 86.401 290.807 86.8389 290.374 83.3659 292.538 82.9331 293.414 83.3659 297.32 85.1024 309.047 94.6555 319.033 106.378 326.845 114.623 332.059 122.434 335.965 131.127 339.881 136.764 342.045 142.421 344.21 148.064 346.827 153.716 349.424 160.229 354.201 164.135 359.848 164.573 360.286 164.573 360.724 165.005 361.157 165.005 361.59 165.005 361.157 164.578 360.724 159.363 352.469 149.81 347.26 141.561 344.658 142.869 345.523 143.297 345.956 143.297 346.394 142.864 346.822 141.998 346.394 140.257 345.951 141.998 346.817 143.73 347.683 145.904 348.553 147.213 348.986 148.069 349.862 147.641 349.862 147.641 349.862 146.77 349.419 145.476 348.986 138.088 345.513 130.704 342.906 123.33 339.433 114.638 335.96 105.955 331.617 98.5664 325.974 99.4422 326.845 100.313 327.716 100.313 328.139L103.786 330.756C115.076 337.702 128.097 342.045 141.133 347.255 147.641 349.872 154.587 352.907 159.363 358.982 164.145 365.063 166.742 371.576 169.349 378.089 169.777 378.527 169.777 378.959 169.777 378.959 169.777 378.959 169.339 378.522 169.339 378.084 166.294 370.267 162.816 362.017 156.303 355.504 156.741 355.942 156.741 355.942 156.303 355.504L155.437 354.639C155.009 354.201 155.009 354.201 155.437 354.639 148.929 349.424 141.113 346.822 134.167 344.22 126.788 341.613 119.842 338.573 112.891 335.532 125.484 342.04 139.381 345.513 151.974 353.33 153.283 354.186 154.577 355.061 155.88 355.932L156.751 356.798C156.751 356.798 156.318 356.798 156.318 356.36L155.019 355.489C157.184 357.226 158.492 359.4 158.06 359.4 157.622 359.4 155.885 357.664 153.716 355.927 147.636 351.146 140.69 348.981 133.734 345.936L130.261 345.936 127.664 345.07C138.083 349.852 150.248 352.887 156.756 362.435L157.627 364.177 156.318 362.868C150.681 354.629 140.252 352.021 131.137 348.121 121.584 344.205 111.598 340.732 102.91 335.084 96.8199 332.049 90.7497 328.139 85.5353 322.929L87.2718 325.093C104.637 342.468 125.051 345.508 144.158 354.186 144.591 354.629 145.023 354.629 145.023 354.629 145.023 354.629 144.586 354.629 144.153 354.191 134.6 349.862 125.479 347.245 115.493 343.344 107.249 339.871 99.4371 335.965 92.4912 330.761 106.383 341.613 122.439 346.389 137.212 352.464 138.078 352.902 138.51 352.902 138.948 353.335L139.381 353.335C141.113 354.191 143.282 354.634 145.018 355.937 145.456 355.937 145.889 356.37 145.889 356.37L145.456 356.37ZM32.0971 176.215C31.6643 175.782 31.6643 175.349 31.2314 174.916 32.53 176.652 32.9679 178.389 32.53 179.698 32.53 179.26 32.53 180.553 30.7935 182.733L31.6643 181.862C32.1072 180.996 32.9729 179.698 32.54 176.652ZM12.558 158.85C12.558 157.979 12.1251 157.541 12.1251 157.541 12.1251 157.979 12.1251 158.417 12.5479 158.417ZM52.507 266.109C47.2976 260.889 42.521 253.51 38.6152 246.127 39.9138 247.863 40.7795 249.6 42.0882 251.336 45.5611 256.55 49.034 262.193 52.507 266.104ZM20.3746 162.323C21.6833 164.059 22.539 165.363 23.8476 166.666 25.1562 167.532 26.0119 168.831 27.3206 169.707 28.1913 170.572 29.057 171.005 29.4949 171.871 29.9278 172.309 30.3606 172.309 30.7935 172.747 31.2314 173.19 30.7935 172.319 32.9679 174.926 35.5701 179.708 32.9679 181.872 32.53 183.181 31.2314 184.479 30.7935 185.345 29.9278 186.216 30.3606 185.783 29.9278 186.648 29.4949 187.081L28.6242 188.823C30.3606 187.081 31.6643 185.783 33.4058 182.305 33.8336 181.434 34.2715 180.14 33.8336 177.523 33.8336 175.787 32.5249 174.488 31.6693 173.617 30.3606 172.752 30.7935 173.185 30.7935 172.752 29.9278 172.319 29.057 171.453 28.6292 171.015 25.5841 168.413 22.539 165.378 20.3746 162.333ZM15.1652 140.614 15.5981 140.176 15.5981 140.614ZM15.1652 139.306 14.7273 139.744C14.7273 139.311 14.7273 139.311 15.1652 139.311ZM12.9909 143.649C12.9909 143.216 13.4438 143.216 13.4438 143.216L13.0009 143.649ZM4.7514 146.257 6.06005 148.864 4.7514 146.257 4.7514 146.689Z" fill="#5D9879" transform="matrix(1 0 0 1.00134 28 0)"/></g></g></g></g></svg>