<svg width="378" height="378" xmlns="http://www.w3.org/2000/svg" xmlns:xlink="http://www.w3.org/1999/xlink" overflow="hidden"><defs><clipPath id="clip0"><rect x="0" y="0" width="378" height="378"/></clipPath></defs><g clip-path="url(#clip0)"><rect x="0" y="0" width="378" height="378" fill="#FFFFFF"/><path d="M333.852 89.4703 350.641 155.847 377.852 69.8461Z" fill-rule="evenodd"/><path d="M283.853 13.8427C259.078 19.7409 223.932 28.5868 196.852 33.3048L218.747 59.8434Z" fill-rule="evenodd"/><path d="M216.852 242.875 299.852 294.847 279.102 212.846Z" fill-rule="evenodd"/><path d="M225.851 67.683 257.817 105.846 293.852 20.8458Z" fill-rule="evenodd"/><path d="M167.439 174.847 239.853 122.846 139.853 132.09Z" fill-rule="evenodd"/><path d="M242.5 334.847 299.852 306.124 215.852 253.847Z" fill-rule="evenodd"/><path d="M158.852 181.162 131.03 137.846 67.8515 245.847Z" fill-rule="evenodd"/><path d="M275.853 202.776 257.968 131.845 215.852 231.846Z" fill-rule="evenodd"/><path d="M267.852 126.846 285.746 197.847 338.853 172.448Z" fill-rule="evenodd"/><path d="M246.852 130.847 172.852 183.146 204.071 230.847 205.227 228.549 205.227 229.124Z" fill-rule="evenodd"/><path d="M341.851 162.847 324.29 93.8467 269.85 117.422Z" fill-rule="evenodd"/><path d="M217.404 74.8486 149.851 120.849 248.851 111.763Z" fill-rule="evenodd"/><path d="M164.132 189.847 71.8523 255.848 195.853 238.63Z" fill-rule="evenodd"/><path d="M209.853 66.241 187.889 39.847 146.852 109.848Z" fill-rule="evenodd"/><path d="M331.966 78.8465 376.853 58.6173 315.853 15.8459Z" fill-rule="evenodd"/><path d="M308.914 289.847 342.851 182.847 287.85 208.734Z" fill-rule="evenodd"/><path d="M268.852 105.847 320.852 82.7594 305.252 19.8461Z" fill-rule="evenodd"/><path d="M251.641 363.844 286.957 363.844 300.852 316.843 245.852 345.631Z" fill-rule="evenodd"/><path d="M116.851 363.845 94.0718 331.845 50.8504 363.845Z" fill-rule="evenodd"/><path d="M96.271 316.847 186.852 249.846 60.8513 267.174Z" fill-rule="evenodd"/><path d="M240.851 363.838 236.171 349.838 209.85 363.838Z" fill-rule="evenodd"/><path d="M-0.148309 363.846 33.4309 363.846 87.8523 323.273 52.5366 272.845Z" fill-rule="evenodd"/><path d="M129.346 363.846 148.353 363.846 193.853 256.845 102.852 325.465Z" fill-rule="evenodd"/><path d="M161.853 363.846 187.047 363.846 232.853 340.132 205.369 256.846Z" fill-rule="evenodd"/></g></svg>