<svg id="svg" version="1.1" xmlns="http://www.w3.org/2000/svg" xmlns:xlink="http://www.w3.org/1999/xlink" width="400" height="400" viewBox="0, 0, 400,400"><g id="svgg"><path id="path0" d="M202.434 1.800 C 202.434 2.020,202.778 2.830,203.200 3.600 C 203.622 4.370,203.966 4.820,203.966 4.600 C 203.966 4.380,203.622 3.570,203.200 2.800 C 202.778 2.030,202.434 1.580,202.434 1.800 M202.028 6.600 C 202.028 6.820,202.286 7.450,202.600 8.000 C 202.914 8.550,203.172 8.820,203.172 8.600 C 203.172 8.380,202.914 7.750,202.600 7.200 C 202.286 6.650,202.028 6.380,202.028 6.600 M204.834 7.000 C 204.834 7.220,205.178 8.030,205.600 8.800 C 206.022 9.570,206.366 10.020,206.366 9.800 C 206.366 9.580,206.022 8.770,205.600 8.000 C 205.178 7.230,204.834 6.780,204.834 7.000 M190.686 19.022 C 188.549 23.303,186.810 26.939,186.821 27.103 C 186.833 27.266,188.644 23.826,190.845 19.457 C 193.046 15.088,194.785 11.452,194.709 11.376 C 194.633 11.300,192.823 14.741,190.686 19.022 M204.428 11.800 C 204.428 12.020,204.686 12.650,205.000 13.200 C 205.314 13.750,205.572 14.020,205.572 13.800 C 205.572 13.580,205.314 12.950,205.000 12.400 C 204.686 11.850,204.428 11.580,204.428 11.800 M207.628 13.000 C 207.628 13.220,207.886 13.850,208.200 14.400 C 208.514 14.950,208.772 15.220,208.772 15.000 C 208.772 14.780,208.514 14.150,208.200 13.600 C 207.886 13.050,207.628 12.780,207.628 13.000 M206.834 17.000 C 206.834 17.220,207.178 18.030,207.600 18.800 C 208.022 19.570,208.366 20.020,208.366 19.800 C 208.366 19.580,208.022 18.770,207.600 18.000 C 207.178 17.230,206.834 16.780,206.834 17.000 M210.034 18.200 C 210.034 18.420,210.378 19.230,210.800 20.000 C 211.222 20.770,211.566 21.220,211.566 21.000 C 211.566 20.780,211.222 19.970,210.800 19.200 C 210.378 18.430,210.034 17.980,210.034 18.200 M209.234 22.200 C 209.234 22.420,209.578 23.230,210.000 24.000 C 210.422 24.770,210.766 25.220,210.766 25.000 C 210.766 24.780,210.422 23.970,210.000 23.200 C 209.578 22.430,209.234 21.980,209.234 22.200 M201.385 41.600 C 201.385 52.050,201.436 56.325,201.500 51.100 C 201.563 45.875,201.563 37.325,201.500 32.100 C 201.436 26.875,201.385 31.150,201.385 41.600 M212.828 24.200 C 212.828 24.420,213.086 25.050,213.400 25.600 C 213.714 26.150,213.972 26.420,213.972 26.200 C 213.972 25.980,213.714 25.350,213.400 24.800 C 213.086 24.250,212.828 23.980,212.828 24.200 M212.028 28.200 C 212.028 28.420,212.286 29.050,212.600 29.600 C 212.914 30.150,213.172 30.420,213.172 30.200 C 213.172 29.980,212.914 29.350,212.600 28.800 C 212.286 28.250,212.028 27.980,212.028 28.200 M215.228 29.400 C 215.228 29.620,215.486 30.250,215.800 30.800 C 216.114 31.350,216.372 31.620,216.372 31.400 C 216.372 31.180,216.114 30.550,215.800 30.000 C 215.486 29.450,215.228 29.180,215.228 29.400 M214.428 33.400 C 214.428 33.620,214.686 34.250,215.000 34.800 C 215.314 35.350,215.572 35.620,215.572 35.400 C 215.572 35.180,215.314 34.550,215.000 34.000 C 214.686 33.450,214.428 33.180,214.428 33.400 M217.634 34.600 C 217.634 34.820,217.978 35.630,218.400 36.400 C 218.822 37.170,219.166 37.620,219.166 37.400 C 219.166 37.180,218.822 36.370,218.400 35.600 C 217.978 34.830,217.634 34.380,217.634 34.600 M216.834 38.600 C 216.834 38.820,217.178 39.630,217.600 40.400 C 218.022 41.170,218.366 41.620,218.366 41.400 C 218.366 41.180,218.022 40.370,217.600 39.600 C 217.178 38.830,216.834 38.380,216.834 38.600 M220.428 40.600 C 220.428 40.820,220.686 41.450,221.000 42.000 C 221.314 42.550,221.572 42.820,221.572 42.600 C 221.572 42.380,221.314 41.750,221.000 41.200 C 220.686 40.650,220.428 40.380,220.428 40.600 M174.486 51.822 C 172.458 55.883,170.810 59.339,170.821 59.503 C 170.833 59.666,172.554 56.406,174.645 52.257 C 176.736 48.108,178.385 44.652,178.309 44.576 C 178.233 44.500,176.513 47.761,174.486 51.822 M219.628 44.600 C 219.628 44.820,219.886 45.450,220.200 46.000 C 220.514 46.550,220.772 46.820,220.772 46.600 C 220.772 46.380,220.514 45.750,220.200 45.200 C 219.886 44.650,219.628 44.380,219.628 44.600 M222.828 45.800 C 222.828 46.020,223.086 46.650,223.400 47.200 C 223.714 47.750,223.972 48.020,223.972 47.800 C 223.972 47.580,223.714 46.950,223.400 46.400 C 223.086 45.850,222.828 45.580,222.828 45.800 M222.028 49.800 C 222.028 50.020,222.286 50.650,222.600 51.200 C 222.914 51.750,223.172 52.020,223.172 51.800 C 223.172 51.580,222.914 50.950,222.600 50.400 C 222.286 49.850,222.028 49.580,222.028 49.800 M225.234 51.000 C 225.234 51.220,225.578 52.030,226.000 52.800 C 226.422 53.570,226.766 54.020,226.766 53.800 C 226.766 53.580,226.422 52.770,226.000 52.000 C 225.578 51.230,225.234 50.780,225.234 51.000 M224.434 55.000 C 224.434 55.220,224.778 56.030,225.200 56.800 C 225.622 57.570,225.966 58.020,225.966 57.800 C 225.966 57.580,225.622 56.770,225.200 56.000 C 224.778 55.230,224.434 54.780,224.434 55.000 M228.028 57.000 C 228.028 57.220,228.286 57.850,228.600 58.400 C 228.914 58.950,229.172 59.220,229.172 59.000 C 229.172 58.780,228.914 58.150,228.600 57.600 C 228.286 57.050,228.028 56.780,228.028 57.000 M227.228 61.000 C 227.228 61.220,227.486 61.850,227.800 62.400 C 228.114 62.950,228.372 63.220,228.372 63.000 C 228.372 62.780,228.114 62.150,227.800 61.600 C 227.486 61.050,227.228 60.780,227.228 61.000 M230.428 62.200 C 230.428 62.420,230.686 63.050,231.000 63.600 C 231.314 64.150,231.572 64.420,231.572 64.200 C 231.572 63.980,231.314 63.350,231.000 62.800 C 230.686 62.250,230.428 61.980,230.428 62.200 M229.628 66.200 C 229.628 66.420,229.886 67.050,230.200 67.600 C 230.514 68.150,230.772 68.420,230.772 68.200 C 230.772 67.980,230.514 67.350,230.200 66.800 C 229.886 66.250,229.628 65.980,229.628 66.200 M232.834 67.400 C 232.834 67.620,233.178 68.430,233.600 69.200 C 234.022 69.970,234.366 70.420,234.366 70.200 C 234.366 69.980,234.022 69.170,233.600 68.400 C 233.178 67.630,232.834 67.180,232.834 67.400 M232.034 71.400 C 232.034 71.620,232.378 72.430,232.800 73.200 C 233.222 73.970,233.566 74.420,233.566 74.200 C 233.566 73.980,233.222 73.170,232.800 72.400 C 232.378 71.630,232.034 71.180,232.034 71.400 M235.628 73.400 C 235.628 73.620,235.886 74.250,236.200 74.800 C 236.514 75.350,236.772 75.620,236.772 75.400 C 236.772 75.180,236.514 74.550,236.200 74.000 C 235.886 73.450,235.628 73.180,235.628 73.400 M234.434 76.600 C 234.434 76.820,234.778 77.630,235.200 78.400 C 235.622 79.170,235.966 79.620,235.966 79.400 C 235.966 79.180,235.622 78.370,235.200 77.600 C 234.778 76.830,234.434 76.380,234.434 76.600 M157.886 85.422 C 155.749 89.703,154.010 93.339,154.021 93.503 C 154.033 93.666,155.844 90.226,158.045 85.857 C 160.246 81.488,161.985 77.852,161.909 77.776 C 161.833 77.700,160.023 81.141,157.886 85.422 M238.028 78.600 C 238.028 78.820,238.286 79.450,238.600 80.000 C 238.914 80.550,239.172 80.820,239.172 80.600 C 239.172 80.380,238.914 79.750,238.600 79.200 C 238.286 78.650,238.028 78.380,238.028 78.600 M237.228 82.600 C 237.228 82.820,237.486 83.450,237.800 84.000 C 238.114 84.550,238.372 84.820,238.372 84.600 C 238.372 84.380,238.114 83.750,237.800 83.200 C 237.486 82.650,237.228 82.380,237.228 82.600 M240.434 83.800 C 240.434 84.020,240.778 84.830,241.200 85.600 C 241.622 86.370,241.966 86.820,241.966 86.600 C 241.966 86.380,241.622 85.570,241.200 84.800 C 240.778 84.030,240.434 83.580,240.434 83.800 M200.985 105.600 C 200.985 116.050,201.036 120.325,201.100 115.100 C 201.163 109.875,201.163 101.325,201.100 96.100 C 201.036 90.875,200.985 95.150,200.985 105.600 M239.628 87.800 C 239.628 88.020,239.886 88.650,240.200 89.200 C 240.514 89.750,240.772 90.020,240.772 89.800 C 240.772 89.580,240.514 88.950,240.200 88.400 C 239.886 87.850,239.628 87.580,239.628 87.800 M243.228 89.800 C 243.228 90.020,243.486 90.650,243.800 91.200 C 244.114 91.750,244.372 92.020,244.372 91.800 C 244.372 91.580,244.114 90.950,243.800 90.400 C 243.486 89.850,243.228 89.580,243.228 89.800 M242.034 93.000 C 242.034 93.220,242.378 94.030,242.800 94.800 C 243.222 95.570,243.566 96.020,243.566 95.800 C 243.566 95.580,243.222 94.770,242.800 94.000 C 242.378 93.230,242.034 92.780,242.034 93.000 M245.628 95.000 C 245.628 95.220,245.886 95.850,246.200 96.400 C 246.514 96.950,246.772 97.220,246.772 97.000 C 246.772 96.780,246.514 96.150,246.200 95.600 C 245.886 95.050,245.628 94.780,245.628 95.000 M244.828 99.000 C 244.828 99.220,245.086 99.850,245.400 100.400 C 245.714 100.950,245.972 101.220,245.972 101.000 C 245.972 100.780,245.714 100.150,245.400 99.600 C 245.086 99.050,244.828 98.780,244.828 99.000 M248.034 100.200 C 248.034 100.420,248.378 101.230,248.800 102.000 C 249.222 102.770,249.566 103.220,249.566 103.000 C 249.566 102.780,249.222 101.970,248.800 101.200 C 248.378 100.430,248.034 99.980,248.034 100.200 M247.228 104.200 C 247.228 104.420,247.486 105.050,247.800 105.600 C 248.114 106.150,248.372 106.420,248.372 106.200 C 248.372 105.980,248.114 105.350,247.800 104.800 C 247.486 104.250,247.228 103.980,247.228 104.200 M250.828 106.200 C 250.828 106.420,251.086 107.050,251.400 107.600 C 251.714 108.150,251.972 108.420,251.972 108.200 C 251.972 107.980,251.714 107.350,251.400 106.800 C 251.086 106.250,250.828 105.980,250.828 106.200 M249.634 109.400 C 249.634 109.620,249.978 110.430,250.400 111.200 C 250.822 111.970,251.166 112.420,251.166 112.200 C 251.166 111.980,250.822 111.170,250.400 110.400 C 249.978 109.630,249.634 109.180,249.634 109.400 M141.686 118.222 C 139.658 122.283,138.010 125.739,138.021 125.903 C 138.033 126.066,139.754 122.806,141.845 118.657 C 143.936 114.508,145.585 111.052,145.509 110.976 C 145.433 110.900,143.713 114.161,141.686 118.222 M253.228 111.400 C 253.228 111.620,253.486 112.250,253.800 112.800 C 254.114 113.350,254.372 113.620,254.372 113.400 C 254.372 113.180,254.114 112.550,253.800 112.000 C 253.486 111.450,253.228 111.180,253.228 111.400 M252.428 115.400 C 252.428 115.620,252.686 116.250,253.000 116.800 C 253.314 117.350,253.572 117.620,253.572 117.400 C 253.572 117.180,253.314 116.550,253.000 116.000 C 252.686 115.450,252.428 115.180,252.428 115.400 M255.634 116.600 C 255.634 116.820,255.978 117.630,256.400 118.400 C 256.822 119.170,257.166 119.620,257.166 119.400 C 257.166 119.180,256.822 118.370,256.400 117.600 C 255.978 116.830,255.634 116.380,255.634 116.600 M254.828 120.600 C 254.828 120.820,255.086 121.450,255.400 122.000 C 255.714 122.550,255.972 122.820,255.972 122.600 C 255.972 122.380,255.714 121.750,255.400 121.200 C 255.086 120.650,254.828 120.380,254.828 120.600 M258.428 122.600 C 258.428 122.820,258.686 123.450,259.000 124.000 C 259.314 124.550,259.572 124.820,259.572 124.600 C 259.572 124.380,259.314 123.750,259.000 123.200 C 258.686 122.650,258.428 122.380,258.428 122.600 M257.234 125.800 C 257.234 126.020,257.578 126.830,258.000 127.600 C 258.422 128.370,258.766 128.820,258.766 128.600 C 258.766 128.380,258.422 127.570,258.000 126.800 C 257.578 126.030,257.234 125.580,257.234 125.800 M260.828 127.800 C 260.828 128.020,261.086 128.650,261.400 129.200 C 261.714 129.750,261.972 130.020,261.972 129.800 C 261.972 129.580,261.714 128.950,261.400 128.400 C 261.086 127.850,260.828 127.580,260.828 127.800 M205.700 132.687 C 206.305 132.778,207.295 132.778,207.900 132.687 C 208.505 132.595,208.010 132.520,206.800 132.520 C 205.590 132.520,205.095 132.595,205.700 132.687 M194.905 135.087 C 195.514 135.179,196.414 135.177,196.905 135.082 C 197.397 134.987,196.900 134.911,195.800 134.914 C 194.700 134.917,194.297 134.995,194.905 135.087 M206.505 135.087 C 207.114 135.179,208.014 135.177,208.505 135.082 C 208.997 134.987,208.500 134.911,207.400 134.914 C 206.300 134.917,205.897 134.995,206.505 135.087 M252.400 140.400 C 251.060 142.160,250.054 143.600,250.164 143.600 C 250.274 143.600,251.460 142.160,252.800 140.400 C 254.140 138.640,255.146 137.200,255.036 137.200 C 254.926 137.200,253.740 138.640,252.400 140.400 M234.800 139.400 C 235.350 139.714,235.980 139.972,236.200 139.972 C 236.420 139.972,236.150 139.714,235.600 139.400 C 235.050 139.086,234.420 138.828,234.200 138.828 C 233.980 138.828,234.250 139.086,234.800 139.400 M166.400 142.600 C 165.850 142.914,165.580 143.172,165.800 143.172 C 166.020 143.172,166.650 142.914,167.200 142.600 C 167.750 142.286,168.020 142.028,167.800 142.028 C 167.580 142.028,166.950 142.286,166.400 142.600 M236.000 142.600 C 236.550 142.914,237.180 143.172,237.400 143.172 C 237.620 143.172,237.350 142.914,236.800 142.600 C 236.250 142.286,235.620 142.028,235.400 142.028 C 235.180 142.028,235.450 142.286,236.000 142.600 M241.600 142.579 C 241.600 142.689,242.140 143.059,242.800 143.400 C 243.460 143.741,244.000 143.931,244.000 143.821 C 244.000 143.711,243.460 143.341,242.800 143.000 C 242.140 142.659,241.600 142.469,241.600 142.579 M163.500 144.027 C 162.675 144.463,162.000 144.908,162.000 145.018 C 162.000 145.127,162.720 144.849,163.600 144.400 C 164.480 143.951,165.200 143.497,165.200 143.392 C 165.200 143.130,165.197 143.131,163.500 144.027 M238.000 143.384 C 238.000 143.494,238.720 143.951,239.600 144.400 C 240.480 144.849,241.200 145.126,241.200 145.016 C 241.200 144.906,240.480 144.449,239.600 144.000 C 238.720 143.551,238.000 143.274,238.000 143.384 M244.400 146.924 C 244.400 147.017,245.165 147.598,246.100 148.215 C 247.035 148.832,247.589 149.080,247.331 148.768 C 246.834 148.167,244.400 146.636,244.400 146.924 M1.200 152.200 C 1.946 152.970,2.647 153.600,2.757 153.600 C 2.867 153.600,2.346 152.970,1.600 152.200 C 0.854 151.430,0.153 150.800,0.043 150.800 C -0.067 150.800,0.454 151.430,1.200 152.200 M7.447 155.247 C 8.949 156.761,10.268 158.000,10.377 158.000 C 10.486 158.000,9.527 156.941,8.247 155.647 C 6.726 154.110,6.106 153.231,6.459 153.113 C 6.757 153.014,6.486 152.834,5.858 152.714 C 4.828 152.516,4.984 152.766,7.447 155.247 M389.597 163.900 L 379.400 174.200 389.700 164.003 C 399.271 154.527,400.180 153.600,399.897 153.600 C 399.840 153.600,395.205 158.235,389.597 163.900 M8.394 159.700 C 11.361 162.725,13.836 165.200,13.894 165.200 C 14.181 165.200,13.609 164.606,8.500 159.594 L 3.000 154.200 8.394 159.700 M143.793 158.900 L 139.400 163.400 143.900 159.007 C 146.375 156.591,148.400 154.566,148.400 154.507 C 148.400 154.218,147.874 154.720,143.793 158.900 M259.000 158.800 C 261.412 161.220,263.476 163.200,263.586 163.200 C 263.696 163.200,261.812 161.220,259.400 158.800 C 256.988 156.380,254.924 154.400,254.814 154.400 C 254.704 154.400,256.588 156.380,259.000 158.800 M393.744 155.477 C 393.897 155.630,392.982 156.845,391.711 158.177 L 389.400 160.600 392.100 158.012 C 395.109 155.126,395.056 155.200,394.133 155.200 C 393.767 155.200,393.592 155.325,393.744 155.477 M15.994 164.100 C 18.961 167.125,21.436 169.600,21.494 169.600 C 21.781 169.600,21.209 169.006,16.100 163.994 L 10.600 158.600 15.994 164.100 M375.598 174.700 L 363.400 187.000 375.700 174.802 C 382.465 168.094,388.000 162.559,388.000 162.502 C 388.000 162.220,386.933 163.269,375.598 174.700 M138.541 164.500 C 137.210 166.002,135.120 168.800,135.330 168.800 C 135.438 168.800,136.446 167.630,137.570 166.200 C 139.588 163.632,140.091 162.753,138.541 164.500 M264.955 165.319 C 265.803 166.353,266.580 167.200,266.682 167.200 C 266.955 167.200,264.421 164.060,263.877 163.724 C 263.622 163.566,264.107 164.284,264.955 165.319 M19.800 171.600 C 22.654 174.460,25.078 176.800,25.188 176.800 C 25.298 176.800,23.054 174.460,20.200 171.600 C 17.346 168.740,14.922 166.400,14.812 166.400 C 14.702 166.400,16.946 168.740,19.800 171.600 M27.400 176.000 C 30.254 178.860,32.678 181.200,32.788 181.200 C 32.898 181.200,30.654 178.860,27.800 176.000 C 24.946 173.140,22.522 170.800,22.412 170.800 C 22.302 170.800,24.546 173.140,27.400 176.000 M206.896 171.900 L 237.592 172.005 237.700 190.302 L 237.808 208.600 237.904 190.100 L 238.000 171.600 207.100 171.697 L 176.200 171.795 206.896 171.900 M197.786 176.493 C 197.679 176.772,197.640 185.370,197.700 195.600 L 197.808 214.200 197.904 195.300 L 198.000 176.400 207.194 176.400 L 216.388 176.400 216.503 188.200 L 216.618 200.000 216.609 188.100 L 216.600 176.200 207.290 176.093 C 200.060 176.009,197.937 176.099,197.786 176.493 M365.997 187.900 L 354.200 199.800 366.100 188.003 C 372.645 181.514,378.000 176.159,378.000 176.103 C 378.000 175.820,376.961 176.841,365.997 187.900 M30.794 182.900 C 33.761 185.925,36.236 188.400,36.294 188.400 C 36.581 188.400,36.009 187.806,30.900 182.794 L 25.400 177.400 30.794 182.900 M128.580 179.640 C 128.011 180.762,127.613 181.747,127.695 181.829 C 127.777 181.911,128.327 180.993,128.918 179.789 C 129.508 178.585,129.906 177.600,129.802 177.600 C 129.698 177.600,129.148 178.518,128.580 179.640 M274.282 179.789 C 274.873 180.993,275.423 181.911,275.505 181.829 C 275.684 181.649,273.667 177.600,273.398 177.600 C 273.294 177.600,273.692 178.585,274.282 179.789 M38.794 187.700 C 41.761 190.725,44.236 193.200,44.294 193.200 C 44.581 193.200,44.009 192.606,38.900 187.594 L 33.400 182.200 38.794 187.700 M41.994 194.500 C 44.961 197.525,47.436 200.000,47.494 200.000 C 47.781 200.000,47.209 199.406,42.100 194.394 L 36.600 189.000 41.994 194.500 M349.397 201.300 L 337.400 213.400 349.500 201.403 C 360.745 190.253,361.780 189.200,361.497 189.200 C 361.441 189.200,355.996 194.645,349.397 201.300 M50.200 199.600 C 53.054 202.460,55.478 204.800,55.588 204.800 C 55.698 204.800,53.454 202.460,50.600 199.600 C 47.746 196.740,45.322 194.400,45.212 194.400 C 45.102 194.400,47.346 196.740,50.200 199.600 M53.400 206.400 C 56.254 209.260,58.678 211.600,58.788 211.600 C 58.898 211.600,56.654 209.260,53.800 206.400 C 50.946 203.540,48.522 201.200,48.412 201.200 C 48.302 201.200,50.546 203.540,53.400 206.400 M340.797 213.500 L 329.000 225.400 340.900 213.603 C 347.445 207.114,352.800 201.759,352.800 201.703 C 352.800 201.420,351.761 202.441,340.797 213.500 M223.200 202.566 C 223.750 202.860,224.650 203.212,225.200 203.349 C 225.750 203.486,225.480 203.252,224.600 202.829 C 222.790 201.958,221.668 201.748,223.200 202.566 M61.400 211.200 C 64.254 214.060,66.678 216.400,66.788 216.400 C 66.898 216.400,64.654 214.060,61.800 211.200 C 58.946 208.340,56.522 206.000,56.412 206.000 C 56.302 206.000,58.546 208.340,61.400 211.200 M284.893 207.200 C 284.893 207.970,284.975 208.285,285.076 207.900 C 285.176 207.515,285.176 206.885,285.076 206.500 C 284.975 206.115,284.893 206.430,284.893 207.200 M120.124 212.200 C 120.126 213.520,120.201 214.012,120.290 213.293 C 120.379 212.574,120.377 211.494,120.286 210.893 C 120.195 210.292,120.122 210.880,120.124 212.200 M282.931 212.600 C 282.933 214.140,283.005 214.721,283.092 213.891 C 283.179 213.061,283.177 211.801,283.089 211.091 C 283.000 210.381,282.929 211.060,282.931 212.600 M117.761 216.400 C 117.761 219.810,117.822 221.205,117.897 219.500 C 117.972 217.795,117.972 215.005,117.897 213.300 C 117.822 211.595,117.761 212.990,117.761 216.400 M285.361 216.400 C 285.361 219.810,285.422 221.205,285.497 219.500 C 285.572 217.795,285.572 215.005,285.497 213.300 C 285.422 211.595,285.361 212.990,285.361 216.400 M184.061 212.218 C 184.424 212.589,184.940 212.820,185.206 212.731 C 185.473 212.642,185.175 212.339,184.545 212.056 C 183.473 211.576,183.442 211.586,184.061 212.218 M64.600 218.000 C 67.454 220.860,69.878 223.200,69.988 223.200 C 70.098 223.200,67.854 220.860,65.000 218.000 C 62.146 215.140,59.722 212.800,59.612 212.800 C 59.502 212.800,61.746 215.140,64.600 218.000 M189.200 214.600 C 190.190 215.130,191.180 215.564,191.400 215.564 C 191.620 215.564,190.990 215.130,190.000 214.600 C 189.010 214.070,188.020 213.636,187.800 213.636 C 187.580 213.636,188.210 214.070,189.200 214.600 M199.600 215.396 C 199.600 215.670,202.049 216.884,202.232 216.701 C 202.319 216.614,201.762 216.244,200.995 215.878 C 200.228 215.512,199.600 215.295,199.600 215.396 M323.598 227.500 L 311.400 239.800 323.700 227.602 C 335.131 216.267,336.180 215.200,335.898 215.200 C 335.841 215.200,330.306 220.735,323.598 227.500 M194.400 217.000 C 194.950 217.314,195.580 217.572,195.800 217.572 C 196.020 217.572,195.750 217.314,195.200 217.000 C 194.650 216.686,194.020 216.428,193.800 216.428 C 193.580 216.428,193.850 216.686,194.400 217.000 M282.934 220.000 C 282.934 221.650,283.005 222.325,283.091 221.500 C 283.178 220.675,283.178 219.325,283.091 218.500 C 283.005 217.675,282.934 218.350,282.934 220.000 M72.794 222.900 C 75.761 225.925,78.236 228.400,78.294 228.400 C 78.581 228.400,78.009 227.806,72.900 222.794 L 67.400 217.400 72.794 222.900 M205.400 218.000 C 205.840 218.189,206.470 218.344,206.800 218.344 C 207.178 218.344,207.104 218.217,206.600 218.000 C 206.160 217.811,205.530 217.656,205.200 217.656 C 204.822 217.656,204.896 217.783,205.400 218.000 M120.124 220.600 C 120.126 221.920,120.201 222.412,120.290 221.693 C 120.379 220.974,120.377 219.894,120.286 219.293 C 120.195 218.692,120.122 219.280,120.124 220.600 M213.127 220.346 C 213.509 220.589,213.314 220.821,212.414 221.194 C 211.732 221.477,211.248 221.781,211.338 221.871 C 211.427 221.961,212.154 221.723,212.953 221.342 C 214.286 220.706,214.311 220.012,213.000 220.012 C 212.780 220.012,212.837 220.163,213.127 220.346 M205.000 220.800 C 205.440 220.989,206.070 221.144,206.400 221.144 C 206.778 221.144,206.704 221.017,206.200 220.800 C 205.760 220.611,205.130 220.456,204.800 220.456 C 204.422 220.456,204.496 220.583,205.000 220.800 M75.994 229.700 C 78.961 232.725,81.436 235.200,81.494 235.200 C 81.781 235.200,81.209 234.606,76.100 229.594 L 70.600 224.200 75.994 229.700 M120.493 225.600 C 120.493 226.370,120.575 226.685,120.676 226.300 C 120.776 225.915,120.776 225.285,120.676 224.900 C 120.575 224.515,120.493 224.830,120.493 225.600 M202.700 225.227 C 201.875 225.663,201.200 226.108,201.200 226.218 C 201.200 226.396,204.359 224.919,204.767 224.551 C 205.227 224.134,204.025 224.528,202.700 225.227 M282.493 225.600 C 282.493 226.370,282.575 226.685,282.676 226.300 C 282.776 225.915,282.776 225.285,282.676 224.900 C 282.575 224.515,282.493 224.830,282.493 225.600 M193.600 225.400 C 193.050 225.714,192.780 225.972,193.000 225.972 C 193.220 225.972,193.850 225.714,194.400 225.400 C 194.950 225.086,195.220 224.828,195.000 224.828 C 194.780 224.828,194.150 225.086,193.600 225.400 M199.287 227.500 C 198.330 228.435,198.314 228.481,199.181 227.806 C 200.888 226.476,200.969 226.400,200.686 226.400 C 200.536 226.400,199.906 226.895,199.287 227.500 M188.800 227.600 C 188.030 228.022,187.580 228.366,187.800 228.366 C 188.020 228.366,188.830 228.022,189.600 227.600 C 190.370 227.178,190.820 226.834,190.600 226.834 C 190.380 226.834,189.570 227.178,188.800 227.600 M315.597 239.100 L 303.800 251.000 315.700 239.203 C 322.245 232.714,327.600 227.359,327.600 227.303 C 327.600 227.020,326.561 228.041,315.597 239.100 M84.200 234.800 C 87.054 237.660,89.478 240.000,89.588 240.000 C 89.698 240.000,87.454 237.660,84.600 234.800 C 81.746 231.940,79.322 229.600,79.212 229.600 C 79.102 229.600,81.346 231.940,84.200 234.800 M182.600 230.214 C 181.600 230.696,181.566 230.751,182.400 230.548 C 183.533 230.271,184.807 229.621,184.200 229.630 C 183.980 229.633,183.260 229.896,182.600 230.214 M176.496 249.700 L 176.592 267.800 176.700 249.927 L 176.808 232.055 177.704 231.882 C 178.467 231.735,178.437 231.701,177.500 231.654 L 176.400 231.600 176.496 249.700 M87.194 241.300 C 90.161 244.325,92.636 246.800,92.694 246.800 C 92.981 246.800,92.409 246.206,87.300 241.194 L 81.800 235.800 87.194 241.300 M95.200 246.200 C 97.943 248.950,100.278 251.200,100.388 251.200 C 100.498 251.200,98.343 248.950,95.600 246.200 C 92.857 243.450,90.522 241.200,90.412 241.200 C 90.302 241.200,92.457 243.450,95.200 246.200 M303.573 247.804 C 300.368 250.992,297.850 253.600,297.978 253.600 C 298.106 253.600,300.816 250.990,304.000 247.800 C 307.184 244.610,309.702 242.002,309.595 242.004 C 309.488 242.006,306.778 244.616,303.573 247.804 M120.600 243.814 C 119.600 244.296,119.566 244.351,120.400 244.148 C 121.533 243.871,122.807 243.221,122.200 243.230 C 121.980 243.233,121.260 243.496,120.600 243.814 M96.213 250.808 C 97.746 252.463,99.082 253.761,99.182 253.693 C 99.281 253.626,98.027 252.272,96.395 250.685 L 93.426 247.800 96.213 250.808 M126.428 248.200 C 126.428 248.420,126.686 249.050,127.000 249.600 C 127.314 250.150,127.572 250.420,127.572 250.200 C 127.572 249.980,127.314 249.350,127.000 248.800 C 126.686 248.250,126.428 247.980,126.428 248.200 M276.065 249.017 C 275.395 250.488,275.523 250.802,276.247 249.465 C 276.586 248.840,276.788 248.254,276.696 248.163 C 276.605 248.071,276.321 248.456,276.065 249.017 M300.837 254.161 C 300.253 254.782,299.997 255.453,300.113 256.061 L 300.291 257.000 300.346 256.026 C 300.375 255.490,300.791 254.635,301.270 254.126 C 301.748 253.617,302.049 253.200,301.939 253.200 C 301.829 253.200,301.333 253.632,300.837 254.161 M130.200 256.000 C 130.541 256.660,130.911 257.200,131.021 257.200 C 131.131 257.200,130.941 256.660,130.600 256.000 C 130.259 255.340,129.889 254.800,129.779 254.800 C 129.669 254.800,129.859 255.340,130.200 256.000 M272.600 256.000 C 272.259 256.660,272.069 257.200,272.179 257.200 C 272.289 257.200,272.659 256.660,273.000 256.000 C 273.341 255.340,273.531 254.800,273.421 254.800 C 273.311 254.800,272.941 255.340,272.600 256.000 M138.400 268.125 C 138.400 268.194,138.985 268.779,139.700 269.425 L 141.000 270.600 139.825 269.300 C 138.730 268.088,138.400 267.816,138.400 268.125 M263.375 269.300 L 262.200 270.600 263.500 269.425 C 264.215 268.779,264.800 268.194,264.800 268.125 C 264.800 267.816,264.470 268.088,263.375 269.300 M143.800 274.000 C 145.550 275.760,147.071 277.200,147.181 277.200 C 147.291 277.200,145.950 275.760,144.200 274.000 C 142.450 272.240,140.929 270.800,140.819 270.800 C 140.709 270.800,142.050 272.240,143.800 274.000 M258.991 274.100 L 255.800 277.400 259.100 274.209 C 262.165 271.246,262.582 270.800,262.291 270.800 C 262.230 270.800,260.745 272.285,258.991 274.100 M147.600 277.325 C 147.600 277.394,148.185 277.979,148.900 278.625 L 150.200 279.800 149.025 278.500 C 147.930 277.288,147.600 277.016,147.600 277.325 M254.175 278.500 L 253.000 279.800 254.300 278.625 C 255.015 277.979,255.600 277.394,255.600 277.325 C 255.600 277.016,255.270 277.288,254.175 278.500 M150.682 280.041 C 151.225 280.715,154.800 283.346,154.800 283.073 C 154.800 282.976,153.765 282.119,152.500 281.170 C 151.235 280.221,150.417 279.713,150.682 280.041 M250.800 281.049 C 248.234 283.056,247.864 283.563,250.118 281.983 C 251.800 280.804,253.185 279.560,252.749 279.621 C 252.667 279.632,251.790 280.275,250.800 281.049 M244.100 285.646 C 242.737 286.519,242.295 287.106,243.500 286.443 C 244.418 285.939,245.856 284.827,245.600 284.819 C 245.490 284.816,244.815 285.188,244.100 285.646 M239.900 288.027 C 239.075 288.463,238.400 288.908,238.400 289.018 C 238.400 289.127,239.120 288.849,240.000 288.400 C 240.880 287.951,241.600 287.497,241.600 287.392 C 241.600 287.130,241.597 287.131,239.900 288.027 M152.400 288.800 C 151.930 289.460,151.636 290.000,151.746 290.000 C 151.856 290.000,152.330 289.460,152.800 288.800 C 153.270 288.140,153.564 287.600,153.454 287.600 C 153.344 287.600,152.870 288.140,152.400 288.800 M246.400 290.800 C 246.870 291.460,247.344 292.000,247.454 292.000 C 247.564 292.000,247.270 291.460,246.800 290.800 C 246.330 290.140,245.856 289.600,245.746 289.600 C 245.636 289.600,245.930 290.140,246.400 290.800 M167.600 290.600 C 168.150 290.914,168.780 291.172,169.000 291.172 C 169.220 291.172,168.950 290.914,168.400 290.600 C 167.850 290.286,167.220 290.028,167.000 290.028 C 166.780 290.028,167.050 290.286,167.600 290.600 M234.800 290.600 C 234.250 290.914,233.980 291.172,234.200 291.172 C 234.420 291.172,235.050 290.914,235.600 290.600 C 236.150 290.286,236.420 290.028,236.200 290.028 C 235.980 290.028,235.350 290.286,234.800 290.600 M148.800 294.000 C 148.330 294.660,148.036 295.200,148.146 295.200 C 148.256 295.200,148.730 294.660,149.200 294.000 C 149.670 293.340,149.964 292.800,149.854 292.800 C 149.744 292.800,149.270 293.340,148.800 294.000 M249.200 294.800 C 249.670 295.460,250.144 296.000,250.254 296.000 C 250.364 296.000,250.070 295.460,249.600 294.800 C 249.130 294.140,248.656 293.600,248.546 293.600 C 248.436 293.600,248.730 294.140,249.200 294.800 M146.000 298.000 C 145.530 298.660,145.236 299.200,145.346 299.200 C 145.456 299.200,145.930 298.660,146.400 298.000 C 146.870 297.340,147.164 296.800,147.054 296.800 C 146.944 296.800,146.470 297.340,146.000 298.000 M198.900 297.897 C 200.385 297.974,202.815 297.974,204.300 297.897 C 205.785 297.820,204.570 297.757,201.600 297.757 C 198.630 297.757,197.415 297.820,198.900 297.897 M252.800 300.000 C 253.270 300.660,253.744 301.200,253.854 301.200 C 253.964 301.200,253.670 300.660,253.200 300.000 C 252.730 299.340,252.256 298.800,252.146 298.800 C 252.036 298.800,252.330 299.340,252.800 300.000 M192.500 299.876 C 192.885 299.976,193.515 299.976,193.900 299.876 C 194.285 299.775,193.970 299.693,193.200 299.693 C 192.430 299.693,192.115 299.775,192.500 299.876 M209.300 299.876 C 209.685 299.976,210.315 299.976,210.700 299.876 C 211.085 299.775,210.770 299.693,210.000 299.693 C 209.230 299.693,208.915 299.775,209.300 299.876 M197.295 300.275 C 197.936 300.443,197.999 301.576,198.100 314.928 L 198.210 329.400 198.305 314.700 L 198.400 300.000 197.500 300.046 C 196.831 300.081,196.778 300.139,197.295 300.275 M200.495 314.500 L 200.590 329.000 200.700 314.717 L 200.810 300.435 203.705 300.297 L 206.600 300.159 203.500 300.079 L 200.400 300.000 200.495 314.500 M142.400 303.200 C 141.930 303.860,141.636 304.400,141.746 304.400 C 141.856 304.400,142.330 303.860,142.800 303.200 C 143.270 302.540,143.564 302.000,143.454 302.000 C 143.344 302.000,142.870 302.540,142.400 303.200 M255.600 304.000 C 256.070 304.660,256.544 305.200,256.654 305.200 C 256.764 305.200,256.470 304.660,256.000 304.000 C 255.530 303.340,255.056 302.800,254.946 302.800 C 254.836 302.800,255.130 303.340,255.600 304.000 M139.600 307.200 C 139.130 307.860,138.836 308.400,138.946 308.400 C 139.056 308.400,139.530 307.860,140.000 307.200 C 140.470 306.540,140.764 306.000,140.654 306.000 C 140.544 306.000,140.070 306.540,139.600 307.200 M258.800 308.600 C 259.481 309.590,260.128 310.400,260.238 310.400 C 260.348 310.400,259.881 309.590,259.200 308.600 C 258.519 307.610,257.872 306.800,257.762 306.800 C 257.652 306.800,258.119 307.610,258.800 308.600 M136.800 311.200 C 136.330 311.860,136.036 312.400,136.146 312.400 C 136.256 312.400,136.730 311.860,137.200 311.200 C 137.670 310.540,137.964 310.000,137.854 310.000 C 137.744 310.000,137.270 310.540,136.800 311.200 M262.000 313.200 C 262.470 313.860,262.944 314.400,263.054 314.400 C 263.164 314.400,262.870 313.860,262.400 313.200 C 261.930 312.540,261.456 312.000,261.346 312.000 C 261.236 312.000,261.530 312.540,262.000 313.200 M133.200 316.400 C 132.730 317.060,132.436 317.600,132.546 317.600 C 132.656 317.600,133.130 317.060,133.600 316.400 C 134.070 315.740,134.364 315.200,134.254 315.200 C 134.144 315.200,133.670 315.740,133.200 316.400 M265.200 317.800 C 265.881 318.790,266.528 319.600,266.638 319.600 C 266.748 319.600,266.281 318.790,265.600 317.800 C 264.919 316.810,264.272 316.000,264.162 316.000 C 264.052 316.000,264.519 316.810,265.200 317.800 M130.000 321.000 C 129.319 321.990,128.852 322.800,128.962 322.800 C 129.072 322.800,129.719 321.990,130.400 321.000 C 131.081 320.010,131.548 319.200,131.438 319.200 C 131.328 319.200,130.681 320.010,130.000 321.000 M268.400 322.400 C 268.870 323.060,269.344 323.600,269.454 323.600 C 269.564 323.600,269.270 323.060,268.800 322.400 C 268.330 321.740,267.856 321.200,267.746 321.200 C 267.636 321.200,267.930 321.740,268.400 322.400 M126.800 325.600 C 126.330 326.260,126.036 326.800,126.146 326.800 C 126.256 326.800,126.730 326.260,127.200 325.600 C 127.670 324.940,127.964 324.400,127.854 324.400 C 127.744 324.400,127.270 324.940,126.800 325.600 M271.200 326.400 C 271.670 327.060,272.144 327.600,272.254 327.600 C 272.364 327.600,272.070 327.060,271.600 326.400 C 271.130 325.740,270.656 325.200,270.546 325.200 C 270.436 325.200,270.730 325.740,271.200 326.400 M124.000 329.600 C 123.530 330.260,123.236 330.800,123.346 330.800 C 123.456 330.800,123.930 330.260,124.400 329.600 C 124.870 328.940,125.164 328.400,125.054 328.400 C 124.944 328.400,124.470 328.940,124.000 329.600 M196.300 329.829 C 194.805 330.640,194.896 330.978,196.400 330.200 C 197.060 329.859,197.600 329.494,197.600 329.390 C 197.600 329.132,197.557 329.147,196.300 329.829 M202.000 329.779 C 202.000 329.889,202.540 330.259,203.200 330.600 C 203.860 330.941,204.400 331.131,204.400 331.021 C 204.400 330.911,203.860 330.541,203.200 330.200 C 202.540 329.859,202.000 329.669,202.000 329.779 M274.800 331.600 C 275.270 332.260,275.744 332.800,275.854 332.800 C 275.964 332.800,275.670 332.260,275.200 331.600 C 274.730 330.940,274.256 330.400,274.146 330.400 C 274.036 330.400,274.330 330.940,274.800 331.600 M191.900 332.229 C 190.405 333.040,190.496 333.378,192.000 332.600 C 192.660 332.259,193.200 331.894,193.200 331.790 C 193.200 331.532,193.157 331.547,191.900 332.229 M195.500 333.029 C 194.005 333.840,194.096 334.178,195.600 333.400 C 196.260 333.059,196.800 332.694,196.800 332.590 C 196.800 332.332,196.757 332.347,195.500 333.029 M202.000 332.579 C 202.000 332.689,202.540 333.059,203.200 333.400 C 203.860 333.741,204.400 333.931,204.400 333.821 C 204.400 333.711,203.860 333.341,203.200 333.000 C 202.540 332.659,202.000 332.469,202.000 332.579 M208.400 333.379 C 208.400 333.489,208.940 333.859,209.600 334.200 C 210.260 334.541,210.800 334.731,210.800 334.621 C 210.800 334.511,210.260 334.141,209.600 333.800 C 208.940 333.459,208.400 333.269,208.400 333.379 M120.400 334.800 C 119.930 335.460,119.636 336.000,119.746 336.000 C 119.856 336.000,120.330 335.460,120.800 334.800 C 121.270 334.140,121.564 333.600,121.454 333.600 C 121.344 333.600,120.870 334.140,120.400 334.800 M188.300 334.229 C 186.805 335.040,186.896 335.378,188.400 334.600 C 189.060 334.259,189.600 333.894,189.600 333.790 C 189.600 333.532,189.557 333.547,188.300 334.229 M205.600 334.579 C 205.600 334.689,206.140 335.059,206.800 335.400 C 207.460 335.741,208.000 335.931,208.000 335.821 C 208.000 335.711,207.460 335.341,206.800 335.000 C 206.140 334.659,205.600 334.469,205.600 334.579 M277.600 335.600 C 278.070 336.260,278.544 336.800,278.654 336.800 C 278.764 336.800,278.470 336.260,278.000 335.600 C 277.530 334.940,277.056 334.400,276.946 334.400 C 276.836 334.400,277.130 334.940,277.600 335.600 M191.100 335.429 C 189.605 336.240,189.696 336.578,191.200 335.800 C 191.860 335.459,192.400 335.094,192.400 334.990 C 192.400 334.732,192.357 334.747,191.100 335.429 M212.000 335.379 C 212.000 335.489,212.540 335.859,213.200 336.200 C 213.860 336.541,214.400 336.731,214.400 336.621 C 214.400 336.511,213.860 336.141,213.200 335.800 C 212.540 335.459,212.000 335.269,212.000 335.379 M183.500 336.827 C 182.675 337.263,182.000 337.708,182.000 337.818 C 182.000 337.927,182.720 337.649,183.600 337.200 C 184.480 336.751,185.200 336.297,185.200 336.192 C 185.200 335.930,185.197 335.931,183.500 336.827 M186.700 337.829 C 185.205 338.640,185.296 338.978,186.800 338.200 C 187.460 337.859,188.000 337.494,188.000 337.390 C 188.000 337.132,187.957 337.147,186.700 337.829 M215.600 337.379 C 215.600 337.489,216.140 337.859,216.800 338.200 C 217.460 338.541,218.000 338.731,218.000 338.621 C 218.000 338.511,217.460 338.141,216.800 337.800 C 216.140 337.459,215.600 337.269,215.600 337.379 M117.600 338.800 C 117.130 339.460,116.836 340.000,116.946 340.000 C 117.056 340.000,117.530 339.460,118.000 338.800 C 118.470 338.140,118.764 337.600,118.654 337.600 C 118.544 337.600,118.070 338.140,117.600 338.800 M212.000 338.179 C 212.000 338.289,212.540 338.659,213.200 339.000 C 213.860 339.341,214.400 339.531,214.400 339.421 C 214.400 339.311,213.860 338.941,213.200 338.600 C 212.540 338.259,212.000 338.069,212.000 338.179 M179.500 339.029 C 178.005 339.840,178.096 340.178,179.600 339.400 C 180.260 339.059,180.800 338.694,180.800 338.590 C 180.800 338.332,180.757 338.347,179.500 339.029 M182.300 340.229 C 180.805 341.040,180.896 341.378,182.400 340.600 C 183.060 340.259,183.600 339.894,183.600 339.790 C 183.600 339.532,183.557 339.547,182.300 340.229 M281.200 340.800 C 281.670 341.460,282.144 342.000,282.254 342.000 C 282.364 342.000,282.070 341.460,281.600 340.800 C 281.130 340.140,280.656 339.600,280.546 339.600 C 280.436 339.600,280.730 340.140,281.200 340.800 M215.600 340.179 C 215.600 340.289,216.140 340.659,216.800 341.000 C 217.460 341.341,218.000 341.531,218.000 341.421 C 218.000 341.311,217.460 340.941,216.800 340.600 C 216.140 340.259,215.600 340.069,215.600 340.179 M175.100 341.429 C 173.605 342.240,173.696 342.578,175.200 341.800 C 175.860 341.459,176.400 341.094,176.400 340.990 C 176.400 340.732,176.357 340.747,175.100 341.429 M222.000 340.979 C 222.000 341.089,222.540 341.459,223.200 341.800 C 223.860 342.141,224.400 342.331,224.400 342.221 C 224.400 342.111,223.860 341.741,223.200 341.400 C 222.540 341.059,222.000 340.869,222.000 340.979 M178.300 342.427 C 177.475 342.863,176.800 343.308,176.800 343.418 C 176.800 343.527,177.520 343.249,178.400 342.800 C 179.280 342.351,180.000 341.897,180.000 341.792 C 180.000 341.530,179.997 341.531,178.300 342.427 M219.200 342.179 C 219.200 342.289,219.740 342.659,220.400 343.000 C 221.060 343.341,221.600 343.531,221.600 343.421 C 221.600 343.311,221.060 342.941,220.400 342.600 C 219.740 342.259,219.200 342.069,219.200 342.179 M114.000 344.000 C 113.530 344.660,113.236 345.200,113.346 345.200 C 113.456 345.200,113.930 344.660,114.400 344.000 C 114.870 343.340,115.164 342.800,115.054 342.800 C 114.944 342.800,114.470 343.340,114.000 344.000 M225.600 342.979 C 225.600 343.089,226.140 343.459,226.800 343.800 C 227.460 344.141,228.000 344.331,228.000 344.221 C 228.000 344.111,227.460 343.741,226.800 343.400 C 226.140 343.059,225.600 342.869,225.600 342.979 M170.700 343.829 C 169.205 344.640,169.296 344.978,170.800 344.200 C 171.460 343.859,172.000 343.494,172.000 343.390 C 172.000 343.132,171.957 343.147,170.700 343.829 M174.300 344.629 C 172.805 345.440,172.896 345.778,174.400 345.000 C 175.060 344.659,175.600 344.294,175.600 344.190 C 175.600 343.932,175.557 343.947,174.300 344.629 M284.800 346.000 C 285.270 346.660,285.744 347.200,285.854 347.200 C 285.964 347.200,285.670 346.660,285.200 346.000 C 284.730 345.340,284.256 344.800,284.146 344.800 C 284.036 344.800,284.330 345.340,284.800 346.000 M166.300 346.229 C 164.805 347.040,164.896 347.378,166.400 346.600 C 167.060 346.259,167.600 345.894,167.600 345.790 C 167.600 345.532,167.557 345.547,166.300 346.229 M225.600 345.779 C 225.600 345.889,226.140 346.259,226.800 346.600 C 227.460 346.941,228.000 347.131,228.000 347.021 C 228.000 346.911,227.460 346.541,226.800 346.200 C 226.140 345.859,225.600 345.669,225.600 345.779 M169.900 347.029 C 168.405 347.840,168.496 348.178,170.000 347.400 C 170.660 347.059,171.200 346.694,171.200 346.590 C 171.200 346.332,171.157 346.347,169.900 347.029 M232.000 346.579 C 232.000 346.689,232.540 347.059,233.200 347.400 C 233.860 347.741,234.400 347.931,234.400 347.821 C 234.400 347.711,233.860 347.341,233.200 347.000 C 232.540 346.659,232.000 346.469,232.000 346.579 M111.200 348.000 C 110.730 348.660,110.436 349.200,110.546 349.200 C 110.656 349.200,111.130 348.660,111.600 348.000 C 112.070 347.340,112.364 346.800,112.254 346.800 C 112.144 346.800,111.670 347.340,111.200 348.000 M229.200 347.779 C 229.200 347.889,229.740 348.259,230.400 348.600 C 231.060 348.941,231.600 349.131,231.600 349.021 C 231.600 348.911,231.060 348.541,230.400 348.200 C 229.740 347.859,229.200 347.669,229.200 347.779 M161.900 348.629 C 160.405 349.440,160.496 349.778,162.000 349.000 C 162.660 348.659,163.200 348.294,163.200 348.190 C 163.200 347.932,163.157 347.947,161.900 348.629 M235.600 348.579 C 235.600 348.689,236.140 349.059,236.800 349.400 C 237.460 349.741,238.000 349.931,238.000 349.821 C 238.000 349.711,237.460 349.341,236.800 349.000 C 236.140 348.659,235.600 348.469,235.600 348.579 M165.500 349.429 C 164.005 350.240,164.096 350.578,165.600 349.800 C 166.260 349.459,166.800 349.094,166.800 348.990 C 166.800 348.732,166.757 348.747,165.500 349.429 M157.900 350.827 C 157.075 351.263,156.400 351.708,156.400 351.818 C 156.400 351.927,157.120 351.649,158.000 351.200 C 158.880 350.751,159.600 350.297,159.600 350.192 C 159.600 349.930,159.597 349.931,157.900 350.827 M108.400 352.000 C 107.930 352.660,107.636 353.200,107.746 353.200 C 107.856 353.200,108.330 352.660,108.800 352.000 C 109.270 351.340,109.564 350.800,109.454 350.800 C 109.344 350.800,108.870 351.340,108.400 352.000 M161.100 351.829 C 159.605 352.640,159.696 352.978,161.200 352.200 C 161.860 351.859,162.400 351.494,162.400 351.390 C 162.400 351.132,162.357 351.147,161.100 351.829 M235.600 351.379 C 235.600 351.489,236.140 351.859,236.800 352.200 C 237.460 352.541,238.000 352.731,238.000 352.621 C 238.000 352.511,237.460 352.141,236.800 351.800 C 236.140 351.459,235.600 351.269,235.600 351.379 M242.000 352.179 C 242.000 352.289,242.540 352.659,243.200 353.000 C 243.860 353.341,244.400 353.531,244.400 353.421 C 244.400 353.311,243.860 352.941,243.200 352.600 C 242.540 352.259,242.000 352.069,242.000 352.179 M153.500 353.227 C 152.675 353.663,152.000 354.108,152.000 354.218 C 152.000 354.327,152.720 354.049,153.600 353.600 C 154.480 353.151,155.200 352.697,155.200 352.592 C 155.200 352.330,155.197 352.331,153.500 353.227 M239.200 353.379 C 239.200 353.489,239.740 353.859,240.400 354.200 C 241.060 354.541,241.600 354.731,241.600 354.621 C 241.600 354.511,241.060 354.141,240.400 353.800 C 239.740 353.459,239.200 353.269,239.200 353.379 M156.700 354.229 C 155.205 355.040,155.296 355.378,156.800 354.600 C 157.460 354.259,158.000 353.894,158.000 353.790 C 158.000 353.532,157.957 353.547,156.700 354.229 M245.600 354.179 C 245.600 354.289,246.140 354.659,246.800 355.000 C 247.460 355.341,248.000 355.531,248.000 355.421 C 248.000 355.311,247.460 354.941,246.800 354.600 C 246.140 354.259,245.600 354.069,245.600 354.179 M149.500 355.429 C 148.005 356.240,148.096 356.578,149.600 355.800 C 150.260 355.459,150.800 355.094,150.800 354.990 C 150.800 354.732,150.757 354.747,149.500 355.429 M242.800 355.379 C 242.800 355.489,243.340 355.859,244.000 356.200 C 244.660 356.541,245.200 356.731,245.200 356.621 C 245.200 356.511,244.660 356.141,244.000 355.800 C 243.340 355.459,242.800 355.269,242.800 355.379 M104.800 357.200 C 104.330 357.860,104.036 358.400,104.146 358.400 C 104.256 358.400,104.730 357.860,105.200 357.200 C 105.670 356.540,105.964 356.000,105.854 356.000 C 105.744 356.000,105.270 356.540,104.800 357.200 M152.300 356.629 C 150.805 357.440,150.896 357.778,152.400 357.000 C 153.060 356.659,153.600 356.294,153.600 356.190 C 153.600 355.932,153.557 355.947,152.300 356.629 M249.200 356.179 C 249.200 356.289,249.740 356.659,250.400 357.000 C 251.060 357.341,251.600 357.531,251.600 357.421 C 251.600 357.311,251.060 356.941,250.400 356.600 C 249.740 356.259,249.200 356.069,249.200 356.179 M145.100 357.829 C 143.605 358.640,143.696 358.978,145.200 358.200 C 145.860 357.859,146.400 357.494,146.400 357.390 C 146.400 357.132,146.357 357.147,145.100 357.829 M148.700 358.629 C 147.205 359.440,147.296 359.778,148.800 359.000 C 149.460 358.659,150.000 358.294,150.000 358.190 C 150.000 357.932,149.957 357.947,148.700 358.629 M249.200 358.979 C 249.200 359.089,249.740 359.459,250.400 359.800 C 251.060 360.141,251.600 360.331,251.600 360.221 C 251.600 360.111,251.060 359.741,250.400 359.400 C 249.740 359.059,249.200 358.869,249.200 358.979 M140.700 360.229 C 139.205 361.040,139.296 361.378,140.800 360.600 C 141.460 360.259,142.000 359.894,142.000 359.790 C 142.000 359.532,141.957 359.547,140.700 360.229 M255.600 359.779 C 255.600 359.889,256.140 360.259,256.800 360.600 C 257.460 360.941,258.000 361.131,258.000 361.021 C 258.000 360.911,257.460 360.541,256.800 360.200 C 256.140 359.859,255.600 359.669,255.600 359.779 M101.600 361.800 C 100.919 362.790,100.452 363.600,100.562 363.600 C 100.672 363.600,101.319 362.790,102.000 361.800 C 102.681 360.810,103.148 360.000,103.038 360.000 C 102.928 360.000,102.281 360.810,101.600 361.800 M144.300 361.029 C 142.805 361.840,142.896 362.178,144.400 361.400 C 145.060 361.059,145.600 360.694,145.600 360.590 C 145.600 360.332,145.557 360.347,144.300 361.029 M252.800 360.979 C 252.800 361.089,253.340 361.459,254.000 361.800 C 254.660 362.141,255.200 362.331,255.200 362.221 C 255.200 362.111,254.660 361.741,254.000 361.400 C 253.340 361.059,252.800 360.869,252.800 360.979 M136.300 362.629 C 134.805 363.440,134.896 363.778,136.400 363.000 C 137.060 362.659,137.600 362.294,137.600 362.190 C 137.600 361.932,137.557 361.947,136.300 362.629 M139.900 363.429 C 138.405 364.240,138.496 364.578,140.000 363.800 C 140.660 363.459,141.200 363.094,141.200 362.990 C 141.200 362.732,141.157 362.747,139.900 363.429 M256.400 362.979 C 256.400 363.089,256.940 363.459,257.600 363.800 C 258.260 364.141,258.800 364.331,258.800 364.221 C 258.800 364.111,258.260 363.741,257.600 363.400 C 256.940 363.059,256.400 362.869,256.400 362.979 M131.900 365.029 C 130.405 365.840,130.496 366.178,132.000 365.400 C 132.660 365.059,133.200 364.694,133.200 364.590 C 133.200 364.332,133.157 364.347,131.900 365.029 M98.400 366.400 C 97.930 367.060,97.636 367.600,97.746 367.600 C 97.856 367.600,98.330 367.060,98.800 366.400 C 99.270 365.740,99.564 365.200,99.454 365.200 C 99.344 365.200,98.870 365.740,98.400 366.400 M135.500 365.829 C 134.005 366.640,134.096 366.978,135.600 366.200 C 136.260 365.859,136.800 365.494,136.800 365.390 C 136.800 365.132,136.757 365.147,135.500 365.829 M265.600 365.379 C 265.600 365.489,266.140 365.859,266.800 366.200 C 267.460 366.541,268.000 366.731,268.000 366.621 C 268.000 366.511,267.460 366.141,266.800 365.800 C 266.140 365.459,265.600 365.269,265.600 365.379 M128.300 367.029 C 126.805 367.840,126.896 368.178,128.400 367.400 C 129.060 367.059,129.600 366.694,129.600 366.590 C 129.600 366.332,129.557 366.347,128.300 367.029 M131.500 368.027 C 130.675 368.463,130.000 368.908,130.000 369.018 C 130.000 369.127,130.720 368.849,131.600 368.400 C 132.480 367.951,133.200 367.497,133.200 367.392 C 133.200 367.130,133.197 367.131,131.500 368.027 M269.200 367.379 C 269.200 367.489,269.740 367.859,270.400 368.200 C 271.060 368.541,271.600 368.731,271.600 368.621 C 271.600 368.511,271.060 368.141,270.400 367.800 C 269.740 367.459,269.200 367.269,269.200 367.379 M300.800 369.200 C 301.270 369.860,301.744 370.400,301.854 370.400 C 301.964 370.400,301.670 369.860,301.200 369.200 C 300.730 368.540,300.256 368.000,300.146 368.000 C 300.036 368.000,300.330 368.540,300.800 369.200 M266.400 368.579 C 266.400 368.689,266.940 369.059,267.600 369.400 C 268.260 369.741,268.800 369.931,268.800 369.821 C 268.800 369.711,268.260 369.341,267.600 369.000 C 266.940 368.659,266.400 368.469,266.400 368.579 M123.500 369.627 C 122.675 370.063,122.000 370.508,122.000 370.618 C 122.000 370.727,122.720 370.449,123.600 370.000 C 124.480 369.551,125.200 369.097,125.200 368.992 C 125.200 368.730,125.197 368.731,123.500 369.627 M95.600 370.400 C 95.130 371.060,94.836 371.600,94.946 371.600 C 95.056 371.600,95.530 371.060,96.000 370.400 C 96.470 369.740,96.764 369.200,96.654 369.200 C 96.544 369.200,96.070 369.740,95.600 370.400 M127.500 370.229 C 126.005 371.040,126.096 371.378,127.600 370.600 C 128.260 370.259,128.800 369.894,128.800 369.790 C 128.800 369.532,128.757 369.547,127.500 370.229 M275.600 370.979 C 275.600 371.089,276.140 371.459,276.800 371.800 C 277.460 372.141,278.000 372.331,278.000 372.221 C 278.000 372.111,277.460 371.741,276.800 371.400 C 276.140 371.059,275.600 370.869,275.600 370.979 M119.500 371.829 C 118.005 372.640,118.096 372.978,119.600 372.200 C 120.260 371.859,120.800 371.494,120.800 371.390 C 120.800 371.132,120.757 371.147,119.500 371.829 M123.100 372.629 C 121.605 373.440,121.696 373.778,123.200 373.000 C 123.860 372.659,124.400 372.294,124.400 372.190 C 124.400 371.932,124.357 371.947,123.100 372.629 M279.200 372.979 C 279.200 373.089,279.740 373.459,280.400 373.800 C 281.060 374.141,281.600 374.331,281.600 374.221 C 281.600 374.111,281.060 373.741,280.400 373.400 C 279.740 373.059,279.200 372.869,279.200 372.979 M115.100 374.229 C 113.605 375.040,113.696 375.378,115.200 374.600 C 115.860 374.259,116.400 373.894,116.400 373.790 C 116.400 373.532,116.357 373.547,115.100 374.229 M276.400 374.179 C 276.400 374.289,276.940 374.659,277.600 375.000 C 278.260 375.341,278.800 375.531,278.800 375.421 C 278.800 375.311,278.260 374.941,277.600 374.600 C 276.940 374.259,276.400 374.069,276.400 374.179 M92.000 375.600 C 91.530 376.260,91.236 376.800,91.346 376.800 C 91.456 376.800,91.930 376.260,92.400 375.600 C 92.870 374.940,93.164 374.400,93.054 374.400 C 92.944 374.400,92.470 374.940,92.000 375.600 M118.700 375.029 C 117.205 375.840,117.296 376.178,118.800 375.400 C 119.460 375.059,120.000 374.694,120.000 374.590 C 120.000 374.332,119.957 374.347,118.700 375.029 M306.000 376.800 C 306.470 377.460,306.944 378.000,307.054 378.000 C 307.164 378.000,306.870 377.460,306.400 376.800 C 305.930 376.140,305.456 375.600,305.346 375.600 C 305.236 375.600,305.530 376.140,306.000 376.800 M110.700 376.629 C 109.205 377.440,109.296 377.778,110.800 377.000 C 111.460 376.659,112.000 376.294,112.000 376.190 C 112.000 375.932,111.957 375.947,110.700 376.629 M280.000 376.179 C 280.000 376.289,280.540 376.659,281.200 377.000 C 281.860 377.341,282.400 377.531,282.400 377.421 C 282.400 377.311,281.860 376.941,281.200 376.600 C 280.540 376.259,280.000 376.069,280.000 376.179 M285.600 376.579 C 285.600 376.689,286.140 377.059,286.800 377.400 C 287.460 377.741,288.000 377.931,288.000 377.821 C 288.000 377.711,287.460 377.341,286.800 377.000 C 286.140 376.659,285.600 376.469,285.600 376.579 M114.300 377.429 C 112.805 378.240,112.896 378.578,114.400 377.800 C 115.060 377.459,115.600 377.094,115.600 376.990 C 115.600 376.732,115.557 376.747,114.300 377.429 M89.200 379.600 C 88.730 380.260,88.436 380.800,88.546 380.800 C 88.656 380.800,89.130 380.260,89.600 379.600 C 90.070 378.940,90.364 378.400,90.254 378.400 C 90.144 378.400,89.670 378.940,89.200 379.600 M106.300 379.029 C 104.805 379.840,104.896 380.178,106.400 379.400 C 107.060 379.059,107.600 378.694,107.600 378.590 C 107.600 378.332,107.557 378.347,106.300 379.029 M289.200 378.579 C 289.200 378.689,289.740 379.059,290.400 379.400 C 291.060 379.741,291.600 379.931,291.600 379.821 C 291.600 379.711,291.060 379.341,290.400 379.000 C 289.740 378.659,289.200 378.469,289.200 378.579 M109.900 379.829 C 108.405 380.640,108.496 380.978,110.000 380.200 C 110.660 379.859,111.200 379.494,111.200 379.390 C 111.200 379.132,111.157 379.147,109.900 379.829 M286.400 379.779 C 286.400 379.889,286.940 380.259,287.600 380.600 C 288.260 380.941,288.800 381.131,288.800 381.021 C 288.800 380.911,288.260 380.541,287.600 380.200 C 286.940 379.859,286.400 379.669,286.400 379.779 M292.800 380.579 C 292.800 380.689,293.340 381.059,294.000 381.400 C 294.660 381.741,295.200 381.931,295.200 381.821 C 295.200 381.711,294.660 381.341,294.000 381.000 C 293.340 380.659,292.800 380.469,292.800 380.579 M101.900 381.429 C 100.405 382.240,100.496 382.578,102.000 381.800 C 102.660 381.459,103.200 381.094,103.200 380.990 C 103.200 380.732,103.157 380.747,101.900 381.429 M105.900 382.027 C 105.075 382.463,104.400 382.908,104.400 383.018 C 104.400 383.127,105.120 382.849,106.000 382.400 C 106.880 381.951,107.600 381.497,107.600 381.392 C 107.600 381.130,107.597 381.131,105.900 382.027 M86.000 384.200 C 85.319 385.190,84.852 386.000,84.962 386.000 C 85.072 386.000,85.719 385.190,86.400 384.200 C 87.081 383.210,87.548 382.400,87.438 382.400 C 87.328 382.400,86.681 383.210,86.000 384.200 M97.900 383.627 C 97.075 384.063,96.400 384.508,96.400 384.618 C 96.400 384.727,97.120 384.449,98.000 384.000 C 98.880 383.551,99.600 383.097,99.600 382.992 C 99.600 382.730,99.597 382.731,97.900 383.627 M312.000 385.600 C 312.896 386.920,313.720 388.000,313.830 388.000 C 313.940 388.000,313.296 386.920,312.400 385.600 C 311.504 384.280,310.680 383.200,310.570 383.200 C 310.460 383.200,311.104 384.280,312.000 385.600 M101.900 384.229 C 100.405 385.040,100.496 385.378,102.000 384.600 C 102.660 384.259,103.200 383.894,103.200 383.790 C 103.200 383.532,103.157 383.547,101.900 384.229 M299.200 384.179 C 299.200 384.289,299.740 384.659,300.400 385.000 C 301.060 385.341,301.600 385.531,301.600 385.421 C 301.600 385.311,301.060 384.941,300.400 384.600 C 299.740 384.259,299.200 384.069,299.200 384.179 M93.500 386.027 C 92.675 386.463,92.000 386.908,92.000 387.018 C 92.000 387.127,92.720 386.849,93.600 386.400 C 94.480 385.951,95.200 385.497,95.200 385.392 C 95.200 385.130,95.197 385.131,93.500 386.027 M296.400 385.379 C 296.400 385.489,296.940 385.859,297.600 386.200 C 298.260 386.541,298.800 386.731,298.800 386.621 C 298.800 386.511,298.260 386.141,297.600 385.800 C 296.940 385.459,296.400 385.269,296.400 385.379 M97.500 386.629 C 96.005 387.440,96.096 387.778,97.600 387.000 C 98.260 386.659,98.800 386.294,98.800 386.190 C 98.800 385.932,98.757 385.947,97.500 386.629 M302.800 386.179 C 302.800 386.289,303.340 386.659,304.000 387.000 C 304.660 387.341,305.200 387.531,305.200 387.421 C 305.200 387.311,304.660 386.941,304.000 386.600 C 303.340 386.259,302.800 386.069,302.800 386.179 M300.000 387.379 C 300.000 387.489,300.540 387.859,301.200 388.200 C 301.860 388.541,302.400 388.731,302.400 388.621 C 302.400 388.511,301.860 388.141,301.200 387.800 C 300.540 387.459,300.000 387.269,300.000 387.379 M82.800 388.800 C 82.330 389.460,82.036 390.000,82.146 390.000 C 82.256 390.000,82.730 389.460,83.200 388.800 C 83.670 388.140,83.964 387.600,83.854 387.600 C 83.744 387.600,83.270 388.140,82.800 388.800 M89.500 388.229 C 88.005 389.040,88.096 389.378,89.600 388.600 C 90.260 388.259,90.800 387.894,90.800 387.790 C 90.800 387.532,90.757 387.547,89.500 388.229 M93.100 389.029 C 91.605 389.840,91.696 390.178,93.200 389.400 C 93.860 389.059,94.400 388.694,94.400 388.590 C 94.400 388.332,94.357 388.347,93.100 389.029 M303.600 389.379 C 303.600 389.489,304.140 389.859,304.800 390.200 C 305.460 390.541,306.000 390.731,306.000 390.621 C 306.000 390.511,305.460 390.141,304.800 389.800 C 304.140 389.459,303.600 389.269,303.600 389.379 M309.200 389.779 C 309.200 389.889,309.740 390.259,310.400 390.600 C 311.060 390.941,311.600 391.131,311.600 391.021 C 311.600 390.911,311.060 390.541,310.400 390.200 C 309.740 389.859,309.200 389.669,309.200 389.779 M85.100 390.629 C 83.605 391.440,83.696 391.778,85.200 391.000 C 85.860 390.659,86.400 390.294,86.400 390.190 C 86.400 389.932,86.357 389.947,85.100 390.629 M88.700 391.429 C 87.205 392.240,87.296 392.578,88.800 391.800 C 89.460 391.459,90.000 391.094,90.000 390.990 C 90.000 390.732,89.957 390.747,88.700 391.429 M80.000 392.800 C 79.530 393.460,79.257 394.000,79.393 394.000 C 79.797 394.000,82.000 392.797,82.000 392.576 C 82.000 392.464,81.640 392.565,81.200 392.800 C 80.319 393.272,80.125 392.835,80.880 392.080 C 81.144 391.816,81.246 391.600,81.107 391.600 C 80.968 391.600,80.470 392.140,80.000 392.800 M312.800 391.779 C 312.800 391.889,313.340 392.259,314.000 392.600 C 314.660 392.941,315.200 393.131,315.200 393.021 C 315.200 392.911,314.660 392.541,314.000 392.200 C 313.340 391.859,312.800 391.669,312.800 391.779 M317.029 392.981 C 317.729 394.055,317.735 394.137,317.099 393.893 C 315.951 393.453,316.307 393.932,317.641 394.621 L 318.883 395.263 318.141 394.001 C 317.734 393.307,317.144 392.527,316.830 392.269 C 316.514 392.009,316.602 392.325,317.029 392.981 M84.700 393.627 C 83.875 394.063,83.200 394.508,83.200 394.618 C 83.200 394.727,83.920 394.449,84.800 394.000 C 85.680 393.551,86.400 393.097,86.400 392.992 C 86.400 392.730,86.397 392.731,84.700 393.627 M310.000 392.979 C 310.000 393.089,310.540 393.459,311.200 393.800 C 311.860 394.141,312.400 394.331,312.400 394.221 C 312.400 394.111,311.860 393.741,311.200 393.400 C 310.540 393.059,310.000 392.869,310.000 392.979 M313.600 394.979 C 313.600 395.089,314.140 395.459,314.800 395.800 C 315.460 396.141,316.000 396.331,316.000 396.221 C 316.000 396.111,315.460 395.741,314.800 395.400 C 314.140 395.059,313.600 394.869,313.600 394.979 M80.300 396.027 C 79.475 396.463,78.800 396.908,78.800 397.018 C 78.800 397.127,79.520 396.849,80.400 396.400 C 81.280 395.951,82.000 395.497,82.000 395.392 C 82.000 395.130,81.997 395.131,80.300 396.027 M75.246 397.900 C 75.199 398.816,76.129 399.163,76.597 398.405 C 76.734 398.183,76.584 398.108,76.256 398.234 C 75.900 398.370,75.596 398.172,75.481 397.729 C 75.330 397.144,75.284 397.178,75.246 397.900 M320.000 398.579 C 320.000 398.689,320.540 399.059,321.200 399.400 C 321.860 399.741,322.400 399.931,322.400 399.821 C 322.400 399.711,321.860 399.341,321.200 399.000 C 320.540 398.659,320.000 398.469,320.000 398.579 " stroke="none" fill="#d3cfd0" fill-rule="evenodd"></path><path id="path1" d="M176.400 190.030 L 176.400 208.060 184.500 211.984 C 195.935 217.524,201.485 219.798,205.582 220.622 C 206.908 220.888,206.835 220.936,203.736 221.831 C 200.725 222.700,198.886 223.453,186.800 228.764 C 184.270 229.876,180.985 231.099,179.500 231.481 L 176.800 232.177 176.800 249.895 L 176.800 267.613 187.300 267.507 L 197.800 267.400 197.904 248.027 C 197.998 230.564,198.074 228.581,198.677 227.915 C 199.721 226.761,203.014 225.018,207.576 223.205 C 214.428 220.482,214.278 220.701,210.150 219.449 C 203.946 217.567,200.862 216.358,199.204 215.157 L 197.592 213.989 197.696 195.095 L 197.800 176.200 207.200 176.200 L 216.600 176.200 216.708 188.000 L 216.817 199.800 221.708 201.694 C 224.399 202.736,229.075 204.565,232.100 205.759 L 237.600 207.929 237.600 189.965 L 237.600 172.000 207.000 172.000 L 176.400 172.000 176.400 190.030 " stroke="none" fill="#ec141c" fill-rule="evenodd"></path><path id="path2" d="M194.055 12.870 C 173.949 53.862,136.667 129.035,136.346 129.233 C 136.139 129.361,134.491 129.690,132.685 129.963 C 130.878 130.236,115.450 132.686,98.400 135.407 C 81.350 138.128,59.480 141.618,49.800 143.162 C 40.120 144.706,25.090 147.070,16.401 148.417 C 7.711 149.763,0.550 150.916,0.487 150.980 C 0.400 151.066,80.614 234.363,96.421 250.600 L 99.147 253.400 95.975 273.000 C 94.230 283.780,91.083 303.220,88.982 316.200 C 86.881 329.180,82.997 352.912,80.352 368.937 C 77.706 384.963,75.633 398.166,75.745 398.278 C 75.857 398.391,103.539 383.389,137.260 364.941 C 170.980 346.494,198.857 331.347,199.207 331.282 C 199.558 331.218,227.465 346.622,261.222 365.513 C 294.980 384.405,322.646 399.832,322.703 399.795 C 322.781 399.744,305.427 289.406,300.754 260.249 L 299.929 255.097 301.893 253.049 C 305.662 249.116,379.819 173.715,389.949 163.515 C 395.567 157.859,400.050 153.117,399.912 152.979 C 399.773 152.840,368.786 147.833,331.052 141.852 C 293.317 135.871,262.363 130.892,262.265 130.788 C 262.167 130.685,248.492 101.260,231.877 65.400 C 212.261 23.064,201.445 0.155,201.032 0.070 C 200.556 -0.027,198.809 3.179,194.055 12.870 M230.757 68.078 C 246.621 102.331,259.600 130.580,259.600 130.854 C 259.600 131.258,256.676 135.255,248.579 145.918 C 248.235 146.370,247.261 145.959,243.294 143.686 C 231.089 136.694,215.615 132.482,201.852 132.406 L 200.703 132.400 200.953 86.300 C 201.195 41.745,201.578 5.435,201.805 5.681 C 201.865 5.746,214.894 33.825,230.757 68.078 M215.200 135.790 C 275.801 146.879,303.434 216.332,266.770 265.400 C 234.460 308.639,168.740 308.639,136.430 265.400 C 98.557 214.714,129.761 142.558,192.800 135.052 C 196.409 134.623,211.544 135.121,215.200 135.790 M64.800 170.192 C 96.590 179.596,122.664 187.348,122.741 187.419 C 122.819 187.491,122.418 188.956,121.850 190.675 C 116.819 205.900,116.630 225.180,121.361 240.515 L 122.303 243.566 114.251 246.240 C 109.823 247.710,104.813 249.421,103.119 250.040 L 100.037 251.166 55.914 205.483 C 31.645 180.357,10.198 158.142,8.253 156.116 C 5.325 153.066,4.913 152.489,5.858 152.764 C 6.486 152.946,33.010 160.789,64.800 170.192 M391.756 158.500 C 386.631 163.742,308.822 242.856,303.241 248.500 L 298.197 253.599 289.036 250.404 C 283.998 248.647,279.828 247.161,279.769 247.103 C 279.711 247.044,280.352 244.927,281.193 242.398 C 286.398 226.759,286.634 207.305,281.804 192.093 C 281.269 190.411,280.901 188.966,280.984 188.883 C 281.068 188.799,293.615 185.038,308.868 180.525 C 324.121 176.012,349.470 168.489,365.200 163.806 C 380.930 159.123,394.066 155.271,394.391 155.246 C 394.716 155.221,393.531 156.685,391.756 158.500 M158.144 287.955 C 169.672 294.878,186.204 300.000,197.020 300.000 L 198.400 300.000 198.400 314.532 L 198.400 329.064 138.960 361.559 C 106.268 379.431,79.474 393.996,79.418 393.927 C 79.343 393.833,140.727 305.489,152.811 288.300 C 154.748 285.543,154.189 285.580,158.144 287.955 M257.389 306.056 C 294.536 359.385,319.429 395.624,318.562 395.108 C 318.363 394.990,292.370 380.454,260.800 362.805 C 229.230 345.157,202.725 330.284,201.900 329.753 L 200.400 328.789 200.400 314.454 L 200.400 300.119 205.900 299.886 C 217.863 299.378,230.463 295.946,240.600 290.433 C 242.580 289.356,244.400 288.458,244.646 288.437 C 244.891 288.417,250.625 296.345,257.389 306.056 " stroke="none" fill="#1c1c1c" fill-rule="evenodd"></path></g></svg>