<svg id="svg" xmlns="http://www.w3.org/2000/svg" xmlns:xlink="http://www.w3.org/1999/xlink" width="400" height="400" viewBox="0, 0, 400,400" version="1.1"><g id="svgg"><path id="path0" d="M174.587 101.379 C 161.940 103.345,154.448 110.932,153.336 122.900 C 153.128 125.138,152.970 125.584,152.442 125.429 C 138.732 121.403,120.837 124.064,109.087 131.875 C 92.306 143.031,86.717 164.831,96.424 181.270 C 98.331 184.501,98.326 184.234,96.500 184.818 C 72.756 192.424,71.364 219.409,94.133 230.727 L 97.966 232.632 93.955 234.562 C 70.647 245.781,68.587 273.061,89.910 288.123 C 109.573 302.012,155.052 303.558,179.232 291.160 C 206.528 277.165,208.041 246.294,182.186 230.902 C 170.969 224.225,156.694 221.616,130.200 221.399 C 112.152 221.251,108.543 220.824,102.958 218.174 C 95.650 214.707,93.867 206.941,98.987 200.882 C 102.053 197.255,105.583 197.142,114.000 200.406 C 142.499 211.456,169.450 205.411,181.302 185.311 C 191.636 167.784,186.424 144.065,169.700 132.517 C 166.864 130.559,166.846 126.876,169.643 120.940 C 173.023 113.768,183.456 112.020,189.667 117.586 L 191.400 119.138 189.343 121.269 C 185.003 125.764,184.800 129.973,188.734 133.908 C 195.446 140.619,207.065 135.401,208.872 124.864 C 211.468 109.722,194.719 98.249,174.587 101.379 M282.000 124.167 C 271.413 126.070,261.942 131.768,256.089 139.754 L 254.600 141.787 254.389 136.993 C 254.008 128.320,252.613 127.480,240.613 128.696 C 236.585 129.104,234.873 129.081,229.813 128.551 C 215.481 127.049,210.934 128.830,210.510 136.112 C 210.122 142.791,214.037 145.619,222.000 144.410 C 223.870 144.126,226.390 143.745,227.600 143.563 C 233.770 142.636,236.452 146.504,237.193 157.400 C 237.755 165.649,238.119 220.126,237.659 227.008 C 236.872 238.787,235.077 240.733,226.400 239.214 C 215.111 237.237,210.251 239.401,210.255 246.400 C 210.258 253.699,214.259 255.742,226.310 254.597 C 241.498 253.154,250.996 253.157,266.000 254.608 C 279.898 255.953,284.316 254.133,284.694 246.905 C 284.956 241.912,283.123 239.189,279.000 238.448 C 276.970 238.083,276.141 238.163,268.980 239.409 C 262.435 240.547,260.343 239.047,258.322 231.766 C 257.247 227.892,256.716 188.663,257.586 177.400 C 258.946 159.788,262.525 150.410,270.056 144.727 C 280.993 136.474,300.322 138.463,307.142 148.543 C 310.622 153.686,310.557 163.018,307.048 162.122 C 297.192 159.606,291.016 172.616,298.510 180.110 C 307.568 189.168,324.027 182.654,327.826 168.507 C 334.968 141.915,311.199 118.917,282.000 124.167 M147.800 141.360 C 166.841 146.453,173.606 168.217,160.249 181.409 C 147.163 194.333,121.401 191.240,114.019 175.860 C 104.261 155.526,124.289 135.071,147.800 141.360 M152.120 238.998 C 171.241 241.504,181.017 248.819,180.990 260.600 C 180.977 266.616,179.522 269.476,174.320 273.715 C 161.317 284.312,125.822 286.032,107.438 276.956 C 92.916 269.787,91.999 253.291,105.676 245.267 C 115.580 239.456,135.304 236.794,152.120 238.998 " stroke="none" fill="#fbfbfb" fill-rule="evenodd"></path><path id="path1" d="M184.200 0.429 C 34.121 12.331,-49.829 181.100,31.320 307.771 C 115.641 439.392,312.142 427.694,380.226 287.000 C 447.266 148.464,337.678 -11.743,184.200 0.429 M186.564 101.215 C 205.887 103.429,216.246 122.521,204.131 133.593 C 193.952 142.897,179.826 131.125,189.343 121.269 L 191.400 119.138 189.667 117.586 C 183.456 112.020,173.023 113.768,169.643 120.940 C 166.846 126.876,166.864 130.559,169.700 132.517 C 189.485 146.179,192.465 175.322,175.800 192.177 C 160.852 207.296,139.204 210.178,114.000 200.406 C 105.583 197.142,102.053 197.255,98.987 200.882 C 93.867 206.941,95.650 214.707,102.958 218.174 C 108.543 220.824,112.152 221.251,130.200 221.399 C 156.694 221.616,170.969 224.225,182.186 230.902 C 208.041 246.294,206.528 277.165,179.232 291.160 C 155.052 303.558,109.573 302.012,89.910 288.123 C 68.587 273.061,70.647 245.781,93.955 234.562 L 97.966 232.632 94.133 230.727 C 71.364 219.409,72.756 192.424,96.500 184.818 C 98.326 184.234,98.331 184.501,96.424 181.270 C 86.717 164.831,92.306 143.031,109.087 131.875 C 120.837 124.064,138.732 121.403,152.442 125.429 C 152.970 125.584,153.128 125.138,153.336 122.900 C 154.782 107.344,167.516 99.033,186.564 101.215 M299.200 124.400 C 321.118 129.086,333.351 147.935,327.826 168.507 C 324.027 182.654,307.568 189.168,298.510 180.110 C 291.016 172.616,297.192 159.606,307.048 162.122 C 310.557 163.018,310.622 153.686,307.142 148.543 C 300.322 138.463,280.993 136.474,270.056 144.727 C 262.525 150.410,258.946 159.788,257.586 177.400 C 256.716 188.663,257.247 227.892,258.322 231.766 C 260.343 239.047,262.435 240.547,268.980 239.409 C 276.141 238.163,276.970 238.083,279.000 238.448 C 283.123 239.189,284.956 241.912,284.694 246.905 C 284.316 254.133,279.898 255.953,266.000 254.608 C 250.996 253.157,241.498 253.154,226.310 254.597 C 214.259 255.742,210.258 253.699,210.255 246.400 C 210.251 239.401,215.111 237.237,226.400 239.214 C 235.077 240.733,236.872 238.787,237.659 227.008 C 238.119 220.126,237.755 165.649,237.193 157.400 C 236.452 146.504,233.770 142.636,227.600 143.563 C 226.390 143.745,223.870 144.126,222.000 144.410 C 214.037 145.619,210.122 142.791,210.510 136.112 C 210.934 128.830,215.481 127.049,229.813 128.551 C 234.873 129.081,236.585 129.104,240.613 128.696 C 252.613 127.480,254.008 128.320,254.389 136.993 L 254.600 141.787 256.089 139.754 C 265.141 127.402,283.184 120.976,299.200 124.400 M132.200 140.968 C 105.646 147.095,104.251 181.684,130.285 188.433 C 151.385 193.902,170.668 178.892,166.665 160.116 C 163.759 146.489,147.477 137.444,132.200 140.968 M125.600 239.052 C 117.766 240.114,110.705 242.316,105.676 245.267 C 91.999 253.291,92.916 269.787,107.438 276.956 C 125.822 286.032,161.317 284.312,174.320 273.715 C 186.046 264.159,182.647 249.173,167.306 242.787 C 157.815 238.836,139.375 237.184,125.600 239.052 " stroke="none" fill="#3c6ce4" fill-rule="evenodd"></path></g></svg>