<svg width="378" height="378" xmlns="http://www.w3.org/2000/svg" xmlns:xlink="http://www.w3.org/1999/xlink" overflow="hidden"><defs><clipPath id="clip0"><rect x="0" y="0" width="378" height="378"/></clipPath></defs><g clip-path="url(#clip0)"><rect x="0" y="0" width="378" height="378" fill="#FFFFFF"/><path d="M0 322 89.1431 189.002 0 56 66.8572 56 156 189.002 66.8572 322 0 322Z" fill="#453A62" fill-rule="evenodd"/><path d="M89 322 178.094 189.002 89 56 155.82 56 334 322 267.187 322 211.507 238.878 155.816 322 89 322Z" fill="#5E5086" fill-rule="evenodd"/><path d="M304 244.997 274.4 200.194 378 200.194 378 245 304 245ZM259.6 177.802 230 133 378 133 378 177.802 259.6 177.802Z" fill="#8F4E8B" fill-rule="evenodd"/></g></svg>