<?xml version="1.0" standalone="yes"?>
<svg xmlns="http://www.w3.org/2000/svg" width="992" height="1125">
<path style="fill:#f79221; stroke:none;" d="M593 82C593.219 92.2797 596.202 102.654 596.911 113C598.309 133.422 594.903 155.241 586.713 173.996C558.597 238.384 496.353 281.992 444 325.565C421.371 344.399 399.369 364.37 381.627 388C374.549 397.426 366.769 407.891 362.555 419C357.315 432.814 353.664 447.197 353.039 462C350.644 518.788 390.079 567.623 432 600.996C442.9 609.674 454.37 617.296 465.91 625.05C471.714 628.949 477.925 634.059 485 635C482.388 629.4 477.332 625.588 473.285 621C464.287 610.798 455.148 600.835 446.884 590C416.34 549.951 392.729 491.605 413.593 442.089C428.963 405.615 462.29 377.671 491 351.831C534.434 312.74 581.955 273.037 605.252 217.83C611.178 203.785 614.258 188.935 616.59 174C618.795 159.883 618.684 145.128 616.409 131C613.474 112.77 605.419 97.5498 596 82L593 82M535 663C543.467 666.612 553.859 655.381 560 650.246C580.057 633.474 599.612 611.652 604.536 585C609.355 558.918 595.683 537.252 583.083 515.573C565.481 485.286 547.301 454.064 557.978 418C570.14 376.919 605.44 345.523 639 321.152C649.483 313.539 660.608 306.089 672 299.931C676.874 297.295 685.099 294.535 687 289C678.24 290.294 669.9 294.384 661.83 297.866C652.535 301.876 643.203 305.58 633.961 309.786C623.302 314.636 612.657 319.716 602.428 325.428C556.211 351.237 507.14 391.703 498.795 447C497.444 455.952 496.099 464.828 497.129 474C499.834 498.099 512.026 519.992 525.078 540C539.402 561.959 555.326 585.646 554.982 613C554.819 625.886 549.703 637.694 543.576 648.714C540.873 653.576 537.159 657.892 535 663z"/>
<path style="fill:#05799a; stroke:none;" d="M746 634C757.432 634 768.133 633.443 779 637.618C785.072 639.951 790.99 643.152 796 647.326C821.282 668.387 820.993 701.053 808.044 729C794.118 759.055 766.864 780.426 740 798.333C729.614 805.257 718.535 813.172 707 818L707 820C712.684 822.602 718.299 819.823 724 818.04C737.087 813.948 749.368 808.276 762 803.085C794.598 789.688 828.296 768.359 848.558 739C864.755 715.531 868.375 683.652 852.885 658.996C835.959 632.054 805.543 624.953 776 625C767.756 625.013 749.317 624.972 746 634M720 697C717.169 692.009 710.841 689.907 706 687.128C701.654 684.634 697.027 680.549 692 679.592C685.449 678.344 676.427 682.444 670 683.78C655.835 686.725 641.325 689.415 627 691.282C544.084 702.089 460.213 706.224 377 695.282C357.743 692.75 338.855 689.6 320 685.106C311.856 683.164 300.395 680.594 295.608 672.985C289.908 663.926 307.099 657.623 313 655.01C335.653 644.98 362.475 639.167 387 636C384.454 632.442 380.947 633.794 377 633.961C368.204 634.332 359.762 635.955 351 636.831C318.592 640.071 284.321 645.962 254 658.201C245.224 661.743 226.758 669.812 229.434 682C231.88 693.134 247.788 698.327 257 702C285.951 713.545 319.055 720.234 350 723.089C367.615 724.715 385.265 727.696 403 728.911C438.15 731.318 473.815 731.58 509 730.039C544.78 728.472 580.537 727.469 616 721.675C639.756 717.794 663.712 713.564 687 707.31C698.099 704.33 708.762 699.327 720 697M676 803L676 801C668.636 797.558 661.389 793.105 654.424 788.894C649.762 786.076 644.55 782.019 639 781.303C631.613 780.351 622.218 784.926 615 786.489C598.345 790.095 580.926 792.635 564 794.714C535.553 798.207 506.67 799 478 799C457.736 799 437.14 798.982 417 796.826C395.833 794.56 372.921 791.679 353 783.834C346.429 781.247 334.977 777.498 334.336 769C333.785 761.685 342.01 758.47 345 753C325.154 756.739 303.721 759.766 285.715 769.478C278.16 773.552 268.254 781.147 273.179 791C277.741 800.127 289.186 804.812 298 808.573C321.09 818.425 345.487 821.653 369.91 826.255C392.605 830.532 415.898 832.028 439 833.039C465.275 834.19 490.708 834.89 517 833.089C571.327 829.369 625.098 823.912 676 803M632 915L632 913C622.081 908.726 612.251 902.573 603 896.989C598.637 894.356 593.064 889.529 587.996 888.603C583.984 887.871 578.979 890.364 575 891.083C563.853 893.098 552.269 895.983 541 896.907C503.241 900.002 465.806 900.681 428 897.91C413.518 896.848 396.305 893.526 383 887.705C378.618 885.788 371.497 882.357 370.661 876.985C370.176 873.866 372.817 870.728 374 868C358.88 868.322 338.021 874.209 326 883.529C319.032 888.93 313.662 897.641 319.514 906C325.797 914.975 336.11 919.72 346 923.424C363.936 930.143 382.101 934.379 401 937.296C445.401 944.151 491.35 945.481 536 940.17C569.127 936.229 602.086 930.621 632 915M783 937C777.772 949.114 767.061 956.777 756 963.189C732.202 976.985 705.235 981.87 679 988.58C665.89 991.934 652.317 993.149 639 995.325C602.173 1001.34 565.245 1003.41 528 1005.04C476.18 1007.31 424.602 1007.71 373 1001.28C359.349 999.586 345.486 998.761 332 995.884C300.433 989.152 266.963 986.675 237.09 973.294C226.986 968.769 212.861 964.117 208.228 953C204.093 943.077 212.918 933.56 220.001 927.805C237.749 913.383 258.355 909.16 279 901C275.504 897.342 271.6 898.642 267 899.414C257.975 900.927 248.971 902.591 240 904.4C210.506 910.345 178.148 919.688 153 936.671C140.016 945.44 129.303 959.835 139.13 974.999C147.609 988.085 165.919 994.619 180 999.367C212.979 1010.49 246.487 1017.88 281 1022.29C321.308 1027.43 361.412 1032.13 402 1034.91C410.305 1035.48 418.685 1034.68 427 1035.04C480.098 1037.36 533.167 1035.45 586 1030.17C622.784 1026.49 660.018 1022.48 696 1013.52C718.821 1007.85 742.031 1001.88 763.039 991.083C770.51 987.244 777.77 983.69 784 977.91C794.378 968.281 801.616 952.83 789.907 941.059C787.775 938.915 785.845 937.799 783 937M835 985C828.267 994.479 816.829 1001.09 807 1007C782.057 1022 754.77 1031.73 727 1039.97C651.057 1062.51 570.87 1069.08 492 1071.01C460.43 1071.79 428.57 1073.07 397 1070.91C365.267 1068.74 333.614 1066.6 302 1062.72C293.965 1061.73 285.995 1060.67 278 1059.41C271.758 1058.42 267.086 1056.44 261 1059L261 1061C309.837 1074.73 360.508 1081.63 411 1085.09C508.002 1091.74 605.909 1087.93 701 1066.67C736.26 1058.78 772.932 1048.22 804 1029.19C821.062 1018.74 835.391 1005.53 838 985L835 985z"/>
</svg>
