<svg id="svg" version="1.1" xmlns="http://www.w3.org/2000/svg" xmlns:xlink="http://www.w3.org/1999/xlink" width="400" height="400" viewBox="0, 0, 400,400"><g id="svgg"><path id="path0" d="M0.000 200.000 L 0.000 400.000 200.000 400.000 L 400.000 400.000 400.000 200.000 L 400.000 0.000 200.000 0.000 L 0.000 0.000 0.000 200.000 M310.036 181.756 C 326.104 182.915,337.806 188.098,347.514 198.356 C 350.762 201.788,357.212 210.715,356.957 211.425 C 356.842 211.744,329.312 229.523,328.377 229.881 C 328.043 230.010,327.212 229.034,326.019 227.112 C 313.134 206.354,281.911 212.005,286.297 234.301 C 287.918 242.540,292.457 245.936,314.639 255.507 C 339.603 266.278,351.361 274.014,359.047 284.724 C 370.469 300.638,371.230 326.236,360.788 343.247 C 341.372 374.879,280.185 377.146,250.380 347.339 C 244.182 341.140,236.993 330.858,238.123 329.808 C 238.735 329.239,267.646 312.548,268.019 312.548 C 268.176 312.548,269.268 313.959,270.447 315.684 C 279.609 329.096,289.764 334.748,304.753 334.778 C 322.029 334.812,331.973 326.708,330.371 313.899 C 329.215 304.663,323.620 300.355,299.240 289.927 C 265.352 275.432,252.940 263.175,249.639 240.944 C 244.236 204.555,270.416 178.900,310.036 181.756 M217.003 253.137 C 216.888 316.842,216.824 322.892,216.229 325.856 C 210.909 352.329,194.862 365.998,166.644 368.093 C 139.986 370.072,118.172 358.824,106.646 337.158 L 104.963 333.994 120.013 324.887 C 128.290 319.878,135.174 315.736,135.310 315.683 C 135.446 315.630,136.443 317.102,137.525 318.953 C 144.348 330.626,150.067 334.629,159.910 334.625 C 171.119 334.620,176.517 330.619,178.944 320.517 C 179.583 317.856,179.633 313.535,179.747 250.665 L 179.868 183.650 198.498 183.650 L 217.128 183.650 217.003 253.137 " stroke="none" fill="#f3db4c" fill-rule="evenodd"></path><path id="path1" d="M297.601 181.783 C 264.827 184.487,244.905 209.061,249.639 240.944 C 252.940 263.175,265.352 275.432,299.240 289.927 C 323.620 300.355,329.215 304.663,330.371 313.899 C 331.973 326.708,322.029 334.812,304.753 334.778 C 289.764 334.748,279.609 329.096,270.447 315.684 C 269.268 313.959,268.176 312.548,268.019 312.548 C 267.646 312.548,238.735 329.239,238.123 329.808 C 236.993 330.858,244.182 341.140,250.380 347.339 C 280.185 377.146,341.372 374.879,360.788 343.247 C 371.230 326.236,370.469 300.638,359.047 284.724 C 351.361 274.014,339.603 266.278,314.639 255.507 C 292.457 245.936,287.918 242.540,286.297 234.301 C 284.038 222.817,291.680 214.280,304.183 214.321 C 313.568 214.352,320.687 218.522,326.019 227.112 C 327.212 229.034,328.043 230.010,328.377 229.881 C 329.312 229.523,356.842 211.744,356.957 211.425 C 357.212 210.715,350.762 201.788,347.514 198.356 C 335.530 185.693,318.549 180.055,297.601 181.783 M179.747 250.665 C 179.633 313.535,179.583 317.856,178.944 320.517 C 176.517 330.619,171.119 334.620,159.910 334.625 C 150.067 334.629,144.348 330.626,137.525 318.953 C 136.443 317.102,135.446 315.630,135.310 315.683 C 135.174 315.736,128.290 319.878,120.013 324.887 L 104.963 333.994 106.646 337.158 C 118.172 358.824,139.986 370.072,166.644 368.093 C 194.862 365.998,210.909 352.329,216.229 325.856 C 216.824 322.892,216.888 316.842,217.003 253.137 L 217.128 183.650 198.498 183.650 L 179.868 183.650 179.747 250.665 " stroke="none" fill="#343434" fill-rule="evenodd"></path></g></svg>