<?xml version="1.0" encoding="UTF-8" standalone="no"?>
<!-- Created with Inkscape (http://www.inkscape.org/) -->

<svg xmlns:svg="http://www.w3.org/2000/svg" xmlns="http://www.w3.org/2000/svg" version="1.1" width="300" height="300" id="svg2">
<metadata>
    <rdf:RDF xmlns:cc="http://web.resource.org/cc/" xmlns:dc="http://purl.org/dc/elements/1.1/" xmlns:rdf="http://www.w3.org/1999/02/22-rdf-syntax-ns#">
      <cc:Work rdf:about="">
        <dc:title>Kawa logo</dc:title>
        <dc:description>Logo for kawa project</dc:description>
        <dc:subject>
          <rdf:Bag>
            <rdf:li>logo</rdf:li>
            <rdf:li>kawa</rdf:li>
            <rdf:li>scheme</rdf:li>
            <rdf:li>java</rdf:li>
            <rdf:li>lambda</rdf:li>
          </rdf:Bag>
        </dc:subject>
        <dc:creator>
          <cc:Agent>
            <dc:title>Jakub Jankiewicz</dc:title>
          </cc:Agent>
        </dc:creator>
        <dc:rights>
          <cc:Agent>
            <dc:title>Jakub Jankiewicz</dc:title>
          </cc:Agent>
        </dc:rights>
        <dc:date>2010</dc:date>
        <dc:format>image/svg+xml</dc:format>
        <dc:type rdf:resource="http://purl.org/dc/dcmitype/StillImage"/>
        <cc:license rdf:resource="http://creativecommons.org/licenses/by/3.0/"/>
        <dc:language>en</dc:language>
      </cc:Work>
      <cc:License rdf:about="http://creativecommons.org/licenses/by/3.0/">
	    <permits rdf:resource="http://web.resource.org/cc/Reproduction" />
	    <permits rdf:resource="http://web.resource.org/cc/Distribution" />
	    <requires rdf:resource="http://web.resource.org/cc/Notice" />
	    <requires rdf:resource="http://web.resource.org/cc/Attribution" />
	    <requires rdf:resource="http://web.resource.org/cc/ShareAlike" />
      </cc:License>
    </rdf:RDF>
  </metadata>
    <defs id="defs8" />
    <path d="m 45.271639,103.78084 0,88.33622 c 0,12.35033 9.942705,22.29304 22.293042,22.29304 l 151.557899,0 c 12.35034,0 22.29304,-9.94271 22.29304,-22.29304 l 0,-6.65309 c 1.05795,0.0917 2.12093,0.13925 3.2046,0.13925 18.8858,0 34.17106,-14.22048 34.17106,-31.73276 0,-17.51227 -15.28526,-31.69793 -34.17106,-31.69793 -1.08367,0 -2.14665,0.0481 -3.2046,0.13948 l 0,-18.5311 -196.143981,0 z m 61.375531,23.61672 c 0.98224,7e-5 1.94418,0.0243 2.85628,0.0697 0.91207,0.0453 1.73617,0.11872 2.508,0.20898 -0.84197,0.94984 -1.94078,2.32568 -3.34397,4.17994 -1.40324,1.80913 -2.81159,4.07884 -4.21478,6.79242 -1.3331,2.66845 -2.50105,5.77271 -3.48328,9.30038 -0.982306,3.48249 -1.462974,7.3969 -1.462974,11.73868 0,4.29665 0.480668,8.21101 1.462974,11.7387 0.98223,3.52774 2.15018,6.63195 3.48328,9.30035 1.40319,2.6684 2.81154,4.91372 4.21478,6.72276 1.40319,1.8543 2.502,3.23016 3.34397,4.17995 -0.77183,0.0905 -1.63026,0.16374 -2.61249,0.20899 -0.98229,0.0453 -1.97856,0.0697 -2.96077,0.0697 -0.91213,0 -1.8054,-0.0243 -2.64732,-0.0697 -0.84194,-0.0452 -1.5287,-0.11872 -2.08998,-0.20899 -1.61371,-1.53775 -3.193729,-3.42688 -4.737265,-5.64293 -1.473422,-2.17096 -2.813056,-4.60126 -4.00577,-7.31491 -1.192784,-2.71363 -2.154191,-5.6468 -2.92597,-8.81271 -0.70162,-3.21104 -1.044978,-6.59823 -1.044978,-10.17121 0,-3.5729 0.343358,-6.96006 1.044978,-10.17122 0.771779,-3.21104 1.733186,-6.16868 2.92597,-8.88238 1.192714,-2.71355 2.532348,-5.17884 4.00577,-7.34973 1.543536,-2.17089 3.123555,-4.02506 4.737265,-5.60809 0.56128,-0.0905 1.24804,-0.16373 2.08998,-0.20898 0.9121,-0.0452 1.87402,-0.0697 2.8563,-0.0697 z m 73.39289,0 c 0.98226,7e-5 1.90985,0.0243 2.75179,0.0697 0.91212,0.0453 1.63319,0.11872 2.19449,0.20898 1.54354,1.58303 3.12404,3.4372 4.66763,5.60809 1.54351,2.17089 2.9175,4.63618 4.11024,7.34973 1.19273,2.7137 2.11983,5.67134 2.8215,8.88238 0.77173,3.21116 1.14944,6.59832 1.14947,10.17122 -3e-5,3.57298 -0.37774,6.96017 -1.14947,10.17121 -0.70167,3.16591 -1.62877,6.09908 -2.8215,8.81271 -1.19274,2.71365 -2.56673,5.14395 -4.11024,7.31491 -1.54359,2.21605 -3.12409,4.10518 -4.66763,5.64293 -0.5613,0.0905 -1.24804,0.16374 -2.08995,0.20899 -0.84196,0.0453 -1.73524,0.0697 -2.64734,0.0697 -0.98226,0 -1.94371,-0.0243 -2.92595,-0.0697 -0.98225,-0.0452 -1.84071,-0.11872 -2.61246,-0.20899 0.84191,-0.94979 1.94072,-2.32565 3.34396,-4.17995 1.40322,-1.80904 2.77719,-4.05436 4.11024,-6.72276 1.40324,-2.6684 2.57072,-5.77261 3.55298,-9.30035 0.98228,-3.52769 1.49782,-7.44205 1.49782,-11.7387 0,-4.34178 -0.51554,-8.25619 -1.49782,-11.73868 -0.98226,-3.52767 -2.14974,-6.63193 -3.55298,-9.30038 -1.33305,-2.71358 -2.70702,-4.98329 -4.11024,-6.79242 -1.40324,-1.85426 -2.50205,-3.2301 -3.34396,-4.17994 0.77175,-0.0905 1.59585,-0.16373 2.50795,-0.20898 0.9121,-0.0452 1.83919,-0.0697 2.82147,-0.0697 z m -56.39445,2.61244 7.76775,0 c 4.55234,7e-5 8.0334,0.96519 10.4847,2.89113 2.47627,1.92605 4.569,5.16604 6.26991,9.71837 l 17.20747,45.80527 -13.41069,0 -8.35989,-22.08406 -8.84755,22.08406 -13.44551,0 16.26696,-38.28135 -2.33381,-6.30476 c -0.70038,-1.92594 -1.52264,-3.23572 -2.4731,-3.9361 -0.92549,-0.70031 -2.56023,-1.04495 -4.91146,-1.04502 l -4.21478,0 0,-8.84754 z m 120.97461,7.14073 c 9.95796,0 18.00864,7.48609 18.00864,16.7198 0,9.23374 -8.05068,16.71978 -18.00864,16.71978 -1.09808,0 -2.16039,-0.10426 -3.2046,-0.27867 l 0,-32.88225 c 1.04421,-0.17447 2.10652,-0.27866 3.2046,-0.27866 z" id="path2825" style="fill:#00437c;fill-opacity:1" />
    <path d="m 37.399391,248.2577 c -12.350337,0 -22.293048,-9.94271 -22.293048,-22.29304 l 0,-5.36428 256.509387,0 0,5.36428 c 0,12.35033 -9.94268,22.29304 -22.29304,22.29304 l -211.923299,0 z" id="path2826" style="fill:#00437c;fill-opacity:1" />
    <path d="m 98.260179,45.290993 c -4.433142,7e-5 -6.659592,2.226542 -6.659592,6.659615 l 0,43.234157 9.989403,0 0,-13.319208 19.95214,0 0,13.319208 9.96278,0 0,-43.234157 c -4e-5,-4.433073 -2.19988,-6.659545 -6.63298,-6.659615 l -26.611751,0 z m 109.723621,0 c -4.43312,7e-5 -6.65961,2.226542 -6.65961,6.659615 l 0,43.234157 9.9894,0 0,-13.319208 19.95216,0 0,13.319208 9.96279,0 0,-43.234157 c -5e-5,-4.433073 -2.22655,-6.659545 -6.65962,-6.659615 l -26.58512,0 z m -162.92054,0.02659 0,49.867088 9.989423,0 0,-19.925526 14.917508,0 8.337826,19.925526 9.989399,0 -9.323466,-23.25531 c -1.396452,-3.989794 -3.948066,-6.180673 -7.671845,-6.579706 l 7.005912,-20.032072 -9.962787,0 -6.979252,19.952162 -6.313295,0 0,-19.952162 -9.989423,0 z m 93.10124,0 0,43.234109 c 0,4.433073 2.19986,6.632979 6.63296,6.632979 l 43.23416,0 c 4.43305,0 6.65954,-2.199906 6.65961,-6.632979 l 0,-43.234109 -9.98942,0 -0.0268,39.904325 -13.2393,0 0,-39.904325 -9.96276,0 0,39.904325 -13.34587,0 0,-39.904325 -9.96276,0 z m -36.57451,9.936126 19.95214,0 0,16.649015 -19.95214,0 0,-16.649015 z m 109.7236,0 19.95216,0 0,16.649015 -19.95216,0 0,-16.649015 z" id="path2824" style="fill:#00437c;fill-opacity:1" />
</svg>
