<svg id="svg" xmlns="http://www.w3.org/2000/svg" xmlns:xlink="http://www.w3.org/1999/xlink" width="400" height="400" viewBox="0, 0, 400,400"><g id="svgg"><path id="path0" d="M187.750 2.800 C 147.616 6.767,119.691 16.103,91.000 35.145 C -18.647 107.919,-28.583 264.593,71.015 350.253 C 157.413 424.560,289.532 410.163,357.812 319.000 C 439.199 210.338,389.540 53.938,260.351 12.046 C 238.823 5.065,206.493 0.947,187.750 2.800 M219.718 33.722 C 315.626 45.437,382.083 135.528,364.723 230.295 C 356.827 273.399,332.146 312.130,296.621 337.165 C 291.599 340.704,292.709 341.171,286.103 332.732 C 257.620 296.346,219.230 255.045,197.660 237.584 C 189.330 230.841,189.331 231.414,197.626 225.750 C 236.396 199.275,288.000 153.815,288.000 146.136 C 288.000 145.630,282.857 145.500,262.750 145.500 C 239.038 145.500,237.500 145.553,237.494 146.375 C 237.464 150.813,221.954 168.723,199.000 190.826 C 170.958 217.828,157.239 229.066,150.852 230.264 L 149.000 230.611 149.009 206.431 C 149.030 151.827,150.260 65.418,151.298 45.643 L 151.618 39.537 154.434 38.716 C 173.333 33.210,199.274 31.225,219.718 33.722 M110.239 68.545 C 113.787 113.095,114.967 165.436,114.087 239.250 C 113.479 290.224,112.717 327.916,112.096 337.706 L 111.750 343.161 106.000 339.282 C 12.036 275.888,6.869 139.500,95.750 68.748 C 100.748 64.770,109.069 58.902,109.335 59.168 C 109.429 59.263,109.836 63.482,110.239 68.545 M155.250 248.268 C 159.847 250.504,164.671 254.599,175.502 265.464 C 199.560 289.598,243.003 343.044,250.182 357.342 L 251.483 359.934 248.617 360.772 C 221.351 368.748,192.956 370.027,166.000 364.496 C 159.557 363.174,152.128 361.294,151.716 360.883 C 151.251 360.418,149.695 304.251,149.194 269.806 L 148.852 246.361 150.801 246.707 C 151.873 246.897,153.875 247.600,155.250 248.268 " stroke="none" fill="#000000" fill-rule="evenodd"></path></g></svg>