<svg width="378" height="378" xmlns="http://www.w3.org/2000/svg" xmlns:xlink="http://www.w3.org/1999/xlink" overflow="hidden"><defs><clipPath id="clip0"><rect x="0" y="0" width="378" height="378"/></clipPath></defs><g clip-path="url(#clip0)"><rect x="0" y="0" width="378" height="378" fill="#FFFFFF"/><path d="M167.526 1.18988C204.885-3.18824 242.698 3.69238 276.126 20.9516 327.771 47.3474 366.281 98.766 375.442 156.274 377.939 175.525 379.434 195.181 375.934 214.432 374.176 228.774 369.604 242.5 365.7 256.349 352.776 291.332 328.334 321.652 297.983 343.12 212.891 403.447 95.0407 383.321 34.7576 298.165-25.5254 213.01-5.41312 95.0743 79.6794 34.746 105.645 16.3376 135.839 4.79557 167.456 1.18988M181.206 11.7483C181.083 34.2904 182.965 56.8497 181.329 79.3743 180.292 92.9504 176.371 106.148 169.829 118.088 158.47 139.205 140.059 155.359 127.733 175.824 114.509 196.395 112.522 222.545 118.483 245.843 124.444 269.758 140.78 289.731 160.017 304.494 164.554 307.715 168.809 312.501 175.017 311.762 175.119 308.727 174.153 305.749 172.291 303.351 162.743 289.572 153.036 275.635 146.882 259.921 136.842 234.894 136.842 206.957 146.882 181.93 154.32 163.137 167.385 147.387 176.142 129.262 187.379 106.949 188.451 81.2745 187.29 56.7794 186.113 41.8571 186.147 26.8642 184.583 11.9595L181.277 11.678M170.392 29.8031C170.92 46.4675 174.911 64.223 167.42 79.9723 159.261 97.8687 141.712 108.568 126.431 119.795 104.504 135.474 81.6617 151.997 68.2628 176.106 52.6655 204.261 55.0746 240.441 71.2872 267.787 85.3546 291.983 109.744 308.383 135.452 318.238 141.624 320.385 147.761 323.235 154.461 323.306 154.812 322.672 155.551 321.423 155.92 320.79 151.489 316.056 145.106 313.962 139.795 310.442 117.041 296.699 96.0985 277.43 87.0427 251.826 79.6573 231.625 79.4637 208.256 88.8011 188.617 99.8088 164.632 118.8 145.733 136.929 127.027 150.188 113.319 165.732 100.632 172.783 82.26 178.991 65.613 175.439 47.717 174.542 30.5245L170.515 29.8555M192.109 36.7537C193.111 49.371 196.399 61.7769 195.924 74.5174 195.238 96.8479 193.357 119.302 188.205 141.175 184.038 160.004 177.408 178.253 174.138 197.293 168.335 232.487 174.753 269.054 188.328 301.837 190.807 309.299 199.511 308.647 205.631 310.777 213.684 313.099 220.032 318.678 226.732 323.341 230.407 323.552 233.889 322.021 237.282 320.948 257.628 313.768 276.953 302.823 292.022 287.196 310.76 268.35 320.966 242.646 320.263 216.069 320.438 195.463 311.119 175.595 297.192 160.814 279.871 142.126 257.61 129.139 236.474 115.343 224.886 107.406 212.752 99.2412 205.191 87.0816 198.017 74.7635 200.672 59.7357 204.945 46.9424 202.694 48.3681 200.479 49.8459 198.228 51.2538 195.485 46.6962 194.711 41.2938 191.968 36.7362M186.57 324.362C185.998 333.15 185.933 341.962 186.376 350.758L192.161 351.954C193.014 342.7 193.243 333.4 192.847 324.115 190.737 323.447 188.363 322.25 186.57 324.291M172.379 328.251C170.955 334.181 167.895 339.689 162.215 342.469 162.215 343.472 162.04 345.443 161.969 346.429 171.342 348.012 177.162 338.598 178.358 330.591L175.773 327.072 172.379 328.233M201.586 327.6C198.685 336.961 207.002 347.238 216.691 346.956 217.993 341.8 212.26 340.041 209.658 336.82 208.228 333.832 207.052 330.73 206.141 327.547Z" fill="#4E5D84" fill-rule="evenodd"/><path d="M202.996 99.9065C206.808 100.54 208.267 104.272 210.023 107.106 215.469 116.049 224.692 121.542 232.949 127.545 253.081 141.787 273.758 156.75 287.074 177.998 299.814 197.842 303.338 222.246 296.736 244.894 289.702 266.723 276.502 286.04 258.738 300.505 253.573 304.185 248.426 309.413 241.574 308.867 242.681 302.882 247.811 299.203 251.359 294.661 272.441 271.159 281.716 237.958 277.272 206.852 271.053 175.516 248.602 150.747 225.325 130.379 215.75 122.334 203.945 113.585 202.996 99.9065Z" fill="#4E5D84" fill-rule="evenodd"/></g></svg>