<svg width="378" height="378" xmlns="http://www.w3.org/2000/svg" xmlns:xlink="http://www.w3.org/1999/xlink" overflow="hidden"><defs><clipPath id="clip0"><rect x="0" y="0" width="378" height="378"/></clipPath></defs><g clip-path="url(#clip0)"><rect x="0" y="0" width="378" height="378" fill="#FFFFFF"/><path d="M26 195C26 288.345 101.671 364 195 364L195 364C288.329 364 364 288.345 364 195L364 195C364 101.671 288.329 26 195 26L195 26C101.671 26 26 101.671 26 195" fill="#E5E5FF" fill-rule="evenodd" fill-opacity="0"/><path d="M238.069 331.807C237.879 331.517 238.155 331.444 238.051 331.178 238.482 330.791 238.776 331.081 239 331.614 238.672 332.049 238.379 332.122 238.069 331.807" fill="#2B98D8" fill-rule="evenodd"/><path d="M236.635 332C236.326 331.918 235.877 331.353 236.031 331.094 236.155 331.106 236.295 331.082 236.465 331 236.867 331.176 237.347 331.824 236.635 332" fill="#2B98D8" fill-rule="evenodd"/><path d="M240.992 329.854C240.449 330.181 240.023 329.943 240 329.32 240.283 329.113 240.591 328.935 240.804 329.024 240.992 329.35 241.016 329.617 240.992 329.854" fill="#2B98D8" fill-rule="evenodd"/><path d="M209.801 343.384C209.407 343.685 209.169 343.658 208.869 343.342 208.538 343.521 208.443 343.781 208.095 343.959 207.811 343.301 208.19 342.849 208.854 342.466 208.964 342.712 209.185 342.808 209.501 342.891 209.817 342.014 210.623 342.233 211.539 342 211.555 342.452 212.044 343.041 211.997 343.479 211.349 344.014 210.244 344.356 209.786 343.384" fill="#2B98D8" fill-rule="evenodd"/><path d="M239.337 327.894C238.883 328.147 238.316 327.91 238.106 327.578 237.571 326.629 239.207 325.523 239.823 326.218 240.292 326.756 239.726 327.673 239.337 327.894" fill="#2B98D8" fill-rule="evenodd"/><path d="M199.202 348C198.855 347.556 198.959 347.222 199.48 347 199.688 347.056 199.861 347.25 200 347.5 199.861 347.694 199.654 347.889 199.202 348" fill="#2B98D8" fill-rule="evenodd"/><path d="M200.509 346.998C200.315 347.015 200.194 346.915 200 346.948 200.122 346.599 200.291 346.25 200.873 346 201.237 346.432 200.728 346.682 200.509 346.998" fill="#2B98D8" fill-rule="evenodd"/><path d="M210 340.986C210.306 340.255 210.683 339.54 211.86 339 212.473 339.81 210.872 340.112 210.895 340.779 210.565 340.89 210.236 341.049 210 340.986" fill="#2B98D8" fill-rule="evenodd"/><path d="M328 281.001C327.432 280.223 326.046 280.5 326 279 326.773 279.333 327.478 279.75 328 281.001" fill="#2B98D8" fill-rule="evenodd"/><path d="M213 338.916C212.743 339.047 212.616 338.981 212.411 338.998 212.333 338.654 212.462 338.605 212 338.294 212.436 338.245 212.257 338.065 212.589 338 213.051 338.376 212.487 338.54 213 338.916" fill="#2B98D8" fill-rule="evenodd"/><path d="M203.484 342.987C203.126 342.851 203.147 342.682 203 342.456 203.358 342.242 204.074 341.925 204.621 342.016 204.747 342.151 204.874 342.287 205 342.422 204.874 342.693 204.137 343.077 203.484 342.987" fill="#2B98D8" fill-rule="evenodd"/><path d="M217.997 336.638C217.695 336.781 217.317 337.211 217.128 336.877 216.56 336.161 218.073 335.445 217.997 336.638" fill="#2B98D8" fill-rule="evenodd"/><path d="M215 337.06C214.442 336.622 213.945 337.102 213.376 337.144 213.182 337.353 213.194 337.708 213.158 338 212.842 337.666 213.436 337.081 213 336.371 213.242 334.887 214.479 334.491 214.939 335.765 215.061 336.246 214.915 336.601 215 337.06" fill="#2B98D8" fill-rule="evenodd"/><path d="M210.123 340C209.85 339.561 210.007 339.195 210.826 339 211.139 339.512 211.099 340.024 210.123 340" fill="#2B98D8" fill-rule="evenodd"/><path d="M328 278.995C327.198 279.042 326.936 278.731 326.186 278.809 326.064 278.513 325.837 278.171 326.186 278 326.517 279.089 327.477 278.42 328 278.995" fill="#2B98D8" fill-rule="evenodd"/><path d="M217.18 334.974C217.371 334.36 217.236 333.6 217 332.808 217.416 332.21 218.09 332.049 218.528 332 218.697 332.339 218.978 332.727 219 333.131 218.382 333.551 217.989 334.247 217.461 333.939 217.348 334.247 217.719 335.103 217.18 334.99" fill="#2B98D8" fill-rule="evenodd"/><path d="M225.648 330.094C225.582 329.888 225.45 329.929 225.384 329.723 225.088 330.156 224.807 330.609 224.412 331 223.456 330.361 224.395 329.167 224.906 328.549 225.088 328.837 225.335 328.858 225.467 329.393 225.121 328.22 226.654 327.169 227 328.961 226.885 329.806 226.06 329.496 225.648 330.094" fill="#2B98D8" fill-rule="evenodd"/><path d="M203.057 341C202.566 339.962 205.397 337.899 206 339.731 205.529 339.885 204.982 340.193 204.736 339.834 203.944 340.167 203.736 340.641 203.038 341" fill="#2B98D8" fill-rule="evenodd"/><path d="M237.028 322.742C236.876 322.354 237.37 322.034 237.693 322 237.731 322.118 237.807 322.152 237.902 322.135 238.282 322.708 237.465 323.365 237.028 322.758" fill="#2B98D8" fill-rule="evenodd"/><path d="M200 342C200.01 340.912 200.24 338.092 201 339.291 200.97 340.424 200.38 341.134 200 342" fill="#2B98D8" fill-rule="evenodd"/><path d="M226.001 328.935C225.774 329.066 225.644 328.935 225.417 329 224.995 328.61 224.93 328.263 225.06 328.003 225.839 327.959 225.968 328.501 226.001 328.935" fill="#2B98D8" fill-rule="evenodd"/><path d="M215.003 332.964C214.946 332.153 215.629 330.684 216.862 331.061 217.507 332.003 215.724 333.228 215.003 332.964" fill="#2B98D8" fill-rule="evenodd"/><path d="M280 299.021C280.118 298.628 280.294 298.262 280.599 298 281.646 298.602 280.353 301.482 280 299.021" fill="#2B98D8" fill-rule="evenodd"/><path d="M232.028 323.771C231.899 323.425 232.231 323.189 232.637 323 233.522 323.456 232.582 324.447 232.028 323.771" fill="#2B98D8" fill-rule="evenodd"/><path d="M195.001 343.606C194.618 343.986 194.304 344.033 194.026 343.986 193.851 342.988 194.618 342.56 195.001 343.606" fill="#2B98D8" fill-rule="evenodd"/><path d="M229.247 325.991C228.815 325.521 228.966 325.201 229.572 325 230.264 325.302 230.09 326.092 229.247 325.991" fill="#2B98D8" fill-rule="evenodd"/><path d="M325.99 276.935C325.507 277.204 325.265 276.585 325 276.102 325.483 275.753 326.086 276.37 325.99 276.935" fill="#2B98D8" fill-rule="evenodd"/><path d="M243.323 316.923C242.615 316.073 243.115 315.179 244.385 315 245.571 315.775 244.947 317.37 243.323 316.923" fill="#2B98D8" fill-rule="evenodd"/><path d="M210.058 334C209.778 333.572 210.534 333.077 211.848 333 212.38 333.539 211.456 333.802 210.058 334" fill="#2B98D8" fill-rule="evenodd"/><path d="M215.832 330.02C216.371 330.688 215.477 331.265 215.108 330.872 214.81 330.557 215.151 329.876 215.832 330.02" fill="#2B98D8" fill-rule="evenodd"/><path d="M209.953 334.904C209.638 335.098 209.457 334.904 209.187 335.001 208.961 334.581 208.781 334.194 209.638 334 210.27 334.129 209.864 334.517 209.953 334.904" fill="#2B98D8" fill-rule="evenodd"/><path d="M203.575 337C202.212 336.211 203.514 334.439 204.979 334 205.081 335.158 204.857 336.228 203.575 337" fill="#2B98D8" fill-rule="evenodd"/><path d="M228.568 323.967C228.17 324.162 227.652 323.441 228.326 323.208 228.481 322.837 228.015 322.253 228.447 322 228.637 322.195 228.845 322.312 229 322.682 228.395 323.11 228.62 323.363 228.568 323.948" fill="#2B98D8" fill-rule="evenodd"/><path d="M216.4 330C216.277 329.855 216.123 329.691 216 329.527 216.277 329.182 217.199 329.127 217.752 329 218.552 329.582 217.23 329.946 216.4 330" fill="#2B98D8" fill-rule="evenodd"/><path d="M237 318.471C237.433 317.79 237.433 318.033 237.966 318.082 238.199 318.859 237.166 319.491 237 318.471" fill="#2B98D8" fill-rule="evenodd"/><path d="M226.002 323.301C226.276 323.153 226.591 322.921 226.823 323.026 227.518 324.04 225.938 324.463 226.002 323.301" fill="#2B98D8" fill-rule="evenodd"/><path d="M215 328.8C215.074 328.473 215.222 328.18 215.682 328 216.527 328.327 215.474 329.453 215 328.8" fill="#2B98D8" fill-rule="evenodd"/><path d="M213.074 331C212.865 330.571 213.095 330.229 213.805 330 214.37 330.514 213.576 330.729 213.074 331" fill="#2B98D8" fill-rule="evenodd"/><path d="M225.777 323.997C225.506 324.017 225.28 323.936 225.077 323.794 224.852 323.407 225.145 323.183 225.641 323 225.709 323.142 225.777 323.183 225.867 323.142 226.205 323.55 225.799 323.712 225.754 323.977" fill="#2B98D8" fill-rule="evenodd"/><path d="M228.963 322.678C228.738 322.775 228.439 322.904 228.214 323.001 227.84 322.517 227.952 322.161 228.588 322 228.701 322.226 228.85 322.42 229 322.678" fill="#2B98D8" fill-rule="evenodd"/><path d="M202.726 334C203.552 335.02 202.375 335.551 201.048 336 200.722 335.102 202.149 334.653 202.726 334" fill="#2B98D8" fill-rule="evenodd"/><path d="M214.176 329C213.81 328.709 214.036 328.222 214.664 328 215.328 328.333 214.926 328.847 214.176 329" fill="#2B98D8" fill-rule="evenodd"/><path d="M216.725 327C216.385 326.845 216.355 326.322 216 325.857 216.163 325.547 216.488 324.946 216.902 325.004 217.213 325.818 216.68 326.283 216.725 327" fill="#2B98D8" fill-rule="evenodd"/><path d="M202.89 333.94C201.949 334.254 201.662 333.257 202.481 333 203.177 333.142 203.013 333.627 202.89 333.94" fill="#2B98D8" fill-rule="evenodd"/><path d="M213 327.775C212.552 328.085 212.207 328.123 212 327.581 212.104 327.349 212.311 327.116 212.621 327 212.724 327.233 212.862 327.542 212.966 327.775" fill="#2B98D8" fill-rule="evenodd"/><path d="M206.047 331.961C205.936 331.549 205.973 331.137 206.707 331 206.78 331.171 206.891 331.377 207.001 331.515 206.891 331.858 206.413 332.098 206.047 331.961" fill="#2B98D8" fill-rule="evenodd"/><path d="M194.073 337C193.958 336.835 193.86 336.669 193.893 336.532 193.531 336.766 193.285 336.669 193.055 336.545 192.924 336.339 193.071 336.187 193.055 336.008 193.433 335.981 193.761 336.008 193.991 336.325 194.286 336.201 194.549 336.228 194.829 336.146 195.354 336.642 194.549 336.959 194.073 337" fill="#2B98D8" fill-rule="evenodd"/><path d="M208.054 328.994C207.831 328.485 208.344 328.231 208.856 328 209.324 328.555 208.544 329.063 208.054 328.994" fill="#2B98D8" fill-rule="evenodd"/><path d="M199.236 331.995C199.107 331.727 198.892 331.459 199.064 331.235 199.709 331.034 200.183 331.067 200.505 331 200.613 331.268 200.742 331.224 201 331.526 200.742 331.884 199.924 332.029 199.236 331.995" fill="#2B98D8" fill-rule="evenodd"/><path d="M216.211 324C215.639 323.363 216.354 322.744 216.887 323.108 217.214 323.6 216.784 324 216.211 324" fill="#2B98D8" fill-rule="evenodd"/><path d="M225.147 319C224.917 318.629 225.009 318.343 225.078 318.04 225.538 317.837 225.607 318.478 225.975 318.478 226.136 318.764 225.492 318.848 225.147 319" fill="#2B98D8" fill-rule="evenodd"/><path d="M210.961 325.762C210.556 326.096 210.314 325.904 210.031 326 209.909 325.524 210.152 325.238 210.678 325 210.758 325.238 210.879 325.524 211.001 325.762" fill="#2B98D8" fill-rule="evenodd"/><path d="M196 333.667C195.808 333.792 195.577 333.875 195.385 334 195.269 333.75 195.116 333.417 195 333.167 195.5 332.793 195.808 333.084 196 333.667" fill="#2B98D8" fill-rule="evenodd"/><path d="M197.083 329.182C197.322 329.028 197.449 329.182 197.703 329 198.449 329.35 199.768 330.485 198.417 330.947 197.496 331.269 196.718 330.051 197.099 329.182" fill="#2B98D8" fill-rule="evenodd"/><path d="M193.09 333.929C192.718 333 193.595 333.155 193.967 333 194.179 333.464 193.329 334.239 193.09 333.929" fill="#2B98D8" fill-rule="evenodd"/><path d="M190.987 334.781C190.869 334.849 190.764 334.933 190.658 335 190.395 334.865 190 334.427 190 334.006 190.342 333.972 190.619 334.09 190.922 334.174 191.067 334.427 190.961 334.579 190.987 334.781" fill="#2B98D8" fill-rule="evenodd"/><path d="M229.441 314.975C229.328 314.923 229.254 314.667 229.104 314.718 228.88 314 229.029 313.461 229.441 313 230.02 313.231 230.337 314.743 229.441 315" fill="#2B98D8" fill-rule="evenodd"/><path d="M221.604 319C221.434 318.685 220.975 318.648 221.001 318.241 221.329 317.926 221.551 318.13 221.839 318 222.115 318.5 222.036 318.834 221.604 319" fill="#2B98D8" fill-rule="evenodd"/><path d="M230.001 314.715C229.76 314.822 229.52 314.929 229.28 315.001 228.895 314.536 228.847 314.178 229.52 314 229.664 314.25 229.857 314.5 230.001 314.715" fill="#2B98D8" fill-rule="evenodd"/><path d="M174 342.556C173.685 342.742 173.327 343.086 173.074 342.98 172.78 342.45 173.432 342.291 173.79 342 173.874 342.212 173.937 342.371 174 342.556" fill="#2B98D8" fill-rule="evenodd"/><path d="M209.739 322.053C210 322.627 209.902 323.015 210 323.488 209.107 325.346 208.411 321.512 209.739 322.053" fill="#2B98D8" fill-rule="evenodd"/><path d="M205.305 326C205.025 325.718 204.955 325.487 205.025 325.282 205.27 325.18 205.515 325.103 205.76 325 206.251 325.513 205.935 325.795 205.305 326" fill="#2B98D8" fill-rule="evenodd"/><path d="M210.118 318C210.543 318.151 210.543 318.577 210.313 318.753 211.357 319.67 211.357 321.565 209.286 320.837 208.489 319.845 209.551 318.866 210.136 318.012" fill="#2B98D8" fill-rule="evenodd"/><path d="M208.884 322.808C208.77 322.885 208.616 322.923 208.5 323 208.423 322.808 208.308 322.846 208.192 322.885 208.116 322.731 208.038 322.616 208 322.5 208.154 322.461 208.154 322.347 208.116 322.192 208.269 322.116 208.385 322.038 208.5 322 208.577 322.192 208.692 322.154 208.808 322.077 208.884 322.231 208.962 322.347 209 322.461 208.808 322.5 208.846 322.616 208.884 322.77" fill="#2B98D8" fill-rule="evenodd"/><path d="M215.211 318.982C214.877 318.546 214.96 318.238 215.316 318.002 216.447 317.947 216.007 319.163 215.211 318.982" fill="#2B98D8" fill-rule="evenodd"/><path d="M175 339.661C174.651 339.881 174.302 340.07 174.01 339.976 173.923 339.535 174.418 339.315 174.68 339 174.767 339.22 174.884 339.409 174.971 339.63" fill="#2B98D8" fill-rule="evenodd"/><path d="M226.191 313C225.075 312.555 224.62 310.658 225.364 310 226.459 310.329 227.947 312.284 226.191 313" fill="#2B98D8" fill-rule="evenodd"/><path d="M194.486 329.001C194.223 328.395 193.872 328.718 194.047 328.153 194.838 327.587 195.497 328.758 194.486 329.001" fill="#2B98D8" fill-rule="evenodd"/><path d="M245.114 301.879C244.777 301.413 245.245 301.197 245.751 301 246.406 301.628 245.62 302.274 245.114 301.879" fill="#2B98D8" fill-rule="evenodd"/><path d="M214.983 317.767C214.606 318.044 214.291 318.086 214.06 317.831 213.872 317.447 214.144 317.192 214.606 317 214.836 317.064 215.067 317.532 214.983 317.767" fill="#2B98D8" fill-rule="evenodd"/><path d="M184 332.529C184.097 331.996 184.775 331.729 185.001 332.395 184.904 332.929 184.161 333.374 184 332.529" fill="#2B98D8" fill-rule="evenodd"/><path d="M210 316.678C210.077 316.393 210.289 316.175 210.694 316 211.541 316.59 210.405 317.487 210 316.678" fill="#2B98D8" fill-rule="evenodd"/><path d="M167 338.557C166.596 338.987 166.212 339.275 166 338.592 166.385 338.233 166.847 337.48 167 338.557" fill="#2B98D8" fill-rule="evenodd"/><path d="M207.164 316.957C206.94 316.573 206.94 316.242 207.194 316.004 207.523 315.978 207.806 316.071 208 316.415 207.955 316.693 207.538 317.116 207.15 316.971" fill="#2B98D8" fill-rule="evenodd"/><path d="M206.069 318.816C205.787 318.314 206.436 317.875 206.803 318.032 206.888 318.189 206.944 318.346 207.001 318.502 206.916 318.816 206.267 319.254 206.069 318.816" fill="#2B98D8" fill-rule="evenodd"/><path d="M209.199 317C208.965 316.655 208.931 316.339 209.132 316.11 209.532 315.851 209.8 316.081 210.001 316.483 209.867 316.684 209.666 316.857 209.232 317" fill="#2B98D8" fill-rule="evenodd"/><path d="M155 343.603C154.781 343.762 154.562 343.881 154.343 344.001 154.28 343.762 154.155 343.682 154.03 343.682 153.811 342.966 154.875 342.648 155 343.562" fill="#2B98D8" fill-rule="evenodd"/><path d="M192.294 323.001C192.177 322.758 192.088 322.514 192 322.306 192.412 321.993 192.824 321.785 193.001 322.375 192.883 322.618 192.706 322.827 192.324 323.001" fill="#2B98D8" fill-rule="evenodd"/><path d="M231.121 303.976C230.84 303.598 231.156 303.346 231.015 303 231.402 303 231.824 303 232 303.567 231.895 303.882 231.438 304.071 231.086 303.976" fill="#2B98D8" fill-rule="evenodd"/><path d="M204.173 316C204.029 315.229 203.804 314.434 204.334 314 205.12 314.386 205.377 315.928 204.173 316" fill="#2B98D8" fill-rule="evenodd"/><path d="M204.001 315.838C203.19 316.425 202.476 315.252 203.524 315 204.191 315.252 203.667 315.293 204.001 315.838" fill="#2B98D8" fill-rule="evenodd"/><path d="M187.357 323.001C187.214 322.74 187.107 322.478 187 322.217 187.464 321.918 187.821 321.881 188 322.404 187.893 322.628 187.678 322.851 187.357 323.001" fill="#2B98D8" fill-rule="evenodd"/><path d="M207 311.838C206.564 312.162 206.237 312.001 206 311.352 206.109 310.919 206.473 311.081 206.709 311 206.8 311.27 206.891 311.541 207 311.838" fill="#2B98D8" fill-rule="evenodd"/><path d="M207.057 308.843C206.922 308.493 207.003 308.185 207.543 308 208.461 308.411 207.84 309.377 207.057 308.843" fill="#2B98D8" fill-rule="evenodd"/><path d="M182 322.778C181.531 323.167 181.219 323.05 181 322.389 181.25 322.272 181.438 322.117 181.656 322 181.781 322.272 181.875 322.544 181.969 322.817" fill="#2B98D8" fill-rule="evenodd"/><path d="M183 320.4C183.185 319.841 183.796 319.841 184 320.576 183.834 321.066 183.166 321.276 183 320.4" fill="#2B98D8" fill-rule="evenodd"/><path d="M198.255 313C197.924 312.552 197.841 312.207 198.462 312 198.669 312.104 198.876 312.207 199 312.449 198.876 312.69 198.627 312.862 198.255 313" fill="#2B98D8" fill-rule="evenodd"/><path d="M193 314.722C192.6 315.166 192.014 315.083 192 314.445 192.3 314.083 192.557 314.056 192.814 314 192.871 314.222 192.943 314.472 193 314.722" fill="#2B98D8" fill-rule="evenodd"/><path d="M196 310.475C196.078 309.957 196.124 309.459 196.311 309 197.494 309.578 196.996 312.07 196 310.475" fill="#2B98D8" fill-rule="evenodd"/><path d="M181 318.981C180.111 319.134 179.667 318.319 179 318 179.718 318.166 180.778 318.255 181 318.981" fill="#2B98D8" fill-rule="evenodd"/><path d="M184.995 315.784C184.582 316.205 184.015 315.968 184 315.442 184.337 315.099 184.612 314.941 184.873 315.02 184.995 315.31 185.011 315.547 184.995 315.784" fill="#2B98D8" fill-rule="evenodd"/><path d="M143 336.735C143.267 336.345 143.611 335.927 144 336.011 143.9 336.874 143.211 337.32 143 336.735" fill="#2B98D8" fill-rule="evenodd"/><path d="M193.001 308.844C192.853 308.902 192.706 308.942 192.559 309 192.118 308.628 192.383 308.394 192 308.041 192.647 307.826 192.941 308.511 193.001 308.844" fill="#2B98D8" fill-rule="evenodd"/><path d="M184.04 311.003C184.756 310.986 185.528 311.037 185.814 311.345 186.787 312.391 183.611 312.117 184.04 311.003" fill="#2B98D8" fill-rule="evenodd"/><path d="M201.564 300C201.746 300.404 201.642 300.659 201.616 300.936 202.264 301.382 202.044 303.231 201.318 302.976 200.786 302.041 200.955 300.298 201.577 300" fill="#2B98D8" fill-rule="evenodd"/><path d="M162.188 321C161.938 320.651 162.094 320.418 162 320.107 162.438 319.874 162.75 320.029 163 320.496 162.844 321.078 162.594 320.767 162.188 321" fill="#2B98D8" fill-rule="evenodd"/><path d="M266.001 268.849C265.35 269.31 265.25 268.602 265 268.283 265.25 268.177 265.5 268.106 265.75 268 266.1 268.354 265.901 268.531 266.001 268.814" fill="#2B98D8" fill-rule="evenodd"/><path d="M153 324.836C152.566 325.163 152.25 324.981 152 324.472 152.329 324.2 152.276 324.218 152.5 324 152.75 324.236 152.934 324.327 152.987 324.836" fill="#2B98D8" fill-rule="evenodd"/><path d="M198.568 300C197.993 299.462 197.977 298.555 198.01 298 198.633 298.286 199.552 299.832 198.568 300" fill="#2B98D8" fill-rule="evenodd"/><path d="M221.556 288C220.663 287.082 221.147 285.937 221.017 285 221.593 285.581 222.579 287.644 221.556 288" fill="#2B98D8" fill-rule="evenodd"/><path d="M160 315.878C159.262 316.145 158.574 315.996 158 315.228 158.59 315.346 159.295 314.844 159.869 315.051 159.984 315.376 160.017 315.642 159.984 315.878" fill="#2B98D8" fill-rule="evenodd"/><path d="M174.558 308C174.269 307.774 174 307.527 174 307.094 174.481 306.806 174.712 307.238 175 307.609 174.923 307.753 174.808 307.897 174.558 307.98" fill="#2B98D8" fill-rule="evenodd"/><path d="M179.934 303.961C179.503 304.147 178.884 303.65 179.019 303.092 179.342 302.875 179.557 303.123 179.853 303.03 180.176 303.464 179.853 303.65 179.934 303.991" fill="#2B98D8" fill-rule="evenodd"/><path d="M179.97 300.824C179.387 301.37 178.896 300.517 179.019 300.039 179.479 299.903 180.154 300.108 179.97 300.824" fill="#2B98D8" fill-rule="evenodd"/><path d="M192.976 293.951C192.78 294.049 192.682 293.951 192.535 294 192.094 293.82 191.653 293.131 192.412 293 192.902 293.311 192.878 293.558 193 293.967" fill="#2B98D8" fill-rule="evenodd"/><path d="M181.893 290.866C181.576 291.88 183.332 292.692 182.944 294 181.734 293.927 181.95 291.567 181.043 290.811 181.129 290.737 181.029 290.59 181 290.479 181.331 290.166 181.504 290.424 181.706 290.627 181.85 290.442 181.561 290.092 181.921 290 182.181 290.866 183.145 290.922 182.973 291.954 182.411 292.212 182.008 291.659 181.878 290.866" fill="#2B98D8" fill-rule="evenodd"/><path d="M110.991 322.865C110.619 323.072 110.331 323.013 110.055 322.879 109.707 321.754 111.123 321.666 110.991 322.865" fill="#2B98D8" fill-rule="evenodd"/><path d="M165 293.785C164.483 294.333 163.884 293.746 164.02 293.004 164.401 292.964 164.755 293.238 165 293.785" fill="#2B98D8" fill-rule="evenodd"/><path d="M190.001 277.99C189.737 278.051 189.606 277.836 189.343 277.898 188.883 277.133 188.817 275.97 189.573 276.001 190.001 276.735 189.803 277.316 190.001 277.99" fill="#2B98D8" fill-rule="evenodd"/><path d="M155.928 290.82C155.464 291.224 155.179 290.91 155 290.283 155.464 289.88 155.822 289.88 156 290.462 155.857 290.507 155.857 290.686 155.928 290.776" fill="#2B98D8" fill-rule="evenodd"/><path d="M187.91 273C186.162 272.903 186.162 271.533 186 271 186.995 271.121 188.367 272.564 187.91 273" fill="#2B98D8" fill-rule="evenodd"/><path d="M156.469 275.001C156.328 274.64 156.094 274.671 156 274.161 156.375 273.831 156.609 274.101 156.914 274.161 157.149 274.611 156.868 274.821 156.492 275.001" fill="#2B98D8" fill-rule="evenodd"/><path d="M208 236.835C207.794 236.885 207.618 236.951 207.412 237 205.912 236.077 206.088 234.89 206 234 207.441 234.428 207.736 236.011 208 236.835" fill="#2B98D8" fill-rule="evenodd"/><path d="M215.759 213C215.18 212.919 214.486 212.082 215.566 212 216.415 212.204 215.759 212.694 215.759 213" fill="#2B98D8" fill-rule="evenodd"/><path d="M252.098 184C251.932 183.661 252.027 183.441 252.027 183.17 252.241 182.983 252.395 183.017 252.573 183 252.727 183.203 252.893 183.39 253 183.78 252.715 184.238 252.454 183.78 252.086 184" fill="#2B98D8" fill-rule="evenodd"/><path d="M130 242C129.304 242.015 129.109 241.393 128.737 240.801 128.478 240.645 127.927 240.552 128.008 240.038 128.283 239.929 128.462 240.085 128.672 240.116 128.542 241.019 129.919 241.035 129.984 242" fill="#2B98D8" fill-rule="evenodd"/><path d="M122 244.349C122.412 243.986 122.824 243.744 123.001 244.47 122.853 245.075 122.147 245.317 122 244.349" fill="#2B98D8" fill-rule="evenodd"/><path d="M93 239.577C92.7091 239.747 92.4182 239.874 92.1694 240.001 91.5455 239.365 92.8339 238.349 93 239.577" fill="#2B98D8" fill-rule="evenodd"/><path d="M117 221C116.598 220.943 115.629 220.379 116.151 220 116.568 220.265 117 220.494 117 221" fill="#2B98D8" fill-rule="evenodd"/><path d="M114 222.658C113.8 222.787 113.6 222.872 113.4 223 113.24 222.701 113.12 222.401 113 222.145 113.48 221.803 113.8 222.102 114 222.658" fill="#2B98D8" fill-rule="evenodd"/><path d="M180.981 182.96C180.681 183.069 180.481 182.929 180.26 182.836 180.34 182.461 180.02 182.384 180 182.04 180.641 181.822 181.102 182.54 180.981 182.96" fill="#2B98D8" fill-rule="evenodd"/><path d="M106 219.452C106.472 219.332 106.517 218.901 106.81 219.021 107.462 219.86 106.247 220.507 106 219.452" fill="#2B98D8" fill-rule="evenodd"/><path d="M35.6928 194.574C37.9567 193.11 40.5388 194.68 39.9019 196.657 38.9646 197.337 37.8505 198.167 36.6656 197.971 36.1528 197.382 35.4101 197.307 35.1094 196.688 34.7025 195.888 35.5515 195.314 35.6928 194.574" fill="#2B98D8" fill-rule="evenodd"/><path d="M64.0368 139.388C64.5536 138.622 65.4361 139.158 65.9315 139.566 66.4697 141.532 63.6489 141.481 64.0368 139.388" fill="#2B98D8" fill-rule="evenodd"/><path d="M67.2422 139C67.1901 138.838 67.0854 138.892 67.0156 138.766 66.8935 138.208 67.5215 137.847 67.923 138.063 68.1672 138.55 67.8005 139 67.2599 139" fill="#2B98D8" fill-rule="evenodd"/><path d="M39.9943 179.781C39.5544 180.172 39.2293 180.033 39 179.418 39.1148 178.944 39.5738 179.028 39.8414 179 39.9943 179.307 40.0133 179.558 39.9943 179.781" fill="#2B98D8" fill-rule="evenodd"/><path d="M53.5493 145C53.7483 145.138 53.8542 145.829 54 146.243 53.4963 148.223 52.3034 145.783 53.5493 145" fill="#2B98D8" fill-rule="evenodd"/><path d="M55.7114 133C54.1918 132.349 55.6602 131.169 55.1449 130.236 55.6341 130.218 56.2522 129.884 56.6645 130.042 57.3595 131.257 56.9478 132.226 55.6858 133" fill="#2B98D8" fill-rule="evenodd"/><path d="M38.2305 99.9732C37.7614 99.5088 38.084 99.2432 38.5239 99 39.3162 99.2212 39.0519 100.172 38.2305 99.9732" fill="#2B98D8" fill-rule="evenodd"/><path d="M187.649 17C135.419 17.2441 88.1418 37.4999 53.995 70.1138L53.995 70.1138C31.2197 91.8509 14.244 119.14 5.54454 149.654L5.54454 149.654C5.64238 149.589 5.7075 149.524 5.77262 149.458L5.77262 149.458C6.40794 148.612 6.34282 147.211 7.4505 146.788L7.4505 146.788C8.0045 145.779 8.13474 144.639 8.72113 143.694L8.72113 143.694C8.94954 143.336 9.51974 143.124 9.69889 142.75L9.69889 142.75C10.0734 142.001 9.68237 141.057 10.2691 140.389L10.2691 140.389C11.3768 140.324 11.9308 139.266 13.0874 139.282L13.0874 139.282C12.9244 140.731 12.0121 142.229 11.1649 143.32L11.1649 143.32C10.9857 144.411 11.0185 145.681 10.4807 146.609L10.4807 146.609C10.0899 147.325 9.27513 147.846 8.88409 148.709L8.88409 148.709C8.5747 149.426 8.65601 150.142 8.37934 150.891L8.37934 150.891C8.15126 151.51 7.48322 151.982 7.32026 152.682L7.32026 152.682C7.27134 152.943 7.4181 153.301 7.35298 153.578L7.35298 153.578C7.05946 154.962 6.48926 156.655 5.78882 157.844L5.78882 157.844C4.46926 160.124 2.40034 162.11 2.8889 164.78L2.8889 164.78C2.6119 165.301 1.89526 165.643 1.7323 166.246L1.7323 166.246C1.63446 166.555 1.89526 166.832 1.86254 167.158L1.86254 167.158C1.83015 167.744 1.50422 168.281 1.22722 168.818L1.22722 168.818C0.771065 171.554 0.396548 174.289 0.0868258 177.041L0.0868258 177.041C0.151945 177.155 0.200866 177.269 0.282508 177.383L0.282508 177.383C-0.239095 178.311 0.00550761 178.962 0.657025 179.565L0.657025 179.565C-0.125055 182.708 0.168468 186.045 1.50422 188.553L1.50422 188.553C0.966747 190.767 0.0217064 193.747 1.1783 195.489L1.1783 195.489C-0.0596117 197.052 1.32507 198.697 0.526786 200.358L0.526786 200.358C0.461667 200.732 0.819985 200.927 0.885105 201.253L0.885105 201.253C0.412747 202.067 0.689747 203.044 1.1621 203.696L1.1621 203.696C0.298707 205.373 0.0379053 208.027 0.542985 209.769L0.542985 209.769C0.265985 211.527 0.282508 213.791 0.982946 215.403L0.982946 215.403C0.559184 216.559 1.25995 217.454 1.21103 218.708L1.21103 218.708C1.19483 219.148 1.58587 220.467 1.52042 221.069L1.52042 221.069C1.34126 222.713 1.97658 224.391 1.69958 226.117L1.69958 226.117C1.99311 226.801 2.07442 227.582 1.94419 228.429L1.94419 228.429C3.47562 236.44 5.54454 244.272 8.15126 251.892L8.15126 251.892C8.19985 251.941 8.21638 251.99 8.2815 252.039L8.2815 252.039C8.26497 252.087 8.26497 252.136 8.24877 252.169L8.24877 252.169C8.39554 252.592 8.54197 253.015 8.68874 253.439L8.68874 253.439C8.73766 253.471 8.80278 253.504 8.90062 253.52L8.90062 253.52C8.81897 254.383 9.64997 255.034 10.0083 255.849L10.0083 255.849C10.2364 256.386 10.2202 256.988 10.5623 257.509L10.5623 257.509C10.9533 258.128 11.8819 258.893 12.175 259.626L12.175 259.626C12.4031 260.18 12.3218 260.701 12.501 261.303L12.501 261.303C13.0874 261.938 13.2831 262.736 13.3971 263.566L13.3971 263.566C14.5537 264.397 14.3094 265.797 15.0912 266.791L15.0912 266.791C14.6839 268.81 16.8345 269.77 16.8996 271.61L16.8996 271.61C18.2354 272.815 18.04 274.476 18.6915 275.843L18.6915 275.843C18.9196 276.283 19.7017 276.365 20.2881 276.755L20.2881 276.755C21.0864 277.342 21.0378 278.367 21.5263 279.035L21.5263 279.035C20.5162 281.135 23.2696 282.275 25.4037 282.291L25.4037 282.291C26.316 283.171 26.5113 284.343 26.9024 285.45L26.9024 285.45C27.3585 285.825 27.9777 286.15 27.8964 286.753L27.8964 286.753C29.4278 287.421 28.89 288.951 30.3725 289.635L30.3725 289.635C30.5027 290.807 31.2848 291.719 32.018 292.647L32.018 292.647C31.8712 294.471 34.4941 295.122 34.4617 296.897L34.4617 296.897C34.6571 297.304 34.9503 297.662 35.5859 297.874L35.5859 297.874C35.6345 299.909 36.3515 301.684 36.9055 303.508L36.9055 303.508C37.2149 303.654 37.3941 303.605 37.6221 303.654L37.6221 303.654C38.4531 305.315 39.5446 306.878 40.4242 308.523L40.4242 308.523C41.0761 308.751 41.2714 309.174 41.8905 309.418L41.8905 309.418C42.4935 310.867 43.8619 312.333 45.9308 312.919L45.9308 312.919C46.1262 313.196 46.1913 313.521 46.1589 313.88L46.1589 313.88C47.2831 315.133 48.3746 316.387 49.7104 317.543L49.7104 317.543C50.8346 317.983 51.649 318.553 52.1379 319.237L52.1379 319.237C52.5452 319.367 52.7894 319.269 53.3272 319.351L53.3272 319.351C53.1154 319.807 54.0928 319.79 54.1741 320.116L54.1741 320.116C54.3047 321.809 55.8034 322.9 57.4323 323.958L57.4323 323.958C57.4978 324.284 57.8561 324.48 57.6608 324.919L57.6608 324.919C58.1655 325.31 58.3447 325.831 59.0127 326.173L59.0127 326.173C59.5016 327.41 60.365 328.501 61.2122 329.592L61.2122 329.592C63.2649 331.351 65.35 333.06 67.4844 334.737L67.4844 334.737C67.6308 334.737 67.7776 334.77 67.8916 334.737L67.8916 334.737C68.2172 335.291 68.9018 336.138 69.8141 335.975L69.8141 335.975C71.329 337.147 72.7464 338.71 74.8153 339.622L74.8153 339.622C76.1025 340.176 77.6174 340.404 78.3995 341.527L78.3995 341.527C78.4646 341.462 78.5948 341.511 78.7254 341.544L78.7254 341.544C78.8718 341.593 79.0024 341.641 79.0675 341.544L79.0675 341.544C80.3709 343.074 82.9287 343.237 85.1768 343.905L85.1768 343.905C85.4699 343.97 85.2257 344.279 85.4372 344.393L85.4372 344.393C86.4636 344.637 87.1316 345.468 87.7346 345.842L87.7346 345.842C87.9464 345.973 88.2558 345.94 88.435 346.07L88.435 346.07C88.549 346.168 88.5979 346.461 88.712 346.559L88.712 346.559C89.7056 347.357 91.1719 347.796 91.9213 348.92L91.9213 348.92C93.7949 349.603 95.0982 350.922 96.7437 351.427L96.7437 351.427C97.3628 352.6 99.7249 352.73 100.8 353.886L100.8 353.886C103.097 354.814 105.574 355.872 107.561 357.24L107.561 357.24C107.789 357.403 107.903 357.696 108.148 357.842L108.148 357.842C109.646 358.689 111.569 358.933 112.53 360.301L112.53 360.301C112.856 360.301 113.279 360.464 113.589 360.464L113.589 360.464C113.654 361.115 114.615 361.636 115.511 361.701L115.511 361.701C116.033 362.125 116.619 362.516 117.222 362.906L117.222 362.906C139.492 371.455 163.848 376.128 189.36 375.997L189.36 375.997C241.574 375.753 288.868 355.498 323.015 322.884L323.015 322.884C329.661 316.55 335.787 309.744 341.391 302.514L341.391 302.514C340.414 303.687 339.387 304.843 338.296 305.983L338.296 305.983C338.1 307.122 336.308 307.741 336.145 308.897L336.145 308.897C335.852 309.125 335.852 309.125 335.51 309.223L335.51 309.223C334.011 310.916 332.317 312.935 330.232 314.531L330.232 314.531C329.482 315.117 328.847 316.224 328.179 316.81L328.179 316.81C327.918 317.022 327.56 317.103 327.315 317.331L327.315 317.331C327.12 317.527 327.136 317.804 326.957 318.015L326.957 318.015C325.817 319.432 323.764 320.051 322.966 321.663L322.966 321.663C322.428 321.891 322.021 322.167 321.89 322.526L321.89 322.526C321.679 322.558 321.434 322.656 321.239 322.656L321.239 322.656C319.447 324.708 316.742 326.157 315.195 328.029L315.195 328.029C315.048 328.159 314.967 328.127 314.885 328.094L314.885 328.094C314.82 328.062 314.738 328.045 314.641 328.11L314.641 328.11C312.849 329.999 310.161 331.107 308.711 332.93L308.711 332.93C308.385 333.077 308.092 333.158 307.831 333.191L307.831 333.191C307.538 333.305 307.668 333.565 307.391 333.712L307.391 333.712C305.338 334.509 304.41 336.171 302.699 337.001L302.699 337.001C301.656 337.522 300.207 337.587 299.702 338.613L299.702 338.613C298.284 339.638 296.443 339.98 295.124 340.941L295.124 340.941C294.603 341.332 294.228 341.967 293.69 342.276L293.69 342.276C293.364 342.472 292.892 342.472 292.566 342.651L292.566 342.651C292.289 342.814 292.175 343.237 291.849 343.416L291.849 343.416C291.198 343.791 289.601 343.432 289.324 344.605L289.324 344.605C288.852 344.637 288.412 344.621 287.972 344.605L287.972 344.605C287.19 344.588 286.424 344.572 285.675 344.735L285.675 344.735C284.616 345.321 283.866 346.51 282.677 346.966L282.677 346.966C282.188 347.145 281.634 347.015 281.097 347.243L281.097 347.243C280.608 347.471 280.071 347.682 279.419 347.894L279.419 347.894C278.865 348.073 278.539 348.464 278.099 348.659L278.099 348.659C277.985 348.724 277.839 348.724 277.692 348.708L277.692 348.708C277.562 348.708 277.431 348.708 277.334 348.74L277.334 348.74C276.34 349.115 275.297 350.01 274.108 350.369L274.108 350.369C273.326 350.597 272.479 350.743 271.664 350.906L271.664 350.906C271.404 351.053 271.322 351.264 270.98 351.362L270.98 351.362C270.133 351.362 268.683 351.639 268.145 352.502L268.145 352.502C267.33 352.665 265.734 353.072 264.936 353.935L264.936 353.935C264.382 353.869 263.926 354.358 263.29 354.472L263.29 354.472C263.225 354.472 263.144 354.472 263.062 354.456L263.062 354.456C262.965 354.439 262.834 354.423 262.769 354.439L262.769 354.439C261.775 354.667 260.945 355.4 260.048 355.612L260.048 355.612C259.82 355.677 259.56 355.628 259.315 355.579L259.315 355.579C259.071 355.53 258.826 355.481 258.598 355.53L258.598 355.53C257.393 355.807 256.334 356.589 255.031 356.638L255.031 356.638C254.835 356.801 254.672 356.963 254.477 357.142L254.477 357.142C252.945 357.403 251.056 357.989 249.459 357.973L249.459 357.973C248.775 358.738 247.976 358.722 247.26 358.591L247.26 358.591C247.015 358.038 247.716 357.24 248.367 357.403L248.367 357.403C248.954 356.703 249.654 356.458 250.42 356.458L250.42 356.458C250.697 356.263 250.86 356.019 251.088 355.823L251.088 355.823C252.115 355.905 253.19 355.318 254.249 355.123L254.249 355.123C254.379 355.107 254.509 355.123 254.64 355.123L254.64 355.123C254.786 355.139 254.933 355.156 255.063 355.123L255.063 355.123C255.633 354.944 256.155 354.472 256.855 354.097L256.855 354.097C258.549 353.234 260.863 352.941 262.182 352.095L262.182 352.095C264.235 350.792 267.803 350.043 269.953 348.138L269.953 348.138C271.86 347.91 273.293 346.673 275.281 345.728L275.281 345.728C275.655 345.663 275.346 345.403 275.558 345.272L275.558 345.272C276.91 345.451 278.197 344.181 279.728 343.367L279.728 343.367C279.957 343.237 280.348 343.172 280.576 343.042L280.576 343.042C281.276 342.586 281.781 341.853 282.416 341.511L282.416 341.511C282.987 341.186 283.622 341.202 284.094 340.844L284.094 340.844C284.322 340.681 284.404 340.322 284.648 340.16L284.648 340.16C285.153 339.801 285.724 339.801 286.261 339.541L286.261 339.541C286.603 339.362 286.799 339.003 287.108 338.808L287.108 338.808C287.662 338.45 288.216 338.401 288.705 337.994L288.705 337.994C289.096 337.652 289.34 337.147 289.829 336.805L289.829 336.805C291.589 335.568 293.788 334.868 295.107 333.125L295.107 333.125C295.368 333.011 295.661 332.767 295.873 332.832L295.873 332.832C296.085 332.637 296.28 332.442 296.345 332.181L296.345 332.181C297.356 332.067 297.568 330.879 298.561 330.765L298.561 330.765C302.129 327.98 305.094 324.691 309.2 321.939L309.2 321.939C309.46 321.711 309.427 321.402 309.721 321.174L309.721 321.174C311.725 320.262 312.148 318.259 314.234 317.152L314.234 317.152C314.559 316.941 314.413 316.599 314.641 316.338L314.641 316.338C315.651 315.964 316.058 315.036 316.596 314.433L316.596 314.433C317.264 313.652 318.225 313.114 318.795 312.398L318.795 312.398C318.991 312.17 319.088 311.795 319.268 311.551L319.268 311.551C319.691 311.046 320.31 310.737 320.701 310.232L320.701 310.232C321.19 309.581 321.336 308.637 322.265 308.327L322.265 308.327C322.281 307.415 323.617 306.943 323.129 305.869L323.129 305.869C323.78 305.12 324.448 304.436 325.328 303.638L325.328 303.638C325.165 302.482 327.234 302.026 327.152 300.886L327.152 300.886C327.348 300.821 327.527 300.821 327.723 300.805L327.723 300.805C327.935 300.186 328.489 299.681 328.993 299.144L328.993 299.144C329.238 298.346 330.036 298.037 330.59 297.532L330.59 297.532C332.235 296.018 333.066 293.901 334.614 292.354L334.614 292.354C334.826 292.175 334.5 291.833 334.647 291.637L334.647 291.637C334.891 291.556 335.168 291.442 335.445 291.328L335.445 291.328C335.412 291.035 335.38 290.726 335.331 290.384L335.331 290.384C334.598 290.612 335.266 291.296 334.663 291.572L334.663 291.572C334.256 290.693 334.728 289.537 335.494 288.821L335.494 288.821C335.428 288.511 335.494 288.218 335.331 287.86L335.331 287.86C335.624 287.486 335.934 287.127 335.982 286.688L335.982 286.688C335.754 286.557 335.543 286.639 335.314 286.736L335.314 286.736C335.119 286.818 334.907 286.899 334.679 286.818L334.679 286.818C334.354 286.981 334.516 287.323 334.305 287.534L334.305 287.534C332.74 288.235 332.154 289.488 331.584 290.709L331.584 290.709C329.645 292.045 328.195 294.129 326.941 295.92L326.941 295.92C325.247 296.913 324.024 298.46 323.064 299.893L323.064 299.893C322.493 300.186 321.923 300.267 321.516 300.788L321.516 300.788C321.402 300.951 321.451 301.277 321.304 301.423L321.304 301.423C320.864 301.847 320.229 301.798 319.919 302.433L319.919 302.433C319.284 302.482 318.958 302.84 318.274 302.954L318.274 302.954C317.019 304.159 315.129 305.103 313.631 306.276L313.631 306.276C313.37 306.927 312.637 307.155 312.213 307.611L312.213 307.611C311.611 308.278 311.464 309.044 310.796 309.597L310.796 309.597C310.633 309.728 310.356 309.76 310.209 309.89L310.209 309.89C309.737 310.363 309.525 310.884 309.086 311.209L309.086 311.209C308.629 311.535 307.978 311.453 307.407 311.844L307.407 311.844C306.951 312.154 306.788 312.707 306.446 313.065L306.446 313.065C305.827 313.082 305.55 313.407 305.404 313.928L305.404 313.928C304.605 313.668 303.937 314.792 302.846 315.329L302.846 315.329C302.667 315.41 302.21 315.508 302.129 315.589L302.129 315.589C301.445 316.175 301.673 317.331 301.168 317.852L301.168 317.852C299.376 317.869 299.115 320.637 297.274 319.953L297.274 319.953C297.274 320.735 296.264 320.442 295.775 320.718L295.775 320.718C295.433 320.914 295.368 321.288 294.977 321.435L294.977 321.435C294.749 321.516 294.521 321.5 294.293 321.467L294.293 321.467C294.016 321.451 293.723 321.418 293.462 321.565L293.462 321.565C292.875 321.874 292.941 322.314 292.419 322.835L292.419 322.835C291.051 322.656 288.558 323.372 288.477 325.05L288.477 325.05C288.053 325.131 287.467 325.082 287.141 325.505L287.141 325.505C286.571 325.115 285.821 325.277 285.072 325.424L285.072 325.424C284.599 325.522 284.111 325.636 283.687 325.571L283.687 325.571C283.28 326.124 282.433 326.727 281.96 325.912L281.96 325.912C280.657 325.961 279.093 326.84 278.018 326.238L278.018 326.238C273.815 327.427 270.002 330.13 265.75 331.188L265.75 331.188C265.522 330.032 265.066 328.599 265.424 327.459L265.424 327.459C265.571 327.003 265.995 326.531 266.158 326.01L266.158 326.01C266.402 325.326 266.402 324.431 266.695 323.958L266.695 323.958C267.086 323.34 267.982 323.079 268.324 322.395L268.324 322.395C268.129 321.5 268.96 321.451 268.781 320.8L268.781 320.8C268.324 319.237 263.779 321.402 264.968 323.242L264.968 323.242C265.31 323.763 265.799 323.502 266.239 324.089L266.239 324.089C265.832 325.554 265.148 326.906 264.333 328.224L264.333 328.224C263.128 328.778 263.258 329.853 262.362 330.39L262.362 330.39C261.857 330.683 260.651 330.439 260.553 331.204L260.553 331.204C260.342 332.702 263.242 333.125 262.525 334.64L262.525 334.64C262.313 334.737 262.134 334.737 261.971 334.721L261.971 334.721C261.808 334.705 261.628 334.689 261.433 334.786L261.433 334.786C261.238 334.526 261.286 334.363 261.221 334.151L261.221 334.151C259.853 333.158 258.37 332.556 256.66 332.67L256.66 332.67C256.48 332.344 256.334 332.23 256.024 331.839L256.024 331.839C255.65 332.002 256.008 332.393 255.91 332.637L255.91 332.637C255.405 332.995 254.933 333.353 254.689 333.777L254.689 333.777C254.314 333.858 253.955 333.858 253.515 334.167L253.515 334.167C251.398 333.419 248.889 333.907 246.722 333.288L246.722 333.288C246.022 332.507 245.614 330.439 244.523 331.025L244.523 331.025C243.92 331.351 244.115 332.328 244.49 333.256L244.49 333.256C242.356 332.881 238.609 334.623 237.403 336.757L237.403 336.757C237.403 336.284 237.257 336.187 236.898 335.959L236.898 335.959C236.621 336.073 236.54 336.252 236.393 336.415L236.393 336.415C236.54 336.968 236.915 336.805 237.159 337.082L237.159 337.082C237.045 337.278 236.801 337.44 236.947 337.717L236.947 337.717C236.475 337.717 236.312 337.847 235.693 338.157L235.693 338.157C235.448 338.287 235.791 338.613 235.693 338.775L235.693 338.775C235.286 339.052 234.618 338.955 234.227 339.427L234.227 339.427C234.064 339.818 234.275 339.997 234.536 340.436L234.536 340.436C234.422 340.892 234.243 341.316 233.787 341.674L233.787 341.674C233.558 342.358 233.673 343.172 233.558 343.905L233.558 343.905C232.63 344.605 232.255 345.484 231.978 346.396L231.978 346.396C230.919 347.308 230.593 347.503 229.144 348.057L229.144 348.057C229.062 347.894 228.964 347.715 228.883 347.552L228.883 347.552C228.704 347.536 228.573 347.617 228.443 347.698L228.443 347.698C228.296 347.796 228.15 347.91 227.954 347.812L227.954 347.812C227.742 347.291 228.199 346.998 227.775 346.429L227.775 346.429C227.042 346.477 227.221 347.275 226.83 347.65L226.83 347.65C226.374 347.357 225.853 347.552 225.331 347.747L225.331 347.747C224.68 347.975 224.045 348.203 223.588 347.519L223.588 347.519C223.23 347.601 223.458 347.861 223.165 347.926L223.165 347.926C222.937 347.601 222.497 347.894 222.236 347.568L222.236 347.568C221.992 347.812 221.487 347.731 221.487 347.959L221.487 347.959C220.118 347.715 218.619 347.861 216.974 348.447L216.974 348.447C216.746 348.219 216.436 348.219 216.208 347.992L216.208 347.992C215.345 348.285 214.612 348.171 213.878 348.057L213.878 348.057C213.357 347.992 212.852 347.894 212.298 347.959L212.298 347.959C212.119 347.731 212.445 347.65 212.201 347.373L212.201 347.373C211.516 347.601 211.027 348.219 210.311 347.812L210.311 347.812C210.327 347.503 210.799 347.324 210.848 347.015L210.848 347.015C210.229 346.494 209.904 347.617 209.708 347.91L209.708 347.91C207.72 348.838 206.287 348.105 204.332 348.952L204.332 348.952C203.615 348.48 202.849 348.187 201.888 348.496L201.888 348.496C201.237 348.057 200.438 348.105 199.558 348.301L199.558 348.301C198.402 347.959 197.115 347.975 195.893 347.747L195.893 347.747C195.795 347.519 195.697 347.324 195.551 347.291L195.551 347.291C193.596 346.477 191.625 346.608 189.279 346.787L189.279 346.787C189.099 346.477 188.757 346.64 188.611 346.282L188.611 346.282C188.431 346.412 188.366 346.575 188.057 346.656L188.057 346.656C186.493 345.696 184.522 345.891 182.615 345.94L182.615 345.94C182.534 345.728 182.42 345.533 182.273 345.484L182.273 345.484C179.439 344.963 176.604 344.425 173.981 343.27L173.981 343.27C173.688 343.481 173.541 343.302 173.264 343.514L173.264 343.514C172.939 343.204 172.515 343.253 172.156 343.025L172.156 343.025C170.56 343.432 168.996 343.221 167.237 343.514L167.237 343.514C167.025 343.351 166.78 343.351 166.601 343.107L166.601 343.107C166.259 343.204 166.259 343.416 165.966 343.53L165.966 343.53C165.819 343.237 165.672 343.302 165.477 343.367L165.477 343.367C165.379 343.4 165.265 343.432 165.151 343.416L165.151 343.416C164.516 343.221 164.06 342.504 163.506 342.244L163.506 342.244C162.707 341.869 161.616 342.342 160.589 341.707L160.589 341.707C160.084 341.413 159.498 340.664 158.732 341.397L158.732 341.397C158.113 340.958 157.641 340.029 156.826 340.143L156.826 340.143C156.305 339.378 155.865 338.385 155.099 338.385L155.099 338.385C154.985 338.189 154.887 337.994 154.92 337.847L154.92 337.847C154.48 337.945 154.366 337.62 153.959 337.392L153.959 337.392C152.933 336.854 151.45 337.392 150.505 336.415L150.505 336.415C150.228 336.529 149.968 336.626 149.74 336.578L149.74 336.578C149.023 336.496 148.338 336.301 147.752 335.796L147.752 335.796C146.237 336.073 144.934 335.666 143.875 334.607L143.875 334.607C142.93 334.379 142.115 333.744 141.252 333.191L141.252 333.191C141.252 333.044 140.942 332.816 141.121 332.735L141.121 332.735C140.062 332.572 139.362 331.269 138.205 331.367L138.205 331.367C137.586 330.439 136.739 330.13 136.087 329.283L136.087 329.283C134.882 329.543 133.969 328.908 133.057 328.273L133.057 328.273C132.194 327.671 131.314 327.068 130.19 327.231L130.19 327.231C129.945 326.889 129.587 326.906 129.261 326.857L129.261 326.857C129.147 326.238 128.805 325.961 128.577 325.31L128.577 325.31C127.974 324.936 127.241 324.984 126.638 324.61L126.638 324.61C126.149 323.454 124.651 323.682 123.934 322.819L123.934 322.819C123.771 322.623 123.771 322.33 123.592 322.151L123.592 322.151C123.054 321.549 122.337 321.142 121.686 320.686L121.686 320.686C121.49 320.425 121.588 320.23 121.555 320.002L121.555 320.002C119.666 319.921 118.623 317.315 117.026 316.289L117.026 316.289C117.059 315.882 116.619 315.313 116.766 314.938L116.766 314.938C116.228 314.661 116.293 314.091 116 313.635L116 313.635C115.528 312.854 114.664 312.284 114.306 311.551L114.306 311.551C114.078 311.046 114.143 310.363 113.931 309.956L113.931 309.956C113.263 308.751 111.666 308.132 111.113 307.155L111.113 307.155C110.754 306.536 110.934 305.885 110.64 305.396L110.64 305.396C110.412 305.022 109.874 304.892 109.549 304.485L109.549 304.485C109.255 304.11 109.272 303.459 108.701 303.215L108.701 303.215C108.669 302.645 108.148 301.407 107.626 300.707L107.626 300.707C107.154 300.072 106.144 299.274 105.476 298.542L105.476 298.542C104.564 297.548 104.107 296.408 103.39 295.269L103.39 295.269C102.657 294.145 101.224 293.38 100.344 292.175L100.344 292.175C100.083 291.833 99.9692 291.263 99.7087 290.921L99.7087 290.921C99.5131 290.693 99.1547 290.628 99.0407 290.416L99.0407 290.416C98.7799 290.026 98.8453 289.505 98.6007 289.163L98.6007 289.163C98.3403 288.772 97.7211 288.446 97.3301 287.909L97.3301 287.909C96.6459 286.964 96.0595 285.19 94.9842 284.978L94.9842 284.978C94.5769 284.148 94.1208 283.676 93.6157 282.943L93.6157 282.943C93.2571 282.373 92.5566 282.129 92.3775 281.575L92.3775 281.575C92.2796 281.233 92.5242 280.793 92.4591 280.468L92.4591 280.468C92.1656 279.165 90.9766 277.423 90.2434 276.12L90.2434 276.12C89.9502 273.515 87.2784 270.959 86.415 268.582L86.415 268.582C86.6755 266.986 85.2095 264.82 83.7266 264.348L83.7266 264.348C82.8636 262.525 81.3807 261.173 81.0386 259.284L81.0386 259.284C79.6539 257.102 80.3382 255.425 78.6927 253.406L78.6927 253.406C78.6114 253.113 78.7578 252.869 78.6927 252.56L78.6927 252.56C76.1514 247.512 76.2654 243.327 74.6362 238.589L74.6362 238.589C74.4897 238.312 74.6038 238.117 74.6038 237.873L74.6038 237.873C73.9519 237.482 73.74 236.44 74.2778 236.033L74.2778 236.033C73.7238 235.121 74.0332 234.209 73.6749 233.59L73.6749 233.59C74.0987 232.744 74.4243 231.881 74.0332 230.757L74.0332 230.757C74.2778 230.155 73.8706 228.982 73.1702 228.673L73.1702 228.673C72.9745 228.396 73.3655 228.315 73.1702 228.038L73.1702 228.038C71.72 226.524 72.4205 224.489 72.16 222.73L72.16 222.73C71.2966 221.574 71.5082 220.222 71.2477 219.083L71.2477 219.083C71.166 218.741 70.9218 218.48 70.8728 218.122L70.8728 218.122C70.8077 217.698 70.9707 217.21 70.9056 216.738L70.9056 216.738C70.7588 215.794 70.4167 215.207 70.8891 214.426L70.8891 214.426C70.6937 214.084 70.7588 213.823 70.5145 213.449L70.5145 213.449C71.1171 211.348 69.9281 208.646 70.7264 206.594L70.7264 206.594C69.9443 204.738 71.1171 203.517 71.7038 202.084L71.7038 202.084C70.8567 200.032 72.7302 198.876 71.8668 196.824L71.8668 196.824C71.8668 196.433 72.1273 196.108 72.2902 195.766L72.2902 195.766C72.2413 195.538 72.2251 195.31 72.0294 195.05L72.0294 195.05C73.6914 192.07 71.2966 187.771 72.9256 184.775L72.9256 184.775C72.6975 184.466 72.7791 184.238 72.6324 183.977L72.6324 183.977C73.0885 183.489 72.7791 182.756 73.1213 182.235L73.1213 182.235C72.5345 180.623 73.4468 179.483 73.3004 178.034L73.3004 178.034C73.5285 177.969 73.4145 177.79 73.6749 177.741L73.6749 177.741C73.7238 175.282 74.066 172.922 74.5872 170.626L74.5872 170.626C74.294 170.137 74.5221 169.893 74.1638 169.567L74.1638 169.567C74.897 168.802 74.5548 167.695 75.1088 166.865L75.1088 166.865C75.0434 166.718 74.9621 166.588 74.897 166.441L74.897 166.441C75.6136 165.383 75.7438 164.145 75.7276 162.843L75.7276 162.843C76.2654 161.996 76.3957 161.394 77.2267 160.612L77.2267 160.612C77.7314 159.358 78.0084 158.023 78.7905 156.851L78.7905 156.851C78.8556 156.411 78.9535 155.972 79.0837 155.548L79.0837 155.548C78.9535 155.288 78.8229 155.043 78.6927 154.783L78.6927 154.783C79.0024 154.555 79.0675 154.245 79.3607 154.034L79.3607 154.034C79.0675 152.536 80.3058 151.526 80.0939 150.061L80.0939 150.061C80.8922 149.361 80.5173 148.302 80.6314 147.374L80.6314 147.374C80.6965 147.244 80.7943 147.146 81.0062 147.081L81.0062 147.081C81.7556 144.492 83.0262 142.099 83.8245 139.543L83.8245 139.543C84.3296 139.331 84.3457 138.712 84.7044 138.337L84.7044 138.337C84.8184 138.24 85.1116 138.223 85.2095 138.093L85.2095 138.093C85.4699 137.735 85.5027 137.263 85.7146 136.791L85.7146 136.791C86.4636 135.179 87.9299 134.039 87.9464 132.28L87.9464 132.28C88.2069 132.085 88.2396 131.808 88.4677 131.596L88.4677 131.596C88.7447 131.222 88.4188 130.652 89.0052 130.375L89.0052 130.375 89.0052 129.529C89.6732 128.845 90.2434 128.161 90.0477 127.2L90.0477 127.2C91.009 125.946 91.6443 124.595 91.7421 123.064L91.7421 123.064C92.0353 122.836 92.1821 122.592 92.4426 122.38L92.4426 122.38C92.9477 121.55 93.697 121.013 94.1208 120.069L94.1208 120.069C94.2672 119.71 94.1859 119.238 94.3651 118.88L94.3651 118.88C94.6583 118.326 95.1795 118.05 95.4565 117.48L95.4565 117.48C95.8803 116.6 96.271 115.9 96.1897 114.988L96.1897 114.988C97.7863 113.686 97.8352 111.895 99.839 110.722L99.839 110.722C100.067 110.462 100.165 110.169 100.377 109.908L100.377 109.908C100.539 109.762 100.653 109.81 100.751 109.859L100.751 109.859C100.849 109.908 100.947 109.941 101.093 109.859L101.093 109.859C101.403 109.762 101.142 109.469 101.468 109.355L101.468 109.355C101.338 108.996 101.11 109.013 100.996 108.638L100.996 108.638C101.778 108.068 102.006 106.977 102.983 106.7L102.983 106.7C104.368 104.649 105.981 102.646 107.349 100.578L107.349 100.578C107.529 100.334 107.48 100.008 107.561 99.7477L107.561 99.7477C108.229 99.3245 108.93 98.9337 109.076 98.3476L109.076 98.3476C109.809 97.6475 111.471 96.7846 111.617 95.6772L111.617 95.6772C111.797 95.5143 111.943 95.368 112.253 95.254L112.253 95.254C112.921 94.0815 113.214 92.9094 114.42 92.0461L114.42 92.0461C114.631 91.8509 114.713 91.5902 114.664 91.281L114.664 91.281C116.603 90.0761 116.733 88.2686 118.753 87.08L118.753 87.08C119.47 85.9891 121.213 85.5659 121.295 84.1981L121.295 84.1981C121.914 83.9702 122.419 83.1885 122.728 82.6348L122.728 82.6348C123.852 81.9998 125.514 80.9902 125.986 79.9159L125.986 79.9159C126.54 79.7854 127.062 79.753 127.632 79.6225L127.632 79.6225C128.121 78.6456 129.359 77.8477 130.222 76.8219L130.222 76.8219C130.581 76.3987 130.483 76.3009 131.184 75.8127L131.184 75.8127C131.9 75.2913 132.275 74.6564 133.106 74.2005L133.106 74.2005C133.774 73.8423 134.719 72.7514 135.664 72.1488L135.664 72.1488C136.576 71.579 138.824 70.8789 139.346 69.8693L139.346 69.8693C141.138 69.088 142.229 67.7037 143.402 66.6455L143.402 66.6455C143.94 66.5315 144.184 66.4988 144.363 66.0594L144.363 66.0594C144.624 65.9128 144.82 65.9617 145.048 65.9289L145.048 65.9289C145.927 64.6428 148.371 64.2031 148.892 62.7052L148.892 62.7052C150.326 62.3144 151.368 61.0768 152.558 60.3278L152.558 60.3278C152.835 60.1488 153.193 60.1488 153.438 59.9859L153.438 59.9859C153.796 59.7418 154.073 59.123 154.725 58.7972L154.725 58.7972C155.963 58.1623 157.429 57.6736 158.83 56.9247L158.83 56.9247C158.977 56.6805 159.237 56.5015 159.335 56.2408L159.335 56.2408C160.622 55.8176 161.453 54.9547 162.561 54.4988L162.561 54.4988C164.157 53.8149 165.868 53.5219 167.513 52.838L167.513 52.838C168.719 52.3005 169.745 51.3398 170.951 50.8677L170.951 50.8677C171.293 50.7375 171.716 50.8188 172.124 50.6886L172.124 50.6886C172.515 50.5746 172.906 50.2165 173.313 50.1025L173.313 50.1025C173.834 49.9396 174.502 50.0047 175.073 49.8419L175.073 49.8419C175.561 49.6955 176.034 49.3536 176.457 49.2558L176.457 49.2558C176.571 49.2396 176.702 49.2558 176.832 49.272L176.832 49.272C176.962 49.2882 177.093 49.3209 177.207 49.2882L177.207 49.2882C177.81 49.158 178.298 48.6859 178.852 48.5557L178.852 48.5557C179.764 48.344 181.361 47.8064 182.55 47.5134L182.55 47.5134C182.713 47.481 182.843 47.4972 182.99 47.5134L182.99 47.5134C183.12 47.5299 183.234 47.5461 183.381 47.5134L183.381 47.5134C184.522 47.302 185.694 46.5041 186.835 47.2366L186.835 47.2366C187.063 47.1226 187.291 47.0086 187.503 46.8946L187.503 46.8946C188.415 46.9435 189.311 46.5854 190.273 46.5527L190.273 46.5527C190.403 46.5527 190.533 46.6016 190.68 46.6343L190.68 46.6343C190.842 46.6832 191.022 46.7321 191.201 46.6994L191.201 46.6994C191.543 46.6505 191.869 46.3901 192.179 46.3247L192.179 46.3247C192.341 46.2924 192.537 46.3085 192.716 46.3247L192.716 46.3247C192.895 46.3412 193.075 46.3574 193.238 46.3247L193.238 46.3247C193.693 46.2273 194.084 45.8853 194.541 45.7714L194.541 45.7714C195.567 45.5269 196.74 45.8526 197.604 45.1526L197.604 45.1526C198.614 45.1688 199.672 45.0386 200.748 44.8919L200.748 44.8919C202.246 44.6805 203.745 44.4849 205.097 44.729L205.097 44.729C206.841 44.4687 208.698 44.029 210.555 43.4267L210.555 43.4267C211.239 43.1988 211.761 42.8079 212.396 42.6939L212.396 42.6939C212.999 42.58 214.188 42.5473 215.003 42.2053L215.003 42.2053C216.29 41.6681 217.398 40.7563 218.652 40.4633L218.652 40.4633C218.799 40.4306 218.945 40.4633 219.108 40.4957L219.108 40.4957C219.255 40.5284 219.385 40.5607 219.532 40.5446L219.532 40.5446C219.939 40.4633 220.33 40.1048 220.835 39.9909L220.835 39.9909C221.405 39.8445 222.122 39.9909 222.546 39.8445L222.546 39.8445C223.36 39.5838 223.865 39.0955 224.614 39.1279L224.614 39.1279C225.201 39.1441 225.788 39.2581 226.472 39.2419L226.472 39.2419C227.026 39.2257 227.563 39.2419 228.101 39.2581L228.101 39.2581C229.079 39.2908 230.023 39.3235 231.066 39.1279L231.066 39.1279C231.881 39.4537 232.842 39.3721 233.803 39.2746L233.803 39.2746C234.846 39.1768 235.888 39.079 236.752 39.5026L236.752 39.5026C236.98 39.3397 237.143 39.3559 237.306 39.3721L237.306 39.3721C237.469 39.3721 237.648 39.3886 237.876 39.2257L237.876 39.2257C239.309 40.0397 241.167 39.6 242.633 40.2839L242.633 40.2839C243.073 40.1375 243.448 40.1864 243.822 40.2515L243.822 40.2515C244.278 40.3166 244.718 40.3979 245.288 40.1048L245.288 40.1048C246.185 40.4144 247.162 40.3817 248.205 40.2188L248.205 40.2188C248.726 40.5934 249.394 40.5446 249.931 40.9192L249.931 40.9192C252.962 40.7563 255.389 42.4822 258.142 43.1822L258.142 43.1822C259.837 44.3385 261.84 44.5665 263.633 45.4456L263.633 45.4456C264.871 45.3805 265.848 46.1133 267.054 46.1457L267.054 46.1457C267.787 46.8784 268.699 47.0902 269.546 47.5134L269.546 47.5134C270.687 48.7837 272.185 49.044 273.358 50.2165L273.358 50.2165C275.444 51.1283 277.089 53.3263 279.272 53.9451L279.272 53.9451C279.957 54.7756 280.852 55.0036 281.732 55.2477L281.732 55.2477C283.101 56.2573 284.616 56.8434 286.131 57.4622L286.131 57.4622C286.978 58.0645 287.711 59.0903 288.672 59.3347L288.672 59.3347C289.063 59.9046 289.454 60.4745 290.024 60.5396L290.024 60.5396C291.768 62.5585 294.782 61.8584 296.036 64.659L296.036 64.659C297.405 65.6035 298.528 67.3456 300.06 67.7853L300.06 67.7853C300.598 68.567 301.233 69.0553 301.966 69.2508L301.966 69.2508C302.732 70.4557 303.644 71.237 304.605 71.9209L304.605 71.9209C304.719 72.1488 304.833 72.3768 304.947 72.5886L304.947 72.5886C306.967 74.6075 308.988 76.6591 311.171 78.1897L311.171 78.1897C312.132 81.0229 314.885 81.2347 315.895 83.9213L315.895 83.9213C316.156 84.1165 316.433 84.2956 316.694 84.4585L316.694 84.4585C316.856 85.2074 317.443 85.3052 317.834 85.6798L317.834 85.6798C318.958 86.7707 319.805 88.1874 320.848 89.5224L320.848 89.5224C321.646 90.5482 322.77 91.2971 323.601 92.2417L323.601 92.2417C325.621 94.5536 327.299 97.1589 329.368 99.2267L329.368 99.2267C330.672 101.913 332.854 104.177 334.093 106.847L334.093 106.847C334.239 107.156 334.256 107.45 334.435 107.726L334.435 107.726C334.581 107.971 334.891 108.085 335.07 108.361L335.07 108.361C335.396 108.85 335.428 109.615 335.754 110.12L335.754 110.12C335.999 110.511 336.634 110.918 336.944 111.634L336.944 111.634C337.286 112.399 337.123 113.165 337.595 113.93L337.595 113.93C338.508 115.46 339.599 117.447 340.332 119.287L340.332 119.287C340.544 119.841 340.577 120.41 340.935 120.883L340.935 120.883C341.277 121.338 341.701 121.745 342.043 122.429L342.043 122.429C342.662 123.732 343.346 124.807 344.21 126.077L344.21 126.077C345.024 127.249 345.953 128.763 346.425 130.017L346.425 130.017C346.523 130.261 346.458 130.554 346.604 130.782L346.604 130.782C347.077 131.613 348.136 132.329 348.511 133.713L348.511 133.713C348.674 134.3 348.364 135.097 348.82 135.993L348.82 135.993C349.032 136.4 349.488 136.612 349.683 137.035L349.683 137.035C349.797 137.312 349.7 137.621 349.814 137.914L349.814 137.914C350.026 138.533 350.791 139.087 350.58 139.836L350.58 139.836C350.857 140.226 351.199 140.405 351.508 140.633L351.508 140.633C351.264 141.513 352.046 142.717 351.476 143.483L351.476 143.483C352.323 143.662 352.6 145.502 353.398 145.779L353.398 145.779C353.528 146.642 353.463 147.798 353.805 148.84L353.805 148.84C353.887 149.116 354.164 149.393 354.229 149.67L354.229 149.67C354.326 150.045 354.164 150.452 354.278 150.81L354.278 150.81C354.441 151.298 354.815 151.673 354.962 152.161L354.962 152.161C355.369 153.399 355.418 154.669 355.369 155.646L355.369 155.646C356.493 158.104 358.416 160.612 357.976 162.859L357.976 162.859C358.09 163.136 358.285 163.217 358.448 163.38L358.448 163.38C358.302 164.064 358.627 164.927 358.416 165.595L358.416 165.595C359.621 167.63 359.54 169.909 360.468 171.717L360.468 171.717C360.599 171.977 360.827 172.189 360.924 172.433L360.924 172.433C361.299 173.345 361.267 174.517 361.625 175.445L361.625 175.445C361.707 175.673 361.984 175.852 362.049 176.08L362.049 176.08C362.375 177.188 362.195 179.06 362.081 180.281L362.081 180.281C362.032 180.688 361.918 181.128 361.951 181.503L361.951 181.503C362.032 182.007 362.375 182.48 362.391 182.968L362.391 182.968C362.391 183.587 362.13 184.108 362.228 184.726L362.228 184.726C362.326 185.215 362.586 185.671 362.749 186.159L362.749 186.159C362.749 188.569 362.13 191.142 363.173 193.649L363.173 193.649C362.831 194.415 363.14 195.408 363.271 196.336L363.271 196.336C362.782 199.641 363.075 203.207 363.564 206.854L363.564 206.854C363.059 207.913 362.879 209.036 362.7 210.355L362.7 210.355C362.57 211.316 362.603 212.097 362.505 213.091L362.505 213.091C362.456 213.53 362.261 213.856 362.261 214.263L362.261 214.263C362.293 215.5 362.472 216.819 362.407 218.089L362.407 218.089C362.407 218.252 362.146 218.415 362.13 218.562L362.13 218.562C362.114 218.708 362.293 218.936 362.309 219.115L362.309 219.115C362.309 219.425 362.098 219.767 362.098 219.962L362.098 219.962C362.098 220.19 362.309 220.402 362.309 220.581L362.309 220.581C362.326 221.264 361.804 221.671 361.641 222.388L361.641 222.388C361.43 223.463 361.641 224.668 360.778 225.482L360.778 225.482C361.12 227.615 359.735 229.178 359.931 231.278L359.931 231.278C359.801 231.588 359.589 231.864 359.426 232.157L359.426 232.157C359.866 234.47 358.676 236.261 358.09 238.231L358.09 238.231C358.204 238.442 358.318 238.67 358.432 238.898L358.432 238.898C358.367 239.257 357.976 239.501 358.35 239.989L358.35 239.989C357.829 241.162 356.575 242.122 356.77 243.539L356.77 243.539C356.64 243.653 356.656 243.832 356.444 243.913L356.444 243.913C356.347 244.695 356.493 245.558 356.037 246.226L356.037 246.226C356.347 246.698 356.168 247.024 356.216 247.398L356.216 247.398C354.066 249.107 355.108 251.843 353.007 253.569L353.007 253.569C352.681 255.246 351.655 256.858 351.28 258.665L351.28 258.665C351.085 259.61 350.189 260.505 349.977 261.531L349.977 261.531C350.091 261.759 350.205 261.987 350.319 262.199L350.319 262.199C349.765 262.508 349.341 262.866 349.569 263.42L349.569 263.42C349.162 263.583 348.934 263.827 348.723 264.055L348.723 264.055C348.755 265.797 346.555 267.165 347.403 268.94L347.403 268.94C346.832 269.721 345.79 270.145 346.621 271.138L346.621 271.138C346.995 271.594 347.989 271.48 348.462 271.968L348.462 271.968C348.902 271.154 349.618 270.421 349.667 269.477L349.667 269.477C350.286 268.94 350.58 268.305 350.873 267.686L350.873 267.686C350.71 267.702 350.563 267.686 350.417 267.621L350.417 267.621C350.417 267.279 350.531 267.002 350.58 266.693L350.58 266.693C350.351 266.383 349.977 266.53 349.602 266.693L349.602 266.693C349.341 266.791 349.064 266.905 348.853 266.839L348.853 266.839C348.902 265.83 350.677 265.129 351.362 264.722L351.362 264.722C351.117 265.26 351.59 265.83 351.704 266.416L351.704 266.416C351.753 266.367 351.769 266.302 351.834 266.253L351.834 266.253C351.785 265.862 351.785 265.471 351.622 265.048L351.622 265.048C351.736 264.755 351.948 264.495 351.981 264.169L351.981 264.169C353.072 263.583 353.463 262.785 353.414 261.824L353.414 261.824C354.701 259.528 355.06 256.923 356.542 254.692L356.542 254.692C356.738 253.927 356.542 253.048 357.324 252.478L357.324 252.478C357.78 250.589 358.562 248.814 359.181 246.991L359.181 246.991C359.263 246.812 358.986 246.535 359.067 246.356L359.067 246.356C359.507 245.688 359.703 244.809 359.898 244.011L359.898 244.011C359.931 243.865 360.191 243.751 360.208 243.653L360.208 243.653C360.273 243.392 360.126 243.083 360.208 242.839L360.208 242.839C360.322 242.513 360.615 242.236 360.729 241.862L360.729 241.862C360.827 241.52 360.762 241.129 360.892 240.771L360.892 240.771C361.104 240.169 361.592 239.647 361.723 239.045L361.723 239.045C361.772 238.817 361.625 238.491 361.674 238.166L361.674 238.166C361.739 237.824 362.049 237.449 362.065 237.173L362.065 237.173C362.081 236.879 361.853 236.554 361.902 236.244L361.902 236.244C361.984 235.61 362.635 235.007 362.342 234.307L362.342 234.307C363.645 232.874 362.945 230.806 363.678 229.194L363.678 229.194C363.645 228.95 363.629 228.706 363.466 228.396L363.466 228.396C364.004 227.68 363.955 226.638 364.215 225.71L364.215 225.71C364.329 225.254 364.704 224.83 364.721 224.342L364.721 224.342C364.721 224.065 364.492 223.886 364.476 223.674L364.476 223.674C364.427 223.218 364.541 222.372 364.704 221.932L364.704 221.932C364.769 221.737 365.03 221.574 365.095 221.33L365.095 221.33C365.258 220.727 365.03 219.978 365.519 219.392L365.519 219.392C365.356 219.066 365.405 218.822 365.144 218.48L365.144 218.48C365.242 217.747 365.844 217.194 365.47 216.298L365.47 216.298C365.747 215.924 365.779 215.468 366.187 215.142L366.187 215.142C366.806 212.602 367.637 210.127 368.321 207.603L368.321 207.603C368.256 207.327 368.093 207.359 367.995 207.164L367.995 207.164C367.751 205.568 368.386 203.663 367.8 202.035L367.8 202.035C367.555 201.318 366.985 200.634 366.903 199.869L366.903 199.869C366.838 199.348 367.132 198.29 367.197 197.492L367.197 197.492C367.311 196.271 368.093 195.229 367.05 193.845L367.05 193.845C367.099 193.307 367.62 192.428 366.822 192.037L366.822 192.037C367.034 191.174 366.284 189.986 366.675 189.188L366.675 189.188C366.659 188.895 366.529 188.96 366.382 188.634L366.382 188.634C366.545 186.615 365.91 184.336 365.503 182.121L365.503 182.121C366.284 181.568 365.307 180.802 365.079 179.923L365.079 179.923C364.883 179.142 365.372 178.734 365.275 178.1L365.275 178.1C365.03 177.611 364.786 177.155 364.46 176.895L364.46 176.895C364.688 175.983 364.753 174.989 364.802 173.996L364.802 173.996C363.808 172.873 364.851 171.603 363.694 170.43L363.694 170.43C363.938 169.584 363.645 168.77 363.271 167.825L363.271 167.825C363.157 167.532 363.271 166.979 363.14 166.588L363.14 166.588C363.075 166.344 362.847 166.099 362.814 165.936L362.814 165.936C362.668 165.318 363.042 164.585 362.277 163.885L362.277 163.885C362.179 163.608 362.619 163.461 362.505 163.152L362.505 163.152C362.016 161.85 361.576 160.58 361.153 158.902L361.153 158.902C360.892 157.877 360.941 156.737 360.615 155.858L360.615 155.858C360.468 155.434 360.159 155.125 360.045 154.734L360.045 154.734C359.687 153.562 359.817 152.422 359.377 151.038L359.377 151.038C359.23 150.777 359.084 150.566 358.888 150.484L358.888 150.484C359.247 149.426 358.09 147.863 358.171 146.707L358.171 146.707C356.754 144.134 356.298 141.333 356.51 139.087L356.51 139.087C355.907 137.735 355.092 136.921 355.092 135.895L355.092 135.895C354.864 135.081 353.545 134.381 353.349 133.648L353.349 133.648C353.186 133.029 353.805 132.508 354.066 131.873L354.066 131.873C355.206 133.257 355.923 135.293 356.819 136.514L356.819 136.514C356.689 137.002 357.536 137.816 357.08 138.191L357.08 138.191C357.177 138.321 357.308 138.321 357.455 138.305L357.455 138.305C357.552 138.305 357.666 138.305 357.748 138.337L357.748 138.337C358.627 140.08 360.664 142.001 360.322 143.792L360.322 143.792C361.446 145.193 361.707 146.642 362.163 148.205L362.163 148.205C362.326 148.742 362.684 149.198 362.814 149.686L362.814 149.686C363.173 150.94 363.271 152.064 363.792 153.22L363.792 153.22C363.906 153.448 364.134 153.659 364.248 153.903L364.248 153.903C364.492 154.506 364.476 155.19 364.704 155.793L364.704 155.793C364.997 156.558 365.372 157.323 365.698 158.121L365.698 158.121C366.073 159.065 366.74 159.912 367.083 160.84L367.083 160.84C367.278 161.377 367.132 162.077 367.294 162.647L367.294 162.647C367.457 163.185 367.8 163.624 367.946 164.129L367.946 164.129C368.402 165.595 368.875 167.076 369.103 168.574L369.103 168.574C369.917 170.609 370.618 172.612 371.074 174.631L371.074 174.631C371.384 176.015 371.84 177.09 372.182 178.409L372.182 178.409C372.589 179.972 373.062 181.714 373.143 183.473L373.143 183.473C373.143 183.717 372.964 183.912 372.98 184.157L372.98 184.157C373.062 185.101 373.485 186.045 373.436 186.843L373.436 186.843C373.42 187.185 373.176 187.56 373.176 187.885L373.176 187.885C373.159 188.227 373.404 188.553 373.388 188.879L373.388 188.879C373.371 189.155 373.127 189.383 373.062 189.644L373.062 189.644C373.029 189.872 373.176 190.132 373.159 190.409L373.159 190.409C373.045 191.321 372.491 191.956 373.045 192.786L373.045 192.786C372.931 194.187 373.518 195.457 373.518 196.889L373.518 196.889C373.518 197.704 373.127 198.55 373.176 199.381L373.176 199.381C373.192 199.723 373.469 200.065 373.502 200.423L373.502 200.423C373.518 200.651 373.322 200.879 373.355 201.107L373.355 201.107C373.404 201.546 373.746 201.953 373.795 202.393L373.795 202.393C373.893 203.191 373.55 203.891 373.779 204.721L373.779 204.721C373.827 204.884 374.023 205.08 374.072 205.275L374.072 205.275C374.283 206.268 374.023 207.294 374.3 208.287L374.3 208.287C374.186 208.515 374.218 208.808 373.942 208.971L373.942 208.971C373.974 209.199 374.072 209.427 374.056 209.623L374.056 209.623C373.616 211.023 374.153 212.732 373.86 214.165L373.86 214.165C373.681 214.296 373.567 214.426 373.453 214.572L373.453 214.572C373.958 215.289 373.29 215.631 373.616 216.315L373.616 216.315C373.55 216.445 373.371 216.542 373.29 216.689L373.29 216.689C373.176 219.018 372.996 221.313 372.654 223.56L372.654 223.56C371.889 224.114 372.133 224.928 371.986 225.824L371.986 225.824C371.807 226.931 371.074 227.956 371.156 228.95L371.156 228.95C371.188 229.308 371.449 229.634 371.481 229.992L371.481 229.992C371.53 230.562 371.139 231.229 371.579 231.75L371.579 231.75C371.205 232.516 371.514 233.33 371.351 234.095L371.351 234.095C371.091 235.333 370.227 236.456 370.52 237.84L370.52 237.84C369.787 238.703 369.738 239.81 369.184 240.739L369.184 240.739C369.64 241.764 369.152 242.481 369.315 243.392L369.315 243.392C368.223 244.972 368.516 247.007 367.425 248.587L367.425 248.587C367.653 249.189 367.409 249.84 367.229 250.394L367.229 250.394C367.017 251.111 366.464 252.039 366.317 252.771L366.317 252.771C366.187 253.422 366.545 254.35 365.763 254.872L365.763 254.872C365.796 255.279 365.73 255.653 365.763 256.077L365.763 256.077C365.519 256.63 365.144 257.102 364.9 257.737L364.9 257.737C364.769 258.063 364.9 258.486 364.737 258.828L364.737 258.828C364.525 259.268 364.069 259.593 363.857 260.066L363.857 260.066C363.45 260.994 363.14 262.085 362.912 263.176L362.912 263.176C362.7 264.104 362.521 264.771 362.717 265.781L362.717 265.781C361.772 267.263 361.12 268.842 359.947 270.226L359.947 270.226C359.556 272.522 358.627 274.639 356.656 276.43L356.656 276.43C356.298 277.781 356.102 279.181 355.711 280.533L355.711 280.533C354.718 281.152 354.75 282.112 354.506 282.975L354.506 282.975C369.608 257.054 378.161 227.224 377.998 195.522L377.998 195.522C377.77 145.876 356.233 101.001 321.76 68.746L321.76 68.746C287.548 36.7506 240.45 17 188.627 17L188.627 17C188.301 17 187.975 17 187.649 17M92.6383 54.8242C93.4038 54.4661 93.6646 53.473 94.528 53.3101L94.528 53.3101C95.4403 53.9289 96.5318 53.4403 97.4279 54.173L97.4279 54.173C96.4016 55.215 94.7561 55.8338 93.4203 56.1757L93.4203 56.1757C92.6055 56.9412 91.8562 57.9505 90.8625 58.3575L90.8625 58.3575C90.0967 58.6833 89.1519 58.5855 88.3047 59.0252L88.3047 59.0252C87.6205 59.3833 87.2457 60.0021 86.5614 60.4256L86.5614 60.4256C86.0078 60.7676 85.1929 60.7349 84.6228 61.1908L84.6228 61.1908C84.4274 61.3536 84.3296 61.7283 84.1015 61.9235L84.1015 61.9235C83.01 62.8354 81.5275 63.8123 80.2403 64.3333L80.2403 64.3333C77.7966 65.3102 74.9456 65.587 73.6749 68.0133L73.6749 68.0133C73.1375 68.2412 72.3392 68.0783 71.8503 68.453L71.8503 68.453C71.5898 68.632 71.606 69.0064 71.3779 69.2508L71.3779 69.2508C70.5635 70.1627 68.8529 70.1627 68.3967 71.465L68.3967 71.465C68.2499 71.6279 68.1359 71.579 68.0219 71.5304L68.0219 71.5304C67.9078 71.4815 67.81 71.4488 67.6797 71.5466L67.6797 71.5466C67.4517 71.7745 67.4027 72.0514 67.3052 72.3117L67.3052 72.3117C67.1423 72.3768 66.9793 72.3606 66.8325 72.3606L66.8325 72.3606C66.7674 72.3606 66.7185 72.3606 66.6534 72.3606L66.6534 72.3606C65.9853 73.7445 63.7862 74.738 63.8351 76.3336L63.8351 76.3336C62.8577 76.7407 62.6296 77.4084 62.7925 78.2875L62.7925 78.2875C60.2509 80.2902 58.4263 83.0907 57.9212 85.8913L57.9212 85.8913C56.1455 87.3079 53.5553 89.0665 53.3924 91.1508L53.3924 91.1508C51.4537 91.6229 51.535 93.7723 49.8895 94.5863L49.8895 94.5863C49.6125 94.847 49.7593 95.2051 49.6125 95.5143L49.6125 95.5143C48.7329 95.8728 48.3581 96.8008 48.3257 97.5986L48.3257 97.5986C46.6151 98.3965 44.7577 100.318 44.1062 102.011L44.1062 102.011C42.8028 103.232 41.4182 105.023 40.9782 106.717L40.9782 106.717C39.9357 107.368 39.9357 108.508 39.1209 109.469L39.1209 109.469C38.8277 109.794 38.3391 111.08 37.9153 111.504L37.9153 111.504C36.7587 112.693 36.2213 114.386 34.9503 115.591L34.9503 115.591C34.7387 116.405 34.2826 117.154 33.5167 117.805L33.5167 117.805C33.4027 118.375 32.4414 119.157 32.1809 119.808L32.1809 119.808C31.5291 121.371 31.1219 123.146 29.998 124.27L29.998 124.27C29.5415 124.725 29.5904 125.23 29.281 125.881L29.281 125.881C28.9551 126.533 28.2547 127.021 28.4827 128.031L28.4827 128.031C27.9777 128.78 27.6683 129.578 27.6517 130.473L27.6517 130.473C27.1632 130.799 27.4402 131.141 26.8373 131.255L26.8373 131.255C26.707 131.564 27.0492 131.987 26.43 132.15L26.43 132.15C26.3322 132.476 26.5279 132.915 26.479 133.241L26.479 133.241C25.1756 134.479 25.4688 136.139 24.3449 137.426L24.3449 137.426C24.6543 138.403 23.8888 139.087 24.1654 140.047L24.1654 140.047C23.6769 140.275 23.905 140.699 23.5628 140.959L23.5628 140.959C23.628 141.171 23.5301 141.317 23.742 141.578L23.742 141.578C23.1556 142.213 23.3999 143.238 23.1718 144.102L23.1718 144.102C23.025 144.655 22.634 145.111 22.5854 145.746L22.5854 145.746C22.52 146.479 22.7646 147.651 22.5527 148.4L22.5527 148.4C22.4062 148.97 21.9987 149.328 21.7871 149.931L21.7871 149.931C21.8522 150.794 21.5263 151.543 21.1029 152.275L21.1029 152.275C21.5101 153.643 20.451 154.604 20.4676 155.858L20.4676 155.858C18.8872 157.209 20.0114 159.277 18.9196 160.759L18.9196 160.759C19.2293 162.533 18.0562 163.722 17.7303 165.187L17.7303 165.187C17.6328 165.66 18.203 166.213 18.4145 166.897L18.4145 166.897C18.6753 167.841 18.0073 168.623 17.9911 169.453L17.9911 169.453C15.9056 170.495 17.372 173.068 19.0336 174.42L19.0336 174.42C19.2128 175.673 18.6429 176.716 18.2681 177.839L18.2681 177.839C18.4145 178.409 18.6753 179.044 18.2519 179.483L18.2519 179.483C19.0502 180.949 17.6817 181.828 18.4145 183.277L18.4145 183.277C17.7957 184.287 17.8443 185.475 17.8608 186.664L17.8608 186.664C16.6226 188.016 18.2843 190.148 17.1766 191.533L17.1766 191.533C17.0788 191.972 17.095 192.428 17.4698 192.982L17.4698 192.982C16.2481 194.61 15.7265 196.45 15.0422 198.241L15.0422 198.241C15.189 198.567 15.352 198.616 15.5149 198.795L15.5149 198.795C15.1401 200.602 15.0588 202.523 14.7328 204.363L14.7328 204.363C15.1077 204.933 14.9933 205.405 15.352 205.959L15.352 205.959C14.9282 207.489 15.1077 209.46 16.3783 211.218L16.3783 211.218C16.3618 211.544 16.2154 211.853 15.9711 212.114L15.9711 212.114C16.1013 213.775 16.1826 215.452 16.5248 217.177L16.5248 217.177C17.1439 218.203 17.4371 219.164 17.3882 220.011L17.3882 220.011C17.6166 220.353 17.877 220.434 18.2519 220.825L18.2519 220.825C17.7957 221.053 18.5775 221.639 18.4472 221.948L18.4472 221.948C17.5022 223.365 18.0073 225.156 18.6429 226.996L18.6429 226.996C18.48 227.289 18.6591 227.663 18.2354 227.891L18.2354 227.891C18.3983 228.51 18.2192 229.031 18.5451 229.715L18.5451 229.715C17.926 231.832 18.3332 234.225 18.0889 236.44L18.0889 236.44C19.1642 237.303 18.5124 238.459 18.708 239.419L18.708 239.419C18.9034 240.266 19.5552 241.601 20.2557 241.927L20.2557 241.927C20.174 242.546 20.2068 243.653 21.005 244.076L21.005 244.076C21.4774 245.933 21.6242 248.033 22.6994 250.019L22.6994 250.019C23.3672 251.241 24.41 252.364 24.3611 253.715L24.3611 253.715C24.4586 253.699 24.5241 253.813 24.5892 253.943L24.5892 253.943C24.6705 254.074 24.7522 254.188 24.8497 254.155L24.8497 254.155C24.9475 256.158 26.8373 257.868 28.2057 259.773L28.2057 259.773C28.4014 260 28.0104 260.098 28.1244 260.326L28.1244 260.326C28.7759 261.157 28.8087 262.215 29.0367 262.883L29.0367 262.883C29.1181 263.111 29.3789 263.273 29.444 263.501L29.444 263.501C29.4764 263.648 29.3299 263.908 29.3623 264.055L29.3623 264.055C29.6559 265.292 30.5517 266.546 30.4376 267.881L30.4376 267.881C31.4802 269.558 31.7086 271.398 32.7022 272.831L32.7022 272.831C32.4741 274.15 34.2499 275.681 34.3801 277.26L34.3801 277.26C35.6183 279.409 36.9217 281.77 37.6383 284.066L37.6383 284.066C37.72 284.343 37.6383 284.62 37.72 284.897L37.72 284.897C38.3715 286.492 39.7565 287.86 39.6587 289.537L39.6587 289.537C39.9029 289.733 40.1472 290.123 40.3918 290.319L40.3918 290.319C40.0497 290.872 40.4731 291.865 41.1412 292.468L41.1412 292.468C41.9067 295.806 44.1551 299.649 44.8883 303.231L44.8883 303.231C44.5134 303.328 44.1224 303.41 43.7479 303.361L43.7479 303.361C42.2003 301.505 41.8092 300.267 40.3756 298.395L40.3756 298.395C40.1799 298.134 39.9357 298.183 39.7238 298.069L39.7238 298.069C38.8604 296.685 37.9481 294.862 36.7587 293.706L36.7587 293.706C36.5634 293.054 35.6835 291.198 35.0643 290.286L35.0643 290.286C34.6409 289.651 34.0869 289.521 33.9405 288.886L33.9405 288.886C33.8588 288.544 34.038 288.202 33.6307 287.583L33.6307 287.583C33.4027 287.241 32.9954 287.078 32.7673 286.769L32.7673 286.769C32.132 285.939 31.4316 284.457 30.9754 283.545L30.9754 283.545C30.6657 282.959 30.6495 282.308 30.3725 281.787L30.3725 281.787C30.2912 281.624 30.0304 281.477 29.9491 281.314L29.9491 281.314C29.1343 279.507 27.9939 277.195 26.756 275.094L26.756 275.094C26.8373 274.671 26.6581 274.622 26.43 273.922L26.43 273.922C26.3649 273.759 26.4951 273.531 26.4951 273.515L26.4951 273.515C26.4462 273.434 26.3649 273.483 26.316 273.531L26.316 273.531C26.2671 273.564 26.2182 273.597 26.202 273.58L26.202 273.58C26.1041 273.466 26.153 273.076 26.039 272.815L26.039 272.815C25.876 272.441 25.4037 272.082 25.3386 271.903L25.3386 271.903C25.1594 271.48 25.3224 271.105 25.1429 270.78L25.1429 270.78C24.9964 270.503 24.6705 270.324 24.5403 270.031L24.5403 270.031C24.3284 269.575 24.5727 269.07 24.41 268.484L24.41 268.484C24.1492 267.588 23.302 266.937 23.6769 266.188L23.6769 266.188C22.8786 265.227 21.9336 264.234 21.9825 263.273L21.9825 263.273C20.7118 260.978 19.5876 258.405 18.9523 255.946L18.9523 255.946C18.6264 255.588 18.3005 255.23 17.9584 254.953L17.9584 254.953C18.2681 254.823 18.3332 254.627 18.3821 254.416L18.3821 254.416C16.6226 252.299 17.2741 249.677 15.7265 247.838L15.7265 247.838C15.8894 247.642 16.0035 247.447 15.9546 247.186L15.9546 247.186C15.4009 246.454 15.4984 245.9 14.9771 245.184L14.9771 245.184C15.2379 244.939 15.0588 244.581 15.1728 244.288L15.1728 244.288C13.6738 241.715 14.2278 239.713 12.7942 237.14L12.7942 237.14C13.1201 236.586 13.1363 235.707 12.4682 235.105L12.4682 235.105C12.3707 233.639 11.8005 232.043 11.8329 230.611L11.8329 230.611C11.6862 230.383 11.5235 230.139 11.3768 229.894L11.3768 229.894C11.2138 229.455 11.5235 229.129 11.4746 228.706L11.4746 228.706C10.4155 226.752 10.6274 224.537 10.3015 222.551L10.3015 222.551C10.1061 222.258 9.92697 221.948 9.73129 221.671L9.73129 221.671C9.73129 221.33 9.78021 221.02 9.86185 220.695L9.86185 220.695C9.71509 220.336 9.51974 220.434 9.38917 220.125L9.38917 220.125C10.1061 218.48 8.94954 216.315 8.59089 214.361L8.59089 214.361C8.60742 213.986 8.99813 213.693 9.03085 213.319L9.03085 213.319C8.5585 212.114 7.95558 210.86 8.59089 209.948L8.59089 209.948C7.6951 206.919 8.5747 204.363 7.56454 201.286L7.56454 201.286C8.11854 200.586 7.67858 199.592 7.23894 198.599L7.23894 198.599C7.74369 197.394 7.87426 196.092 7.10838 194.529L7.10838 194.529C7.80881 192.607 7.07598 190.279 7.7113 188.341L7.7113 188.341C7.32026 187.543 7.84154 186.99 7.25514 186.127L7.25514 186.127C7.27134 185.378 7.02706 184.58 6.96194 183.798L6.96194 183.798C7.1735 183.57 7.35298 183.342 7.61346 183.115L7.61346 183.115C7.1735 181.405 8.13474 180.086 7.4505 178.311L7.4505 178.311C8.11854 177.481 8.0045 176.439 7.59726 175.315L7.59726 175.315C8.50958 174.094 8.21638 172.563 8.41174 171.147L8.41174 171.147C8.23258 170.903 8.34662 170.935 8.46066 170.984L8.46066 170.984C8.52577 171 8.60742 171.017 8.63981 170.984L8.63981 170.984C8.77005 169.47 8.5585 167.89 9.68237 166.653L9.68237 166.653C9.21001 165.66 9.51974 164.862 9.69889 163.982L9.69889 163.982C9.79641 163.494 9.63378 162.908 9.78021 162.419L9.78021 162.419C9.82913 162.257 10.0245 162.143 10.0572 161.996L10.0572 161.996C10.1875 161.426 10.1551 161.28 10.4483 160.726L10.4483 160.726C10.6763 160.286 10.3666 159.716 10.3831 159.13L10.3831 159.13C10.3993 158.642 10.6925 158.121 10.8228 157.583L10.8228 157.583C10.8555 157.453 10.7087 157.242 10.7415 157.128L10.7415 157.128C11.0347 156.037 11.8167 155.011 11.9797 153.92L11.9797 153.92C12.0448 153.562 11.8491 153.22 12.2078 152.894L12.2078 152.894C12.0121 152.113 12.5334 151.526 12.224 150.745L12.224 150.745C12.7291 150.012 12.8755 149.198 12.7129 148.286L12.7129 148.286C13.7716 147.439 14.2278 146.446 13.6414 145.144L13.6414 145.144C14.4069 143.808 13.9835 142.164 15.0912 140.926L15.0912 140.926C15.3358 139.884 15.2379 138.468 16.2967 137.865L16.2967 137.865C16.4758 136.66 16.9647 135.504 17.5838 134.397L17.5838 134.397C17.4209 134.137 17.1439 133.844 17.1928 133.632L17.1928 133.632C17.5022 133.453 17.7792 133.257 17.9098 133.029L17.9098 133.029C18.1378 131.434 19.4085 130.115 19.4736 128.487L19.4736 128.487C19.6366 128.389 19.783 128.291 19.946 128.193L19.946 128.193C20.4348 125.621 22.2433 123.439 22.797 120.899L22.797 120.899C23.0902 120.736 23.302 120.557 23.4323 120.345L23.4323 120.345C24.3611 116.665 27.6355 113.604 28.5641 109.924L28.5641 109.924C28.89 109.729 28.9389 109.452 29.3623 109.273L29.3623 109.273C30.2747 108.247 30.7963 107.108 31.0243 105.903L31.0243 105.903C31.7248 105.447 31.7737 104.828 32.4741 104.567L32.4741 104.567C33.4678 103.053 34.0218 101.441 35.3575 100.025L35.3575 100.025C35.8791 98.8686 36.6774 97.7939 37.8013 96.7846L37.8013 96.7846C37.8829 96.3773 38.1599 96.0353 38.2575 95.6121L38.2575 95.6121C40.131 93.9513 41.9556 92.0137 42.7215 89.9132L42.7215 89.9132C42.819 89.8481 42.9331 89.8481 43.0309 89.8481L43.0309 89.8481C43.1612 89.8481 43.2917 89.8481 43.4544 89.6853L43.4544 89.6853C44.0084 88.5617 45.0674 88.0569 45.5398 86.8031L45.5398 86.8031C47.055 86.3961 47.9508 84.6864 48.9937 83.7746L48.9937 83.7746C49.1402 82.4885 50.2154 82.0649 51.3069 81.3811L51.3069 81.3811C52.2354 80.8112 52.8222 79.6879 53.8158 79.4761L53.8158 79.4761C53.9626 78.1897 55.1192 77.8804 56.1128 77.229L56.1128 77.229C56.4387 77.0175 56.5527 76.6105 56.8625 76.3498L56.8625 76.3498C58.5242 74.9332 60.8863 74.0052 61.9453 72.2466L61.9453 72.2466C62.1896 72.0187 62.385 72.1003 62.6131 72.0676L62.6131 72.0676C63.8024 70.5208 66.0019 69.9347 66.181 68.0783L66.181 68.0783C66.3929 67.9806 66.5721 68.0294 66.7512 68.0945L66.7512 68.0945C66.8977 68.1596 67.0606 68.2085 67.2398 68.1434L67.2398 68.1434C68.6899 66.9224 70.2048 66.1734 71.6873 65.473L71.6873 65.473C72.4532 64.3822 73.5285 63.2586 74.848 62.5096L74.848 62.5096C75.0761 62.2982 75.0923 62.0048 75.2391 61.7445L75.2391 61.7445C75.402 61.6629 75.5323 61.7607 75.6787 61.8584L75.6787 61.8584C75.7928 61.9235 75.9068 62.0048 76.0536 61.9886L76.0536 61.9886C77.2102 60.7025 79.0348 60.458 80.4522 59.7252L80.4522 59.7252C80.9573 59.4487 81.2181 59.3347 81.7394 59.1392L81.7394 59.1392C82.6679 58.781 83.4824 57.9505 84.4109 57.6413L84.4109 57.6413C84.5738 57.5762 84.7857 57.6086 84.9976 57.6413L84.9976 57.6413C85.1768 57.6736 85.3721 57.7063 85.5351 57.6574L85.5351 57.6574C86.5614 57.3806 87.3759 56.2408 88.5001 56.5993L88.5001 56.5993C89.5592 56.1434 90.3737 55.329 91.4 54.9382L91.4 54.9382C91.5792 54.8731 91.8238 54.8731 92.0515 54.8896L92.0515 54.8896C92.117 54.8896 92.1983 54.8896 92.2634 54.8896L92.2634 54.8896C92.4426 54.8896 92.6221 54.8731 92.7685 54.808M348.527 269.461C348.95 269.216 349.113 269.998 348.869 270.145L348.869 270.145C348.592 270.145 348.576 269.64 348.527 269.461M190.745 351.769C190.94 351.671 191.038 351.883 191.136 352.095L191.136 352.095C191.071 352.111 191.022 352.127 190.989 352.127L190.989 352.127C190.826 352.127 190.794 351.948 190.745 351.769M345.562 273.401C345.66 273.564 345.79 273.45 345.953 273.32L345.953 273.32C346.083 273.222 346.246 273.108 346.409 273.173L346.409 273.173C346.295 273.808 346.751 274.15 347.028 274.655L347.028 274.655C347.126 274.427 347.207 274.183 347.272 273.955L347.272 273.955C347.093 273.597 346.93 273.255 346.979 272.88L346.979 272.88C346.832 272.734 346.735 272.815 346.621 272.88L346.621 272.88C346.523 272.945 346.409 273.027 346.262 272.913L346.262 272.913C345.985 272.457 346.246 271.968 345.839 271.659L345.839 271.659C345.106 272.18 345.741 272.75 345.546 273.385M348.12 273.01C348.12 273.01 348.12 273.01 348.136 272.994L348.136 272.994C348.169 272.734 348.25 272.49 348.364 272.245L348.364 272.245C348.169 272.392 348.038 272.734 348.12 273.01M346.311 274.687C346.197 274.997 346.327 275.274 346.555 275.485L346.555 275.485C346.621 275.355 346.702 275.225 346.767 275.078L346.767 275.078C346.621 274.915 346.507 274.687 346.311 274.687L346.311 274.687C346.311 274.687 346.311 274.687 346.295 274.687M341.554 278.384C341.359 278.547 341.13 278.709 340.805 278.644L340.805 278.644C340.609 278.888 340.577 279.214 340.642 279.572L340.642 279.572C340.283 279.735 339.925 279.702 339.86 280.077L339.86 280.077C340.283 280.451 340.837 280.403 341.163 280.989L341.163 280.989C341.179 281.917 339.534 282.324 339.339 283.203L339.339 283.203C339.616 283.496 340.104 283.138 340.463 283.138L340.463 283.138C340.593 283.545 341.359 284.001 340.723 284.278L340.723 284.278C340.788 284.311 340.853 284.327 340.935 284.343L340.935 284.343C341.098 284.099 341.261 283.855 341.44 283.61L341.44 283.61C340.788 283.366 340.674 282.422 341.016 281.933L341.016 281.933C341.407 281.852 341.75 281.966 341.945 282.519L341.945 282.519C341.75 282.617 341.554 282.715 341.359 282.813L341.359 282.813C341.456 283.041 341.587 283.106 341.75 283.155L341.75 283.155C342.092 282.65 342.434 282.145 342.776 281.64L342.776 281.64C342.548 281.331 342.32 280.989 342.027 280.565L342.027 280.565C341.929 280.175 342.515 279.996 342.222 279.507L342.222 279.507C342.108 279.279 341.994 279.409 341.864 279.523L341.864 279.523C341.75 279.654 341.619 279.768 341.505 279.556L341.505 279.556C341.228 278.758 342.548 279.116 342.043 278.123L342.043 278.123C342.027 278.107 341.994 278.107 341.961 278.107L341.961 278.107C341.847 278.107 341.717 278.253 341.554 278.384M353.528 284.75C353.805 284.294 354.066 283.822 354.343 283.366L354.343 283.366C353.985 283.806 353.74 284.278 353.528 284.75M352.029 287.046C351.899 287.127 351.915 287.258 351.932 287.372L351.932 287.372C352.062 287.176 352.176 286.981 352.306 286.769L352.306 286.769C352.225 286.85 352.143 286.948 352.046 287.03M341.505 302.987C341.636 302.938 341.733 303.019 341.88 302.889L341.88 302.889C341.847 302.824 341.798 302.726 341.75 302.628L341.75 302.628C341.538 302.693 341.44 302.807 341.505 302.987" fill="#3297D4" fill-rule="evenodd"/><path d="M245 105.079 245 137 282 137 282 103.551 263.826 99 245 105.079Z" fill="#F7931E" fill-rule="evenodd"/><path d="M243.1 110C243.479 108.994 245.163 107.574 247.772 106.233 251.602 104.253 257.413 102.434 263.934 102.354 274.88 102.195 283.911 106.935 284.901 109.393L285 109.393 285 109.378C284.901 103.663 276.415 93.3352 265.684 93L260.484 93.1755C250.496 94.1653 242.918 104.541 243.001 109.984L243.001 110 243.1 110Z" fill="#164C6C" fill-rule="evenodd"/><path d="M256.345 122.197C246.247 122.92 237.042 127.108 237.042 127.108L237.042 127.108 237.042 135.943C237.042 135.943 236.994 138.176 241.319 139.638L241.319 139.638 241.531 148.605C229.789 150.165 221.951 152.809 222 155.683L222 155.683C222 156.406 225.659 161.628 225.659 161.628L225.659 161.628C225.659 161.628 226.927 163.205 228.456 163.435L228.456 163.435C229.985 163.665 232.652 164.995 234.375 166.424L234.375 166.424C236.116 167.852 237.547 170.562 237.579 172.484L237.579 172.484C237.612 174.389 239.531 175.932 241.84 175.883L241.84 175.883 247.352 175.801C240.75 179.595 238.652 183.618 236.701 186.41L236.701 186.41C234.684 189.268 232.993 214 232.993 214L232.993 214C232.993 214 233.92 211.504 237.677 205.608L237.677 205.608C241.433 199.729 256.313 191.633 267.517 185.49L267.517 185.49C276.916 180.333 285.437 175.21 285.437 175.21L285.437 175.21C287.616 173.929 289.584 172.861 289.584 170.973L289.584 170.973C289.584 168.674 290.544 165.915 291.779 164.847L291.779 164.847C293.015 163.747 295.276 162.663 296.805 162.383L296.805 162.383C298.317 162.121 299.536 160.495 299.536 160.495L299.536 160.495C299.536 160.495 303.016 155.158 303 154.435L303 154.435C302.968 151.692 295.78 149.393 284.917 148.145L284.917 148.145 284.706 139.26C287.86 138.291 289.73 137.158 289.698 135.943L289.698 135.943 289.698 127.108C289.698 127.108 281.453 122.493 270.46 122L270.46 122C266.525 122 260.167 122 256.361 122.197" fill="#2B98D8" fill-rule="evenodd"/><path d="M268.017 208.775C243.447 220.504 231.375 226.417 229.627 239.02L229.627 239.02C227.879 251.624 226 264 226 264L226 264C227.519 254.928 245.342 244.253 263.181 235.651L263.181 235.651C281.02 227.065 293.795 221.476 292.962 212.145L292.962 212.145C292.227 203.818 290.446 192.349 290.07 190L290.07 190C290.201 191.75 289.139 198.716 268.033 208.792" fill="#2B98D8" fill-rule="evenodd"/><path d="M264.268 264.37C231.349 279.669 223.192 283.881 222.237 293.273L222.237 293.273C221.412 301.359 219.518 318.401 219 323L219 323C219.631 320.499 223.03 314.059 240.493 304.602L240.493 304.602C263.313 292.224 299.874 281.944 298.984 269.001L298.984 269.001C298.11 256.058 295.65 239 295.65 239L295.65 239C295.65 239 297.172 249.07 264.252 264.386" fill="#2B98D8" fill-rule="evenodd"/><path d="M360.031 29.0887C231.975 141.072 241.552 116.877 330.713 103.19 241.552 116.877 227.072 95.2441 375 169.377 227.072 95.2441 253.002 96.9084 295.596 164.336 253.002 96.9084 269.063 76.4335 246.422 227 269.063 76.4335 275.513 101.656 226.681 149.8 275.529 101.656 299.912 110.629 152 122.326 299.928 110.629 277.972 124.562 219.205 79.6474 277.972 124.545 276.995 150.567 222.202 0 276.979 150.583 256.977 133.959 283.478 50.8523 256.977 133.959 231.958 141.072 360.031 29.0887" fill="#FFFFFF" fill-rule="evenodd" fill-opacity="0.501961"/></g></svg>