<svg width="378" height="378" xmlns="http://www.w3.org/2000/svg" xmlns:xlink="http://www.w3.org/1999/xlink" overflow="hidden"><defs><clipPath id="clip0"><rect x="0" y="0" width="378" height="378"/></clipPath></defs><g clip-path="url(#clip0)"><rect x="0" y="0" width="378" height="378" fill="#FFFFFF"/><path d="M269.001 272.001 239.323 244 109 244 138.681 272.001Z" fill="#14161A" fill-rule="evenodd"/><path d="M138.677 175 109 203 239.323 203 269 175Z" fill="#14161A" fill-rule="evenodd"/><path d="M269.001 134.001 239.329 106 109 106 138.672 134.001Z" fill="#14161A" fill-rule="evenodd"/><path d="M96 161.492 76.4618 142 4.02698 214.254C1.42795 216.847-0.00908752 220.316 0 224 0 227.684 1.42795 231.14 4.02698 233.737L76.4618 306.001 96 286.517 33.3349 224 96 161.492Z" fill="#14161A" fill-rule="evenodd"/><path d="M373.95 144.709 301.533 72 282 91.6054 344.643 154.505 282 217.399 301.533 237 373.95 164.319C376.559 161.692 378 158.202 378 154.495 377.987 150.789 376.554 147.317 373.95 144.709" fill="#14161A" fill-rule="evenodd"/></g></svg>