<?xml version="1.0" encoding="UTF-8" ?><svg width="1000pt" height="1000pt" viewBox="0 0 1000 1000" version="1.1" xmlns="http://www.w3.org/2000/svg"><g id="#20170121"><path fill="#201701" opacity="0.13" d=" M 106.96 93.79 C 104.15 93.03 108.51 90.01 108.73 92.72 C 108.29 92.99 107.41 93.52 106.96 93.79 Z" /><path fill="#201701" opacity="0.13" d=" M 95.83 672.05 C 107.63 671.85 119.43 672.04 131.22 671.71 C 139.42 727.72 147.68 783.74 155.45 839.81 C 228.65 825.83 301.68 810.94 374.89 796.94 C 376.25 803.91 377.72 810.86 378.82 817.88 C 293.95 832.31 208.96 846.09 123.99 859.95 C 114.39 797.35 104.85 734.73 95.83 672.05 Z" /><path fill="#201701" opacity="0.13" d=" M 521.05 768.20 C 534.58 765.42 548.14 762.73 561.72 760.16 C 562.95 768.56 565.81 776.63 566.98 785.04 C 567.43 787.26 564.47 787.52 562.98 787.94 C 551.02 789.90 539.03 791.74 527.09 793.81 C 524.63 785.38 522.88 776.78 521.05 768.20 Z" /></g><g id="#020092ff"><path fill="#020092" opacity="1.00" d=" M 106.96 93.79 C 107.41 93.52 108.29 92.99 108.73 92.72 C 336.34 137.82 564.13 182.21 791.76 227.19 C 817.05 336.43 842.81 445.56 868.11 554.80 C 868.62 557.35 869.19 559.88 869.87 562.39 C 878.00 595.95 885.78 629.60 893.49 663.25 C 834.46 674.50 775.55 686.43 716.55 697.87 C 715.74 696.15 714.88 694.44 714.33 692.63 C 706.05 658.24 698.55 623.65 689.93 589.34 C 726.01 585.53 762.08 581.64 798.16 577.87 C 802.63 599.61 808.04 621.15 812.43 642.90 C 831.94 640.28 851.28 636.51 870.74 633.57 C 857.58 577.56 843.81 521.71 831.20 465.56 C 811.07 465.46 790.94 465.84 770.80 465.98 C 776.45 492.17 782.87 518.20 788.09 544.48 C 759.90 546.24 731.75 548.79 703.57 550.70 C 697.63 523.64 691.95 496.52 686.24 469.42 C 685.88 468.36 685.65 466.48 684.07 466.80 C 676.97 466.51 669.85 466.89 662.75 467.02 C 656.82 443.44 651.75 419.64 645.92 396.03 C 702.40 398.45 758.87 401.46 815.37 403.38 C 811.57 385.34 807.31 367.38 802.84 349.49 C 794.05 349.00 785.31 347.90 776.52 347.53 C 772.46 331.59 768.99 315.50 765.53 299.43 C 774.51 300.25 783.40 301.81 792.39 302.49 C 788.94 284.70 784.17 267.20 780.48 249.46 C 706.88 236.49 633.33 223.26 559.66 210.77 C 569.11 259.65 579.47 308.34 589.07 357.19 C 564.12 353.65 539.45 347.94 514.69 343.15 C 505.33 295.17 495.94 247.21 486.83 199.18 C 377.19 179.64 267.44 160.57 157.70 141.55 C 164.44 186.45 171.33 231.33 177.95 276.25 C 162.60 274.65 147.62 270.60 132.39 268.14 C 132.34 267.86 132.25 267.29 132.20 267.01 C 123.70 209.29 115.52 151.50 106.96 93.79 Z" /><path fill="#020092" opacity="1.00" d=" M 283.57 200.46 C 330.37 207.33 377.13 214.50 423.87 221.86 C 425.83 233.08 428.13 244.23 429.97 255.47 C 421.61 254.67 413.30 253.47 404.95 252.59 C 408.92 275.94 413.79 299.15 417.42 322.56 C 378.33 315.91 339.58 307.18 300.55 300.13 L 299.94 300.03 C 294.61 266.82 288.66 233.70 283.57 200.46 Z" /><path fill="#020092" opacity="1.00" d=" M 639.80 254.69 C 669.80 258.62 699.63 263.89 729.58 268.25 C 731.57 279.41 734.82 290.30 736.55 301.51 C 708.29 298.65 680.19 294.41 651.99 291.05 C 650.07 290.67 646.84 290.96 646.71 288.28 C 644.49 277.06 641.65 265.97 639.80 254.69 Z" /><path fill="#020092" opacity="1.00" d=" M 137.19 299.86 C 152.41 301.91 167.55 304.72 182.61 307.71 C 186.47 330.64 189.44 353.71 193.25 376.64 C 203.45 376.73 213.62 377.76 223.83 377.87 C 226.98 406.33 232.57 434.48 237.00 462.75 C 263.64 464.66 290.30 466.42 316.95 468.23 C 319.82 468.43 322.60 469.25 325.38 469.95 C 285.26 470.57 245.13 470.59 205.02 471.18 C 205.92 478.53 207.16 485.84 208.18 493.17 C 193.63 492.45 179.09 491.81 164.54 491.13 C 155.30 427.40 145.80 363.69 137.19 299.86 Z" /><path fill="#020092" opacity="1.00" d=" M 305.04 329.95 C 330.62 334.17 356.13 338.88 381.68 343.22 C 384.12 343.39 385.82 345.03 385.94 347.49 C 359.64 346.62 333.48 343.77 307.21 342.59 C 306.33 338.41 305.67 334.18 305.04 329.95 Z" /><path fill="#020092" opacity="1.00" d=" M 655.68 329.67 C 685.52 332.13 715.28 335.70 745.12 338.10 C 748.01 351.15 751.01 364.17 753.82 377.24 C 724.03 375.46 694.28 373.46 664.50 371.51 C 661.43 357.59 658.50 343.64 655.68 329.67 Z" /><path fill="#020092" opacity="1.00" d=" M 519.38 367.56 C 527.41 366.68 535.18 369.59 543.07 370.60 C 559.90 373.13 576.52 377.27 593.48 378.82 C 594.60 383.72 595.66 388.63 596.53 393.59 C 608.25 394.98 620.07 394.35 631.81 395.53 C 633.51 406.66 636.94 417.43 639.00 428.50 C 631.56 429.00 624.36 426.58 616.95 426.62 C 619.52 440.27 622.86 453.78 626.02 467.31 C 620.79 467.36 615.57 467.44 610.35 467.40 C 613.42 482.02 616.67 496.61 619.33 511.32 C 598.90 509.83 578.43 509.70 558.00 508.33 C 552.09 508.49 546.07 508.39 540.49 506.20 C 550.71 505.25 560.99 505.52 571.23 504.88 C 570.23 499.37 569.21 493.87 568.17 488.37 C 580.84 489.18 593.53 489.71 606.17 490.84 C 604.86 480.25 602.24 469.83 599.38 459.56 C 575.21 457.58 551.12 454.48 526.93 452.96 C 528.02 458.05 529.15 463.13 530.14 468.24 C 510.17 468.25 490.21 468.62 470.24 468.63 C 465.10 441.88 458.41 415.35 454.62 388.39 C 474.39 388.90 494.12 390.24 513.89 390.82 C 515.50 400.12 517.93 409.26 519.54 418.56 C 543.68 422.11 567.95 424.84 592.16 428.00 C 591.09 419.01 588.76 410.23 586.52 401.49 C 565.61 398.13 544.54 395.64 523.76 391.54 C 522.82 383.45 520.78 375.56 519.38 367.56 Z" /><path fill="#020092" opacity="1.00" d=" M 324.73 424.74 C 350.47 424.78 376.21 425.51 401.94 426.00 C 404.12 440.54 407.23 454.95 410.30 469.33 C 384.61 469.57 358.91 469.64 333.23 469.96 C 329.62 455.06 326.39 440.00 324.73 424.74 Z" /></g><g id="#00bbfdff"><path fill="#00bbfd" opacity="1.00" d=" M 157.70 141.55 C 267.44 160.57 377.19 179.64 486.83 199.18 C 495.94 247.21 505.33 295.17 514.69 343.15 C 516.39 351.26 517.75 359.43 519.38 367.56 C 520.78 375.56 522.82 383.45 523.76 391.54 C 520.48 391.09 517.18 390.95 513.89 390.82 C 494.12 390.24 474.39 388.90 454.62 388.39 C 445.78 387.51 436.88 387.63 428.02 387.22 C 430.24 400.30 433.11 413.27 435.06 426.40 C 424.02 426.45 412.98 426.35 401.94 426.00 C 376.21 425.51 350.47 424.78 324.73 424.74 C 322.36 410.54 319.90 396.34 317.83 382.09 C 286.51 380.50 255.15 379.59 223.83 377.87 C 213.62 377.76 203.45 376.73 193.25 376.64 C 189.44 353.71 186.47 330.64 182.61 307.71 C 181.21 297.20 179.55 286.73 177.95 276.25 C 171.33 231.33 164.44 186.45 157.70 141.55 M 283.57 200.46 C 288.66 233.70 294.61 266.82 299.94 300.03 L 300.55 300.13 C 301.22 310.16 303.60 320.01 305.04 329.95 C 305.67 334.18 306.33 338.41 307.21 342.59 C 333.48 343.77 359.64 346.62 385.94 347.49 C 397.99 349.47 410.34 348.78 422.47 350.29 C 421.27 340.97 419.38 331.74 417.42 322.56 C 413.79 299.15 408.92 275.94 404.95 252.59 C 413.30 253.47 421.61 254.67 429.97 255.47 C 428.13 244.23 425.83 233.08 423.87 221.86 C 377.13 214.50 330.37 207.33 283.57 200.46 Z" /></g><g id="#037efeff"><path fill="#037efe" opacity="1.00" d=" M 559.66 210.77 C 633.33 223.26 706.88 236.49 780.48 249.46 C 784.17 267.20 788.94 284.70 792.39 302.49 C 783.40 301.81 774.51 300.25 765.53 299.43 C 768.99 315.50 772.46 331.59 776.52 347.53 C 785.31 347.90 794.05 349.00 802.84 349.49 C 807.31 367.38 811.57 385.34 815.37 403.38 C 758.87 401.46 702.40 398.45 645.92 396.03 C 641.22 395.75 636.51 395.69 631.81 395.53 C 620.07 394.35 608.25 394.98 596.53 393.59 C 595.66 388.63 594.60 383.72 593.48 378.82 C 591.96 371.62 590.82 364.34 589.07 357.19 C 579.47 308.34 569.11 259.65 559.66 210.77 M 639.80 254.69 C 641.65 265.97 644.49 277.06 646.71 288.28 C 646.84 290.96 650.07 290.67 651.99 291.05 C 680.19 294.41 708.29 298.65 736.55 301.51 C 734.82 290.30 731.57 279.41 729.58 268.25 C 699.63 263.89 669.80 258.62 639.80 254.69 M 655.68 329.67 C 658.50 343.64 661.43 357.59 664.50 371.51 C 694.28 373.46 724.03 375.46 753.82 377.24 C 751.01 364.17 748.01 351.15 745.12 338.10 C 715.28 335.70 685.52 332.13 655.68 329.67 Z" /></g><g id="#07063664"><path fill="#070636" opacity="0.39" d=" M 71.29 255.81 C 91.75 258.62 111.74 264.36 132.20 267.01 C 132.25 267.29 132.34 267.86 132.39 268.14 C 133.72 278.69 135.54 289.18 136.45 299.79 C 128.64 299.02 120.99 297.19 113.23 296.07 C 123.23 360.99 133.01 425.96 142.23 491.00 C 149.72 492.31 158.20 489.46 164.97 493.55 C 168.25 518.72 172.05 543.84 175.69 568.97 C 167.85 569.55 159.99 569.07 152.15 569.36 C 158.55 607.12 163.99 645.06 169.26 683.00 C 174.39 718.40 180.23 753.69 185.06 789.13 C 192.48 788.35 199.88 787.27 207.13 785.49 C 207.66 789.50 208.15 793.52 208.66 797.55 C 357.65 768.80 506.40 738.72 655.43 710.15 C 659.89 711.72 664.56 710.47 669.06 709.73 C 680.61 707.76 692.18 705.88 703.74 703.95 C 703.73 703.08 703.71 701.32 703.70 700.44 C 707.91 699.66 712.09 698.66 716.31 697.92 C 718.13 708.23 721.58 718.20 722.99 728.60 C 672.87 738.14 622.82 748.08 572.78 758.02 C 569.11 758.83 565.42 759.54 561.72 760.16 C 548.14 762.73 534.58 765.42 521.05 768.20 C 472.34 777.86 423.61 787.37 374.89 796.94 C 301.68 810.94 228.65 825.83 155.45 839.81 C 147.68 783.74 139.42 727.72 131.22 671.71 C 118.83 586.83 106.51 501.94 94.36 417.01 C 87.05 363.24 78.74 309.58 71.29 255.81 Z" /><path fill="#070636" opacity="0.39" d=" M 868.11 554.80 C 869.53 557.08 869.90 559.74 869.87 562.39 C 869.19 559.88 868.62 557.35 868.11 554.80 Z" /></g><g id="#030173ff"><path fill="#030173" opacity="1.00" d=" M 132.39 268.14 C 147.62 270.60 162.60 274.65 177.95 276.25 C 179.55 286.73 181.21 297.20 182.61 307.71 C 167.55 304.72 152.41 301.91 137.19 299.86 L 136.45 299.79 C 135.54 289.18 133.72 278.69 132.39 268.14 Z" /><path fill="#030173" opacity="1.00" d=" M 300.55 300.13 C 339.58 307.18 378.33 315.91 417.42 322.56 C 419.38 331.74 421.27 340.97 422.47 350.29 C 410.34 348.78 397.99 349.47 385.94 347.49 C 385.82 345.03 384.12 343.39 381.68 343.22 C 356.13 338.88 330.62 334.17 305.04 329.95 C 303.60 320.01 301.22 310.16 300.55 300.13 Z" /><path fill="#030173" opacity="1.00" d=" M 514.69 343.15 C 539.45 347.94 564.12 353.65 589.07 357.19 C 590.82 364.34 591.96 371.62 593.48 378.82 C 576.52 377.27 559.90 373.13 543.07 370.60 C 535.18 369.59 527.41 366.68 519.38 367.56 C 517.75 359.43 516.39 351.26 514.69 343.15 Z" /><path fill="#030173" opacity="1.00" d=" M 223.83 377.87 C 255.15 379.59 286.51 380.50 317.83 382.09 C 319.90 396.34 322.36 410.54 324.73 424.74 C 326.39 440.00 329.62 455.06 333.23 469.96 C 330.61 470.03 327.99 470.04 325.38 469.95 C 322.60 469.25 319.82 468.43 316.95 468.23 C 290.30 466.42 263.64 464.66 237.00 462.75 C 232.57 434.48 226.98 406.33 223.83 377.87 Z" /><path fill="#030173" opacity="1.00" d=" M 428.02 387.22 C 436.88 387.63 445.78 387.51 454.62 388.39 C 458.41 415.35 465.10 441.88 470.24 468.63 C 450.26 468.99 430.28 469.12 410.30 469.33 C 407.23 454.95 404.12 440.54 401.94 426.00 C 412.98 426.35 424.02 426.45 435.06 426.40 C 433.11 413.27 430.24 400.30 428.02 387.22 Z" /><path fill="#030173" opacity="1.00" d=" M 513.89 390.82 C 517.18 390.95 520.48 391.09 523.76 391.54 C 544.54 395.64 565.61 398.13 586.52 401.49 C 588.76 410.23 591.09 419.01 592.16 428.00 C 567.95 424.84 543.68 422.11 519.54 418.56 C 517.93 409.26 515.50 400.12 513.89 390.82 Z" /><path fill="#030173" opacity="1.00" d=" M 631.81 395.53 C 636.51 395.69 641.22 395.75 645.92 396.03 C 651.75 419.64 656.82 443.44 662.75 467.02 C 650.51 467.25 638.26 467.09 626.02 467.31 C 622.86 453.78 619.52 440.27 616.95 426.62 C 624.36 426.58 631.56 429.00 639.00 428.50 C 636.94 417.43 633.51 406.66 631.81 395.53 Z" /><path fill="#030173" opacity="1.00" d=" M 526.93 452.96 C 551.12 454.48 575.21 457.58 599.38 459.56 C 602.24 469.83 604.86 480.25 606.17 490.84 C 593.53 489.71 580.84 489.18 568.17 488.37 C 566.81 481.54 565.39 474.73 564.15 467.88 C 552.81 467.76 541.48 468.31 530.14 468.24 C 529.15 463.13 528.02 458.05 526.93 452.96 Z" /><path fill="#030173" opacity="1.00" d=" M 164.54 491.13 C 179.09 491.81 193.63 492.45 208.18 493.17 C 220.62 574.19 232.20 655.34 244.88 736.31 C 364.76 716.81 484.55 696.79 604.42 677.24 C 597.17 638.73 589.27 600.34 581.85 561.85 C 503.33 567.41 424.89 574.31 346.38 579.86 C 343.09 557.68 338.91 535.64 335.49 513.47 C 403.82 511.01 472.15 508.27 540.49 506.20 C 546.07 508.39 552.09 508.49 558.00 508.33 C 578.43 509.70 598.90 509.83 619.33 511.32 C 624.96 539.15 630.91 566.92 636.22 594.82 C 654.16 593.42 672.03 591.20 689.93 589.34 C 698.55 623.65 706.05 658.24 714.33 692.63 C 714.88 694.44 715.74 696.15 716.55 697.87 L 716.31 697.92 C 712.09 698.66 707.91 699.66 703.70 700.44 C 687.57 703.45 671.37 706.23 655.43 710.15 C 506.40 738.72 357.65 768.80 208.66 797.55 C 208.15 793.52 207.66 789.50 207.13 785.49 C 196.62 713.31 186.29 641.13 175.69 568.97 C 172.05 543.84 168.25 518.72 164.97 493.55 C 164.86 492.95 164.65 491.74 164.54 491.13 Z" /><path fill="#030173" opacity="1.00" d=" M 491.14 609.06 C 493.10 608.85 495.06 608.66 497.03 608.49 C 499.31 623.04 502.81 637.37 504.76 651.98 C 457.05 658.09 409.45 665.07 361.75 671.24 C 359.06 655.39 356.39 639.54 353.85 623.66 C 399.57 618.48 445.38 613.96 491.14 609.06 Z" /></g><g id="#013f595d"><path fill="#013f59" opacity="0.36" d=" M 113.23 296.07 C 120.99 297.19 128.64 299.02 136.45 299.79 L 137.19 299.86 C 145.80 363.69 155.30 427.40 164.54 491.13 C 164.65 491.74 164.86 492.95 164.97 493.55 C 158.20 489.46 149.72 492.31 142.23 491.00 C 133.01 425.96 123.23 360.99 113.23 296.07 Z" /></g><g id="#00031421"><path fill="#000314" opacity="0.13" d=" M 26.27 404.22 C 49.11 407.31 71.67 412.76 94.36 417.01 C 106.51 501.94 118.83 586.83 131.22 671.71 C 119.43 672.04 107.63 671.85 95.83 672.05 C 104.85 734.73 114.39 797.35 123.99 859.95 C 208.96 846.09 293.95 832.31 378.82 817.88 C 377.72 810.86 376.25 803.91 374.89 796.94 C 423.61 787.37 472.34 777.86 521.05 768.20 C 522.88 776.78 524.63 785.38 527.09 793.81 C 539.03 791.74 551.02 789.90 562.98 787.94 C 564.47 787.52 567.43 787.26 566.98 785.04 C 565.81 776.63 562.95 768.56 561.72 760.16 C 565.42 759.54 569.11 758.83 572.78 758.02 C 575.64 774.80 580.61 791.17 583.86 807.90 C 576.28 809.90 568.52 811.06 560.86 812.70 C 413.96 841.53 267.05 870.38 120.15 899.24 C 112.85 900.50 105.69 902.60 98.27 903.07 C 74.21 736.80 50.05 570.54 26.27 404.22 Z" /></g><g id="#f87d03ff"><path fill="#f87d03" opacity="1.00" d=" M 770.80 465.98 C 790.94 465.84 811.07 465.46 831.20 465.56 C 843.81 521.71 857.58 577.56 870.74 633.57 C 851.28 636.51 831.94 640.28 812.43 642.90 C 808.04 621.15 802.63 599.61 798.16 577.87 C 762.08 581.64 726.01 585.53 689.93 589.34 C 672.03 591.20 654.16 593.42 636.22 594.82 C 630.91 566.92 624.96 539.15 619.33 511.32 C 616.67 496.61 613.42 482.02 610.35 467.40 C 615.57 467.44 620.79 467.36 626.02 467.31 C 638.26 467.09 650.51 467.25 662.75 467.02 C 669.85 466.89 676.97 466.51 684.07 466.80 C 685.65 466.48 685.88 468.36 686.24 469.42 C 691.95 496.52 697.63 523.64 703.57 550.70 C 731.75 548.79 759.90 546.24 788.09 544.48 C 782.87 518.20 776.45 492.17 770.80 465.98 Z" /></g><g id="#febd04ff"><path fill="#febd04" opacity="1.00" d=" M 470.24 468.63 C 490.21 468.62 510.17 468.25 530.14 468.24 C 541.48 468.31 552.81 467.76 564.15 467.88 C 565.39 474.73 566.81 481.54 568.17 488.37 C 569.21 493.87 570.23 499.37 571.23 504.88 C 560.99 505.52 550.71 505.25 540.49 506.20 C 472.15 508.27 403.82 511.01 335.49 513.47 C 338.91 535.64 343.09 557.68 346.38 579.86 C 424.89 574.31 503.33 567.41 581.85 561.85 C 589.27 600.34 597.17 638.73 604.42 677.24 C 484.55 696.79 364.76 716.81 244.88 736.31 C 232.20 655.34 220.62 574.19 208.18 493.17 C 207.16 485.84 205.92 478.53 205.02 471.18 C 245.13 470.59 285.26 470.57 325.38 469.95 C 327.99 470.04 330.61 470.03 333.23 469.96 C 358.91 469.64 384.61 469.57 410.30 469.33 C 430.28 469.12 450.26 468.99 470.24 468.63 M 491.14 609.06 C 445.38 613.96 399.57 618.48 353.85 623.66 C 356.39 639.54 359.06 655.39 361.75 671.24 C 409.45 665.07 457.05 658.09 504.76 651.98 C 502.81 637.37 499.31 623.04 497.03 608.49 C 495.06 608.66 493.10 608.85 491.14 609.06 Z" /></g><g id="#5d470f6b"><path fill="#5d470f" opacity="0.42" d=" M 152.15 569.36 C 159.99 569.07 167.85 569.55 175.69 568.97 C 186.29 641.13 196.62 713.31 207.13 785.49 C 199.88 787.27 192.48 788.35 185.06 789.13 C 180.23 753.69 174.39 718.40 169.26 683.00 C 163.99 645.06 158.55 607.12 152.15 569.36 Z" /><path fill="#5d470f" opacity="0.42" d=" M 655.43 710.15 C 671.37 706.23 687.57 703.45 703.70 700.44 C 703.71 701.32 703.73 703.08 703.74 703.95 C 692.18 705.88 680.61 707.76 669.06 709.73 C 664.56 710.47 659.89 711.72 655.43 710.15 Z"/></g></svg>