<svg width="378" height="378" xmlns="http://www.w3.org/2000/svg" xmlns:xlink="http://www.w3.org/1999/xlink" overflow="hidden"><defs><clipPath id="clip0"><rect x="0" y="0" width="378" height="378"/></clipPath></defs><g clip-path="url(#clip0)"><rect x="0" y="0" width="378" height="378" fill="#FFFFFF"/><path d="M194.561 0.0357681C181.532-0.258965 168.071 1.26462 154.286 4.71063 90.5415 20.6406 19.1867 102.677 97.1011 197.269L143.606 253.589 156.734 269.617C165.546 280.097 179.964 279.91 190.555 271.175 201.201 262.395 204.227 247.997 195.451 237.338 195.44 237.323 191.729 232.831 190.111 230.882L190.333 230.882C186.972 226.838 186.243 226.159 182.768 221.978 165.937 201.727 146.721 178.346 146.721 178.346 112.891 137.271 127.986 86.524 173.867 57.6919 214.293 32.2876 288.479 41.3612 314.049 83.0691 297.944 35.5149 251.021 1.31304 194.561 0.0357681ZM203.906 99.32C197.895 99.1149 191.619 101.408 186.328 105.776 175.665 114.564 172.666 128.98 181.433 139.613 181.451 139.639 182.51 140.957 184.325 143.175 204.493 167.415 231.275 199.94 231.275 199.94 265.115 241.016 250.011 291.539 204.129 320.372 163.712 345.767 89.5179 336.676 63.947 294.994 83.7683 353.497 150.201 391.741 223.71 373.353 287.472 357.396 358.81 275.592 280.895 181.018L226.38 115.125 220.15 107.334C215.744 102.094 209.918 99.5251 203.906 99.32Z" fill="#007CC2" fill-rule="evenodd"/></g></svg>