<svg width="378" height="378" xmlns="http://www.w3.org/2000/svg" xmlns:xlink="http://www.w3.org/1999/xlink" overflow="hidden"><defs><clipPath id="clip0"><rect x="0" y="0" width="378" height="378"/></clipPath><clipPath id="clip1"><rect x="72" y="0" width="234" height="378"/></clipPath><clipPath id="clip2"><rect x="72" y="0" width="235" height="378"/></clipPath><linearGradient x1="371.607" y1="275.278" x2="660.12" y2="275.278" gradientUnits="userSpaceOnUse" spreadMethod="pad" id="fill3"><stop offset="0" stop-color="#444444"/><stop offset="1"/></linearGradient><linearGradient x1="371.607" y1="390.679" x2="660.12" y2="390.679" gradientUnits="userSpaceOnUse" spreadMethod="pad" id="fill4"><stop offset="0" stop-color="#444444"/><stop offset="1"/></linearGradient><linearGradient x1="371.607" y1="333.016" x2="660.12" y2="333.016" gradientUnits="userSpaceOnUse" spreadMethod="pad" id="fill5"><stop offset="0" stop-color="#A61214"/><stop offset="1" stop-color="#D82023"/></linearGradient><linearGradient x1="371.607" y1="448.352" x2="660.12" y2="448.352" gradientUnits="userSpaceOnUse" spreadMethod="pad" id="fill6"><stop offset="0" stop-color="#A61214"/><stop offset="1" stop-color="#D82023"/></linearGradient><linearGradient x1="371.607" y1="217.605" x2="660.12" y2="217.605" gradientUnits="userSpaceOnUse" spreadMethod="pad" id="fill7"><stop offset="0" stop-color="#A61214"/><stop offset="1" stop-color="#D82023"/></linearGradient></defs><g clip-path="url(#clip0)"><rect x="0" y="0" width="378" height="378" fill="#FFFFFF"/><g clip-path="url(#clip1)"><g clip-path="url(#clip2)"><path d="M371.59 289.751 371.59 260.904C371.59 256.041 476.501 247.898 544.852 232.057L544.852 232.057C577.871 239.712 602.366 249.157 602.366 260.904L602.366 260.904 602.366 289.751C602.366 301.491 577.871 310.945 544.852 318.598L544.852 318.598C476.501 302.754 371.59 294.609 371.59 289.751" fill="url(#fill3)" transform="matrix(1 0 0 -1.00135 -297.74 522.556)"/><path d="M371.59 405.139 371.59 376.291C371.59 371.428 476.501 363.285 544.852 347.444L544.852 347.444C577.871 355.097 602.366 364.544 602.366 376.291L602.366 376.291 602.366 405.139C602.366 416.879 577.871 426.332 544.852 433.985L544.852 433.985C476.501 418.142 371.59 409.996 371.59 405.139" fill="url(#fill4)" transform="matrix(1 0 0 -1.00135 -297.74 522.556)"/><path d="M371.59 347.444 371.59 260.904C371.59 268.116 602.366 282.539 602.366 318.598L602.366 318.598 602.366 405.139C602.366 369.08 371.59 354.657 371.59 347.444" fill="url(#fill5)" transform="matrix(1 0 0 -1.00135 -297.74 522.556)"/><path d="M371.59 462.833 371.59 376.292C371.59 383.504 602.366 397.928 602.366 433.986L602.366 433.986 602.366 520.526C602.366 484.467 371.59 470.044 371.59 462.833" fill="url(#fill6)" transform="matrix(1 0 0 -1.00135 -297.74 522.556)"/><path d="M371.59 232.057 371.59 145.516C371.59 152.727 602.366 167.152 602.366 203.209L602.366 203.209 602.366 289.75C602.366 253.692 371.59 239.268 371.59 232.057" fill="url(#fill7)" transform="matrix(1 0 0 -1.00135 -297.74 522.556)"/></g></g></g></svg>