<svg width="378" height="378" xmlns="http://www.w3.org/2000/svg" xmlns:xlink="http://www.w3.org/1999/xlink" overflow="hidden"><defs><clipPath id="clip0"><rect x="0" y="0" width="378" height="378"/></clipPath></defs><g clip-path="url(#clip0)"><rect x="0" y="0" width="378" height="378" fill="#FFFFFF"/><path d="M333.5 219.5 188.991 40.5001 45.5001 219.5 333.5 219.5Z" stroke="#F7DA42" stroke-width="10.8988" stroke-miterlimit="8" fill="none" fill-rule="evenodd"/><path d="M91.5001 80.5001 287.5 80.5001 189.862 242.5 91.5001 80.5001Z" stroke="#F7DA42" stroke-width="10.8988" stroke-miterlimit="8" fill="none" fill-rule="evenodd"/><path d="M91.5001 297.5 189.862 134.5 287.5 297.5 91.5001 297.5Z" stroke="#F7DA42" stroke-width="10.8988" stroke-miterlimit="8" fill="none" fill-rule="evenodd"/><path d="M45.5001 157.5 333.5 157.5 189.937 336.5 45.5001 157.5Z" stroke="#F7DA42" stroke-width="10.8988" stroke-miterlimit="8" fill="none" fill-rule="evenodd"/><path d="M347.5 189.5C347.5 276.761 276.761 347.5 189.5 347.5 102.239 347.5 31.5001 276.761 31.5001 189.5 31.5001 102.239 102.239 31.5001 189.5 31.5001 276.761 31.5001 347.5 102.239 347.5 189.5Z" stroke="#F7DA42" stroke-width="10.8988" stroke-miterlimit="8" fill="none" fill-rule="evenodd"/><path d="M370.5 189.5C370.5 289.464 289.464 370.5 189.5 370.5 89.5365 370.5 8.50005 289.464 8.50005 189.5 8.50005 89.5365 89.5365 8.50005 189.5 8.50005 289.464 8.50005 370.5 89.5365 370.5 189.5Z" stroke="#F7DA42" stroke-width="10.8988" stroke-miterlimit="8" fill="none" fill-rule="evenodd"/></g></svg>