<svg xmlns="http://www.w3.org/2000/svg" height="240.28" width="158.907" xml:space="preserve"><path style="fill:#f14729;fill-opacity:1;fill-rule:nonzero;stroke:none" d="m431.82 37.426 736.98-23.032-46.07 909.704 69.1 831.972-339.701-17.27-158.336 63.33L0 1764.71l34.547-820.46L0 0l431.82 37.426" transform="matrix(.13333 0 0 -.13333 0 240.28)"/><path style="fill:#1e5cb3;fill-opacity:1;fill-rule:nonzero;stroke:none" d="m667.98 694.012-62.703-17.102 34.2 82.653 34.203 230.855-42.75 8.547 51.3 71.245 63.911 240.19-112.364-23.58s59.25 108.48 122.121 179.12l-82.218 63.13s-264.883-116.68-193.633-495.73l-54.754 9.59 52.512-397.371-44.395-11.399s45.481-92.801 109.168-136.805c5.781-3.992-79.801 310.657 11.399 624.165l8.55-19.95s-72.675-334.172 0-604.215c0 0 3.348-6.41 39.684-2.136 0 0 65.769 123.976 65.769 198.793" transform="matrix(.13333 0 0 -.13333 0 240.28)"/><path style="fill:#fff;fill-opacity:1;fill-rule:nonzero;stroke:none" d="M200.926 409.457h12.871v26.84c5.676 0 11.129 0 16.586.871v-27.711h19.199v-5.016h-19.199v-66.769c0-3.93 0-9.82 8.289-9.82 5.676 0 8.73 3.925 12.223 8.074l3.488-2.403c-4.145-8.289-14.836-13.308-23.567-13.308-15.707 0-17.453 8.508-17.453 18.984v65.242h-12.437v5.016M392.23 350.109c-5.019-15.492-13.746-29.023-36.437-29.894-33.824 0-44.078 28.148-44.078 43.203 0 38.84 31.203 48.223 43.64 48.223 14.184 0 34.258-6.547 34.258-23.348 0-5.891-3.711-11.566-9.82-11.566-5.891 0-10.254 3.929-10.254 10.257 0 8.508 6.981 9.602 6.981 12 0 5.891-13.747 8.293-18.547 8.293-20.946 0-26.403-15.273-26.403-43.859 0-13.094 3.274-23.129 4.582-26.184 3.274-7.203 10.039-11.785 21.383-12.437 12.656-.656 24.879 9.601 30.113 25.312h4.582M452.613 323.051v5.019h16.805v140.301h-16.805v5.02h9.383c8.074 0 16.582.437 24.442 1.964V328.07h16.8v-5.019h-50.625M661.141 409.457h12.875v26.84c5.672 0 11.129 0 16.582.871v-27.711h19.203v-5.016h-19.203v-66.769c0-3.93 0-9.82 8.293-9.82 5.672 0 8.726 3.925 12.218 8.074l3.493-2.403c-4.149-8.289-14.84-13.308-23.567-13.308-15.711 0-17.457 8.508-17.457 18.984v65.242h-12.437v5.016M824.082 404.441v5.016h35.785v-5.016h-13.312l-30.11-26.183 41.457-50.188h9.164v-5.019h-41.457v5.019h10.911l-36.442 44.293 36.875 31.422v.656zm-52.586-81.39v5.019h11.344v140.301h-11.344v5.02h3.926c8.074 0 16.586.437 24.437 1.964V328.07h13.094v-5.019h-41.457M581.953 1149.75s-38.461-171.492-27.39-449.527c3.316-83.399 12.437-160.059 23.578-226.539l.058-.004c7.246-58.371 12.094-79.504 30.985-149.84l-1.102-45.363s-151.25 482.921-26.129 871.273M674.801 1298.44s34.015 16.94 82.777 23.11c0 0 53.305-97.7-77.879-264.51 0 0 78.262 174.69 59.805 229.42 0 0-20.641 12.83-64.703 11.98M658.68 1005.18s30.547-7.075 45.215 4.8c0 0-28.899-112.757-21.325-174.785 7.578-62.023-47.074-101.73-47.074-101.73s46.555 58.902 31.922 106.879c-10.148 33.254 1.203 118.367 14.004 145.39 0 0-11.953 1.676-22.742 19.446M628.477 708.086s50.48 6.043 55.785 31.543c0 0 6.176-152.52-63.957-215.371 0 0 53.511 83.472 45.117 169.824l-36.945 14.004" transform="matrix(.13333 0 0 -.13333 0 240.28)"/><path style="fill:#fff;fill-opacity:1;fill-rule:nonzero;stroke:none" d="M486.477 644.602s-16.278-18.231-65.125 21.984c0 0 15.562-102.508 112.242-149.434 0 0-66.535 50.129-84.461 104.278 0 0 23.512 6.922 37.344 23.172M470.895 683.48s-66.051 167.653-51.899 394.19c0 0 15.426-41.03 65-55.41 0 0-23.355-4.78-37.012-2.71 0 0-34.554-95.632 23.911-336.07M748.352 1462.5s-24.754 181.91-179.618-2.05c-123.308-146.49-108.613-270.85-101.046-340.24 1.933-17.75-22.942 185.31 112.156 318.94 135.097 133.63 165.617 31.11 168.508 23.35" transform="matrix(.13333 0 0 -.13333 0 240.28)"/><path style="fill:#fff200;fill-opacity:1;fill-rule:nonzero;stroke:none" d="M520.238 1617.66s-121.515 34.7-160.187-368.05c0 0-29.836 124.31 47.34 300.13 77.179 175.81 112.847 67.92 112.847 67.92M369.488 1647.1s-61.976-93.21-47.918-192.5c0 0-47.004 186.9 47.918 192.5M825.602 1385.71s73.289 27.04-31.653-245.76c0 0 54.321 79.73 88.508 204.96 21.945 80.38-56.855 40.8-56.855 40.8M944.133 1406.97s51.816-46.9 15.097-108.95c0 0 92.16 96.84-15.097 108.95M218.379 227.703c0-5.812-.461-10.41-6.606-10.41-6.312 0-6.605 4.766-6.605 10.41v21.531h2.926v-21.363c0-5.226.293-7.734 3.679-7.734 3.344 0 3.68 2.508 3.68 7.734v21.363h2.926v-21.531M258.227 249.234h-2.551v-20.988c0-1.379.211-2.801.293-4.18h-.125c-.293 1.086-.586 2.172-.961 3.258l-7.235 21.91h-2.55v-31.523h2.55v19.148c0 2.047-.207 4.055-.335 6.106h.167c.379-1.34.629-2.762 1.086-4.059l7.11-21.195h2.551v31.523M288.035 217.711h-2.926v31.523h2.926v-31.523M321.754 217.711h-2.59l-6.355 31.523h3.011l4.137-22.953c.168-.797.336-2.843.504-4.265h.168c.125 1.422.289 3.511.418 4.265l4.094 22.953h2.968l-6.355-31.523M362.852 246.559h-6.981v-11.121h6.774v-2.676h-6.774v-12.375h6.981v-2.676h-9.911v31.523h9.911v-2.675M388.891 217.711v31.523h3.136c4.391 0 8.614-.336 8.614-8.027 0-4.016-.879-7.945-5.938-8.109l6.985-15.387h-3.094l-6.692 15.426h-.082v-15.426zm2.929 17.809h1.043c4.098 0 4.766 1.421 4.766 5.562 0 4.973-1.504 5.477-5.227 5.477h-.582V235.52M437.594 244.258c-1.254 1.422-2.633 2.551-4.641 2.551-2.926 0-4.555-2.426-4.555-5.102 0-3.68 2.676-5.391 5.391-7.23 2.676-1.883 5.352-3.891 5.352-8.239 0-4.597-2.969-8.945-7.903-8.945-1.754 0-3.55.5-4.972 1.59v3.801c1.336-1.418 3.093-2.547 5.097-2.547 3.094 0 4.809 2.715 4.77 5.558.039 3.68-2.676 5.309-5.352 7.192-2.676 1.84-5.394 3.886-5.394 8.402 0 4.223 2.593 8.363 7.234 8.363 1.879 0 3.469-.629 4.973-1.672v-3.722M477.48 217.711h-3.136l-1.172 6.48h-6.688l-1.129-6.48h-3.136l6.187 31.523h2.762zm-4.765 9.031-2.09 12.082c-.379 2.133-.547 4.305-.797 6.438h-.168c-.293-2.133-.5-4.305-.836-6.438l-1.84-12.082h5.731M504.738 220.387h6.856v-2.676h-9.781v31.523h2.925v-28.847M577.367 244.258c-1.254 1.422-2.633 2.551-4.64 2.551-2.926 0-4.555-2.426-4.555-5.102 0-3.68 2.676-5.391 5.391-7.23 2.675-1.883 5.351-3.891 5.351-8.239 0-4.597-2.969-8.945-7.902-8.945-1.754 0-3.551.5-4.973 1.59v3.801c1.336-1.418 3.094-2.547 5.102-2.547 3.093 0 4.804 2.715 4.765 5.558.039 3.68-2.676 5.309-5.351 7.192-2.676 1.84-5.395 3.886-5.395 8.402 0 4.223 2.594 8.363 7.235 8.363 1.878 0 3.468-.629 4.972-1.672v-3.722M616.082 221.555c-1.129-.793-2.469-1.418-3.887-1.418-5.605 0-5.605 9.738-5.605 13.418 0 5.855.711 13.254 5.812 13.254 1.465 0 2.508-.586 3.68-1.379v3.218c-.961.711-2.551 1.004-3.723 1.004-8.609 0-8.777-12.207-8.777-17.308 0-5.395 1.086-15.051 8.484-15.051 1.383 0 2.93.543 4.016 1.297v2.965M641.668 217.711v31.523h3.133c4.39 0 8.613-.336 8.613-8.027 0-4.016-.879-7.945-5.937-8.109l6.984-15.387h-3.094l-6.691 15.426h-.082v-15.426zm2.926 17.809h1.047c4.093 0 4.765 1.421 4.765 5.562 0 4.973-1.508 5.477-5.226 5.477h-.586V235.52M682.344 217.711h-2.926v31.523h2.926v-31.523M709.164 217.711v31.523h3.262c4.515 0 8.531-.418 8.531-8.195 0-6.105-2.133-8.234-8.113-8.234h-.754v-15.094zm2.926 17.769h1.129c4.097 0 4.601 1.504 4.726 5.559 0 4.348-1.172 5.52-5.269 5.52h-.586V235.48M756.152 249.234h-12.375v-2.675h4.727v-28.848h2.926v28.848h4.722v2.675M783.691 217.711h-2.925v31.523h2.925v-31.523M823.641 217.711h-2.551l-7.106 21.195c-.461 1.297-.711 2.719-1.086 4.059h-.168c.125-2.051.333-4.059.333-6.106v-19.148h-2.547v31.523h2.547l7.234-21.91c.375-1.086.668-2.172.961-3.258h.125c-.082 1.379-.293 2.801-.293 4.18v20.988h2.551v-31.523M856.461 234.352h7.191v-5.813c0-4.976-.25-11.246-6.773-11.246-6.649 0-7.274 6.98-7.274 16.934 0 7.441.875 15.425 7.567 15.425 3.762 0 5.644-2.507 6.437-5.937l-2.882-1.129c-.336 1.883-1.129 4.223-3.43 4.223-4.348-.043-4.684-6.774-4.684-12.332 0-11.664 1.465-14.34 4.516-14.34 3.305 0 3.598 2.422 3.598 9.152v2.387h-4.266v2.676" transform="matrix(.13333 0 0 -.13333 0 240.28)"/></svg>