<?xml version="1.0" encoding="UTF-8"?>
<svg width="198px" height="198px" viewBox="0 0 198 198" version="1.1" xmlns="http://www.w3.org/2000/svg" xmlns:xlink="http://www.w3.org/1999/xlink">
    <!-- Generator: Sketch 41.2 (35397) - http://www.bohemiancoding.com/sketch -->
    <title>wolframLanguage</title>
    <desc>Created with Sketch.</desc>
    <defs></defs>
    <g id="Page-1" stroke="none" stroke-width="1" fill="none" fill-rule="evenodd">
        <g id="wolframLanguage">
            <circle id="backgroundCircle" fill="#000000" cx="99" cy="99" r="99"></circle>
            <g id="background" transform="translate(9.000000, 9.000000)" fill="#DD1100">
                <path d="M179.11958,90.00006 C179.13109,120.696346 163.336167,149.235584 137.31964,165.52676 C137.309043,165.537446 137.295227,165.544354 137.28032,165.54642 L106.716,127.459 L132.03567,130.24825 C132.03567,130.24825 144.1946,131.50542 146.9642,130.24825 C149.4982,129.24645 163.16956,109.99647 163.16956,109.99647 C163.16956,109.99647 123.92316,85.18753 110.50706,71.51606 C112.03926,48.47506 108.73927,17.83206 108.73927,18.08746 C98.85885,27.94821 97.60168,29.48046 87.72139,38.59461 C83.4196,24.66789 81.39633,19.85537 77.09466,5.92853 C64.16965,16.55538 54.3089,34.54819 47.21785,55.56607 C45.66611,57.275 44.17324,59.0821 42.7,61.00718 C41.73752,62.28389 40.77492,63.58039 39.85176,64.91609 C37.94634,67.6268167 36.11957,70.4750167 34.37145,73.46069 C33.13394,75.56249 31.91609,77.72328 30.73745,79.92327 C22.5071,95.38218 15.75,113.1 9.89642,129.05007 C9.85593465,128.988741 9.82296818,128.922768 9.79823,128.85357 C-6.20857907,95.8412407 -0.350221339,56.39285 24.559323,29.456881 C49.4688673,2.52091193 88.3396521,-6.3986155 122.500639,6.98266897 C156.661627,20.3639534 179.132456,53.3117559 179.11958,90.00006 L179.11958,90.00006 Z" id="Shape"></path>
            </g>
            <path d="M101.53394,67.33575 C101.53394,67.33575 100.02143,58.4768 98.99994,55.19635 C105.83576,48.59635 106.85706,47.5946 113.4375,41.26965 C113.94824,53.91965 113.69287,60.49994 112.92676,75.95886 C109.13574,72.14819 101.53394,67.33575 101.53394,67.33575 Z M71.91248,110.884 C71.91248,110.884 64.82142,106.58218 59.49817,105.83572 C61.0304,102.28042 65.07678,97.72323 66.09817,96.46609 C64.05538,97.21249 49.38223,103.79293 47.85,109.37142 C52.0047972,110.392467 56.0708554,111.745636 60.00894,113.41787 C54.7168353,119.441245 51.4407301,126.968715 50.63925,134.9465 C50.63925,134.9465 73.93576,131.39114 91.41788,133.66964 C91.7204736,133.848902 92.0681661,133.937536 92.41965,133.92501 L101.53397,134.18038 L130.48752,182.38393 L130.72324,182.7571 C130.68393,182.77681 130.66424,182.79647 130.64469,182.79647 C76.03745,202.53747 36.57505,166.1982 28.14829,153.48934 C28.1836535,153.380395 28.2099268,153.268706 28.22684,153.15542 C35.80893,121.09829 45.15897,82.73574 60.26432,71.40176 C68.1214,57.71069 70.4,37.45892 84.5625,26.83209 C88.11786,37.45892 93.6965,59.49817 97.4875,70.125 C114.20356,86.84113 139.52314,107.60364 156.47493,116.20709 C158.24281,117.22857 160.52132,124.31958 160.52132,124.31958 L153.68569,132.92316 L80.77138,125.57679 C79.14101,125.43928 77.51058,125.38038 75.88033,125.38038 C70.8139681,125.451458 65.7619512,125.937598 60.775,126.83392 C64.31073,117.975 71.91248,110.884 71.91248,110.884 Z M95.46424,101.51431 C99.51069,101.02322 103.81245,102.53573 108.62501,105.32504 C113.18214,104.04831 113.69288,103.79294 118.25007,102.53573 C112.41607,98.23397 106.09113,93.67678 97.48756,94.93398 C96.6640986,97.0787932 95.9880823,99.2773421 95.46423,101.51428 L95.46424,101.51431 Z" id="wolf" fill="#FFFFFF"></path>
        </g>
    </g>
</svg>