<svg width="1890" height="1889" xmlns="http://www.w3.org/2000/svg" xmlns:xlink="http://www.w3.org/1999/xlink" xml:space="preserve" overflow="hidden"><defs><clipPath id="clip0"><rect x="537" y="260" width="1890" height="1889"/></clipPath></defs><g clip-path="url(#clip0)" transform="translate(-537 -260)"><path d="M1837.93 1692.64 2321.69 1692.64 2295.23 1750.95C2203.18 1938.28 2065.31 2085.19 1889.28 2132.58L1837.93 2142.36ZM1215.16 1692.64 1755.41 1692.64 1755.41 2148.45 1747.9 2148.46C1698.4 2146.69 1646.56 2137.53 1592.51 2120.01 1474.73 2081.84 1474.17 2081.2 1363.34 2119.69 1319.07 2135.07 1276.22 2144.32 1234.88 2148.07L1215.16 2149ZM645.172 1692.64 1132.64 1692.64 1132.64 2145.61 1115.5 2143.4C920.397 2109.47 767.041 1948.24 667.385 1742.2ZM838.655 1235.32 892.63 1361.64 789.848 1361.64ZM1452.29 1198 1494.78 1199.15C1510.86 1199.15 1524.54 1200.3 1535.84 1202.6 1547.13 1204.89 1556.03 1208.15 1562.54 1212.36 1569.05 1216.95 1574.02 1222.98 1577.47 1230.44 1580.91 1237.91 1582.63 1247 1582.63 1257.72 1582.63 1267.67 1580.91 1276.38 1577.47 1283.84 1574.02 1291.3 1569.05 1297.33 1562.54 1301.92 1556.03 1306.13 1547.99 1309.39 1538.42 1311.69 1528.85 1313.98 1517.56 1315.13 1504.54 1315.13 1504.16 1315.13 1503.49 1315.13 1502.53 1315.13 1501.58 1315.13 1500.72 1314.94 1499.95 1314.56L1452.29 1314.56ZM1923.69 1148.63 1923.69 1196.28 1953.55 1197.43C1959.29 1197.43 1964.17 1198 1968.19 1199.15 1972.21 1200.3 1975.37 1201.83 1977.66 1203.75 1979.96 1205.66 1981.68 1208.34 1982.83 1211.78 1983.98 1215.23 1984.55 1219.06 1984.55 1223.27L1984.55 1458.67C1984.55 1463.64 1983.98 1467.85 1982.83 1471.3 1981.68 1474.74 1979.96 1477.42 1977.66 1479.34 1975.75 1481.25 1973.07 1482.68 1969.62 1483.64 1966.18 1484.6 1962.16 1485.08 1957.57 1485.08 1957.18 1485.08 1956.61 1485.08 1955.84 1485.08 1955.08 1485.08 1954.31 1484.89 1953.55 1484.5L1923.69 1484.5 1923.69 1531.58 2300.36 1531.58 2300.36 1363.36 2245.81 1364.51C2245.43 1380.97 2244.09 1396.28 2241.79 1410.44 2239.5 1424.6 2236.24 1437.42 2232.03 1448.91 2227.44 1460.39 2219.11 1469 2207.06 1474.74 2195 1480.48 2178.82 1482.97 2158.54 1482.21L2079.3 1482.21 2079.3 1224.41C2079.3 1219.44 2079.87 1215.23 2081.02 1211.78 2082.17 1208.34 2083.89 1205.66 2086.19 1203.75 2088.48 1201.83 2091.64 1200.3 2095.66 1199.15 2099.68 1198 2104.56 1197.05 2110.3 1196.28L2144.75 1196.28 2144.75 1148.63ZM1296.68 1148.63 1296.68 1196.28 1326.54 1197.43C1332.28 1197.43 1337.16 1198 1341.18 1199.15 1345.2 1200.3 1348.36 1201.83 1350.66 1203.75 1352.95 1205.66 1354.68 1208.34 1355.83 1211.78 1356.97 1215.23 1357.55 1219.06 1357.55 1223.27L1357.55 1458.67C1357.55 1463.64 1356.97 1467.85 1355.83 1471.3 1354.68 1474.74 1352.95 1477.42 1350.66 1479.34 1348.74 1481.25 1346.06 1482.68 1342.62 1483.64 1339.17 1484.6 1335.15 1485.08 1330.56 1485.08 1330.18 1485.08 1329.6 1485.08 1328.84 1485.08 1328.07 1485.08 1327.31 1484.89 1326.54 1484.5L1296.68 1484.5 1296.68 1531.58 1519.47 1531.58 1519.47 1483.93 1483.3 1485.08C1477.56 1485.08 1472.68 1484.6 1468.66 1483.64 1464.64 1482.68 1461.48 1481.25 1459.18 1479.34 1456.88 1477.42 1455.16 1474.65 1454.01 1471.01 1452.87 1467.37 1452.29 1462.88 1452.29 1457.52L1452.29 1363.93 1537.85 1365.08C1561.96 1365.08 1583.11 1362.88 1601.3 1358.48 1619.48 1354.08 1634.5 1347.47 1646.37 1338.67 1658.24 1329.87 1667.14 1318.77 1673.07 1305.37 1679 1291.97 1681.97 1276.47 1681.97 1258.86 1681.97 1240.87 1679.1 1225.18 1673.36 1211.78 1667.62 1198.39 1659.19 1187.1 1648.09 1177.91 1636.99 1168.72 1623.21 1161.74 1606.75 1156.95 1590.29 1152.17 1571.15 1149.39 1549.33 1148.63ZM814.539 1148.63 713.479 1400.68C712.714 1402.97 711.852 1405.27 710.895 1407.57 709.938 1409.86 708.886 1411.97 707.737 1413.88 707.354 1415.03 706.876 1416.18 706.302 1417.33 705.728 1418.48 705.249 1419.43 704.866 1420.2 704.101 1421.35 703.527 1422.4 703.144 1423.36 702.761 1424.31 702.187 1425.37 701.421 1426.51 701.038 1426.9 700.751 1427.28 700.56 1427.66 700.368 1428.04 700.273 1428.43 700.273 1428.81 700.273 1429.19 700.177 1429.48 699.985 1429.67 699.794 1429.86 699.698 1429.96 699.698 1429.96 699.316 1430.34 699.124 1430.63 699.124 1430.82 699.124 1431.01 699.124 1431.3 699.124 1431.68 698.742 1432.45 698.359 1433.21 697.976 1433.98 697.593 1434.74 697.21 1435.51 696.828 1436.27 696.445 1437.42 696.062 1438.38 695.679 1439.15 695.296 1439.91 694.913 1440.68 694.531 1441.44 693.765 1442.97 692.999 1444.6 692.234 1446.32 691.468 1448.04 690.703 1449.86 689.937 1451.78 686.492 1459.05 682.855 1464.98 679.027 1469.57 675.199 1474.17 671.18 1477.42 666.969 1479.34 663.141 1480.87 658.643 1482.01 653.475 1482.78 648.308 1483.55 642.661 1483.93 636.536 1483.93 636.153 1483.93 635.675 1483.93 635.101 1483.93 634.526 1483.93 634.048 1483.93 633.665 1483.93 633.283 1483.93 632.804 1483.93 632.23 1483.93 631.656 1483.93 631.177 1483.74 630.794 1483.35L630.794 1531.58 801.332 1531.58 801.332 1483.35 784.68 1484.5C778.173 1484.5 772.718 1484.31 768.316 1483.93 763.913 1483.55 760.755 1482.97 758.841 1482.21 756.544 1481.44 754.917 1480.01 753.961 1477.9 753.004 1475.79 752.525 1473.4 752.525 1470.72 752.525 1468.81 752.716 1466.7 753.099 1464.41 753.482 1462.11 753.865 1459.81 754.248 1457.52 755.013 1455.22 755.683 1452.92 756.257 1450.63 756.831 1448.33 757.693 1446.04 758.841 1443.74 758.841 1442.97 758.937 1442.4 759.128 1442.02 759.32 1441.63 759.607 1441.06 759.99 1440.29 759.99 1439.91 760.085 1439.43 760.277 1438.86 760.468 1438.28 760.755 1437.81 761.138 1437.42 761.521 1436.27 761.999 1435.13 762.573 1433.98 763.148 1432.83 763.626 1431.68 764.009 1430.53 764.775 1429 765.444 1427.47 766.019 1425.94 766.593 1424.41 767.071 1422.88 767.454 1421.35 767.837 1420.58 768.22 1419.82 768.603 1419.05 768.986 1418.28 769.368 1417.33 769.751 1416.18 769.751 1415.41 769.943 1414.65 770.325 1413.88 770.708 1413.12 771.091 1412.16 771.474 1411.01L914.45 1411.01 914.45 1412.16C915.215 1413.69 915.885 1415.13 916.459 1416.47 917.034 1417.81 917.704 1419.43 918.469 1421.35 919.235 1422.88 920 1424.5 920.766 1426.23 921.532 1427.95 922.297 1429.77 923.063 1431.68 923.445 1432.83 923.828 1433.79 924.211 1434.55 924.594 1435.32 924.977 1436.08 925.359 1436.85 925.742 1437.61 926.125 1438.38 926.508 1439.15 926.891 1439.91 927.274 1440.68 927.656 1441.44 928.422 1444.12 929.283 1446.7 930.24 1449.19 931.197 1451.68 932.058 1454.07 932.824 1456.37 933.59 1459.05 934.164 1461.44 934.547 1463.55 934.93 1465.65 935.121 1467.66 935.121 1469.57 935.121 1472.25 934.451 1474.55 933.111 1476.46 931.771 1478.38 929.762 1479.91 927.082 1481.06 924.785 1481.82 922.106 1482.49 919.043 1483.07 915.981 1483.64 912.344 1483.93 908.133 1483.93 907.751 1483.93 907.272 1483.93 906.698 1483.93 906.124 1483.93 905.645 1483.93 905.263 1483.93 904.497 1483.93 903.923 1483.93 903.54 1483.93 903.157 1483.93 902.583 1483.74 901.817 1483.35L881.72 1483.35 881.72 1531.58 1094.17 1531.58 1094.17 1484.5C1084.99 1484.5 1077.24 1483.93 1070.92 1482.78 1064.6 1481.63 1059.34 1479.72 1055.13 1477.04 1051.3 1474.74 1047.57 1471.49 1043.93 1467.28 1040.3 1463.07 1036.95 1458.09 1033.88 1452.35 1033.5 1451.58 1033.02 1450.72 1032.45 1449.77 1031.87 1448.81 1031.4 1447.76 1031.01 1446.61 1030.25 1445.46 1029.67 1444.31 1029.29 1443.16 1028.91 1442.02 1028.33 1440.87 1027.57 1439.72 1027.18 1438.57 1026.71 1437.42 1026.13 1436.27 1025.56 1435.13 1025.08 1433.79 1024.7 1432.26 1023.93 1431.11 1023.36 1429.86 1022.97 1428.52 1022.59 1427.18 1022.02 1425.56 1021.25 1423.64L901.817 1148.63ZM1837.93 1060.49 2421.29 1060.49 2425.53 1109.45C2432.63 1253.87 2413.84 1408.1 2371.72 1552.34L2353.13 1610.13 1837.93 1610.13ZM1215.16 1060.49 1755.41 1060.49 1755.41 1610.13 1215.16 1610.13ZM542.756 1060.49 1132.64 1060.49 1132.64 1610.13 612.93 1610.13 592.516 1546.88C545.235 1386.21 527.036 1215.34 542.245 1064.11ZM916.708 609.799C967.516 608.745 1023.78 617.015 1085.72 636.078L1132.64 652.215 1132.64 977.974 555.492 977.974 568.75 920.54C619.364 740.787 731.933 613.635 916.708 609.799ZM1755.41 543.037 1755.41 977.974 1215.16 977.974 1215.16 688.415 1234.75 697.807C1270.04 715.849 1306.78 736.864 1345.01 761.038 1474.85 667.935 1591.93 603.37 1696.79 562.911ZM1975.36 509.418C2215.57 519.258 2353.61 701.971 2404.42 942.111L2410.42 977.974 1837.93 977.974 1837.93 521.45 1845.01 519.748C1891.42 511.016 1934.84 507.758 1975.36 509.418Z" fill-rule="evenodd"/><path d="M298.734 418 24.7442 418C17.0772 418 10.7771 415.964 5.84419 411.893 0.164297 407.369-1.37575 401.262 1.22485 393.572 4.60031 383.619 103.851 252.429 298.977 0 327.708 251.976 340.157 383.619 336.323 394.929 331.108 410.31 318.579 418 298.734 418Z" fill-rule="evenodd" transform="matrix(1 0 0 -1 1023 678)"/></g></svg>